<svg height="512pt" viewBox="-35 0 512 512" width="512pt" xmlns="http://www.w3.org/2000/svg"><path d="m299.453125 134.933594s22.238281-41.574219 50.519531-64.125c23.429688-18.683594 51.554688-21.792969 69.714844 0 24.808594 29.773437 1.558594 57.195312-29.636719 72.144531-28.296875 13.554687-63.128906 16.03125-74.566406 16.03125zm0 0" fill="#e1eaa8"/><path d="m419.6875 70.808594c-.027344-.03125-.054688-.0625-.082031-.09375 1.488281 20.386718-17.117188 38.054687-39.996094 49.019531-28.292969 13.558594-63.125 16.03125-74.5625 16.03125l-3.285156-4.933594c-1.5 2.59375-2.308594 4.101563-2.308594 4.101563l16.03125 24.046875c11.4375 0 46.269531-2.472657 74.566406-16.03125 31.195313-14.945313 54.445313-42.367188 29.636719-72.140625zm0 0" fill="#d2df7c"/><path d="m163.1875 164.226562s-16.46875-46.796874-48.09375-76.554687c-26.910156-25.324219-66.707031-38.3125-96.1875.363281-27.945312 36.660156.429688 78.351563 32.0625 95.824219 34.917969 19.285156 75.554688 12.429687 88.171875 12.429687zm0 0" fill="#d2df7c"/><path d="m78.398438 167.828125c-31.632813-17.472656-60.007813-59.164063-32.0625-95.824219 2.027343-2.660156 4.105468-5.066406 6.222656-7.25-11.816406 2.582032-23.363282 9.78125-33.652344 23.28125-27.945312 36.660156.429688 78.351563 32.0625 95.824219 34.917969 19.285156 75.554688 12.429687 88.171875 12.429687l11.375-15.164062c-18.472656.925781-46.796875.6875-72.117187-13.296875zm0 0" fill="#c2d450"/><path d="m147.15625 288.0625s-88.933594-280.546875 80.15625-280.546875c167.328125 0 80.15625 280.546875 80.15625 280.546875zm0 0" fill="#c2d450"/><path d="m247.921875 9.105469c-6.402344-1.039063-13.253906-1.589844-20.609375-1.589844-169.089844 0-80.15625 280.546875-80.15625 280.546875h41.429688s-81.277344-256.414062 59.335937-278.957031zm0 0" fill="#b3c924"/><path d="m315.484375 504.484375h-176.34375l-24.046875-200.390625h224.4375zm0 0" fill="#e98f6d"/><path d="m181.257812 328.140625h155.390626l2.882812-24.046875h-224.4375l24.046875 200.390625h45.210937l-19.011718-158.402344c-1.144532-9.542969 6.308594-17.941406 15.917968-17.941406zm0 0" fill="#e37349"/><path d="m91.046875 256h272.53125v48.09375h-272.53125zm0 0" fill="#eeab92"/><path d="m91.046875 256h48.09375v48.09375h-48.09375zm0 0" fill="#e98f6d"/><path d="m442.441406 60.265625c-1.855468-3.714844-6.367187-5.21875-10.082031-3.363281l-10.453125 5.226562c-9.648438-9.605468-21.765625-14.429687-35.335938-14.007812-7.757812.246094-15.683593 2.203125-23.492187 5.753906v-6.28125c0-4.152344-3.363281-7.515625-7.515625-7.515625-4.148438 0-7.511719 3.363281-7.511719 7.515625v15.222656c-.925781.683594-1.847656 1.386719-2.765625 2.117188-5.035156 4.015625-10.167968 8.839844-15.335937 14.371094-4.59375-16.554688-11.515625-31.652344-21.507813-44.132813-2.695312-3.367187-5.578125-6.484375-8.628906-9.371094l12.972656-12.972656c2.933594-2.933594 2.933594-7.691406 0-10.625-2.9375-2.9375-7.695312-2.9375-10.628906 0l-14.179688 14.179687c-16.417968-10.882812-36.71875-16.382812-60.664062-16.382812-28.6875 0-52.164062 7.738281-70.046875 23.027344l-12.8125-12.808594c-2.933594-2.9375-7.691406-2.9375-10.625 0-2.933594 2.933594-2.933594 7.691406 0 10.625l12.867187 12.867188c-.550781.65625-1.09375 1.320312-1.628906 1.992187-10.851562 13.664063-18.042968 30.394531-22.527344 48.714844-.765624-.75-1.527343-1.496094-2.296874-2.21875-7.058594-6.644531-14.445313-12.082031-21.957032-16.246094l7.5-15c1.855469-3.710937.351563-8.226563-3.363281-10.082031-3.710937-1.855469-8.222656-.351563-10.082031 3.359375l-7.789063 15.585937c-8.824219-3-17.667969-4.21875-26.230469-3.511718-9.613281.792968-18.554687 3.929687-26.765624 9.34375l-7.335938-7.335938c-2.933594-2.9375-7.691406-2.9375-10.625 0-2.9375 2.933594-2.9375 7.691406 0 10.625l6.367188 6.371094c-2.425782 2.488281-4.773438 5.203125-7.03125 8.167968-11.253907 14.765626-15.273438 31.75-11.617188 49.109376 1.902344 9.046874 5.617188 17.363281 10.398438 24.816406l-7.542969 15.082031c-1.855469 3.710937-.351563 8.222656 3.363281 10.082031 3.664062 1.832032 8.25.296875 10.082031-3.363281l4.339844-8.679687c7.933594 8.519531 16.996094 15.28125 25.382813 19.914062 21.59375 11.929688 45.152343 14.535156 64.183593 14.535156 3.355469 0 6.554688-.085937 9.589844-.210937.722656 4.988281 1.5 9.871093 2.3125 14.625l-11.6875 5.84375c-3.710937 1.855469-5.21875 6.371093-3.359375 10.082031 1.828125 3.664062 6.414062 5.195312 10.082031 3.363281l7.808594-3.90625c.945313 4.769531 1.914063 9.347657 2.878906 13.714844h-38.097656c-4.148437 0-7.511719 3.367187-7.511719 7.515625v48.09375c0 4.148438 3.363282 7.515625 7.511719 7.515625h17.382813l23.25 193.773437c.457031 3.777344 3.660156 6.617188 7.460937 6.617188h176.347656c3.800781 0 7.007813-2.84375 7.460938-6.617188l23.25-193.773437h17.378906c4.152344 0 7.515625-3.367187 7.515625-7.515625v-48.09375c0-4.148438-3.363281-7.515625-7.515625-7.515625h-38.328125c2.542969-11.785156 5.105469-25.257813 7.234375-39.707031l11.703125 5.851562c3.667969 1.832032 8.25.300782 10.082031-3.363281 1.855469-3.710937.351563-8.226563-3.359375-10.082031l-16.03125-8.015625c-.101562-.046875-.207031-.085938-.308594-.132813 1.074219-9.136718 1.925782-18.53125 2.457032-28.03125 15.769531-1.902344 37.082031-6.082031 56.269531-15.277344 1.351563-.644531 2.675781-1.3125 3.976563-1.992187.300781.480469.652343.941406 1.070312 1.359375l8.015625 8.015625c2.894531 2.894531 7.734375 2.894531 10.628906 0 2.933594-2.933594 2.933594-7.691406 0-10.625l-6.6875-6.6875c14.296875-10.164063 23.65625-22.453125 26.429688-35.1875 1.621093-7.429687 1.671875-18.207031-5.445313-30.367187l7.796875-3.894532c3.710938-1.859375 5.214844-6.371094 3.359375-10.082031zm-387.839844 117.015625c-19.605468-10.828125-34.753906-29.585938-38.582031-47.789062-2.765625-13.140626.214844-25.558594 8.863281-36.902344 9.957032-13.0625 21.625-20.230469 34.671876-21.304688 15.878906-1.308594 34.234374 6.660156 50.390624 21.859375 3.054688 2.875 6.097657 6.0625 9.0625 9.476563-4.152343 28.195312-3.113281 58.800781.152344 87.179687-18.28125.652344-42.921875-.570312-64.558594-12.519531zm301.464844 119.296875h-47.59375c-4.152344 0-7.515625 3.367187-7.515625 7.515625s3.363281 7.515625 7.515625 7.515625h22.589844l-22.242188 185.359375h-163.011718l-22.242188-185.359375h147.832032c4.152343 0 7.515624-3.367187 7.515624-7.515625s-3.363281-7.515625-7.515624-7.515625h-172.835938v-33.0625h257.503906zm-211.519531-48.09375c-5.953125-26.269531-12.757813-64.21875-13.222656-101.9375-.558594-45.328125 8.023437-79.476563 25.511719-101.496094 15.820312-19.921875 39.53125-30.019531 70.476562-30.019531 30.355469 0 53.703125 9.9375 69.398438 29.535156 17.40625 21.742188 26.132812 55.507813 25.9375 100.359375-.167969 38.394531-6.953126 77.203125-12.78125 103.558594zm277.5-147.078125c-2.722656 12.503906-15.898437 25.5-35.246094 34.769531-16.941406 8.117188-36.296875 11.886719-49.210937 13.605469.304687-17.738281-.679688-35.527344-3.597656-52.34375 7.039062-8.445312 13.988281-15.429688 20.664062-20.75 17.027344-13.582031 40.964844-21.125 57.953125-2.546875.101563.289063.214844.578125.359375.859375.664062 1.335938 1.679688 2.382812 2.871094 3.089844 5.773437 7.855468 7.871094 15.6875 6.207031 23.316406zm0 0"/><path d="m399.003906 88.964844-16.03125-8.015625c-3.710937-1.855469-8.226562-.351563-10.082031 3.363281-1.855469 3.710938-.351563 8.222656 3.359375 10.078125l16.03125 8.015625c1.078125.542969 2.226562.796875 3.355469.796875 2.757812 0 5.410156-1.523437 6.726562-4.15625 1.855469-3.710937.351563-8.226563-3.359375-10.082031zm0 0"/><path d="m366.941406 104.996094c-3.710937-1.855469-8.226562-.351563-10.082031 3.363281l-8.015625 16.03125c-1.855469 3.710937-.351562 8.222656 3.359375 10.078125 1.078125.542969 2.226563.796875 3.355469.796875 2.757812 0 5.410156-1.523437 6.726562-4.15625l8.015625-16.03125c1.855469-3.710937.351563-8.226563-3.359375-10.082031zm0 0"/><path d="m54.328125 104.996094-16.03125-8.015625c-3.707031-1.855469-8.222656-.351563-10.078125 3.363281-1.859375 3.710938-.355469 8.222656 3.359375 10.078125l16.03125 8.015625c1.078125.542969 2.226563.796875 3.355469.796875 2.753906 0 5.410156-1.523437 6.726562-4.15625 1.855469-3.710937.351563-8.226563-3.363281-10.082031zm0 0"/><path d="m78.375 145.074219c-3.710938-1.855469-8.222656-.351563-10.078125 3.363281l-8.015625 16.03125c-1.859375 3.710938-.351562 8.222656 3.359375 10.082031 1.078125.539063 2.226563.792969 3.355469.792969 2.753906 0 5.410156-1.523438 6.726562-4.15625l8.015625-16.03125c1.855469-3.710938.351563-8.226562-3.363281-10.082031zm0 0"/><path d="m95.703125 104.996094-16.03125 8.015625c-3.710937 1.855469-5.21875 6.371093-3.359375 10.082031 1.316406 2.632812 3.96875 4.15625 6.726562 4.15625 1.128907 0 2.273438-.257812 3.351563-.796875l16.03125-8.015625c3.714844-1.855469 5.21875-6.367188 3.363281-10.078125-1.855468-3.714844-6.371094-5.21875-10.082031-3.363281zm0 0"/><path d="m246.046875 60.921875c1.46875 1.46875 3.390625 2.203125 5.3125 2.203125 1.925781 0 3.847656-.734375 5.316406-2.203125 2.933594-2.933594 2.933594-7.691406 0-10.625l-16.03125-16.03125c-2.9375-2.9375-7.695312-2.9375-10.628906 0-2.933594 2.933594-2.933594 7.691406 0 10.625zm0 0"/><path d="m190.597656 70.34375c3.710938-1.855469 5.214844-6.367188 3.359375-10.078125-1.855469-3.714844-6.371093-5.21875-10.082031-3.363281l-16.03125 8.015625c-3.710938 1.855469-5.21875 6.371093-3.359375 10.082031 1.316406 2.632812 3.96875 4.15625 6.726563 4.15625 1.128906 0 2.273437-.257812 3.355468-.796875zm0 0"/><path d="m256.675781 90.375c-2.9375-2.9375-7.695312-2.9375-10.628906 0l-8.015625 8.015625c-2.933594 2.933594-2.933594 7.691406 0 10.625 1.46875 1.46875 3.390625 2.203125 5.3125 2.203125 1.925781 0 3.847656-.734375 5.316406-2.203125l8.015625-8.015625c2.933594-2.933594 2.933594-7.691406 0-10.625zm0 0"/><path d="m288.078125 110.421875c1.078125.542969 2.226563.796875 3.355469.796875 2.753906 0 5.410156-1.523438 6.726562-4.15625l8.015625-16.03125c1.855469-3.710938.351563-8.226562-3.359375-10.082031-3.710937-1.855469-8.226562-.351563-10.082031 3.363281l-8.015625 16.03125c-1.859375 3.710938-.351562 8.222656 3.359375 10.078125zm0 0"/><path d="m161.894531 108.359375c-1.855469-3.714844-6.371093-5.21875-10.082031-3.363281-3.710938 1.855468-5.21875 6.371094-3.359375 10.082031l8.015625 16.03125c1.316406 2.632813 3.96875 4.15625 6.726562 4.15625 1.128907 0 2.273438-.257813 3.355469-.796875 3.710938-1.855469 5.214844-6.367188 3.359375-10.078125zm0 0"/><path d="m206.628906 137.058594c-3.710937-1.855469-8.226562-.351563-10.082031 3.363281l-8.015625 16.03125c-1.859375 3.710937-.351562 8.222656 3.359375 10.082031 1.078125.539063 2.226563.792969 3.355469.792969 2.753906 0 5.410156-1.523437 6.726562-4.15625l8.015625-16.03125c1.855469-3.710937.351563-8.226563-3.359375-10.082031zm0 0"/><path d="m166.550781 177.136719-16.03125-8.015625c-3.714843-1.855469-8.226562-.351563-10.082031 3.363281-1.859375 3.710937-.351562 8.222656 3.359375 10.082031l16.03125 8.015625c1.078125.539063 2.226563.792969 3.355469.792969 2.753906 0 5.410156-1.523438 6.726562-4.15625 1.855469-3.710938.351563-8.226562-3.359375-10.082031zm0 0"/><path d="m272.046875 145.074219-16.03125 8.015625c-3.710937 1.855468-5.21875 6.371094-3.359375 10.082031 1.316406 2.632813 3.96875 4.15625 6.726562 4.15625 1.128907 0 2.273438-.253906 3.355469-.792969l16.03125-8.015625c3.710938-1.859375 5.214844-6.371093 3.359375-10.082031-1.855468-3.714844-6.367187-5.21875-10.082031-3.363281zm0 0"/><path d="m230.675781 201.183594-16.03125-8.015625c-3.710937-1.855469-8.226562-.351563-10.082031 3.363281-1.859375 3.710938-.351562 8.226562 3.359375 10.082031l16.03125 8.015625c1.078125.539063 2.226563.792969 3.355469.792969 2.753906 0 5.410156-1.523437 6.726562-4.15625 1.855469-3.710937.351563-8.226563-3.359375-10.082031zm0 0"/><path d="m304.769531 210.609375-8.015625-8.015625c-2.9375-2.9375-7.695312-2.9375-10.628906 0-2.933594 2.933594-2.933594 7.691406 0 10.625l8.015625 8.015625c1.46875 1.46875 3.390625 2.203125 5.3125 2.203125 1.925781 0 3.847656-.734375 5.316406-2.203125 2.933594-2.933594 2.933594-7.691406 0-10.625zm0 0"/><path d="m185.941406 212.5625c-1.855468-3.714844-6.371094-5.21875-10.082031-3.363281s-5.21875 6.371093-3.359375 10.082031l8.015625 16.03125c1.316406 2.632812 3.96875 4.15625 6.726563 4.15625 1.128906 0 2.273437-.253906 3.355468-.792969 3.710938-1.855469 5.214844-6.371093 3.359375-10.082031zm0 0"/></svg>