<svg height="512pt" viewBox="0 0 512 512" width="512pt" xmlns="http://www.w3.org/2000/svg"><path d="m504.484375 504.484375h-40.078125l-16.03125-40.078125h-384.75l-16.03125 40.078125h-40.078125v-80.15625h496.96875zm0 0" fill="#a195a7"/><path d="m7.515625 424.328125h24.046875v80.15625h-24.046875zm0 0" fill="#827189"/><path d="m448.375 464.40625 16.03125 40.078125h24.046875l-16.03125-40.078125zm0 0" fill="#827189"/><path d="m464.40625 424.328125h-416.8125v-208.40625c0-17.707031 14.355469-32.0625 32.0625-32.0625h352.6875c17.707031 0 32.0625 14.355469 32.0625 32.0625zm0 0" fill="#a195a7"/><path d="m119.734375 183.859375h-40.078125c-17.707031 0-32.0625 14.355469-32.0625 32.0625v208.40625h40.078125v-208.40625c0-17.707031 14.355469-32.0625 32.0625-32.0625zm0 0" fill="#827189"/><path d="m496.46875 424.328125h-480.9375v-88.171875c0-17.707031 14.355469-32.0625 32.0625-32.0625h416.8125c17.707031 0 32.0625 14.355469 32.0625 32.0625zm0 0" fill="#b7e3ea"/><path d="m87.671875 304.09375h-40.078125c-17.707031 0-32.0625 14.355469-32.0625 32.0625v88.171875h40.078125v-88.171875c0-17.707031 14.355469-32.0625 32.0625-32.0625zm0 0" fill="#6fc7d4"/><path d="m223.9375 320.125-16.03125-8.015625c-13.511719 3.941406-32.777344 8.015625-56.109375 8.015625s-42.597656-4.074219-56.109375-8.015625c-5.34375 2.671875-10.6875 5.34375-16.03125 8.015625l8.015625-16.03125v-64.125l-8.015625-16.03125 16.03125 8.015625c13.511719-3.941406 32.777344-8.015625 56.109375-8.015625s42.597656 4.074219 56.109375 8.015625l16.03125-8.015625-8.015625 16.03125v64.125zm0 0" fill="#93d5df"/><path d="m215.921875 300.039062c-11.308594 2.308594-24.816406 4.054688-40.078125 4.054688-23.332031 0-54.820312-2.375-64.125-16.03125-8.457031-12.410156 0-60.070312 0-60.070312-5.980469 1.222656-11.359375 2.597656-16.03125 3.960937l-16.03125-8.015625 8.015625 16.03125v64.125l-8.015625 16.03125 16.03125-8.015625c13.511719 3.941406 32.777344 8.015625 56.109375 8.015625s42.597656-4.074219 56.109375-8.015625l16.03125 8.015625-8.015625-16.03125zm0 0" fill="#6fc7d4"/><path d="m288.0625 320.125 16.03125-8.015625c13.511719 3.941406 32.777344 8.015625 56.109375 8.015625s42.597656-4.074219 56.109375-8.015625l16.03125 8.015625-8.015625-16.03125v-64.125l8.015625-16.03125-16.03125 8.015625c-13.511719-3.941406-32.777344-8.015625-56.109375-8.015625s-42.597656 4.074219-56.109375 8.015625c-5.34375-2.671875-10.6875-5.34375-16.03125-8.015625l8.015625 16.03125v64.125zm0 0" fill="#93d5df"/><path d="m424.328125 300.039062c-11.308594 2.308594-24.816406 4.054688-40.078125 4.054688-23.332031 0-54.820312-2.375-64.125-16.03125-8.457031-12.410156 0-60.070312 0-60.070312-5.980469 1.222656-11.355469 2.597656-16.03125 3.960937l-16.03125-8.015625 8.015625 16.03125v64.125l-8.015625 16.03125 16.03125-8.015625c13.511719 3.941406 32.777344 8.015625 56.109375 8.015625s42.597656-4.074219 56.109375-8.015625l16.03125 8.015625-8.015625-16.03125zm0 0" fill="#6fc7d4"/><path d="m15.53125 352.1875h480.9375v72.140625h-480.9375zm0 0" fill="#e8e570"/><path d="m15.53125 352.1875h40.078125v72.140625h-40.078125zm0 0" fill="#d9d411"/><path d="m159.8125 7.515625h192.375v128.25h-192.375zm0 0" fill="#e96fa7"/><path d="m183.859375 31.5625h144.28125v80.15625h-144.28125zm0 0" fill="#efedf0"/><path d="m328.140625 31.5625h-36.136719c-11.453125 14.558594-11.457031 32.0625-11.457031 32.0625-40.078125-24.046875-64.125 16.03125-64.125 16.03125-16.777344 0-26.71875 5.855469-32.5625 13.476562v18.585938h144.28125zm0 0" fill="#e1eaa8"/><path d="m504.484375 416.8125h-.5v-80.65625c0-19.253906-13.820313-35.332031-32.0625-38.851562v-81.382813c0-21.824219-17.753906-39.578125-39.578125-39.578125h-352.6875c-21.824219 0-39.578125 17.753906-39.578125 39.578125v81.382813c-18.242187 3.519531-32.0625 19.597656-32.0625 38.851562v80.65625h-.5c-4.152344 0-7.515625 3.367188-7.515625 7.515625v80.15625c0 4.152344 3.363281 7.515625 7.515625 7.515625h40.078125c3.070312 0 5.835938-1.871094 6.976562-4.722656l14.140626-35.355469h374.578124l14.140626 35.355469c1.140624 2.851562 3.90625 4.722656 6.976562 4.722656h40.078125c4.152344 0 7.515625-3.363281 7.515625-7.515625v-80.15625c0-4.148437-3.363281-7.515625-7.515625-7.515625zm-424.828125-225.4375h352.6875c13.539062 0 24.546875 11.011719 24.546875 24.546875v80.65625h-25.046875v-54.835937l7.222656-14.445313c1.445313-2.890625.878906-6.386719-1.40625-8.671875-2.289062-2.289062-5.785156-2.855469-8.675781-1.410156l-13.421875 6.710937c-18.03125-4.980469-36.636719-7.503906-55.359375-7.503906-18.71875 0-37.324219 2.523437-55.355469 7.503906l-13.421875-6.710937c-2.894531-1.445313-6.386719-.878906-8.675781 1.410156-2.285156 2.285156-2.855469 5.78125-1.40625 8.671875l7.21875 14.445313v54.835937h-65.125v-54.835937l7.222656-14.445313c1.445313-2.890625.878906-6.386719-1.410156-8.671875-2.285156-2.289062-5.78125-2.855469-8.671875-1.410156l-13.425781 6.710937c-18.03125-4.980469-36.636719-7.503906-55.355469-7.503906s-37.328125 2.523437-55.359375 7.503906l-13.421875-6.710937c-2.894531-1.445313-6.386719-.878906-8.671875 1.410156-2.289062 2.285156-2.855469 5.78125-1.410156 8.671875l7.222656 14.445313v54.835937h-25.046875v-80.65625c0-13.535156 11.011719-24.546875 24.546875-24.546875zm337.175781 113.238281c-.875-.0625-1.765625.03125-2.621093.28125-17.550782 5.121094-35.722657 7.714844-54.007813 7.714844s-36.453125-2.59375-54.003906-7.714844c-.6875-.199219-1.398438-.300781-2.105469-.300781-.171875 0-.34375.007812-.519531.019531.015625-.171875.019531-.347656.019531-.519531v-64.125c0-.171875-.003906-.347656-.019531-.519531.875.0625 1.765625-.03125 2.625-.28125 17.550781-5.121094 35.71875-7.714844 54.003906-7.714844s36.457031 2.59375 54.003906 7.714844c.859375.25 1.75.34375 2.625.28125-.011719.171875-.019531.347656-.019531.519531v64.125c0 .171875.007812.347656.019531.519531zm-208.40625 0c-.878906-.0625-1.765625.03125-2.625.28125-17.550781 5.121094-35.71875 7.714844-54.003906 7.714844s-36.453125-2.59375-54.007813-7.714844c-.6875-.199219-1.394531-.300781-2.101562-.300781-.175781 0-.347656.007812-.519531.019531.011719-.171875.019531-.347656.019531-.519531v-64.125c0-.171875-.007812-.347656-.019531-.519531.875.0625 1.765625-.03125 2.621093-.28125 17.554688-5.121094 35.722657-7.714844 54.007813-7.714844s36.453125 2.59375 54.003906 7.714844c.859375.25 1.746094.34375 2.625.28125-.011719.171875-.019531.347656-.019531.519531v64.125c0 .171875.007812.347656.019531.519531zm-185.378906 55.089844h137.765625c4.152344 0 7.515625-3.363281 7.515625-7.515625 0-4.148438-3.363281-7.515625-7.515625-7.515625h-137.765625v-8.515625c0-13.535156 11.011719-24.546875 24.546875-24.546875h27.917969l-2.578125 5.15625c-1.445313 2.890625-.878906 6.386719 1.410156 8.671875 2.285156 2.289062 5.78125 2.855469 8.671875 1.410156l13.421875-6.714844c18.03125 4.984376 36.640625 7.507813 55.359375 7.507813s37.324219-2.527344 55.355469-7.507813l13.425781 6.710938c2.859375 1.433594 6.410156.855469 8.671875-1.40625 2.289062-2.289062 2.855469-5.78125 1.410156-8.671875l-2.578125-5.15625h55.835938l-2.578125 5.15625c-1.445313 2.890625-.878906 6.386719 1.410156 8.671875 2.285156 2.289062 5.78125 2.855469 8.671875 1.410156l13.421875-6.710937c18.03125 4.980469 36.636719 7.503906 55.359375 7.503906 18.71875 0 37.328125-2.523437 55.355469-7.503906l13.421875 6.710937c2.863281 1.429688 6.414062.851563 8.675781-1.410156 2.285156-2.285156 2.855469-5.78125 1.40625-8.671875l-2.574219-5.15625h27.917969c13.539062 0 24.546875 11.011719 24.546875 24.546875v8.515625h-292.738281c-4.148438 0-7.511719 3.367187-7.511719 7.515625 0 4.152344 3.363281 7.515625 7.511719 7.515625h292.738281v57.109375h-465.90625zm473.921875 137.265625h-27.472656l-14.144532-35.351562c-1.140624-2.855469-3.902343-4.726563-6.976562-4.726563h-384.75c-3.074219 0-5.835938 1.871094-6.976562 4.726563l-14.140626 35.351562h-27.476562v-65.125h481.9375zm0 0"/><path d="m159.8125 143.28125h192.375c4.152344 0 7.515625-3.367188 7.515625-7.515625v-128.25c0-4.152344-3.363281-7.515625-7.515625-7.515625h-192.375c-4.152344 0-7.515625 3.363281-7.515625 7.515625v128.25c0 4.148437 3.363281 7.515625 7.515625 7.515625zm7.515625-128.25h177.34375v113.21875h-177.34375zm0 0"/><path d="m328.140625 24.046875h-144.28125c-4.148437 0-7.515625 3.363281-7.515625 7.515625v80.15625c0 4.148438 3.367188 7.515625 7.515625 7.515625h144.28125c4.152344 0 7.515625-3.367187 7.515625-7.515625v-80.15625c0-4.152344-3.363281-7.515625-7.515625-7.515625zm-49.355469 15.03125c-2.121094 4.722656-3.46875 9.269531-4.3125 13.140625-19.351562-7.707031-34.890625-2.402344-45.050781 4.0625-8.230469 5.238281-13.988281 11.929688-17.007813 15.964844-8.042968.425781-15.0625 2.167968-21.039062 5.179687v-38.347656zm41.839844 65.125h-129.25v-8.320313c5.460938-5.785156 13.875-8.710937 25.046875-8.710937 2.640625 0 5.085937-1.386719 6.445313-3.648437.824218-1.375 20.558593-33.40625 53.8125-13.457032 2.316406 1.390625 5.195312 1.414063 7.542968.097656 2.351563-1.320312 3.816406-3.8125 3.839844-6.507812 0-.140625.199219-12.996094 7.785156-24.578125h24.777344zm0 0"/><path d="m304.09375 95.1875c4.152344 0 7.515625-3.367188 7.515625-7.515625v-8.015625c0-4.152344-3.363281-7.515625-7.515625-7.515625s-7.515625 3.363281-7.515625 7.515625v8.015625c0 4.148437 3.363281 7.515625 7.515625 7.515625zm0 0"/><path d="m256 72.140625c-4.148438 0-7.515625 3.363281-7.515625 7.515625v8.015625c0 4.148437 3.367187 7.515625 7.515625 7.515625 4.152344 0 7.515625-3.367188 7.515625-7.515625v-8.015625c0-4.152344-3.363281-7.515625-7.515625-7.515625zm0 0"/></svg>