<svg height="512pt" viewBox="0 -8 512 512" width="512pt" xmlns="http://www.w3.org/2000/svg"><path d="m111.71875 111.71875c0-26.5625 21.53125-48.09375 48.09375-48.09375s48.09375 21.53125 48.09375 48.09375" fill="#ffd982"/><path d="m175.84375 66.371094c-5.015625-1.773438-10.410156-2.746094-16.03125-2.746094-26.5625 0-48.09375 21.53125-48.09375 48.09375h32.0625c0-20.9375 13.382812-38.742188 32.0625-45.347656zm0 0" fill="#ffc02e"/><path d="m352.1875 464.40625h-192.375c-66.402344 0-120.234375-53.832031-120.234375-120.234375v-40.078125h432.84375v40.078125c0 66.402344-53.832031 120.234375-120.234375 120.234375zm0 0" fill="#efedf0"/><path d="m79.65625 368.21875v-16.03125c0-13.28125 10.765625-24.046875 24.046875-24.046875h368.71875v-24.046875h-432.84375v40.078125c0 52.160156 33.214844 96.554687 79.648437 113.203125-24.304687-22-39.570312-53.792969-39.570312-89.15625zm0 0" fill="#d0cad3"/><path d="m492.460938 304.09375h-472.921876c-6.640624 0-12.023437-5.382812-12.023437-12.023438 0-6.640624 5.382813-12.023437 12.023437-12.023437h472.921876c6.640624 0 12.023437 5.382813 12.023437 12.023437 0 6.640626-5.382813 12.023438-12.023437 12.023438zm0 0" fill="#93d5df"/><path d="m63.625 292.070312c0-6.640624 5.382812-12.023437 12.023438-12.023437h-56.109376c-6.640624 0-12.023437 5.382813-12.023437 12.023437 0 6.640626 5.382813 12.023438 12.023437 12.023438h56.109376c-6.640626 0-12.023438-5.382812-12.023438-12.023438zm0 0" fill="#4bbac9"/><path d="m167.328125 135.765625c0-4.152344-3.363281-7.515625-7.515625-7.515625s-7.515625 3.363281-7.515625 7.515625v8.015625c0 4.148438 3.363281 7.515625 7.515625 7.515625s7.515625-3.367187 7.515625-7.515625zm0 0"/><path d="m167.328125 167.828125c0-4.152344-3.363281-7.515625-7.515625-7.515625s-7.515625 3.363281-7.515625 7.515625v8.015625c0 4.148438 3.363281 7.515625 7.515625 7.515625s7.515625-3.367187 7.515625-7.515625zm0 0"/><path d="m159.8125 192.375c-4.152344 0-7.515625 3.367188-7.515625 7.515625v8.015625c0 4.148438 3.363281 7.515625 7.515625 7.515625s7.515625-3.367187 7.515625-7.515625v-8.015625c0-4.148437-3.363281-7.515625-7.515625-7.515625zm0 0"/><path d="m207.40625 135.765625c0-4.152344-3.363281-7.515625-7.515625-7.515625s-7.515625 3.363281-7.515625 7.515625v8.015625c0 4.148438 3.363281 7.515625 7.515625 7.515625s7.515625-3.367187 7.515625-7.515625zm0 0"/><path d="m207.40625 167.828125c0-4.152344-3.363281-7.515625-7.515625-7.515625s-7.515625 3.363281-7.515625 7.515625v8.015625c0 4.148438 3.363281 7.515625 7.515625 7.515625s7.515625-3.367187 7.515625-7.515625zm0 0"/><path d="m199.890625 192.375c-4.152344 0-7.515625 3.367188-7.515625 7.515625v8.015625c0 4.148438 3.363281 7.515625 7.515625 7.515625s7.515625-3.367187 7.515625-7.515625v-8.015625c0-4.148437-3.363281-7.515625-7.515625-7.515625zm0 0"/><path d="m127.25 135.765625c0-4.152344-3.363281-7.515625-7.515625-7.515625s-7.515625 3.363281-7.515625 7.515625v8.015625c0 4.148438 3.363281 7.515625 7.515625 7.515625s7.515625-3.367187 7.515625-7.515625zm0 0"/><path d="m127.25 167.828125c0-4.152344-3.363281-7.515625-7.515625-7.515625s-7.515625 3.363281-7.515625 7.515625v8.015625c0 4.148438 3.363281 7.515625 7.515625 7.515625s7.515625-3.367187 7.515625-7.515625zm0 0"/><path d="m119.734375 192.375c-4.152344 0-7.515625 3.367188-7.515625 7.515625v8.015625c0 4.148438 3.363281 7.515625 7.515625 7.515625s7.515625-3.367187 7.515625-7.515625v-8.015625c0-4.148437-3.363281-7.515625-7.515625-7.515625zm0 0"/><path d="m492.460938 272.53125h-373.226563v-9.015625h.5c4.152344 0 7.515625-3.367187 7.515625-7.515625s-3.363281-7.515625-7.515625-7.515625h-16.03125c-4.152344 0-7.515625 3.367187-7.515625 7.515625s3.363281 7.515625 7.515625 7.515625h.5v9.015625h-25.046875v-220.929688c0-20.167968 16.40625-36.570312 36.570312-36.570312 20.164063 0 36.570313 16.402344 36.570313 36.570312v5.03125c-24.660156 3.347657-44.222656 22.910157-47.570313 47.570313h-9.039062c-4.152344 0-7.515625 3.363281-7.515625 7.515625 0 4.148438 3.363281 7.515625 7.515625 7.515625h128.25c4.152344 0 7.515625-3.367187 7.515625-7.515625 0-4.152344-3.363281-7.515625-7.515625-7.515625h-9.039062c-3.347657-24.660156-22.910157-44.222656-47.570313-47.570313v-5.03125c0-28.453124-23.148437-51.601562-51.601563-51.601562-28.453124 0-51.601562 23.148438-51.601562 51.601562v220.929688h-25.046875v-9.015625h.5c4.148437 0 7.515625-3.367187 7.515625-7.515625s-3.367188-7.515625-7.515625-7.515625h-16.03125c-4.152344 0-7.515625 3.367187-7.515625 7.515625s3.363281 7.515625 7.515625 7.515625h.5v9.015625h-4.507813c-10.773437 0-19.539062 8.765625-19.539062 19.539062 0 10.773438 8.765625 19.539063 19.539062 19.539063h12.523438v32.5625c0 26.96875 8.40625 52.003906 22.726562 72.640625h-7.195312c-4.152344 0-7.515625 3.367188-7.515625 7.515625 0 4.152344 3.363281 7.515625 7.515625 7.515625h19.390625c12.160156 12.871094 26.960937 23.222656 43.527344 30.175781-1.878907 2.71875-4.015625 5.167969-6.429688 7.316407-15.996093 14.207031-39.144531 11.707031-39.546875 11.660156-4.113281-.503906-7.851562 2.414062-8.367187 6.527344-.515625 4.117187 2.40625 7.871093 6.523437 8.386718 1.214844.152344 30.019532 3.507813 51.242188-15.226562 4.40625-3.890625 8.121094-8.425782 11.171875-13.554688 11.039062 3.121094 22.679687 4.792969 34.707031 4.792969h192.375c12.027344 0 23.667969-1.671875 34.707031-4.792969 3.050781 5.128906 6.765625 9.664063 11.171875 13.554688 15.382813 13.582031 34.75 15.554687 44.707032 15.554687 3.777343 0 6.199218-.285156 6.535156-.328125 4.117187-.515625 7.039062-4.269531 6.523437-8.386718-.515625-4.121094-4.261719-7.042969-8.390625-6.527344-.230468.03125-23.230468 2.71875-39.429687-11.578125-2.457031-2.167969-4.621094-4.644531-6.523438-7.398438 16.566407-6.953125 31.363281-17.304687 43.527344-30.175781h19.390625c4.152344 0 7.515625-3.363281 7.515625-7.515625 0-4.148437-3.363281-7.515625-7.515625-7.515625h-7.195312c14.320312-20.636719 22.726562-45.671875 22.726562-72.640625v-32.5625h12.523438c10.773437 0 19.539062-8.765625 19.539062-19.539063 0-10.773437-8.765625-19.539062-19.539062-19.539062zm-292.777344-168.328125h-79.742188c3.535156-18.796875 20.0625-33.0625 39.871094-33.0625 19.804688 0 36.335938 14.265625 39.871094 33.0625zm-110.632813 327.640625h30.917969c-.441406 6.070312-1.441406 11.601562-2.984375 16.589844-10.132813-4.179688-19.527344-9.792969-27.933594-16.589844zm263.136719 25.046875h-192.375c-9.863281 0-19.433594-1.277344-28.558594-3.667969 2.027344-6.46875 3.292969-13.597656 3.78125-21.378906h241.929688c.484375 7.78125 1.753906 14.910156 3.78125 21.378906-9.125 2.390625-18.695313 3.667969-28.558594 3.667969zm42.824219-8.457031c-1.542969-4.988282-2.539063-10.519532-2.980469-16.589844h30.917969c-8.40625 6.796875-17.800781 12.410156-27.9375 16.589844zm97.449219-151.855469h-76.480469c-4.152344 0-7.515625 3.367187-7.515625 7.515625s3.363281 7.515625 7.515625 7.515625h48.925781v32.5625c0 27.65625-10.015625 53.007813-26.601562 72.640625h-364.609376c-16.585937-19.628906-26.601562-44.984375-26.601562-72.640625v-32.5625h333.484375c4.148437 0 7.511719-3.367187 7.511719-7.515625s-3.363282-7.515625-7.511719-7.515625h-361.039063c-2.488281 0-4.507812-2.023437-4.507812-4.507813 0-2.484374 2.019531-4.507812 4.507812-4.507812h472.921876c2.488281 0 4.507812 2.023438 4.507812 4.507812 0 2.484376-2.019531 4.507813-4.507812 4.507813zm0 0"/></svg>