<svg height="512pt" viewBox="0 0 512 512" width="512pt" xmlns="http://www.w3.org/2000/svg"><path d="m159.8125 432.34375h48.09375v48.09375h-48.09375zm0 0" fill="#d0cad3"/><path d="m312.109375 432.34375h-256.5c-8.855469 0-16.03125-7.175781-16.03125-16.03125v-176.34375c0-8.855469 7.175781-16.03125 16.03125-16.03125h256.5c8.855469 0 16.03125 7.175781 16.03125 16.03125v176.34375c0 8.855469-7.175781 16.03125-16.03125 16.03125zm0 0" fill="#e0dce2"/><path d="m71.640625 416.3125v-176.34375c0-8.855469 7.175781-16.03125 16.03125-16.03125h-32.0625c-8.855469 0-16.03125 7.175781-16.03125 16.03125v176.34375c0 8.855469 7.175781 16.03125 16.03125 16.03125h32.0625c-8.855469 0-16.03125-7.175781-16.03125-16.03125zm0 0" fill="#c1b8c4"/><path d="m39.578125 256h288.5625v152.296875h-288.5625zm0 0" fill="#a195a7"/><path d="m39.578125 256h32.0625v152.296875h-32.0625zm0 0" fill="#827189"/><path d="m416.3125 480.4375h-16.03125c-13.28125 0-24.046875-10.765625-24.046875-24.046875v-56.109375h64.125v56.109375c0 13.28125-10.765625 24.046875-24.046875 24.046875zm0 0" fill="#ee93bd"/><path d="m424.328125 472.421875c-13.28125 0-24.046875-10.765625-24.046875-24.046875v-48.09375h-24.046875v56.109375c0 13.28125 10.765625 24.046875 24.046875 24.046875h16.03125c7.121094 0 13.515625-3.097656 17.917969-8.015625zm0 0" fill="#e96fa7"/><path d="m127.75 135.765625h376.734375v24.046875h-376.734375zm0 0" fill="#ffd982"/><path d="m416.3125 23.546875h32.0625v112.21875h-32.0625zm0 0" fill="#93d5df"/><path d="m416.3125 23.546875h16.03125v112.21875h-16.03125zm0 0" fill="#4bbac9"/><path d="m384.25 23.546875h32.0625v112.21875h-32.0625zm0 0" fill="#e8e570"/><path d="m384.25 23.546875h16.03125v112.21875h-16.03125zm0 0" fill="#d9d411"/><path d="m344.035156 19.046875 30.738282 9.117187-31.917969 107.585938-30.738281-9.121094zm0 0" fill="#e98f6d"/><path d="m344.03125 19.0625-31.921875 107.582031 14.953125 4.4375 32.917969-107.289062zm0 0" fill="#e37349"/><path d="m199.132812 87.671875s-31.5625-8.015625-31.5625-40.078125c0 0 31.5625-8.015625 39.578126 8.015625 0 0 0-32.0625 16.03125-48.09375 0 0 24.046874 24.046875 16.03125 48.09375 0 0 24.046874-16.03125 40.078124-8.015625 0 0 8.515626 24.046875-31.5625 40.078125zm0 0" fill="#d2df7c"/><path d="m223.179688 79.65625s-27.113282-6.90625-31.066407-33.464844c-11.460937-1.914062-24.542969 1.402344-24.542969 1.402344 0 32.0625 31.5625 40.078125 31.5625 40.078125h48.59375c6.289063-2.515625 11.382813-5.230469 15.5-8.015625zm0 0" fill="#b3c924"/><path d="m263.792969 45.761719c-.164063.613281-.332031 1.222656-.535157 1.832031 0 0 1.359376-.902344 3.625-2.167969-1.03125.070313-2.0625.183594-3.089843.335938zm0 0" fill="#b3c924"/><path d="m223.179688 135.765625c-17.707032 0-32.0625-14.355469-32.0625-32.0625v-16.03125h64.125v16.03125c0 17.707031-14.355469 32.0625-32.0625 32.0625zm0 0" fill="#e0dce2"/><path d="m215.921875 103.703125v-16.03125h-24.804687v16.03125c0 17.707031 14.355468 32.0625 32.0625 32.0625 4.398437 0 8.585937-.886719 12.402343-2.488281-11.546875-4.851563-19.660156-16.265625-19.660156-29.574219zm0 0" fill="#c1b8c4"/><path d="m7.515625 480.4375h496.96875v24.046875h-496.96875zm0 0" fill="#ffd982"/><path d="m504.484375 152.296875h-369.21875v-9.015625h369.21875c4.152344 0 7.515625-3.367188 7.515625-7.515625 0-4.152344-3.363281-7.515625-7.515625-7.515625h-48.59375v-104.703125c0-4.152344-3.363281-7.515625-7.515625-7.515625h-64.125c-3.28125 0-6.0625 2.105469-7.085938 5.035156-.085937-.027344-.171874-.0625-.257812-.089844l-30.738281-9.121093c-3.980469-1.175781-8.160157 1.089843-9.34375 5.066406l-31.917969 107.585937c-.375 1.261719-.402344 2.542969-.136719 3.742188h-50.578125c5.355469-6.75 8.566406-15.28125 8.566406-24.546875v-14.902344c32.109376-18.324219 24.019532-42.582031 23.617188-43.71875-.648438-1.832031-1.984375-3.339843-3.722656-4.210937-11.304688-5.652344-24.65625-2.460938-34.386719 1.546875-1.496094-21.65625-18.867187-39.3125-19.769531-40.21875-2.9375-2.933594-7.695313-2.933594-10.628906 0-10.636719 10.640625-15.070313 26.820312-16.914063 38.59375-13.96875-5.527344-32.460937-1.1875-35.230469-.484375-3.332031.847656-5.664062 3.847656-5.664062 7.285156 0 21.011719 11.957031 34.21875 23.546875 41.371094v14.738281c0 9.265625 3.210937 17.796875 8.566406 24.546875h-64.421875c-4.152344 0-7.515625 3.363281-7.515625 7.515625v24.046875c0 4.148438 3.363281 7.515625 7.515625 7.515625h376.734375c4.152344 0 7.515625-3.367187 7.515625-7.515625 0-4.152344-3.363281-7.515625-7.515625-7.515625zm-63.625-24.046875h-17.03125v-97.191406h17.03125zm-49.09375-97.191406h17.03125v97.191406h-17.03125zm-42.667969-2.65625 16.328125 4.847656-27.644531 93.171875-16.328125-4.84375zm27.636719 19.566406v80.28125h-23.820313zm-176.308594 11c1.558594 3.113281 5.050781 4.746094 8.441407 3.949219 3.386718-.792969 5.785156-3.820313 5.796874-7.300781 0-.25.167969-21.429688 8.730469-36.0625 5.605469 7.761718 12.890625 21.070312 8.6875 33.675781-1.015625 3.042969.019531 6.390625 2.5625 8.339843 2.542969 1.949219 6.050781 2.066407 8.726563.296876 4.75-3.144532 19.140625-10.617188 29.167968-8.679688-.035156 5.589844-3.179687 17.34375-26.285156 26.96875h-46.050781c-4.058594-1.28125-21.417969-7.792969-24.609375-26.441406 9.183594-1.261719 21.660156-1.097656 24.832031 5.253906zm-1.792969 44.734375v-8.515625h49.09375v8.515625c0 13.535156-11.011718 24.546875-24.546874 24.546875-13.535157 0-24.546876-11.011719-24.546876-24.546875zm0 0"/><path d="m504.484375 472.921875h-61.300781c1.71875-2.785156 3.015625-5.855469 3.804687-9.125 18.394531-1.34375 32.949219-16.730469 32.949219-35.460937 0-19.613282-15.957031-35.570313-35.570312-35.570313h-68.132813c-4.148437 0-7.515625 3.367187-7.515625 7.515625v56.109375c0 6.058594 1.722656 11.722656 4.691406 16.53125h-157.988281v-33.0625h96.6875c12.984375 0 23.546875-10.5625 23.546875-23.546875v-176.34375c0-12.984375-10.5625-23.546875-23.546875-23.546875h-256.5c-12.984375 0-23.546875 10.5625-23.546875 23.546875v176.34375c0 12.984375 10.5625 23.546875 23.546875 23.546875h96.6875v33.0625h-144.78125c-4.152344 0-7.515625 3.367187-7.515625 7.515625 0 4.152344 3.363281 7.515625 7.515625 7.515625h496.96875c4.152344 0 7.515625-3.363281 7.515625-7.515625 0-4.148438-3.363281-7.515625-7.515625-7.515625zm-39.578125-44.585937c0 10.128906-7.375 18.546874-17.03125 20.21875v-40.4375c9.65625 1.671874 17.03125 10.089843 17.03125 20.21875zm-409.296875-196.882813h256.5c4.695313 0 8.515625 3.820313 8.515625 8.515625v8.515625h-32.5625c-4.148438 0-7.515625 3.367187-7.515625 7.515625s3.367187 7.515625 7.515625 7.515625h32.5625v137.265625h-273.53125v-137.265625h205.898438c4.152343 0 7.515624-3.367187 7.515624-7.515625s-3.363281-7.515625-7.515624-7.515625h-205.898438v-8.515625c0-4.695312 3.820312-8.515625 8.515625-8.515625zm-8.515625 184.859375v-.5h273.53125v.5c0 4.695312-3.820312 8.515625-8.515625 8.515625h-256.5c-4.695313 0-8.515625-3.820313-8.515625-8.515625zm120.234375 56.609375v-33.0625h33.0625v33.0625zm232.953125 0c-9.117188 0-16.53125-7.414063-16.53125-16.53125v-48.59375h49.09375v48.59375c0 9.117187-7.414062 16.53125-16.53125 16.53125zm0 0"/><path d="m504.484375 496.96875h-496.96875c-4.152344 0-7.515625 3.367188-7.515625 7.515625 0 4.152344 3.363281 7.515625 7.515625 7.515625h496.96875c4.152344 0 7.515625-3.363281 7.515625-7.515625 0-4.148437-3.363281-7.515625-7.515625-7.515625zm0 0"/></svg>