<svg height="512pt" viewBox="0 -44 512 512" width="512pt" xmlns="http://www.w3.org/2000/svg"><path d="m480.4375 416.3125h24.046875v-40.078125h-32.0625zm0 0" fill="#e98f6d"/><path d="m31.5625 416.3125h-24.046875v-40.078125h32.0625zm0 0" fill="#e98f6d"/><path d="m7.515625 247.984375h496.96875v128.25h-496.96875zm0 0" fill="#ffd982"/><path d="m31.5625 272.03125h448.875v80.15625h-448.875zm0 0" fill="#827189"/><path d="m95.6875 312.109375c0 8.855469-7.179688 16.03125-16.03125 16.03125-8.855469 0-16.03125-7.175781-16.03125-16.03125s7.175781-16.03125 16.03125-16.03125c8.851562 0 16.03125 7.175781 16.03125 16.03125zm0 0" fill="#ffd982"/><path d="m448.375 312.109375c0 8.855469-7.175781 16.03125-16.03125 16.03125-8.851562 0-16.03125-7.175781-16.03125-16.03125s7.179688-16.03125 16.03125-16.03125c8.855469 0 16.03125 7.175781 16.03125 16.03125zm0 0" fill="#ffd982"/><path d="m183.859375 296.078125h144.28125v32.0625h-144.28125zm0 0" fill="#93d5df"/><path d="m199.890625 312.109375v-16.03125h-16.03125v32.0625h144.28125v-16.03125zm0 0" fill="#4bbac9"/><path d="m103.703125 7.515625h304.59375v240.46875h-304.59375zm0 0" fill="#d0cad3"/><path d="m135.765625 231.953125v-224.4375h-32.0625v240.46875h304.59375v-16.03125zm0 0" fill="#b1a6b5"/><path d="m408.296875 7.515625h96.1875v240.46875h-96.1875zm0 0" fill="#827189"/><path d="m432.34375 231.953125v-224.4375h-24.046875v240.46875h96.1875v-16.03125zm0 0" fill="#634e6c"/><path d="m7.515625 7.515625h96.1875v240.46875h-96.1875zm0 0" fill="#827189"/><path d="m31.5625 231.953125v-224.4375h-24.046875v240.46875h96.1875v-16.03125zm0 0" fill="#634e6c"/><g fill="#c1b8c4"><path d="m79.65625 79.65625c0 13.28125-10.765625 24.046875-24.046875 24.046875s-24.046875-10.765625-24.046875-24.046875 10.765625-24.046875 24.046875-24.046875 24.046875 10.765625 24.046875 24.046875zm0 0"/><path d="m79.65625 175.84375c0 13.28125-10.765625 24.046875-24.046875 24.046875s-24.046875-10.765625-24.046875-24.046875 10.765625-24.046875 24.046875-24.046875 24.046875 10.765625 24.046875 24.046875zm0 0"/><path d="m480.4375 79.65625c0 13.28125-10.765625 24.046875-24.046875 24.046875s-24.046875-10.765625-24.046875-24.046875 10.765625-24.046875 24.046875-24.046875 24.046875 10.765625 24.046875 24.046875zm0 0"/><path d="m480.4375 175.84375c0 13.28125-10.765625 24.046875-24.046875 24.046875s-24.046875-10.765625-24.046875-24.046875 10.765625-24.046875 24.046875-24.046875 24.046875 10.765625 24.046875 24.046875zm0 0"/></g><path d="m191.875 143.78125c0 8.851562-7.175781 16.03125-16.03125 16.03125s-16.03125-7.179688-16.03125-16.03125c0-8.855469 7.175781-16.03125 16.03125-16.03125s16.03125 7.175781 16.03125 16.03125zm0 0" fill="#ee93bd"/><path d="m256 111.71875c0 8.851562-7.175781 16.03125-16.03125 16.03125s-16.03125-7.179688-16.03125-16.03125c0-8.855469 7.175781-16.03125 16.03125-16.03125s16.03125 7.175781 16.03125 16.03125zm0 0" fill="#ee93bd"/><path d="m280.046875 191.875c0 8.855469-7.175781 16.03125-16.03125 16.03125s-16.03125-7.175781-16.03125-16.03125 7.175781-16.03125 16.03125-16.03125 16.03125 7.175781 16.03125 16.03125zm0 0" fill="#ee93bd"/><path d="m344.171875 159.8125c0 8.851562-7.175781 16.03125-16.03125 16.03125s-16.03125-7.179688-16.03125-16.03125c0-8.855469 7.175781-16.03125 16.03125-16.03125s16.03125 7.175781 16.03125 16.03125zm0 0" fill="#ee93bd"/><path d="m480.4375 264.515625h-448.875c-4.152344 0-7.515625 3.367187-7.515625 7.515625v80.15625c0 4.152344 3.363281 7.515625 7.515625 7.515625h356.195312c4.152344 0 7.515626-3.363281 7.515626-7.515625 0-4.148438-3.363282-7.515625-7.515626-7.515625h-348.679687v-65.125h433.84375v65.125h-47.589844c-4.152343 0-7.515625 3.367187-7.515625 7.515625 0 4.152344 3.363282 7.515625 7.515625 7.515625h55.105469c4.152344 0 7.515625-3.363281 7.515625-7.515625v-80.15625c0-4.148438-3.363281-7.515625-7.515625-7.515625zm0 0"/><path d="m56.109375 312.109375c0 12.984375 10.5625 23.546875 23.546875 23.546875s23.546875-10.5625 23.546875-23.546875-10.5625-23.546875-23.546875-23.546875-23.546875 10.5625-23.546875 23.546875zm32.0625 0c0 4.695313-3.820313 8.515625-8.515625 8.515625s-8.515625-3.820312-8.515625-8.515625 3.820313-8.515625 8.515625-8.515625 8.515625 3.820312 8.515625 8.515625zm0 0"/><path d="m455.890625 312.109375c0-12.984375-10.5625-23.546875-23.546875-23.546875s-23.546875 10.5625-23.546875 23.546875 10.5625 23.546875 23.546875 23.546875 23.546875-10.5625 23.546875-23.546875zm-32.0625 0c0-4.695313 3.820313-8.515625 8.515625-8.515625s8.515625 3.820312 8.515625 8.515625-3.820313 8.515625-8.515625 8.515625-8.515625-3.820312-8.515625-8.515625zm0 0"/><path d="m344.671875 304.09375v16.03125c0 4.148438 3.363281 7.515625 7.515625 7.515625s7.515625-3.367187 7.515625-7.515625v-16.03125c0-4.148438-3.363281-7.515625-7.515625-7.515625s-7.515625 3.367187-7.515625 7.515625zm0 0"/><path d="m376.734375 304.09375v16.03125c0 4.148438 3.363281 7.515625 7.515625 7.515625s7.515625-3.367187 7.515625-7.515625v-16.03125c0-4.148438-3.363281-7.515625-7.515625-7.515625s-7.515625 3.367187-7.515625 7.515625zm0 0"/><path d="m152.296875 304.09375v16.03125c0 4.148438 3.363281 7.515625 7.515625 7.515625 4.148438 0 7.515625-3.367187 7.515625-7.515625v-16.03125c0-4.148438-3.367187-7.515625-7.515625-7.515625-4.152344 0-7.515625 3.367187-7.515625 7.515625zm0 0"/><path d="m120.234375 304.09375v16.03125c0 4.148438 3.363281 7.515625 7.515625 7.515625 4.148438 0 7.515625-3.367187 7.515625-7.515625v-16.03125c0-4.148438-3.367187-7.515625-7.515625-7.515625-4.152344 0-7.515625 3.367187-7.515625 7.515625zm0 0"/><path d="m183.859375 288.5625c-4.148437 0-7.515625 3.367188-7.515625 7.515625v32.0625c0 4.148437 3.367188 7.515625 7.515625 7.515625h144.28125c4.152344 0 7.515625-3.367188 7.515625-7.515625v-32.0625c0-4.148437-3.363281-7.515625-7.515625-7.515625zm136.765625 32.0625h-129.25v-17.03125h129.25zm0 0"/><path d="m504.484375 0h-496.96875c-4.152344 0-7.515625 3.363281-7.515625 7.515625v408.796875c0 4.152344 3.363281 7.515625 7.515625 7.515625h24.046875c3.582031 0 6.664062-2.527344 7.367188-6.042969l6.808593-34.035156h420.523438l6.808593 34.035156c.703126 3.515625 3.785157 6.042969 7.367188 6.042969h24.046875c4.152344 0 7.515625-3.363281 7.515625-7.515625v-408.796875c0-4.152344-3.363281-7.515625-7.515625-7.515625zm-489.453125 368.71875v-113.21875h481.9375v113.21875zm481.9375-128.25h-81.15625v-225.4375h81.15625zm-96.1875 0h-289.5625v-225.4375h289.5625zm-385.75-225.4375h81.15625v225.4375h-81.15625zm10.371094 393.765625h-10.371094v-25.046875h15.378906zm471.566406 0h-10.371094l-5.007812-25.046875h15.378906zm0 0"/><path d="m55.609375 48.09375c-17.402344 0-31.5625 14.160156-31.5625 31.5625s14.160156 31.5625 31.5625 31.5625 31.5625-14.160156 31.5625-31.5625-14.160156-31.5625-31.5625-31.5625zm0 48.09375c-9.117187 0-16.53125-7.417969-16.53125-16.53125 0-9.117188 7.414063-16.53125 16.53125-16.53125 9.113281 0 16.53125 7.414062 16.53125 16.53125 0 9.113281-7.417969 16.53125-16.53125 16.53125zm0 0"/><path d="m55.609375 144.28125c-17.402344 0-31.5625 14.160156-31.5625 31.5625s14.160156 31.5625 31.5625 31.5625 31.5625-14.160156 31.5625-31.5625-14.160156-31.5625-31.5625-31.5625zm0 48.09375c-9.117187 0-16.53125-7.414062-16.53125-16.53125s7.414063-16.53125 16.53125-16.53125c9.113281 0 16.53125 7.414062 16.53125 16.53125s-7.417969 16.53125-16.53125 16.53125zm0 0"/><path d="m456.390625 111.21875c17.402344 0 31.5625-14.160156 31.5625-31.5625s-14.160156-31.5625-31.5625-31.5625-31.5625 14.160156-31.5625 31.5625 14.160156 31.5625 31.5625 31.5625zm0-48.09375c9.117187 0 16.53125 7.414062 16.53125 16.53125 0 9.113281-7.414063 16.53125-16.53125 16.53125-9.113281 0-16.53125-7.417969-16.53125-16.53125 0-9.117188 7.417969-16.53125 16.53125-16.53125zm0 0"/><path d="m456.390625 207.40625c17.402344 0 31.5625-14.160156 31.5625-31.5625s-14.160156-31.5625-31.5625-31.5625-31.5625 14.160156-31.5625 31.5625 14.160156 31.5625 31.5625 31.5625zm0-48.09375c9.117187 0 16.53125 7.414062 16.53125 16.53125s-7.414063 16.53125-16.53125 16.53125c-9.113281 0-16.53125-7.414062-16.53125-16.53125s7.417969-16.53125 16.53125-16.53125zm0 0"/><path d="m175.84375 167.328125c12.984375 0 23.546875-10.5625 23.546875-23.546875v-51.945312l49.09375-30.683594v28.621094c-2.640625-1.027344-5.511719-1.601563-8.515625-1.601563-12.984375 0-23.546875 10.5625-23.546875 23.546875s10.5625 23.546875 23.546875 23.546875 23.546875-10.5625 23.546875-23.546875v-64.125c0-5.78125-6.578125-9.449219-11.5-6.371094l-64.125 40.078125c-2.195313 1.371094-3.53125 3.78125-3.53125 6.371094v34.164063c-2.640625-1.027344-5.511719-1.601563-8.515625-1.601563-12.984375 0-23.546875 10.5625-23.546875 23.546875s10.5625 23.546875 23.546875 23.546875zm64.125-47.09375c-4.695312 0-8.515625-3.820313-8.515625-8.515625s3.820313-8.515625 8.515625-8.515625 8.515625 3.820313 8.515625 8.515625-3.820313 8.515625-8.515625 8.515625zm-64.125 15.03125c4.695312 0 8.515625 3.820313 8.515625 8.515625s-3.820313 8.515625-8.515625 8.515625-8.515625-3.820313-8.515625-8.515625 3.820313-8.515625 8.515625-8.515625zm0 0"/><path d="m240.46875 191.875c0 12.984375 10.5625 23.546875 23.546875 23.546875s23.546875-10.5625 23.546875-23.546875v-51.945312l49.09375-30.683594v28.621094c-2.640625-1.027344-5.511719-1.601563-8.515625-1.601563-12.984375 0-23.546875 10.5625-23.546875 23.546875s10.5625 23.546875 23.546875 23.546875 23.546875-10.5625 23.546875-23.546875v-64.125c0-5.78125-6.578125-9.449219-11.5-6.371094l-64.125 40.078125c-2.195312 1.371094-3.53125 3.78125-3.53125 6.371094v34.164063c-2.640625-1.027344-5.511719-1.601563-8.515625-1.601563-12.984375 0-23.546875 10.5625-23.546875 23.546875zm87.671875-23.546875c-4.695313 0-8.515625-3.820313-8.515625-8.515625s3.820312-8.515625 8.515625-8.515625 8.515625 3.820313 8.515625 8.515625-3.820312 8.515625-8.515625 8.515625zm-55.609375 23.546875c0 4.695312-3.820312 8.515625-8.515625 8.515625s-8.515625-3.820313-8.515625-8.515625 3.820312-8.515625 8.515625-8.515625 8.515625 3.820313 8.515625 8.515625zm0 0"/><path d="m63.125 79.65625c0 4.148438-3.367188 7.515625-7.515625 7.515625-4.152344 0-7.515625-3.367187-7.515625-7.515625 0-4.152344 3.363281-7.515625 7.515625-7.515625 4.148437 0 7.515625 3.363281 7.515625 7.515625zm0 0"/><path d="m63.625 175.34375c0 4.148438-3.363281 7.511719-7.515625 7.511719-4.148437 0-7.515625-3.363281-7.515625-7.511719 0-4.152344 3.367188-7.515625 7.515625-7.515625 4.152344 0 7.515625 3.363281 7.515625 7.515625zm0 0"/><path d="m463.40625 79.65625c0 4.148438-3.367188 7.515625-7.515625 7.515625-4.152344 0-7.515625-3.367187-7.515625-7.515625 0-4.152344 3.363281-7.515625 7.515625-7.515625 4.148437 0 7.515625 3.363281 7.515625 7.515625zm0 0"/><path d="m463.90625 175.34375c0 4.148438-3.363281 7.511719-7.515625 7.511719-4.148437 0-7.515625-3.363281-7.515625-7.511719 0-4.152344 3.367188-7.515625 7.515625-7.515625 4.152344 0 7.515625 3.363281 7.515625 7.515625zm0 0"/></svg>