<svg height="512pt" viewBox="0 -76 512 512" width="512pt" xmlns="http://www.w3.org/2000/svg"><path d="m119.734375 159.8125h272.53125v24.046875h-272.53125zm0 0" fill="#ee93bd"/><path d="m119.734375 159.8125h48.09375v24.046875h-48.09375zm0 0" fill="#e96fa7"/><g fill="#c281cc"><path d="m480.4375 87.671875h24.046875v80.15625h-24.046875zm0 0"/><path d="m392.265625 239.96875h112.21875v24.046875h-112.21875zm0 0"/><path d="m31.5625 167.828125h-24.046875v-80.15625h24.046875zm0 0"/><path d="m119.734375 264.015625h-112.21875v-24.046875h112.21875zm0 0"/></g><path d="m266.296875 98 13.75-34.375h-48.09375l13.75 34.375c-8.128906 3.859375-13.75 12.140625-13.75 21.734375 0 13.28125 10.765625 24.046875 24.046875 24.046875s24.046875-10.765625 24.046875-24.046875c0-9.597656-5.621094-17.875-13.75-21.734375zm0 0" fill="#e0dce2"/><path d="m247.984375 119.734375c0-9.597656 5.621094-17.875 13.75-21.734375l-13.75-34.375h-16.03125l13.75 34.375c-8.128906 3.859375-13.75 12.140625-13.75 21.734375 0 13.28125 10.765625 24.046875 24.046875 24.046875 2.8125 0 5.507812-.488281 8.015625-1.375-9.339844-3.300781-16.03125-12.203125-16.03125-22.671875zm0 0" fill="#c1b8c4"/><path d="m280.046875 31.5625c-4.792969 0-9.085937 2.117188-12.023437 5.449219-.449219-.511719-.933594-.992188-1.445313-1.441407 3.339844-2.9375 5.453125-7.230468 5.453125-12.023437 0-8.855469-7.175781-16.03125-16.03125-16.03125s-16.03125 7.175781-16.03125 16.03125c0 4.792969 2.117188 9.085937 5.453125 12.023437-.511719.449219-.996094.933594-1.445313 1.441407-2.9375-3.335938-7.230468-5.449219-12.023437-5.449219-8.855469 0-16.03125 7.175781-16.03125 16.03125 0 8.851562 7.175781 16.03125 16.03125 16.03125 4.792969 0 9.085937-2.117188 12.023437-5.453125 2.9375 3.335937 7.230469 5.453125 12.023438 5.453125s9.085938-2.117188 12.023438-5.453125c2.9375 3.335937 7.230468 5.453125 12.023437 5.453125 8.855469 0 16.03125-7.179688 16.03125-16.03125 0-8.855469-7.175781-16.03125-16.03125-16.03125zm0 0" fill="#ffcc58"/><path d="m392.265625 191.375c4.152344 0 7.515625-3.367188 7.515625-7.515625v-24.046875c0-4.152344-3.363281-7.515625-7.515625-7.515625h-272.53125c-4.152344 0-7.515625 3.363281-7.515625 7.515625v24.046875c0 4.148437 3.363281 7.515625 7.515625 7.515625h24.546875v160.8125c0 4.152344 3.363281 7.515625 7.515625 7.515625s7.515625-3.363281 7.515625-7.515625v-104.703125h193.375v104.703125c0 4.152344 3.363281 7.515625 7.515625 7.515625s7.515625-3.363281 7.515625-7.515625v-160.8125zm-39.578125 41.078125h-193.375v-41.078125h140.773438c4.152343 0 7.515624-3.367188 7.515624-7.515625s-3.363281-7.515625-7.515624-7.515625h-172.835938v-9.015625h257.5v9.015625h-47.925781c-4.152344 0-7.515625 3.367188-7.515625 7.515625s3.363281 7.515625 7.515625 7.515625h15.863281zm0 0"/><path d="m504.484375 80.15625h-24.046875c-4.148438 0-7.515625 3.363281-7.515625 7.515625v80.15625c0 4.148437 3.367187 7.515625 7.515625 7.515625h16.53125v57.109375h-104.703125c-4.152344 0-7.515625 3.367187-7.515625 7.515625v112.21875c0 4.152344 3.363281 7.515625 7.515625 7.515625s7.515625-3.363281 7.515625-7.515625v-40.578125h97.1875v40.578125c0 4.152344 3.367188 7.515625 7.515625 7.515625 4.152344 0 7.515625-3.363281 7.515625-7.515625v-264.515625c0-4.152344-3.363281-7.515625-7.515625-7.515625zm-16.53125 80.15625v-65.125h9.015625v65.125zm-88.171875 87.171875h97.1875v9.015625h-97.1875zm0 49.09375v-25.046875h97.1875v25.046875zm0 0"/><path d="m119.734375 232.453125h-104.703125v-57.109375h16.53125c4.148438 0 7.515625-3.367188 7.515625-7.515625v-80.15625c0-4.152344-3.367187-7.515625-7.515625-7.515625h-24.046875c-4.152344 0-7.515625 3.363281-7.515625 7.515625v264.515625c0 4.152344 3.363281 7.515625 7.515625 7.515625 4.148437 0 7.515625-3.363281 7.515625-7.515625v-40.578125h97.1875v40.578125c0 4.152344 3.363281 7.515625 7.515625 7.515625s7.515625-3.363281 7.515625-7.515625v-112.21875c0-4.148438-3.363281-7.515625-7.515625-7.515625zm-7.515625 15.03125v9.015625h-97.1875v-9.015625zm-88.171875-87.171875h-9.015625v-65.125h9.015625zm-9.015625 136.265625v-25.046875h97.1875v25.046875zm0 0"/><path d="m226.65625 70.53125c.0625.203125.128906.40625.207031.605469l9.546875 23.863281c-7.433594 5.917969-11.972656 15.027344-11.972656 24.734375 0 17.402344 14.160156 31.5625 31.5625 31.5625s31.5625-14.160156 31.5625-31.5625c0-9.707031-4.539062-18.816406-11.972656-24.734375l9.792968-24.476562c10.421876-2.425782 18.210938-11.78125 18.210938-22.929688 0-13.152344-10.890625-23.808594-24.054688-23.542969.003907-.167969.007813-.335937.007813-.503906 0-12.984375-10.5625-23.546875-23.546875-23.546875s-23.546875 10.5625-23.546875 23.546875c0 .167969.003906.335937.007813.503906-13.171876-.25-24.054688 10.390625-24.054688 23.542969 0 11.160156 7.808594 20.527344 18.25 22.9375zm29.34375 65.734375c-9.117188 0-16.53125-7.414063-16.53125-16.53125 0-6.351563 3.710938-12.21875 9.457031-14.945313 3.582031-1.703124 5.230469-5.894531 3.753907-9.582031l-10.5625-26.398437c.632812-.304688 1.253906-.625 1.859374-.984375 3.605469 2.144531 7.75 3.316406 12.023438 3.316406 4.269531 0 8.417969-1.171875 12.023438-3.316406.601562.359375 1.222656.679687 1.855468.984375l-10.5625 26.398437c-1.472656 3.6875.171875 7.878907 3.757813 9.582031 5.742187 2.726563 9.457031 8.59375 9.457031 14.945313 0 9.117187-7.414062 16.53125-16.53125 16.53125zm-24.046875-97.1875c2.46875 0 4.734375 1.027344 6.382813 2.902344 1.488281 1.6875 3.703124 2.632812 5.949218 2.542969 1.113282-.046876 2.210938-.34375 3.195313-.863282 1.179687-.621094 1.925781-1.589844 2.90625-2.449218 1.621093-1.429688 2.550781-3.480469 2.550781-5.640626 0-2.160156-.929688-4.214843-2.550781-5.640624-1.871094-1.648438-2.902344-3.914063-2.902344-6.382813 0-4.695313 3.820313-8.515625 8.515625-8.515625s8.519531 3.820312 8.519531 8.515625c0 2.46875-1.03125 4.734375-2.90625 6.382813-1.617187 1.425781-2.546875 3.480468-2.546875 5.640624 0 2.160157.929688 4.210938 2.546875 5.640626.941407.824218 1.660157 1.757812 2.777344 2.378906 1.015625.5625 2.164063.886718 3.324219.933594 2.246094.089843 4.464844-.855469 5.949218-2.542969 1.652344-1.871094 3.917969-2.902344 6.386719-2.902344 4.695313 0 8.515625 3.820313 8.515625 8.515625s-3.820312 8.515625-8.515625 8.515625c-2.46875 0-4.738281-1.03125-6.386719-2.902344-1.425781-1.621093-3.480468-2.546875-5.636718-2.546875-2.160156 0-4.214844.925782-5.640625 2.546875-1.652344 1.871094-3.917969 2.902344-6.382813 2.902344-2.46875 0-4.738281-1.03125-6.386718-2.902344-1.425782-1.621093-3.480469-2.546875-5.636719-2.546875-2.160157 0-4.214844.925782-5.640625 2.546875-1.652344 1.871094-3.917969 2.902344-6.386719 2.902344-4.695313 0-8.515625-3.820313-8.515625-8.515625s3.820312-8.515625 8.515625-8.515625zm0 0"/></svg>