<svg height="512pt" viewBox="0 -96 512.00234 512" width="512pt" xmlns="http://www.w3.org/2000/svg"><path d="m8.007812 8.007812h496.484376v304.296876h-496.484376zm0 0" fill="#fff2d5"/><g fill="#c1b8c4"><path d="m59.300781 237.695312c13.9375-25.285156-4.042969-47.875-36.636719-53.15625-5.015624-.816406-9.96875-.195312-14.65625 1.488282v75.054687c23.382813 7.046875 40.261719-3.371093 51.292969-23.386719zm0 0"/><path d="m357.507812 272.183594c-20.691406-25.730469 25.585938-67.847656 54.640626-52.164063 29.054687 15.683594 38.628906 42.921875 17.167968 62.234375-21.460937 19.316406-46.71875 21.132813-71.808594-10.070312zm0 0"/><path d="m108.714844 55.574219c-20.691406-25.730469 25.589844-67.851563 54.644531-52.167969s38.628906 42.921875 17.167969 62.238281c-21.460938 19.3125-46.71875 21.128907-71.8125-10.070312zm0 0"/><path d="m16.25 115.265625c16.015625-16.015625 40.039062-16.015625 48.046875 8.007813 8.007813 24.023437-32.03125 56.054687-56.054687 40.039062-14.898438-9.933594-8.007813-32.03125 8.007812-48.046875zm0 0"/><path d="m170.074219 99.25c17.664062-16.015625 44.164062-16.015625 52.996093 8.007812 8.832032 24.023438-35.332031 56.054688-61.832031 40.039063-16.433593-9.933594-8.832031-32.03125 8.835938-48.046875zm0 0"/><path d="m88.320312 243.390625c16.015626-16.015625 40.039063-16.015625 48.046876 8.007813 8.007812 24.023437-32.03125 56.054687-56.054688 40.039062-14.898438-9.933594-8.007812-32.03125 8.007812-48.046875zm0 0"/><path d="m404.984375 110.679688c-19.144531-12.105469-24.421875-35.542969-2.746094-48.632813 21.679688-13.089844 61.722657 18.929687 51.378907 45.886719-6.417969 16.71875-29.488282 14.851562-48.632813 2.746094zm0 0"/><path d="m336.132812 34.46875c22.648438-.273438 39.839844 16.507812 28.789063 39.292969-11.050781 22.785156-62.074219 17.738281-68.078125-10.5-3.726562-17.515625 16.640625-28.519531 39.289062-28.792969zm0 0"/><path d="m402.9375 138.644531c22.511719 2.488281 37.53125 21.238281 23.789062 42.507813-13.742187 21.269531-63.773437 10.046875-66.292968-18.714844-1.5625-17.839844 19.992187-26.277344 42.503906-23.792969zm0 0"/><path d="m112.800781 87.464844c13.40625 3.582031 20.777344 16.324218 10.488281 27.945312-10.285156 11.617188-39.5625.203125-38.433593-17.453125.699219-10.953125 14.535156-14.078125 27.945312-10.492187zm0 0"/><path d="m455.6875 157.628906c2-13.734375 13.796875-22.539062 26.535156-13.671875 12.734375 8.863281 4.808594 39.269531-12.859375 40.207031-10.957031.578126-15.671875-12.800781-13.675781-26.535156zm0 0"/><path d="m119.539062 175.425781c3.167969 16.339844-6.890624 29.699219-25.050781 23.007813-18.160156-6.695313-21.140625-43.828125-1.207031-49.757813 12.359375-3.675781 23.09375 10.410157 26.257812 26.75zm0 0"/><path d="m498.433594 295.542969c3.164062 16.339843-6.894532 29.699219-25.054688 23.007812-18.160156-6.695312-21.136718-43.828125-1.207031-49.757812 12.359375-3.675781 23.09375 10.410156 26.261719 26.75zm0 0"/><path d="m255.585938 121.316406c-11.425782-12.101562-10.089844-28.773437 8.832031-32.851562 18.917969-4.074219 41.324219 25.683594 27.671875 41.367187-8.464844 9.726563-25.078125 3.582031-36.503906-8.515625zm0 0"/><path d="m473.5625 214.859375c9.339844 7.058594 10.03125 18.457031-3.054688 23.066406-13.089843 4.609375-32.003906-13.308593-23.816406-25.246093 5.078125-7.40625 17.527344-4.878907 26.871094 2.179687zm0 0"/><path d="m237.0625 48.261719c9.339844 7.0625 10.03125 18.460937-3.054688 23.070312-13.089843 4.609375-32.003906-13.308593-23.816406-25.25 5.078125-7.402343 17.527344-4.878906 26.871094 2.179688zm0 0"/><path d="m46.875 296.503906c9.339844 7.0625 10.035156 18.460938-3.054688 23.070313-13.085937 4.609375-32-13.308594-23.8125-25.25 5.074219-7.402344 17.527344-4.878907 26.867188 2.179687zm0 0"/><path d="m337.125 115.019531c7.734375-8.792969 19.152344-8.644531 22.78125 4.75s-15.640625 30.929688-26.941406 21.882813c-7.007813-5.609375-3.570313-17.839844 4.160156-26.632813zm0 0"/><path d="m44.875 62.710938c9.339844 7.058593 10.03125 18.457031-3.054688 23.066406-13.089843 4.609375-32.003906-13.308594-23.816406-25.246094 5.078125-7.40625 17.527344-4.878906 26.871094 2.179688zm0 0"/><path d="m485.664062 49.582031c-19.933593 5.929688-16.953124 43.058594 1.207032 49.753907 7.292968 2.6875 13.273437 2.136718 17.621094-.539063v-40.53125c-4.929688-6.902344-11.597657-10.835937-18.828126-8.683594zm0 0"/></g><path d="m384.375 312.304688h-256.25v-96.09375c0-44.226563 35.851562-80.078126 80.078125-80.078126h96.09375c44.226563 0 80.078125 35.851563 80.078125 80.078126zm0 0" fill="#73607b"/><path d="m288.28125 136.132812h-80.078125c-44.226563 0-80.078125 35.851563-80.078125 80.078126v96.09375h80.078125v-96.09375c0-44.226563 35.851563-80.078126 80.078125-80.078126zm0 0" fill="#634e6c"/><path d="m384.375 312.304688h-40.039062v-88.085938c0-26.535156-21.511719-48.046875-48.046876-48.046875h-80.078124c-26.535157 0-48.046876 21.511719-48.046876 48.046875v88.085938h-40.039062v-96.09375c0-44.226563 35.851562-80.078126 80.078125-80.078126h96.09375c44.226563 0 80.078125 35.851563 80.078125 80.078126zm0 0" fill="#ffd982"/><path d="m8.007812 8.007812h496.484376v48.046876h-496.484376zm0 0" fill="#ffe6ab"/><path d="m8.007812 8.007812h56.054688v48.046876h-56.054688zm0 0" fill="#ffcc58"/><path d="m448.4375 8.007812h56.054688v48.046876h-56.054688zm0 0" fill="#ffcc58"/><path d="m224.21875 8.007812h64.0625v48.046876h-64.0625zm0 0" fill="#ffcc58"/><path d="m336.328125 8.007812h64.0625v48.046876h-64.0625zm0 0" fill="#ffcc58"/><path d="m112.109375 8.007812h64.0625v48.046876h-64.0625zm0 0" fill="#ffcc58"/><path d="m256.25 304.296875c-32.03125 0-48.046875-16.015625-48.046875-56.054687 0 0 8.007813 16.015624 24.023437 8.007812-8.007812-8.007812-8.007812-32.03125 0-40.039062 0 0 8.007813 24.023437 16.015626 24.023437 8.007812 0 8.007812-40.039063 8.007812-40.039063s25.691406 23.355469 24.023438 40.039063c0 0 8.007812 8.007813 16.015624-16.015625 20.191407 11.71875 24.023438 80.078125-40.039062 80.078125zm0 0" fill="#e98f6d"/><path d="m240.234375 280.273438c0-8.84375 16.015625-24.023438 16.015625-24.023438s16.015625 15.179688 16.015625 24.023438c0 8.847656-7.167969 16.015624-16.015625 16.015624-8.84375 0-16.015625-7.167968-16.015625-16.015624zm0 0" fill="#ffd982"/><path d="m114.738281 80.210938c-11.476562-3.066407-22.527343-1.882813-29.5625 3.171874-4.671875 3.355469-7.449219 8.363282-7.8125 14.09375-.71875 11.234376 7.054688 21.921876 19.804688 27.226563 4.769531 1.980469 9.546875 2.953125 14.011719 2.953125 7.144531 0 13.492187-2.484375 17.730468-7.269531 6.058594-6.839844 8.121094-14.824219 5.816406-22.484375-2.53125-8.410156-10.003906-15.023438-19.988281-17.691406zm2.933594 30.21875c-2.414063 2.722656-8.746094 2.898437-14.734375.410156-5.519531-2.296875-10.933594-7.023438-10.589844-12.40625.082032-1.277344.542969-2.105469 1.589844-2.855469 1.613281-1.160156 4.652344-2.011719 8.578125-2.011719 2.476563 0 5.300781.335938 8.347656 1.148438 4.773438 1.277344 8.496094 4.226562 9.488281 7.515625.769532 2.5625-.128906 5.320312-2.679687 8.199219zm0 0"/><path d="m486.511719 137.792969c-7.496094-5.21875-15.667969-6.339844-23.007813-3.15625-8.058594 3.492187-13.757812 11.683593-15.242187 21.910156-1.710938 11.757813.753906 22.59375 6.589843 28.992187 3.640626 3.988282 8.527344 6.148438 13.851563 6.148438.351563 0 .703125-.011719 1.058594-.03125 11.238281-.59375 20.949219-9.558594 24.730469-22.839844 3.679687-12.910156.546874-25.089844-7.980469-31.023437zm-6.457031 26.910156c-1.636719 5.75-5.703126 11.675781-11.089844 11.964844-1.265625.0625-2.152344-.292969-3.023438-1.25-2.183594-2.390625-3.996094-8.640625-2.824218-16.707031.710937-4.890626 3.207031-8.933594 6.359374-10.300782 2.457032-1.0625 5.300782-.488281 8.457032 1.707032 2.988281 2.078124 3.898437 8.347656 2.121094 14.585937zm0 0"/><path d="m478.089844 208.871094c-8.207032-6.203125-17.753906-9.152344-25.535156-7.882813-5.117188.832031-9.285157 3.40625-12.054688 7.445313-5.03125 7.339844-4.222656 17.03125 2.109375 25.289062 5.253906 6.851563 14.289063 12.457032 23.425781 12.457032 2.335938 0 4.679688-.367188 6.96875-1.171876 8.285156-2.917968 13.667969-8.644531 14.769532-15.707031 1.140624-7.347656-2.480469-14.988281-9.683594-20.429687zm-5.15625 18.125c-.21875 1.402344-2.054688 2.839844-4.917969 3.847656-3.710937 1.308594-9.890625-1.558594-13.492187-6.257812-1.09375-1.425782-3.445313-5.03125-1.640626-7.660157.195313-.285156.601563-.878906 2.082032-1.117187.390625-.066406.820312-.097656 1.285156-.097656 3.164062 0 7.980469 1.503906 12.785156 5.136718 3 2.269532 4.121094 4.722656 3.898438 6.148438zm0 0"/><path d="m504.492188.5h-496.484376c-4.144531 0-7.507812 3.363281-7.507812 7.507812v304.296876c0 4.148437 3.363281 7.507812 7.507812 7.507812h204.199219c4.148438 0 7.507813-3.359375 7.507813-7.507812 0-4.144532-3.359375-7.507813-7.507813-7.507813h-36.535156v-80.578125c0-22.351562 18.1875-40.539062 40.539063-40.539062h80.078124c22.355469 0 40.539063 18.1875 40.539063 40.539062v80.578125h-40.429687c-4.144532 0-7.507813 3.363281-7.507813 7.507813 0 4.148437 3.363281 7.507812 7.507813 7.507812h208.09375c4.148437 0 7.507812-3.359375 7.507812-7.507812v-85.082032c0-4.144531-3.359375-7.507812-7.507812-7.507812-4.144532 0-7.507813 3.363281-7.507813 7.507812v45.710938c-2.710937-3.742188-5.863281-6.789063-9.328125-8.890625-5.5625-3.375-11.65625-4.21875-17.625-2.445313-7.414062 2.207032-13.238281 7.710938-16.40625 15.503906-3.347656 8.234376-3.484375 18.578126-.679688 27.695313h-61.0625v-2.636719c2.011719.25 4.03125.378906 6.042969.378906 12.929688-.003906 25.707031-5.070312 36.414063-14.703124 10.429687-9.386719 15.363281-21.363282 13.886718-33.714844-1.878906-15.734375-13.730468-30.570313-32.511718-40.710938-7.378906-3.984375-16.164063-5.816406-24.203125-5.234375-.304688-3.3125-.785157-6.574219-1.449219-9.769531 3.949219.828125 8.011719 1.277344 12.023438 1.277344 12.421874 0 24.355468-4.257813 30.949218-14.457032 7.164063-11.089843 8.425782-22.839843 3.554688-33.089843-5.4375-11.449219-17.710938-19.28125-32.828125-20.953125-21-2.324219-38.71875 3.792968-46.566407 15.269531-.398437-.300781-.792968-.597656-1.195312-.890625 3.089844-2.449219 5.824219-5.507812 7.894531-8.960938 3.710938-6.179687 4.867188-12.855468 3.257813-18.792968-2.296875-8.484375-7.609375-14.273438-14.570313-15.890625-7.242187-1.683594-15.128906 1.359375-21.09375 8.144531-5.515625 6.273438-8.957031 13.589844-9.6875 20.324219-5.65625-1.152344-11.507812-1.761719-17.503906-1.761719h-2.667969c3.640625-8.265625 2.636719-18.515625-3.101562-28.238281-6.796875-11.515625-20.867188-22.453125-35.6875-19.257813-14.648438 3.15625-19.457032 12.0625-21.015625 17.09375-2.84375 9.164063.261719 19.722656 8.304687 28.246094.707032.746094 1.425782 1.460938 2.152344 2.15625h-24.394531c4.128906-8.101562 4.984375-16.472656 2.230469-23.960938-4.433594-12.0625-13.144532-20.25-24.527344-23.046874-13.222656-3.25-28.761719 1.375-40.558594 12.070312-13.917969 12.617188-21.492188 27.761719-20.257812 40.515625.570312 5.902344 2.957031 11.023437 6.972656 15.109375-10.390625 8.78125-18.71875 19.929688-24.132813 32.609375.046875-2.5625-.175781-5.214844-.703125-7.925781-2.621094-13.53125-9.402344-24.769532-18.144531-30.070313-5.5625-3.375-11.660156-4.21875-17.628906-2.445312-11.300781 3.363281-18.609375 14.328125-19.066407 28.613281-.425781 13.367188 5.59375 30.140625 19.820313 35.382812 4.382813 1.613282 8.257813 2.246094 11.636719 2.246094 7.460937 0 12.503906-3.074218 15.265625-5.421875 1.371093-1.167969 2.589843-2.484375 3.652343-3.933593-1.195312 5.761718-1.828124 11.730468-1.828124 17.847656v10.179687c-12.066407-4.347656-25.667969-.25-37.605469 11.6875-12.714844 12.714844-19.558594 27.863281-18.304688 40.527344.796875 8.019531 4.75 14.617187 11.441407 19.074219 5.632812 3.757812 11.867187 5.605468 18.371093 5.605468 8.5 0 17.457031-3.171874 26.097657-9.367187v10.878906h-59.675782c-1.035156-5.308593-4.40625-10.402343-9.539062-14.28125-8.207032-6.203125-17.75-9.152343-25.535156-7.882812-4.164063.675781-7.6875 2.527343-10.351563 5.363281v-17.628906c2.160156.277344 4.292969.417968 6.382813.417968 18.011718 0 33.320312-10.132812 43.976562-29.46875 6.777344-12.289062 7.507812-25.21875 2.058594-36.402343-6.9375-14.246094-23-24.375-44.066406-27.789063-2.757813-.449218-5.550782-.554687-8.351563-.34375v-2.460937c2.445313.511719 4.972656.769531 7.546875.765625 9.902344 0 20.550781-3.765625 30.148438-11.097656 15.773437-12.046876 22.917968-28.960938 18.210937-43.09375-4.175781-12.527344-12.558594-20.859376-23.601563-23.464844-10.648437-2.515625-22.375.640625-32.304687 8.464844v-22.425782c5.378906 5.957032 13.558594 10.558594 21.832031 10.558594 2.335938 0 4.679688-.367188 6.96875-1.171875 8.285156-2.917969 13.667969-8.644531 14.769532-15.707031.71875-4.621094-.453126-9.355469-3.207032-13.589844h49.601563c12.886719 14.484375 26.800781 22.246094 41.355469 23.058594.816406.046875 1.636718.070312 2.453124.070312 12.496094 0 24.984376-5.316406 36.261719-15.46875 2.332031-2.097656 3.574219-4.601562 4.480469-6.433594.195312-.390624.433594-.875.632812-1.226562h13.117188c4.886719 8.710938 15.410156 16.003906 25.828125 16.003906 2.324219 0 4.644531-.363281 6.894531-1.15625 9.121094-3.210937 13.355469-9.140625 14.574219-14.847656h38.1875c.070313.417969.144531.835938.234375 1.253906 3.390625 15.957032 18.71875 27.863282 39.042969 30.335938 2.539062.308594 5.03125.460937 7.460937.460937 16.429688 0 30.011719-6.902343 35.675782-18.578125 2.195312-4.53125 3.523437-9.046875 3.988281-13.472656h13.015625c-5.152344 5.804688-7.953125 12.722656-8.03125 20.238281-.128906 12.675781 7.46875 25.09375 20.320312 33.222657 10.972656 6.9375 22.507813 10.609374 32.617188 10.609374 3.894531 0 7.582031-.546874 10.941406-1.660156 7.648438-2.535156 13.214844-7.84375 16.097656-15.351562 5.84375-15.226563-.523437-33.5625-16.226562-46.703125-.144532-.121094-.289063-.238281-.4375-.355469h21.410156c-1.847656 8.347656-.996094 17.839844 2.535156 26.085938 3.503906 8.191406 9.316406 14.132812 16.367188 16.726562 4.003906 1.480469 7.933594 2.21875 11.640625 2.21875.359375 0 .714843-.027344 1.070312-.039062v83.632812c0 4.144531 3.359375 7.507812 7.507813 7.507812 4.144531 0 7.507812-3.363281 7.507812-7.507812v-184.179688c-.003906-4.144531-3.363281-7.507812-7.511718-7.507812zm-395.421876 190.359375c-3.355468 2.851563-8.371093 1.859375-11.988281.527344-5.914062-2.179688-10.308593-11.320313-10.003906-20.8125.09375-2.894531.96875-12.507813 8.339844-14.703125.488281-.144532 1.089843-.277344 1.808593-.277344 1.019532 0 2.273438.269531 3.753907 1.167969 4.945312 3 9.441406 11.074219 11.1875 20.089843 1.167969 6.023438-.019531 11.390626-3.097657 14.007813zm298.828126-142.3125v-33.03125h33.03125v33.03125zm-15.015626-33.03125v33.03125h-49.046874v-33.03125zm-97.09375 33.03125v-33.03125h33.03125v33.03125zm-112.109374 0v-33.03125h33.03125v33.03125zm-15.015626-33.03125v33.03125h-49.046874v-33.03125zm-64.0625 33.03125h-33.03125v-33.03125h33.03125zm31.03125 183.179687h25.023438v33.03125h-25.023438zm65.0625-87.699218v26.859375c-6.617187 1.925781-12.726562 5.046875-18.074218 9.125l-20.117188-20.121094c10.65625-8.664063 23.804688-14.375 38.191406-15.863281zm15.015626 24.652344v-25.039063h33.03125v25.023437h-32.53125c-.167969 0-.332032.011719-.5.015626zm48.046874-.015626v-25.023437h33.03125v25.039063c-.167968 0-.332031-.015626-.5-.015626zm65.152344-20.71875c.882813.570313 1.839844.9375 2.828125 1.101563 6.632813 2.71875 12.777344 6.390625 18.261719 10.847656l-20.117188 20.117188c-5.351562-4.078125-11.460937-7.195313-18.078124-9.125v-26.855469c5.941406.609375 11.671874 1.949219 17.105468 3.914062zm47.957032 68.265626v.5h-25.542969c-1.320313-9.710938-5.148438-18.632813-10.824219-26.082032l20.117188-20.117187c10.152343 12.484375 16.25 28.390625 16.25 45.699219zm-25.023438 15.515624h25.023438v33.03125h-25.023438zm115.691406 51.027344c1.457032-3.582031 3.738282-5.859375 6.777344-6.765625 1.175781-.347656 3.035156-.636719 5.558594.890625 4.949218 3 9.445312 11.074219 11.191406 20.089844.542969 2.804688.574219 5.472656.121094 7.828125h-22.070313c-3.484375-6.492187-4.160156-15.695313-1.578125-22.042969zm-115.691406 22.042969v-25.023437h25.023438v25.023437zm56.738281-78.171875c14.214844 7.671875 23.460938 18.617188 24.734375 29.277344.90625 7.578125-2.128906 14.570312-9.023437 20.773437-9.714844 8.742188-21.113281 12.328125-32.410157 10.296875v-63.765625c5.339844-.539062 11.671876.703125 16.699219 3.417969zm-6.46875-80.515625c9.757813 1.078125 17.773438 5.855469 20.917969 12.46875 2.589844 5.453125 1.6875 11.851563-2.609375 18.5-5.371094 8.316406-21.3125 10.132813-35.535156 4.050781-.136719-.058594-.273438-.101562-.410157-.152344-3.945312-8.941406-9.34375-17.105468-15.894531-24.183593 3.191407-7.8125 17.460938-12.460938 33.53125-10.683594zm-65.417969-12.476563c-.265624-3.058593 1.503907-8.464843 6.070313-13.65625 2.171875-2.472656 4.378906-3.496093 5.835937-3.496093.210938 0 .40625.019531.582032.0625 1.382812.320312 2.683594 2.261719 3.476562 5.191406.523438 1.929687-.074218 4.535156-1.640625 7.148437-2.25 3.746094-6.046875 6.792969-9.449219 7.574219-.222656.050781-.429687.136719-.644531.207031-1.289062-.597656-2.59375-1.160156-3.914062-1.695312-.140625-.3125-.261719-.738281-.316407-1.335938zm-80.535156-30.960937c1.304688-4.203125 6.070313-6.054687 9.839844-6.867187 6.160156-1.324219 14.769531 4.039062 19.597656 12.21875 1.472656 2.492187 5.882813 11.078124.832032 16.878906-.808594.929687-2.222657 2.167968-5.171876 2.226562-.074218.003906-.152343.003906-.226562.003906-5.765625 0-13.761719-4.382812-19.984375-10.972656-4.210937-4.460937-6.082031-9.628906-4.886719-13.488281zm-96.441406 30.085937c-.757812-7.8125 5.285156-18.78125 15.398438-27.945312 8.144531-7.386719 18.449218-10.6875 26.886718-8.613281 6.476563 1.589843 11.324219 6.3125 14.019532 13.648437 2.699218 7.332032-3.226563 15.292969-5.898438 18.371094-.113281.132812-.214844.273438-.320312.40625h-1.601563c-15.945313 0-30.910156 4.289062-43.800781 11.765625-2.863282-1.949219-4.371094-4.390625-4.683594-7.632813zm-7.835938 37.753907 20.121094 20.117187c-5.675781 7.449219-9.507812 16.371094-10.824218 26.082032h-25.546876v-.5c0-17.308594 6.101563-33.214844 16.25-45.699219zm-35.109374 107.230469c-4.316407 3.921874-19.40625 16.039062-32.296876 7.449218-2.941406-1.960937-4.476562-4.523437-4.824218-8.0625-.792969-7.988281 4.695312-19.148437 13.976562-28.429687 5.21875-5.222657 15.453125-13 25.332032-6.429688.527343.351563 1.085937.617188 1.65625.820313v32.804687c-1.386719.222657-2.726563.832031-3.84375 1.847657zm18.859374 2.03125h25.023438v25.023437h-25.023438zm-109.4375 18.796874c.195313-.285156.601563-.875 2.082032-1.117187 3.035156-.492187 8.558594.875 14.070312 5.042969 1.023438.769531 1.8125 1.554687 2.40625 2.300781h-17.886718c-1.070313-1.792969-2.007813-4.273437-.671876-6.226563zm-4.730468-106.621093c15.941406 2.582031 28.269531 9.886719 32.96875 19.539062 3.34375 6.863281 2.769531 14.464844-1.707032 22.585938-9.359374 16.972656-21.558593 23.90625-37.210937 21.117187v-63.320312c2.011719-.261719 4-.238282 5.949219.078125zm.09375-71.375c6.941406-6.945313 15.679687-10.214844 22.808594-8.527344 5.875 1.386719 10.304687 6.085937 12.808593 13.597656 2.566407 7.707031-2.8125 18.570313-13.082031 26.414063-7.574219 5.785156-19.125 10.542968-28.578125 6.65625v-31.121094c1.792969-2.4375 3.820313-4.800781 6.042969-7.019531zm18.789062-51.875c3 2.269531 4.121094 4.722656 3.898438 6.148437-.21875 1.402344-2.058594 2.839844-4.921875 3.851563-3.710938 1.308593-9.886719-1.5625-13.492188-6.261719-1.09375-1.425781-3.441406-5.027344-1.636719-7.660156.195313-.285156.601563-.875 2.082032-1.117188.386718-.0625.808594-.097656 1.269531-.097656h.023437c3.164063.003906 7.972657 1.507812 12.777344 5.136719zm-24.832031-20.152344v-33.03125h41.039063v33.03125zm132.152344 23.085937c-6.773438-.378906-13.550781-3.09375-20.246094-8.070312h43.816406c-7.753906 5.792969-15.660156 8.511719-23.570312 8.070312zm83.84375-7.382812c-1.769531.625-4.050781.289062-6.335938-.6875h8c-.585937.28125-1.164062.511719-1.664062.6875zm.214843-15.703125v-33.03125h49.046876v33.03125zm126.441407 21.9375c-3.546875 7.3125-14.976563 11.324219-27.8125 9.765625-9.945313-1.207031-22.25-6.304688-25.660157-16.6875h55.820313c-.410156 2.222656-1.191406 4.535156-2.347656 6.921875zm88.441406 34.761719c-1.269531 3.300781-3.429687 5.359375-6.804687 6.476562-7.621094 2.523438-19.714844-.371094-30.808594-7.386718-8.296875-5.246094-13.40625-13.054688-13.332032-20.378907.0625-6.035156 3.679688-11.390625 10.453126-15.480469 2.148437-1.296874 4.75-1.921874 7.613281-1.921874 6.429687 0 14.179687 3.140624 21.03125 8.878906 8.132812 6.804687 16.113281 18.695312 11.847656 29.8125zm9.335937-89.730469h41.039063v33.03125h-41.039063zm33.519532 76.777344c-3.136719-1.15625-5.890625-4.195313-7.757813-8.550781-2.742187-6.414063-3-14.457032-.679687-20.179688h15.957031v29.976562c-2.15625.203126-4.710937-.214843-7.519531-1.246093zm0 0"/><path d="m214.917969 244.886719c-1.554688-3.113281-5.050781-4.75-8.4375-3.949219-3.390625.800781-5.785157 3.824219-5.785157 7.304688 0 42.773437 18.171876 63.5625 55.554688 63.5625 43.132812 0 55.324219-27.988282 58.5625-40.023438 5.839844-21.695312-.78125-45.945312-14.753906-54.054688-1.953125-1.132812-4.3125-1.328124-6.425782-.527343-2.113281.796875-3.753906 2.503906-4.464843 4.648437-1.078125 3.226563-2.085938 5.628906-2.972657 7.410156-5.445312-16.523437-22.539062-32.476562-24.894531-34.617187-2.199219-1.996094-5.367187-2.511719-8.085937-1.308594-2.71875 1.199219-4.472656 3.894531-4.472656 6.863281-.003907 11.023438-1.007813 22.492188-2.378907 29.046876-2.34375-3.757813-5.101562-9.691407-7.015625-15.40625-.820312-2.464844-2.863281-4.332032-5.394531-4.929688s-5.195313.15625-7.035156 1.996094c-8.136719 8.136718-10.191407 26.316406-6.171875 39.53125-3.105469-1.128906-4.972656-3.925782-5.828125-5.546875zm41.332031 43.894531c-4.691406 0-8.507812-3.816406-8.507812-8.503906.03125-2.171875 3.730468-7.738282 8.507812-13.183594 4.777344 5.445312 8.480469 11.011719 8.507812 13.179688 0 4.691406-3.816406 8.507812-8.507812 8.507812zm-20.664062-25.816406c2.15625-1.078125 3.664062-3.128906 4.050781-5.511719s-.394531-4.804687-2.101563-6.511719c-1.738281-1.738281-3.601562-6.667968-3.792968-13.558594 3.859374 5.859376 8.707031 10.359376 14.5 10.359376 11.800781 0 13.539062-17.421876 14.476562-26.78125.082031-.804688.15625-1.613282.222656-2.414063 5.609375 7.164063 10.425782 15.292969 9.863282 20.941406-.226563 2.238281.570312 4.464844 2.160156 6.054688 2.191406 2.1875 6.527344 4.320312 11.546875 3.140625 4.59375-1.085938 8.476562-4.4375 11.855469-10.339844 3.269531 7.246094 4.964843 18.316406 1.949218 29.535156-2.214844 8.214844-8.308594 20.660156-25 26.144532 2.800782-3.871094 4.457032-8.621094 4.457032-13.75 0-11.203126-14.050782-25.390626-18.359376-29.472657-2.894531-2.746093-7.433593-2.746093-10.328124 0-4.304688 4.082031-18.359376 18.269531-18.359376 29.472657 0 5.011718 1.582032 9.660156 4.265626 13.480468-11.238282-4.359375-17.636719-13.578125-20.097657-28.769531 5.871094 1.839844 12.292969 1.179687 18.691407-2.019531zm0 0"/></svg>