<svg height="512pt" viewBox="0 0 512 512" width="512pt" xmlns="http://www.w3.org/2000/svg"><path d="m215.921875 231.953125v-224.4375h-208.40625v496.96875h408.796875v-272.53125zm0 0" fill="#b1a7dc"/><path d="m7.515625 7.515625h40.078125v496.96875h-40.078125zm0 0" fill="#9689d0"/><g fill="#ffd982"><path d="m73.667969 30.839844 10.539062 21.347656 23.554688 3.421875-17.046875 16.617187 4.023437 23.460938-21.070312-11.078125-21.066407 11.078125 4.023438-23.460938-17.046875-16.617187 23.554687-3.421875zm0 0"/><path d="m145.8125 135.765625 10.535156 21.347656 23.554688 3.421875-17.046875 16.617188 4.027343 23.460937-21.070312-11.078125-21.070312 11.078125 4.023437-23.460937-17.046875-16.617188 23.554688-3.421875zm0 0"/><path d="m69.609375 239.96875 10.535156 21.347656 23.558594 3.421875-17.046875 16.617188 4.023438 23.460937-21.070313-11.078125-21.070313 11.078125 4.023438-23.460937-17.046875-16.617188 23.558594-3.421875zm0 0"/><path d="m213.890625 288.0625 10.535156 21.347656 23.558594 3.421875-17.046875 16.617188 4.023438 23.460937-21.070313-11.078125-21.070313 11.078125 4.023438-23.460937-17.042969-16.617188 23.554688-3.421875zm0 0"/><path d="m358.171875 399.558594 10.539063 21.347656 23.554687 3.421875-17.046875 16.617187 4.023438 23.460938-21.070313-11.078125-21.070313 11.078125 4.027344-23.460938-17.046875-16.617187 23.554688-3.421875zm0 0"/><path d="m101.671875 392.265625 10.535156 21.347656 23.558594 3.421875-17.046875 16.617188 4.023438 23.460937-21.070313-11.074219-21.070313 11.074219 4.023438-23.460937-17.046875-16.617188 23.558594-3.421875zm0 0"/></g><path d="m416.3125 231.953125h-200.390625c48.695313 0 88.171875 39.476563 88.171875 88.171875s-39.476562 88.171875-88.171875 88.171875h200.390625c48.695312 0 88.171875-39.476563 88.171875-88.171875s-39.476563-88.171875-88.171875-88.171875zm0 0" fill="#efedf0"/><path d="m289.828125 368.21875c-15.734375 24.128906-42.953125 40.078125-73.90625 40.078125h200.390625c30.953125 0 58.175781-15.949219 73.90625-40.078125zm0 0" fill="#d0cad3"/><path d="m114.910156 53.285156c-.882812-2.71875-3.234375-4.703125-6.066406-5.113281l-19.648438-2.855469-8.789062-17.800781c-2.699219-5.476563-10.773438-5.476563-13.476562 0l-8.785157 17.800781-19.648437 2.855469c-6.035156.878906-8.542969 8.550781-4.164063 12.816406l14.214844 13.859375-3.355469 19.570313c-1.027344 6.003906 5.484375 10.769531 10.902344 7.921875l17.574219-9.238282 17.574219 9.238282c5.40625 2.839844 11.933593-1.90625 10.902343-7.921875l-3.355469-19.570313 14.214844-13.859375c2.054688-1.996093 2.789063-4.980469 1.90625-7.703125zm-29.4375 13.558594c-1.773437 1.726562-2.582031 4.214844-2.164062 6.652344l1.449218 8.453125-7.589843-3.992188c-1.097657-.574219-2.296875-.863281-3.5-.863281-1.199219 0-2.398438.289062-3.496094.863281l-7.589844 3.992188 1.449219-8.453125c.417969-2.4375-.390625-4.925782-2.164062-6.652344l-6.140626-5.988281 8.488282-1.234375c2.449218-.355469 4.5625-1.890625 5.660156-4.109375l3.792969-7.691407 3.796875 7.691407c1.097656 2.21875 3.210937 3.753906 5.660156 4.109375l8.488281 1.234375zm0 0"/><path d="m174.289062 199.34375-3.359374-19.570312 14.21875-13.855469c4.375-4.269531 1.871093-11.941407-4.164063-12.820313l-19.648437-2.851562-8.785157-17.804688c-2.703125-5.476562-10.777343-5.476562-13.480469 0l-8.785156 17.804688-19.648437 2.851562c-6.035157.878906-8.542969 8.550782-4.164063 12.820313l14.21875 13.855469-3.359375 19.570312c-1.03125 6.015625 5.496094 10.765625 10.90625 7.921875l17.570313-9.238281 17.574218 9.238281c5.417969 2.847656 11.933594-1.917969 10.90625-7.921875zm-16.675781-27.574219c-1.773437 1.726563-2.582031 4.214844-2.164062 6.652344l1.453125 8.457031-7.59375-3.992187c-1.097656-.578125-2.296875-.863281-3.496094-.863281-1.203125 0-2.402344.285156-3.5.863281l-7.589844 3.992187 1.449219-8.457031c.417969-2.4375-.390625-4.925781-2.164063-6.652344l-6.140624-5.988281 8.488281-1.234375c2.449219-.355469 4.566406-1.890625 5.660156-4.109375l3.796875-7.691406 3.792969 7.691406c1.097656 2.21875 3.214843 3.753906 5.660156 4.109375l8.488281 1.234375zm0 0"/><path d="m44.125 310.894531c2.289062 1.664063 5.40625 1.890625 7.910156.574219l17.574219-9.238281 17.574219 9.238281c5.40625 2.839844 11.933594-1.90625 10.902344-7.921875l-3.355469-19.570313 14.21875-13.859374c4.375-4.265626 1.871093-11.941407-4.167969-12.816407l-19.644531-2.855469-8.789063-17.804687c-2.703125-5.472656-10.773437-5.472656-13.476562 0l-8.789063 17.804687-19.644531 2.855469c-6.039062.878907-8.542969 8.550781-4.167969 12.816407l14.21875 13.859374-3.355469 19.570313c-.484374 2.820313.675782 5.667969 2.992188 7.347656zm16.03125-42.144531c2.445312-.351562 4.5625-1.890625 5.65625-4.109375l3.796875-7.691406 3.796875 7.691406c1.09375 2.21875 3.210938 3.753906 5.65625 4.109375l8.492188 1.234375-6.144532 5.988281c-1.769531 1.726563-2.578125 4.214844-2.160156 6.652344l1.449219 8.457031-7.59375-3.992187c-2.1875-1.152344-4.804688-1.152344-6.992188 0l-7.59375 3.992187 1.449219-8.457031c.417969-2.4375-.386719-4.925781-2.160156-6.652344l-6.144532-5.988281zm0 0"/><path d="m196.320312 359.5625 17.570313-9.238281 17.574219 9.238281c5.40625 2.839844 11.9375-1.90625 10.902344-7.921875l-3.355469-19.570313 14.21875-13.859374c4.375-4.265626 1.871093-11.941407-4.164063-12.816407l-19.648437-2.855469-8.789063-17.804687c-2.703125-5.472656-10.773437-5.472656-13.476562 0l-8.785156 17.804687-19.648438 2.855469c-6.039062.878907-8.542969 8.550781-4.164062 12.816407l14.214843 13.859374-3.355469 19.570313c-1.027343 6.003906 5.484376 10.769531 10.90625 7.921875zm8.117188-42.714844c2.449219-.355468 4.5625-1.894531 5.65625-4.113281l3.796875-7.691406 3.796875 7.691406c1.09375 2.21875 3.210938 3.753906 5.660156 4.113281l8.488282 1.230469-6.144532 5.988281c-1.769531 1.726563-2.578125 4.214844-2.160156 6.652344l1.449219 8.457031-7.59375-3.992187c-2.1875-1.152344-4.800781-1.152344-6.992188 0l-7.59375 3.992187 1.449219-8.457031c.417969-2.4375-.386719-4.925781-2.160156-6.652344l-6.140625-5.984375zm0 0"/><path d="m142.914062 414.714844c-.886718-2.722656-3.238281-4.703125-6.066406-5.117188l-19.648437-2.851562-8.789063-17.804688c-2.699218-5.476562-10.773437-5.476562-13.476562 0l-8.785156 17.804688-19.648438 2.851562c-6.035156.878906-8.542969 8.550782-4.164062 12.820313l14.214843 13.855469-3.355469 19.570312c-1.03125 6.003906 5.484376 10.769531 10.902344 7.921875l17.574219-9.238281 17.574219 9.238281c5.40625 2.839844 11.933594-1.90625 10.902344-7.921875l-3.355469-19.570312 14.21875-13.859376c2.046875-1.992187 2.785156-4.980468 1.902343-7.699218zm-29.441406 13.554687c-1.773437 1.726563-2.578125 4.214844-2.160156 6.652344l1.449219 8.457031-7.59375-3.992187c-2.191407-1.152344-4.804688-1.152344-6.992188 0l-7.59375 3.992187 1.449219-8.457031c.417969-2.4375-.390625-4.925781-2.160156-6.652344l-6.144532-5.984375 8.492188-1.234375c2.445312-.355469 4.5625-1.894531 5.65625-4.113281l3.796875-7.691406 3.796875 7.691406c1.09375 2.21875 3.210938 3.757812 5.65625 4.113281l8.492188 1.234375zm0 0"/><path d="m512 320.125c0-52.761719-42.925781-95.6875-95.6875-95.6875h-192.875v-216.921875c0-4.152344-3.367188-7.515625-7.515625-7.515625h-208.40625c-4.152344 0-7.515625 3.363281-7.515625 7.515625v496.96875c0 4.152344 3.363281 7.515625 7.515625 7.515625h152.628906c4.152344 0 7.515625-3.363281 7.515625-7.515625 0-4.148437-3.363281-7.515625-7.515625-7.515625h-145.113281v-481.9375h193.375v216.921875c0 4.148437 3.367188 7.515625 7.515625 7.515625 44.476563 0 80.65625 36.179688 80.65625 80.65625s-36.179687 80.65625-80.65625 80.65625c-4.148437 0-7.515625 3.367188-7.515625 7.515625 0 4.152344 3.367188 7.515625 7.515625 7.515625h114.511719l-7.433594 1.078125c-6.035156.878906-8.542969 8.550781-4.164062 12.820313l14.214843 13.855468-3.355469 19.570313c-1.03125 6.003906 5.484376 10.769531 10.902344 7.921875l17.574219-9.238282 17.574219 9.238282c5.40625 2.839844 11.933594-1.90625 10.902344-7.921875l-3.355469-19.570313 14.21875-13.855468c4.375-4.269532 1.871093-11.941407-4.167969-12.820313l-7.429688-1.078125h22.882813v81.15625h-212.582031c-4.148438 0-7.511719 3.367188-7.511719 7.515625 0 4.152344 3.363281 7.515625 7.511719 7.515625h220.097656c4.152344 0 7.515625-3.363281 7.515625-7.515625v-88.964844c49.261719-3.847656 88.171875-45.160156 88.171875-95.394531zm-142.027344 115.4375c-1.769531 1.726562-2.578125 4.214844-2.160156 6.652344l1.449219 8.457031-7.589844-3.992187c-1.097656-.578126-2.296875-.863282-3.5-.863282-1.199219 0-2.398437.285156-3.496094.863282l-7.59375 3.992187 1.453125-8.457031c.417969-2.4375-.390625-4.925782-2.160156-6.652344l-6.144531-5.988281 8.488281-1.230469c2.449219-.355469 4.5625-1.894531 5.660156-4.109375l3.796875-7.695313 3.792969 7.691407c1.097656 2.21875 3.210938 3.757812 5.660156 4.113281l8.488282 1.230469zm46.339844-34.78125h-148.957031c26.59375-17.015625 44.253906-46.808594 44.253906-80.65625s-17.660156-63.640625-44.253906-80.65625h148.957031c44.476562 0 80.65625 36.179688 80.65625 80.65625s-36.179688 80.65625-80.65625 80.65625zm0 0"/></svg>