<svg height="512pt" viewBox="0 -120 512 512" width="512pt" xmlns="http://www.w3.org/2000/svg"><path d="m296.078125 7.515625h-160.3125v128.25h160.3125c35.414063 0 64.125-28.710937 64.125-64.125s-28.710937-64.125-64.125-64.125zm0 0" fill="#cbc4e8"/><path d="m296.078125 103.703125h-160.3125v32.0625h160.3125c35.414063 0 64.125-28.710937 64.125-64.125 0-5.535156-.699219-10.90625-2.019531-16.03125-7.117188 27.65625-32.226563 48.09375-62.105469 48.09375zm0 0" fill="#b1a7dc"/><path d="m199.890625 71.640625c0 35.414063-28.710937 64.125-64.125 64.125s-64.125-28.710937-64.125-64.125c0-35.417969 28.710937-64.125 64.125-64.125s64.125 28.707031 64.125 64.125zm0 0" fill="#9689d0"/><path d="m159.8125 71.640625c0 13.28125-10.765625 24.046875-24.046875 24.046875s-24.046875-10.765625-24.046875-24.046875 10.765625-24.046875 24.046875-24.046875 24.046875 10.765625 24.046875 24.046875zm0 0" fill="#7c6cc4"/><path d="m440.359375 135.765625h-240.46875c35.414063 0 64.125-28.710937 64.125-64.125h240.46875c0 35.414063-28.710937 64.125-64.125 64.125zm0 0" fill="#9689d0"/><path d="m231.953125 135.765625h-160.3125v128.25h160.3125c35.414063 0 64.125-28.710937 64.125-64.125s-28.710937-64.125-64.125-64.125zm0 0" fill="#ffe6ab"/><path d="m231.953125 231.953125h-160.3125v32.0625h160.3125c35.414063 0 64.125-28.710937 64.125-64.125 0-5.535156-.703125-10.90625-2.019531-16.03125-7.121094 27.65625-32.226563 48.09375-62.105469 48.09375zm0 0" fill="#ffd982"/><path d="m135.765625 199.890625c0 35.414063-28.710937 64.125-64.125 64.125-35.417969 0-64.125-28.710937-64.125-64.125s28.707031-64.125 64.125-64.125c35.414063 0 64.125 28.710937 64.125 64.125zm0 0" fill="#ffd982"/><path d="m95.6875 199.890625c0 13.28125-10.765625 24.046875-24.046875 24.046875s-24.046875-10.765625-24.046875-24.046875 10.765625-24.046875 24.046875-24.046875 24.046875 10.765625 24.046875 24.046875zm0 0" fill="#ffc02e"/><path d="m400.28125 135.765625h-160.3125v128.25h160.3125c35.414062 0 64.125-28.710937 64.125-64.125s-28.710938-64.125-64.125-64.125zm0 0" fill="#f4b7d3"/><path d="m400.28125 231.953125h-160.3125v32.0625h160.3125c35.414062 0 64.125-28.710937 64.125-64.125 0-5.535156-.699219-10.90625-2.019531-16.03125-7.117188 27.65625-32.226563 48.09375-62.105469 48.09375zm0 0" fill="#ee93bd"/><path d="m304.09375 199.890625c0 35.414063-28.710938 64.125-64.125 64.125s-64.125-28.710937-64.125-64.125 28.710938-64.125 64.125-64.125 64.125 28.710937 64.125 64.125zm0 0" fill="#e96fa7"/><path d="m264.015625 199.890625c0 13.28125-10.765625 24.046875-24.046875 24.046875s-24.046875-10.765625-24.046875-24.046875 10.765625-24.046875 24.046875-24.046875 24.046875 10.765625 24.046875 24.046875zm0 0" fill="#e34b91"/><path d="m135.765625 40.078125c-17.402344 0-31.5625 14.160156-31.5625 31.5625s14.160156 31.5625 31.5625 31.5625 31.5625-14.160156 31.5625-31.5625-14.160156-31.5625-31.5625-31.5625zm0 48.09375c-9.117187 0-16.53125-7.417969-16.53125-16.53125 0-9.117187 7.414063-16.53125 16.53125-16.53125s16.53125 7.414063 16.53125 16.53125c0 9.113281-7.414063 16.53125-16.53125 16.53125zm0 0"/><path d="m512 39.578125c0-4.152344-3.363281-7.515625-7.515625-7.515625-4.148437 0-7.515625 3.363281-7.515625 7.515625v24.546875h-41.078125v-24.546875c0-4.152344-3.363281-7.515625-7.515625-7.515625-4.148438 0-7.515625 3.363281-7.515625 7.515625v24.546875h-49.09375v-24.546875c0-4.152344-3.363281-7.515625-7.515625-7.515625s-7.515625 3.363281-7.515625 7.515625v24.546875h-9.414063c-3.765624-35.984375-34.277343-64.125-71.242187-64.125h-24.046875c-4.152344 0-7.515625 3.363281-7.515625 7.515625 0 4.148437 3.363281 7.515625 7.515625 7.515625h24.046875c28.667969 0 52.40625 21.421875 56.097656 49.09375h-24.535156v-24.546875c0-4.152344-3.363281-7.515625-7.515625-7.515625s-7.515625 3.363281-7.515625 7.515625v24.546875h-41.078125v-24.546875c0-4.152344-3.363281-7.515625-7.515625-7.515625s-7.515625 3.363281-7.515625 7.515625v31.726563c0 .058593.007812.113281.007812.167968 0 .058594-.007812.109375-.007812.167969 0 31.214844-25.394531 56.609375-56.609375 56.609375h-20.300781c16.90625-13.113281 27.816406-33.605469 27.816406-56.609375s-10.910156-43.492187-27.816406-56.609375h57.371094c4.152343 0 7.515624-3.367188 7.515624-7.515625s-3.363281-7.515625-7.515624-7.515625h-101.195313c-39.503906 0-71.640625 32.136719-71.640625 71.640625 0 23.003906 10.910156 43.492187 27.816406 56.609375h-20.300781c-39.503906 0-71.640625 32.136719-71.640625 71.640625 0 39.5 32.136719 71.640625 71.640625 71.640625h328.640625c39.503906 0 71.640625-32.140625 71.640625-71.640625 0-23.054687-10.960937-43.589844-27.929687-56.703125 37.820312-1.898438 68.007812-33.261719 68.007812-71.546875 0-.058594-.007812-.113281-.007812-.167969 0-.054687.007812-.109375.007812-.167968zm-215.421875 160.3125c0 31.214844-25.394531 56.609375-56.609375 56.609375s-56.609375-25.394531-56.609375-56.609375 25.394531-56.609375 56.609375-56.609375 56.609375 25.394531 56.609375 56.609375zm-217.421875-128.25c0-31.214844 25.394531-56.609375 56.609375-56.609375s56.609375 25.394531 56.609375 56.609375-25.394531 56.609375-56.609375 56.609375-56.609375-25.394531-56.609375-56.609375zm-64.125 128.25c0-31.214844 25.394531-56.609375 56.609375-56.609375s56.609375 25.394531 56.609375 56.609375-25.394531 56.609375-56.609375 56.609375-56.609375-25.394531-56.609375-56.609375zm100.433594 56.609375c16.90625-13.117188 27.816406-33.605469 27.816406-56.609375s-10.910156-43.496094-27.816406-56.609375h80.675781c-16.902344 13.113281-27.8125 33.605469-27.8125 56.609375s10.910156 43.492187 27.816406 56.609375zm341.425781-56.609375c0 31.214844-25.394531 56.609375-56.609375 56.609375h-116.488281c16.90625-13.117188 27.816406-33.605469 27.816406-56.609375s-10.910156-43.496094-27.816406-56.609375h116.488281c31.214844 0 56.609375 25.394531 56.609375 56.609375zm-16.53125-71.640625h-196.613281c15.03125-11.667969 25.308594-29.179688 27.390625-49.09375h225.335937c-3.683594 27.675781-27.445312 49.09375-56.113281 49.09375zm0 0"/><path d="m103.203125 199.890625c0-17.402344-14.160156-31.5625-31.5625-31.5625s-31.5625 14.160156-31.5625 31.5625 14.160156 31.5625 31.5625 31.5625 31.5625-14.160156 31.5625-31.5625zm-48.09375 0c0-9.117187 7.414063-16.53125 16.53125-16.53125 9.113281 0 16.53125 7.414063 16.53125 16.53125s-7.417969 16.53125-16.53125 16.53125c-9.117187 0-16.53125-7.414063-16.53125-16.53125zm0 0"/><path d="m239.96875 231.453125c17.402344 0 31.5625-14.160156 31.5625-31.5625s-14.160156-31.5625-31.5625-31.5625-31.5625 14.160156-31.5625 31.5625 14.160156 31.5625 31.5625 31.5625zm0-48.09375c9.117188 0 16.53125 7.414063 16.53125 16.53125s-7.414062 16.53125-16.53125 16.53125-16.53125-7.414063-16.53125-16.53125 7.414062-16.53125 16.53125-16.53125zm0 0"/></svg>