<svg height="512pt" viewBox="0 0 512 512" width="512pt" xmlns="http://www.w3.org/2000/svg"><path d="m79.65625 7.515625c-39.84375 0-72.140625 32.296875-72.140625 72.140625 0 39.839844 32.296875 72.140625 72.140625 72.140625h256.5v-144.28125zm0 0" fill="#b7e3ea"/><path d="m103.703125 127.75c-39.84375 0-72.140625-32.300781-72.140625-72.140625 0-13.757813 3.855469-26.617187 10.539062-37.554687-20.742187 12.671874-34.585937 35.515624-34.585937 61.601562 0 39.839844 32.296875 72.140625 72.140625 72.140625h256.5v-24.046875zm0 0" fill="#6fc7d4"/><path d="m408.296875 79.65625c0 39.839844-32.296875 72.140625-72.140625 72.140625s-72.140625-32.300781-72.140625-72.140625c0-39.84375 32.296875-72.140625 72.140625-72.140625s72.140625 32.296875 72.140625 72.140625zm0 0" fill="#dbf1f4"/><path d="m368.21875 79.65625c0 17.707031-14.355469 32.0625-32.0625 32.0625s-32.0625-14.355469-32.0625-32.0625 14.355469-32.0625 32.0625-32.0625 32.0625 14.355469 32.0625 32.0625zm0 0" fill="#ffd982"/><path d="m460.398438 71.640625h-116.226563c-6.640625 0-12.023437 5.382813-12.023437 12.023437 0 6.640626 5.382812 12.023438 12.023437 12.023438h116.226563c11.050781 0 20.039062 8.988281 20.039062 20.039062v64.125c0 11.050782-8.988281 20.039063-20.039062 20.039063h-272.53125c-6.640626 0-12.023438 5.382813-12.023438 12.023437v284.554688c0 6.640625 5.382812 12.023438 12.023438 12.023438 6.640624 0 12.023437-5.382813 12.023437-12.023438v-272.53125h260.507813c24.308593 0 44.085937-19.777344 44.085937-44.085938v-64.125c0-24.308593-19.777344-44.085937-44.085937-44.085937zm0 0" fill="#d0cad3"/><path d="m151.796875 320.125h72.140625v184.359375h-72.140625zm0 0" fill="#827189"/><path d="m151.796875 320.125h32.0625v184.359375h-32.0625zm0 0" fill="#634e6c"/><path d="m79.65625 7.515625v80.15625c0 8.851563 7.175781 16.03125 16.03125 16.03125s16.03125-7.179687 16.03125-16.03125v-24.046875c0-8.855469 7.175781-16.03125 16.03125-16.03125s16.03125 7.175781 16.03125 16.03125v8.015625c0 8.851563 7.175781 16.03125 16.03125 16.03125s16.03125-7.179687 16.03125-16.03125v-8.015625c0-8.855469 7.175781-16.03125 16.03125-16.03125s16.03125 7.175781 16.03125 16.03125v40.078125c0 8.851563 7.175781 16.03125 16.03125 16.03125s16.03125-7.179687 16.03125-16.03125v-96.1875zm0 0" fill="#4bbac9"/><path d="m460.398438 64.125h-47.6875c-3.425782-17.460938-12.363282-33.304688-25.375-44.839844-14.027344-12.4375-32.203126-19.285156-51.179688-19.285156h-256.5c-43.921875 0-79.65625 35.734375-79.65625 79.65625s35.734375 79.65625 79.65625 79.65625h76.648438c4.152343 0 7.515624-3.367188 7.515624-7.515625 0-4.152344-3.363281-7.515625-7.515624-7.515625h-76.648438c-35.636719 0-64.625-28.992188-64.625-64.625 0-33.09375 25.003906-60.4375 57.109375-64.175781v72.191406c0 12.984375 10.5625 23.546875 23.546875 23.546875s23.546875-10.5625 23.546875-23.546875v-24.046875c0-4.695312 3.820313-8.515625 8.515625-8.515625s8.515625 3.820313 8.515625 8.515625v8.015625c0 12.984375 10.5625 23.546875 23.546875 23.546875s23.546875-10.5625 23.546875-23.546875v-8.015625c0-4.695312 3.820313-8.515625 8.515625-8.515625s8.515625 3.820313 8.515625 8.515625v40.078125c0 12.984375 10.5625 23.546875 23.546875 23.546875s23.546875-10.5625 23.546875-23.546875v-88.671875h42.191406c-20.074219 14.476562-33.175781 38.042969-33.175781 64.625s13.101562 50.148438 33.175781 64.625h-97.300781c-4.148438 0-7.515625 3.363281-7.515625 7.515625 0 4.148437 3.367187 7.515625 7.515625 7.515625h143.78125c34.492188 0 64.195312-22.46875 74.527344-56.109375h49.714844c6.90625 0 12.523437 5.617187 12.523437 12.523437v64.125c0 6.90625-5.617187 12.523438-12.523437 12.523438h-272.53125c-10.773438 0-19.539063 8.765625-19.539063 19.539062v100.695313h-16.53125c-4.152344 0-7.515625 3.367187-7.515625 7.515625v184.359375c0 4.152344 3.363281 7.515625 7.515625 7.515625 4.148437 0 7.515625-3.363281 7.515625-7.515625v-176.84375h57.109375v176.84375c0 4.152344 3.367187 7.515625 7.515625 7.515625s7.515625-3.363281 7.515625-7.515625v-184.359375c0-4.148438-3.367187-7.515625-7.515625-7.515625h-16.53125v-81.15625h252.992188c28.453124 0 51.601562-23.148437 51.601562-51.601563v-64.125c0-28.453124-23.148438-51.601562-51.601562-51.601562zm-227.945313 39.578125c0 4.695313-3.820313 8.515625-8.515625 8.515625s-8.515625-3.820312-8.515625-8.515625v-40.078125c0-12.984375-10.5625-23.546875-23.546875-23.546875s-23.546875 10.5625-23.546875 23.546875v8.015625c0 4.695313-3.820313 8.515625-8.515625 8.515625s-8.515625-3.820312-8.515625-8.515625v-8.015625c0-12.984375-10.5625-23.546875-23.546875-23.546875s-23.546875 10.5625-23.546875 23.546875v24.046875c0 4.695313-3.820313 8.515625-8.515625 8.515625s-8.515625-3.820312-8.515625-8.515625v-72.640625h145.28125zm103.703125 40.578125c-35.632812 0-64.625-28.992188-64.625-64.625 0-35.636719 28.992188-64.625 64.625-64.625 29.753906 0 54.242188 19.9375 61.183594 49.09375h-24.777344c-6.128906-14.40625-20.355469-24.046875-36.40625-24.046875-21.824219 0-39.578125 17.753906-39.578125 39.578125 0 21.820312 17.753906 39.578125 39.578125 39.578125 11.347656 0 22.167969-4.886719 29.683594-13.398437.699218-.792969 1.195312-1.691407 1.503906-2.632813h27.457031c-9.507812 24.808594-32.367187 41.078125-58.644531 41.078125zm7.066406-41.128906c-2.269531.683594-4.648437 1.050781-7.066406 1.050781-13.535156 0-24.546875-11.011719-24.546875-24.546875s11.011719-24.546875 24.546875-24.546875c7.558594 0 14.457031 3.449219 19.011719 9.015625h-10.996094c-10.773437 0-19.539063 8.765625-19.539063 19.539062 0 10.453126 8.257813 18.992188 18.589844 19.488282zm153.746094 76.699218c0 20.164063-16.402344 36.570313-36.570312 36.570313h-260.507813c-4.148437 0-7.515625 3.367187-7.515625 7.515625v88.671875h-9.015625v-100.695313c0-2.484374 2.023437-4.507812 4.507813-4.507812h272.53125c15.195312 0 27.554687-12.359375 27.554687-27.554688v-64.125c0-15.195312-12.359375-27.554687-27.554687-27.554687h-116.226563c-2.484375 0-4.507813-2.023437-4.507813-4.507813 0-2.488281 2.023438-4.507812 4.507813-4.507812h116.226563c20.167968 0 36.570312 16.40625 36.570312 36.570312zm0 0"/></svg>