<svg height="512pt" viewBox="0 -44 512 512" width="512pt" xmlns="http://www.w3.org/2000/svg"><path d="m504.484375 95.6875h-496.96875v320.625h432.84375c35.414063 0 64.125-28.710938 64.125-64.125l-16.03125-144.28125zm0 0" fill="#d2df7c"/><path d="m7.515625 95.6875h56.109375v320.625h-56.109375zm0 0" fill="#b3c924"/><path d="m440.359375 7.515625c-35.414063 0-64.125 28.710937-64.125 64.125v280.546875c0-35.414062 28.710937-64.125 64.125-64.125s64.125 28.710938 64.125 64.125v-280.546875c0-35.414063-28.710937-64.125-64.125-64.125zm0 0" fill="#f0f4d3"/><path d="m376.234375 71.640625v280.546875c0-23.730469 12.902344-44.433594 32.0625-55.523438v-280.550781c-19.160156 11.089844-32.0625 31.796875-32.0625 55.527344zm0 0" fill="#e1eaa8"/><path d="m440.359375 0c-39.5 0-71.640625 32.136719-71.640625 71.640625v16.53125h-268.023438c-4.148437 0-7.511718 3.363281-7.511718 7.515625 0 4.148438 3.363281 7.515625 7.511718 7.515625h268.023438v41.078125h-305.09375c-4.152344 0-7.515625 3.363281-7.515625 7.515625v216.421875c0 4.152344 3.363281 7.515625 7.515625 7.515625h352.6875c4.152344 0 7.515625-3.363281 7.515625-7.515625v-70.171875c5.230469-1.601563 10.78125-2.46875 16.53125-2.46875 31.214844 0 56.609375 25.394531 56.609375 56.609375s-25.394531 56.609375-56.609375 56.609375h-425.328125v-305.59375h48.59375c4.148438 0 7.515625-3.367187 7.515625-7.515625 0-4.152344-3.367187-7.515625-7.515625-7.515625h-56.109375c-4.152344 0-7.515625 3.363281-7.515625 7.515625v320.625c0 4.152344 3.363281 7.515625 7.515625 7.515625h432.84375c39.503906 0 71.640625-32.136719 71.640625-71.640625v-280.546875c0-39.503906-32.136719-71.640625-71.640625-71.640625zm-71.640625 208.40625h-49.09375v-49.09375h49.09375zm-64.125 135.765625v16.53125h-105.203125v-16.53125c0-4.148437-3.367187-7.515625-7.515625-7.515625h-23.371094c3.179688-9.871094 12.457032-17.03125 23.371094-17.03125 4.148438 0 7.515625-3.367188 7.515625-7.515625v-72.140625c0-4.148438-3.367187-7.515625-7.515625-7.515625h-23.371094c3.179688-9.871094 12.457032-17.03125 23.371094-17.03125 4.148438 0 7.515625-3.367187 7.515625-7.515625v-48.59375h105.203125v152.796875c0 4.148437 3.367188 7.515625 7.515625 7.515625h23.371094c-3.179688 9.871094-12.457031 17.03125-23.371094 17.03125-4.148437 0-7.515625 3.367188-7.515625 7.515625zm-120.234375-184.859375v41.804688c-18.238281 3.519531-32.0625 19.597656-32.0625 38.851562 0 4.148438 3.363281 7.515625 7.515625 7.515625h24.546875v17.03125h-113.21875v-105.203125zm-113.21875 120.234375h113.21875v25.773437c-18.238281 3.519532-32.0625 19.597657-32.0625 38.851563 0 4.152344 3.363281 7.515625 7.515625 7.515625h24.546875v9.015625h-113.21875zm337.65625 81.15625h-89.171875v-9.730469c18.242188-3.519531 32.0625-19.609375 32.0625-38.863281 0-4.148437-3.363281-7.515625-7.515625-7.515625h-24.546875v-81.15625h49.09375v128.75c0 4.152344 3.367188 7.515625 7.515625 7.515625 4.152344 0 7.515625-3.363281 7.515625-7.515625 0-19.539062 9.949219-36.792969 25.046875-46.972656zm31.5625-80.15625c-22.992187 0-43.492187 10.890625-56.609375 27.785156v-236.691406c0-31.214844 25.394531-56.609375 56.609375-56.609375s56.609375 25.394531 56.609375 56.609375v236.691406c-13.117188-16.894531-33.613281-27.785156-56.609375-27.785156zm0 0"/></svg>