<svg height="512pt" viewBox="0 0 512 512" width="512pt" xmlns="http://www.w3.org/2000/svg"><path d="m7.515625 7.515625h496.96875v496.96875h-496.96875zm0 0" fill="#b1a6b5"/><path d="m47.59375 480.4375v-472.921875h-40.078125v496.96875h496.96875v-24.046875zm0 0" fill="#928398"/><path d="m7.515625 7.515625h128.25v128.25h-128.25zm0 0" fill="#efedf0"/><path d="m39.578125 111.71875v-104.203125h-32.0625v128.25h128.25v-24.046875zm0 0" fill="#d0cad3"/><path d="m39.578125 71.640625 32.0625-32.0625 32.0625 32.0625-32.0625 32.0625zm0 0" fill="#ee93bd"/><path d="m135.765625 7.515625h128.25v128.25h-128.25zm0 0" fill="#efedf0"/><path d="m167.828125 111.71875v-104.203125h-32.0625v128.25h128.25v-24.046875zm0 0" fill="#d0cad3"/><path d="m167.828125 71.640625 32.0625-32.0625 32.0625 32.0625-32.0625 32.0625zm0 0" fill="#b1a7dc"/><path d="m264.015625 7.515625h128.25v128.25h-128.25zm0 0" fill="#efedf0"/><path d="m296.078125 111.71875v-104.203125h-32.0625v128.25h128.25v-24.046875zm0 0" fill="#d0cad3"/><path d="m296.078125 71.640625 32.0625-32.0625 32.0625 32.0625-32.0625 32.0625zm0 0" fill="#ee93bd"/><path d="m135.765625 135.765625h128.25v128.25h-128.25zm0 0" fill="#efedf0"/><path d="m167.828125 239.96875v-104.203125h-32.0625v128.25h128.25v-24.046875zm0 0" fill="#d0cad3"/><path d="m167.824219 199.890625 32.0625-32.0625 32.0625 32.0625-32.0625 32.0625zm0 0" fill="#ee93bd"/><path d="m7.515625 135.765625h128.25v128.25h-128.25zm0 0" fill="#efedf0"/><path d="m39.578125 239.96875v-104.203125h-32.0625v128.25h128.25v-24.046875zm0 0" fill="#d0cad3"/><path d="m39.578125 199.890625 32.0625-32.0625 32.0625 32.0625-32.0625 32.0625zm0 0" fill="#b1a7dc"/><path d="m7.515625 264.015625h128.25v128.25h-128.25zm0 0" fill="#efedf0"/><path d="m39.578125 368.21875v-104.203125h-32.0625v128.25h128.25v-24.046875zm0 0" fill="#d0cad3"/><path d="m39.574219 328.140625 32.0625-32.0625 32.0625 32.0625-32.0625 32.0625zm0 0" fill="#ee93bd"/><path d="m504.484375 189.539062c4.152344 0 7.515625-3.367187 7.515625-7.515624v-174.507813c0-4.152344-3.363281-7.515625-7.515625-7.515625h-496.96875c-4.152344 0-7.515625 3.363281-7.515625 7.515625v496.96875c0 4.152344 3.363281 7.515625 7.515625 7.515625h496.96875c4.152344 0 7.515625-3.363281 7.515625-7.515625v-286.726563c0-4.148437-3.363281-7.515624-7.515625-7.515624-4.148437 0-7.515625 3.367187-7.515625 7.515624v279.210938h-481.9375v-97.1875h120.734375c4.152344 0 7.515625-3.363281 7.515625-7.515625v-120.734375h120.734375c4.152344 0 7.515625-3.367188 7.515625-7.515625v-120.734375h120.734375c4.152344 0 7.515625-3.367188 7.515625-7.515625v-120.734375h97.1875v166.992188c0 4.148437 3.367188 7.515624 7.515625 7.515624zm-247.984375-61.289062h-113.21875v-113.21875h113.21875zm-241.46875 128.25v-113.21875h113.21875v113.21875zm0-241.46875h113.21875v113.21875h-113.21875zm113.21875 369.71875h-113.21875v-113.21875h113.21875zm128.25-128.25h-113.21875v-113.21875h113.21875zm128.25-128.25h-113.21875v-113.21875h113.21875zm0 0"/><path d="m76.953125 34.265625c-2.933594-2.9375-7.691406-2.9375-10.625 0l-32.0625 32.0625c-2.9375 2.933594-2.9375 7.691406 0 10.625l32.0625 32.0625c1.464844 1.46875 3.390625 2.203125 5.3125 2.203125s3.847656-.734375 5.3125-2.203125l32.0625-32.0625c2.9375-2.933594 2.9375-7.691406 0-10.625zm-5.3125 58.808594-21.4375-21.433594 21.4375-21.4375 21.433594 21.4375zm0 0"/><path d="m194.574219 109.015625c1.46875 1.46875 3.394531 2.203125 5.316406 2.203125s3.847656-.734375 5.3125-2.203125l32.0625-32.0625c2.9375-2.933594 2.9375-7.691406 0-10.625l-32.0625-32.0625c-2.933594-2.9375-7.691406-2.9375-10.625 0l-32.0625 32.0625c-2.9375 2.933594-2.9375 7.691406 0 10.625zm5.316406-58.8125 21.4375 21.4375-21.4375 21.433594-21.4375-21.433594zm0 0"/><path d="m322.828125 109.015625c1.464844 1.46875 3.390625 2.203125 5.3125 2.203125s3.847656-.734375 5.316406-2.203125l32.0625-32.0625c2.933594-2.933594 2.933594-7.691406 0-10.625l-32.0625-32.0625c-2.9375-2.9375-7.695312-2.9375-10.628906 0l-32.0625 32.0625c-2.933594 2.933594-2.933594 7.691406 0 10.625zm5.3125-58.8125 21.4375 21.4375-21.4375 21.433594-21.4375-21.433594zm0 0"/><path d="m194.574219 237.265625c1.46875 1.46875 3.394531 2.203125 5.316406 2.203125s3.847656-.734375 5.3125-2.203125l32.0625-32.0625c2.9375-2.933594 2.9375-7.691406 0-10.625l-32.0625-32.0625c-2.933594-2.9375-7.691406-2.9375-10.625 0l-32.0625 32.0625c-2.9375 2.933594-2.9375 7.691406 0 10.625zm5.316406-58.8125 21.4375 21.4375-21.4375 21.4375-21.4375-21.4375zm0 0"/><path d="m76.953125 162.515625c-2.933594-2.9375-7.691406-2.9375-10.625 0l-32.0625 32.0625c-2.9375 2.933594-2.9375 7.691406 0 10.625l32.0625 32.0625c1.464844 1.46875 3.390625 2.203125 5.3125 2.203125s3.847656-.734375 5.3125-2.203125l32.0625-32.0625c2.9375-2.933594 2.9375-7.691406 0-10.625zm-5.3125 58.8125-21.4375-21.4375 21.4375-21.4375 21.433594 21.4375zm0 0"/><path d="m66.324219 365.515625c1.46875 1.46875 3.394531 2.203125 5.316406 2.203125s3.847656-.734375 5.3125-2.203125l32.0625-32.0625c2.9375-2.933594 2.9375-7.691406 0-10.625l-32.0625-32.0625c-2.933594-2.933594-7.691406-2.933594-10.625 0l-32.0625 32.0625c-2.9375 2.933594-2.9375 7.691406 0 10.625zm5.316406-58.8125 21.433594 21.4375-21.433594 21.4375-21.4375-21.4375zm0 0"/></svg>