<svg height="512pt" viewBox="0 -60 512.001 512" width="512pt" xmlns="http://www.w3.org/2000/svg"><path d="m480.4375 272.03125s79.226562-135.476562-72.140625-152.296875c-72.140625-8.015625-128.25 24.046875-128.25 24.046875s-32.0625-136.265625-184.359375-136.265625c-142.039062 0-64.125 264.515625-64.125 264.515625zm0 0" fill="#e96fa7"/><path d="m71.71875 235.929688c-10.292969-40.402344-38.851562-171.574219 7.976562-227.175782-119.9375 19.488282-48.132812 263.277344-48.132812 263.277344h448.875s5.625-9.617188 11.011719-24.046875h-404.199219c-7.324219 0-13.722656-4.957031-15.53125-12.054687zm0 0" fill="#e34b91"/><path d="m480.4375 320.125h-448.875c-13.28125 0-24.046875-10.765625-24.046875-24.046875s10.765625-24.046875 24.046875-24.046875h448.875c13.28125 0 24.046875 10.765625 24.046875 24.046875s-10.765625 24.046875-24.046875 24.046875zm0 0" fill="#ee93bd"/><path d="m31.5625 272.03125c-13.28125 0-24.046875 10.765625-24.046875 24.046875s10.765625 24.046875 24.046875 24.046875h448.875c13.28125 0 24.046875-10.765625 24.046875-24.046875h-448.875c-13.28125 0-24.046875-10.765625-24.046875-24.046875zm0 0" fill="#e96fa7"/><path d="m440.359375 320.125v64.125h-24.046875l-16.03125-64.125zm0 0" fill="#827189"/><path d="m71.640625 320.125v64.125h24.046875l16.03125-64.125zm0 0" fill="#827189"/><path d="m491.726562 266.613281c9.433594-19.625 27.707032-66.609375 8.609376-104.636719-13.972657-27.8125-44.660157-44.539062-91.207032-49.710937-58.207031-6.464844-105.8125 12.011719-124.4375 20.746094-4.269531-12.800781-14.210937-37.335938-33.828125-62.035157-16.363281-20.609374-36.089843-37.035156-58.636719-48.828124-28.09375-14.695313-60.574218-22.148438-96.539062-22.148438-29.476562 0-52.410156 10.683594-68.167969 31.753906-22.445312 30.007813-29.726562 80.121094-21.648437 148.957032 4.441406 37.871093 12.347656 70.582031 16.226562 85.257812-12.792968 4.03125-22.097656 16.003906-22.097656 30.109375 0 17.402344 14.160156 31.5625 31.5625 31.5625h32.5625v56.609375c0 4.152344 3.363281 7.515625 7.515625 7.515625h24.046875c3.445312 0 6.453125-2.347656 7.289062-5.691406l14.609376-58.433594h198.199218c4.148438 0 7.515625-3.363281 7.515625-7.515625 0-4.148438-3.367187-7.515625-7.515625-7.515625h-284.222656c-9.117188 0-16.53125-7.414063-16.53125-16.53125 0-9.113281 7.414062-16.53125 16.53125-16.53125h448.875c9.117188 0 16.53125 7.417969 16.53125 16.53125 0 9.117187-7.414062 16.53125-16.53125 16.53125h-128.25c-4.148438 0-7.515625 3.367187-7.515625 7.515625 0 4.152344 3.367187 7.515625 7.515625 7.515625h42.226562l14.609376 58.433594c.835937 3.34375 3.84375 5.691406 7.289062 5.691406h24.046875c4.152344 0 7.515625-3.363281 7.515625-7.515625v-56.609375h32.5625c17.40625 0 31.5625-14.160156 31.5625-31.5625 0-13.425781-8.429688-24.914063-20.273438-29.464844zm-389.632812 61.027344-12.273438 49.09375h-10.664062v-49.09375zm-64.8125-63.125c-7.71875-28.867187-41.121094-165.761719 2.277344-223.769531 12.949218-17.304688 31.308594-25.714844 56.128906-25.714844 60.519531 0 108.644531 21.808594 143.03125 64.820312 25.882812 32.375 33.9375 65.332032 34.011719 65.648438 1.128906 4.800781 6.746093 7.253906 11.039062 4.808594.539063-.308594 55.015625-30.738282 123.699219-23.105469 41.144531 4.570313 67.863281 18.527344 79.414062 41.476563 17.621094 35.011718-4 82.339843-10.933593 95.835937zm395.5625 112.21875h-10.664062l-12.273438-49.09375h22.9375zm0 0"/><path d="m191.875 104.203125h-8.515625v-8.515625c0-4.148438-3.367187-7.515625-7.515625-7.515625-4.152344 0-7.515625 3.367187-7.515625 7.515625v8.515625h-8.515625c-4.152344 0-7.515625 3.367187-7.515625 7.515625s3.363281 7.515625 7.515625 7.515625h8.515625v8.515625c0 4.148438 3.363281 7.515625 7.515625 7.515625 4.148438 0 7.515625-3.367187 7.515625-7.515625v-8.515625h8.515625c4.148438 0 7.515625-3.367187 7.515625-7.515625s-3.367187-7.515625-7.515625-7.515625zm0 0"/><path d="m103.703125 104.203125h-8.515625v-8.515625c0-4.148438-3.367188-7.515625-7.515625-7.515625-4.152344 0-7.515625 3.367187-7.515625 7.515625v8.515625h-8.515625c-4.152344 0-7.515625 3.367187-7.515625 7.515625s3.363281 7.515625 7.515625 7.515625h8.515625v8.515625c0 4.148438 3.363281 7.515625 7.515625 7.515625 4.148437 0 7.515625-3.367187 7.515625-7.515625v-8.515625h8.515625c4.148437 0 7.515625-3.367187 7.515625-7.515625s-3.367188-7.515625-7.515625-7.515625zm0 0"/><path d="m191.875 192.375h-8.515625v-8.515625c0-4.148437-3.367187-7.515625-7.515625-7.515625-4.152344 0-7.515625 3.367188-7.515625 7.515625v8.515625h-8.515625c-4.152344 0-7.515625 3.367188-7.515625 7.515625 0 4.152344 3.363281 7.515625 7.515625 7.515625h8.515625v8.515625c0 4.152344 3.363281 7.515625 7.515625 7.515625 4.148438 0 7.515625-3.363281 7.515625-7.515625v-8.515625h8.515625c4.148438 0 7.515625-3.363281 7.515625-7.515625 0-4.148437-3.367187-7.515625-7.515625-7.515625zm0 0"/><path d="m103.703125 192.375h-8.515625v-8.515625c0-4.148437-3.367188-7.515625-7.515625-7.515625-4.152344 0-7.515625 3.367188-7.515625 7.515625v8.515625h-8.515625c-4.152344 0-7.515625 3.367188-7.515625 7.515625 0 4.152344 3.363281 7.515625 7.515625 7.515625h8.515625v8.515625c0 4.152344 3.363281 7.515625 7.515625 7.515625 4.148437 0 7.515625-3.363281 7.515625-7.515625v-8.515625h8.515625c4.148437 0 7.515625-3.363281 7.515625-7.515625 0-4.148437-3.367188-7.515625-7.515625-7.515625zm0 0"/><path d="m440.359375 192.375h-8.515625v-8.515625c0-4.148437-3.363281-7.515625-7.515625-7.515625-4.148437 0-7.515625 3.367188-7.515625 7.515625v8.515625h-8.515625c-4.148437 0-7.515625 3.367188-7.515625 7.515625 0 4.152344 3.367188 7.515625 7.515625 7.515625h8.515625v8.515625c0 4.152344 3.367188 7.515625 7.515625 7.515625 4.152344 0 7.515625-3.363281 7.515625-7.515625v-8.515625h8.515625c4.152344 0 7.515625-3.363281 7.515625-7.515625 0-4.148437-3.363281-7.515625-7.515625-7.515625zm0 0"/><path d="m352.1875 192.375h-8.515625v-8.515625c0-4.148437-3.363281-7.515625-7.515625-7.515625-4.148438 0-7.515625 3.367188-7.515625 7.515625v8.515625h-8.515625c-4.148438 0-7.515625 3.367188-7.515625 7.515625 0 4.152344 3.367187 7.515625 7.515625 7.515625h8.515625v8.515625c0 4.152344 3.367187 7.515625 7.515625 7.515625 4.152344 0 7.515625-3.363281 7.515625-7.515625v-8.515625h8.515625c4.152344 0 7.515625-3.363281 7.515625-7.515625 0-4.148437-3.363281-7.515625-7.515625-7.515625zm0 0"/></svg>