<svg height="512pt" viewBox="0 -16 512.00011 512" width="512pt" xmlns="http://www.w3.org/2000/svg"><path d="m504.492188 360.207031-40.082032-16.03125c-40.601562 8.640625-245.894531 12.496094-304.601562 0-13.359375 5.34375-26.71875 10.6875-40.078125 16.03125l16.03125-40.078125c-8.390625-35.179687-12.6875-219.355468 0-272.539062-5.34375-13.359375-10.6875-26.71875-16.03125-40.078125l40.078125 16.03125c40.601562-8.644531 245.894531-12.5 304.601562 0 13.359375-5.34375 26.722656-10.6875 40.082032-16.03125l-16.035157 40.078125c8.394531 35.179687 12.691407 219.351562 0 272.539062 5.34375 13.359375 10.691407 26.71875 16.035157 40.078125zm0 0" fill="#e8e570"/><path d="m456.394531 416.316406-40.078125-16.03125c-40.601562 8.644532-245.894531 12.496094-304.601562 0-13.359375 5.34375-26.71875 10.6875-40.078125 16.03125l16.03125-40.078125c-8.394531-35.179687-12.691407-219.351562 0-272.539062-5.34375-13.359375-10.6875-26.71875-16.03125-40.078125l40.078125 16.03125c40.601562-8.644532 245.894531-12.496094 304.601562 0l40.078125-16.03125-16.03125 40.078125c8.394531 35.179687 12.691407 219.351562 0 272.539062 5.34375 13.359375 10.6875 26.71875 16.03125 40.078125zm0 0" fill="#ee93bd"/><path d="m392.269531 472.425781-40.078125-16.03125c-40.601562 8.644531-245.894531 12.5-304.601562 0-13.359375 5.34375-26.71875 10.6875-40.078125 16.03125l16.03125-40.078125c-8.394531-35.179687-12.691407-219.351562 0-272.535156-5.34375-13.359375-10.691407-26.722656-16.03125-40.082031l40.078125 16.03125c40.601562-8.640625 245.894531-12.496094 304.601562 0l40.078125-16.03125-16.03125 40.082031c8.394531 35.175781 12.6875 219.351562 0 272.535156zm0 0" fill="#e8e570"/><path d="m377.332031 427.210938c-66.828125 5.480468-225.769531 4.105468-281.648437-2.878907-14.277344-1.785156-24.046875-24.046875-24.046875-24.046875-8.148438-34.160156-12.4375-208.785156-1.058594-267.574218-9.917969.921874-17.800781 1.949218-22.988281 3.050781l-40.078125-16.03125c5.339843 13.359375 10.6875 26.722656 16.03125 40.082031-12.691407 53.183594-8.394531 237.355469 0 272.535156l-16.03125 40.078125 40.078125-16.03125c58.707031 12.5 264 8.644531 304.601562 0l40.078125 16.03125c-5.34375-13.359375-10.6875-26.71875-16.03125-40.078125.378907-1.59375.746094-3.3125 1.09375-5.136718zm0 0" fill="#d9d411"/><g fill="#ffe6ab"><path d="m288.0625 231.953125c0 8.855469-7.175781 16.03125-16.03125 16.03125s-16.03125-7.175781-16.03125-16.03125 7.175781-16.03125 16.03125-16.03125 16.03125 7.175781 16.03125 16.03125zm0 0"/><path d="m143.777344 231.953125c0 8.855469-7.175782 16.03125-16.03125 16.03125-8.851563 0-16.03125-7.175781-16.03125-16.03125s7.179687-16.03125 16.03125-16.03125c8.855468 0 16.03125 7.175781 16.03125 16.03125zm0 0"/><path d="m288.0625 360.207031c0 8.851563-7.175781 16.03125-16.03125 16.03125s-16.03125-7.179687-16.03125-16.03125c0-8.855469 7.175781-16.03125 16.03125-16.03125s16.03125 7.175781 16.03125 16.03125zm0 0"/><path d="m143.777344 360.207031c0 8.851563-7.175782 16.03125-16.03125 16.03125-8.851563 0-16.03125-7.179687-16.03125-16.03125 0-8.855469 7.179687-16.03125 16.03125-16.03125 8.855468 0 16.03125 7.175781 16.03125 16.03125zm0 0"/></g><path d="m496.304688 319.507812c7.699218-35.570312 7.871093-111.125 7.574218-142.472656-.535156-57.09375-3.621094-109.015625-7.585937-128.792968l15.175781-37.941407c2.402344-6.007812-3.761719-12.171875-9.769531-9.769531l-37.996094 15.199219c-27.5-5.332031-86.292969-8.175781-158.4375-7.632813-64.171875.488282-122.683594 3.597656-144.726563 7.640625l-38.015624-15.207031c-6.007813-2.402344-12.171876 3.761719-9.769532 9.769531l15.164063 37.90625c-1.273438 5.902344-2.40625 13.25-3.375 21.914063-4.757813.554687-8.835938 1.132812-12.097657 1.730468l-38.019531-15.207031c-6.003906-2.40625-12.167969 3.757813-9.765625 9.765625l15.160156 37.910156c-1.195312 5.539063-2.265624 12.363282-3.191406 20.34375-12.085937.988282-21.800781 2.101563-28.3125 3.296876l-38.015625-15.207032c-6.007812-2.402344-12.171875 3.761719-9.769531 9.769532l15.164062 37.90625c-7.699218 35.570312-7.871093 111.121093-7.574218 142.472656.535156 57.089844 3.621094 109.015625 7.589844 128.792968l-15.179688 37.941407c-2.402344 6.007812 3.761719 12.167969 9.769531 9.765625l37.996094-15.195313c27.5 5.332031 86.292969 8.175781 158.441406 7.628907 64.171875-.484376 122.679688-3.59375 144.722657-7.640626l38.015624 15.207032c6.019532 2.410156 12.167969-3.765625 9.769532-9.765625l-15.164063-37.90625c1.261719-5.824219 2.320313-12.726563 3.207031-20.324219 12.308594-1.003906 21.808594-2.117188 28.304688-3.320312l38.011719 15.207031c6.015625 2.40625 12.167969-3.769531 9.769531-9.769531l-15.164062-37.90625c1.320312-6.109376 2.441406-13.519532 3.382812-21.894532 4.769531-.558594 8.824219-1.140625 12.09375-1.746094l38.011719 15.207032c6.015625 2.40625 12.167969-3.769532 9.769531-9.769532zm-141.324219 129.910157c-1.382813-.554688-2.898438-.683594-4.355469-.371094-40.621094 8.644531-244.175781 12.195313-301.472656 0-1.457032-.3125-2.972656-.183594-4.355469.371094l-23.796875 9.519531 9.519531-23.800781c.574219-1.441407.691407-3.023438.332031-4.535157-3.921874-16.429687-7.160156-70.195312-7.703124-127.839843-.617188-65.621094 2.261718-118.410157 7.703124-141.207031.359376-1.511719.242188-3.09375-.332031-4.535157l-9.519531-23.800781 23.796875 9.519531c1.382813.554688 2.902344.683594 4.355469.375 40.621094-8.648437 244.179687-12.199219 301.472656 0 1.457031.308594 2.972656.179688 4.355469-.375l23.800781-9.519531-9.519531 23.800781c-.578125 1.441407-.691407 3.023438-.332031 4.535157 3.921874 16.429687 7.160156 70.195312 7.703124 127.839843.617188 65.621094-2.261718 118.410157-7.703124 141.207031-.359376 1.511719-.246094 3.09375.332031 4.535157l9.519531 23.800781zm126.167969-400.085938c3.921874 16.429688 7.160156 70.199219 7.703124 127.84375.617188 65.621094-2.261718 118.40625-7.703124 141.207031-.359376 1.511719-.242188 3.09375.332031 4.535157l9.519531 23.796875-23.796875-9.519532c-1.382813-.550781-2.902344-.683593-4.355469-.371093-2.515625.535156-5.804687 1.0625-9.800781 1.578125 3.261719-41.101563 3.339844-97.316406 2.035156-141.726563-.121093-4.148437-3.613281-7.417969-7.734375-7.289062-4.148437.121093-7.410156 3.582031-7.289062 7.730469 1.925781 65.605468.507812 145.890624-7.003906 177.375-.359376 1.511718-.246094 3.09375.332031 4.535156l9.519531 23.800781-23.800781-9.519531c-1.382813-.554688-2.898438-.683594-4.355469-.375-5.351562 1.140625-14.269531 2.257812-25.96875 3.265625 3.058594-37.308594 3.09375-83.980469 2.875-106.941407-.535156-57.09375-3.621094-109.015624-7.585938-128.792968l15.175782-37.941406c2.402344-6.007813-3.761719-12.171876-9.769532-9.769532l-37.992187 15.195313c-27.503906-5.332031-86.292969-8.175781-158.441406-7.628907-37.773438.285157-73.574219 1.480469-101.140625 3.242188.910156-7.28125 1.941406-13.367188 3.074218-18.117188.359376-1.511718.246094-3.097656-.332031-4.535156l-9.519531-23.800781 23.800781 9.519531c1.382813.554688 2.898438.683594 4.355469.375 40.621094-8.648437 244.175781-12.199218 301.46875 0 1.457031.308594 2.972656.179688 4.355469-.375l23.800781-9.519531-9.519531 23.800781c-.578125 1.4375-.691407 3.023438-.332031 4.535156 2.09375 8.777344 4.046874 28.335938 5.5 55.070313.21875 4.003906 3.535156 7.105469 7.496093 7.105469.136719 0 .277344-.003906.414063-.011719 4.144531-.226563 7.324218-3.765625 7.097656-7.910156-.996094-18.34375-2.71875-42.28125-5.367188-55.351563l15.175782-37.9375c2.402344-6.003906-3.757813-12.175781-9.765625-9.769531l-37.996094 15.199219c-27.5-5.332032-86.292969-8.175782-158.441406-7.632813-45.683594.347657-88.484375 2.023438-117.316407 4.421875.949219-7.804687 2.027344-14.289062 3.222657-19.296875.359375-1.511719.242187-3.09375-.335938-4.535156l-9.515625-23.796875 23.796875 9.519531c1.382813.550781 2.902344.683594 4.355469.371094 40.621094-8.644531 244.175781-12.195313 301.472656 0 1.457032.3125 2.972656.179687 4.355469-.371094l23.796875-9.523437-9.515625 23.800781c-.578125 1.441406-.695313 3.027344-.335937 4.535156zm0 0"/><path d="m292.359375 220.09375c-3.203125-5.476562-8.554687-9.542969-14.894531-11.046875-1.402344-4.691406-2.929688-13.390625 1.289062-21.828125 1.855469-3.710938.351563-8.226562-3.359375-10.082031-3.710937-1.855469-8.226562-.351563-10.082031 3.359375-5.679688 11.355468-4.769531 22.585937-3.003906 30.019531-6.808594 3.101563-11.894532 9.355469-13.375 16.886719-4.378906 2.328125-11.117188 5.011718-15.210938 3.921875-.96875-.257813-2.089844-.785157-3.0625-2.730469-1.859375-3.714844-6.371094-5.21875-10.082031-3.363281-3.714844 1.855469-5.21875 6.371093-3.363281 10.082031 2.707031 5.414062 7.082031 9.058594 12.648437 10.535156 1.929688.511719 3.90625.734375 5.890625.734375 5.53125 0 11.0625-1.722656 15.476563-3.613281 3.070312 5.777344 8.476562 10.132812 14.953125 11.796875 2.261718 8.886719 2.621094 17.886719.535156 19.96875-2.933594 2.933594-2.933594 7.691406 0 10.628906 1.46875 1.464844 3.390625 2.199219 5.3125 2.199219 1.925781 0 3.847656-.734375 5.316406-2.199219 7.710938-7.714843 6.109375-22.367187 4.003906-31.789062 7.238282-3.132813 12.605469-9.800781 13.914063-17.816407 1.339844-.945312 3.28125-2.109374 5.570313-2.808593 5.046874-1.542969 9.488281-.171875 13.976562 4.316406 2.9375 2.9375 7.695312 2.9375 10.628906 0 2.933594-2.933594 2.933594-7.691406 0-10.625-11.136718-11.136719-23.675781-10.769531-33.082031-6.546875zm-11.816406 11.96875c-.058594 4.644531-3.851563 8.40625-8.511719 8.40625-4.695312 0-8.515625-3.820312-8.515625-8.515625s3.816406-8.511719 8.507813-8.519531c.003906 0 .007812.003906.015624.003906h.007813c4.660156.007812 8.445313 3.773438 8.496094 8.421875zm0 0"/><path d="m179.203125 225.230469c-3.710937-1.855469-8.226563-.347657-10.082031 3.363281-.972656 1.941406-2.085938 2.46875-3.050782 2.726562-4.101562 1.09375-10.792968-1.5625-15.222656-3.921874-1.480468-7.53125-6.566406-13.78125-13.378906-16.882813 1.769531-7.433594 2.675781-18.664063-3-30.019531-1.855469-3.710938-6.371094-5.214844-10.082031-3.359375-3.710938 1.855469-5.21875 6.371093-3.359375 10.082031 4.210937 8.421875 2.6875 17.121094 1.28125 21.828125-6.335938 1.503906-11.683594 5.574219-14.890625 11.046875-9.40625-4.222656-21.945313-4.585938-33.082031 6.546875-2.933594 2.933594-2.933594 7.691406 0 10.625 2.9375 2.9375 7.695312 2.9375 10.628906 0 4.492187-4.488281 8.933594-5.859375 13.976562-4.316406 2.289063.703125 4.234375 1.863281 5.570313 2.8125 1.308593 8.011719 6.675781 14.679687 13.917969 17.8125-2.109376 9.421875-3.710938 24.074219 4.003906 31.789062 1.464844 1.464844 3.390625 2.199219 5.3125 2.199219s3.847656-.734375 5.3125-2.199219c2.9375-2.9375 2.9375-7.695312 0-10.628906-2.070313-2.070313-1.710938-11.070313.542968-19.972656 6.472657-1.664063 11.875-6.015625 14.945313-11.792969 4.414063 1.890625 9.945313 3.613281 15.480469 3.613281 1.976562 0 3.960937-.222656 5.886718-.734375 5.566407-1.476562 9.941407-5.121094 12.648438-10.535156 1.855469-3.710938.351562-8.226562-3.359375-10.082031zm-51.457031 15.238281c-4.695313 0-8.515625-3.816406-8.515625-8.515625 0-4.691406 3.8125-8.507813 8.5-8.515625h.011719.015624c4.691407.003906 8.507813 3.820312 8.507813 8.515625s-3.820313 8.515625-8.519531 8.515625zm0 0"/><path d="m314.8125 354.890625c-4.488281 4.488281-8.929688 5.863281-13.976562 4.316406-2.289063-.699219-4.234376-1.859375-5.570313-2.808593-1.308594-8.015626-6.675781-14.679688-13.917969-17.8125 2.109375-9.425782 3.710938-24.074219-4.003906-31.789063-2.933594-2.933594-7.691406-2.933594-10.625 0s-2.933594 7.691406 0 10.625c2.070312 2.070313 1.710938 11.074219-.542969 19.972656-6.472656 1.664063-11.875 6.019531-14.945312 11.792969-5.992188-2.566406-14.050781-4.824219-21.367188-2.878906-5.566406 1.480468-9.941406 5.121094-12.648437 10.535156-1.855469 3.714844-.351563 8.226562 3.363281 10.082031 1.078125.539063 2.222656.796875 3.355469.796875 2.753906 0 5.410156-1.523437 6.726562-4.15625.972656-1.945312 2.085938-2.46875 3.050782-2.726562 4.097656-1.101563 10.789062 1.558594 15.222656 3.917968 1.480468 7.53125 6.566406 13.78125 13.375 16.882813-1.765625 7.4375-2.675782 18.667969 3.003906 30.019531 1.316406 2.632813 3.96875 4.15625 6.726562 4.15625 1.128907 0 2.273438-.257812 3.355469-.796875 3.710938-1.855469 5.214844-6.367187 3.359375-10.082031-4.210937-8.421875-2.691406-17.117188-1.28125-21.828125 6.332032-1.503906 11.683594-5.570313 14.886719-11.042969 3.703125 1.660156 7.886719 2.726563 12.285156 2.726563 6.773438 0 14.046875-2.523438 20.796875-9.273438 2.933594-2.9375 2.933594-7.695312 0-10.628906s-7.695312-2.933594-10.628906 0zm-34.265625 5.316406c0 4.695313-3.820313 8.515625-8.515625 8.515625s-8.515625-3.820312-8.515625-8.515625c0-4.691406 3.8125-8.507812 8.503906-8.515625h.011719.015625c4.6875.007813 8.5 3.824219 8.5 8.515625zm0 0"/><path d="m169.917969 346.308594c-7.316407-1.941406-15.378907.3125-21.367188 2.882812-3.074219-5.78125-8.476562-10.136718-14.957031-11.796875-2.261719-8.886719-2.617188-17.886719-.53125-19.972656 2.933594-2.933594 2.933594-7.691406 0-10.625-2.9375-2.933594-7.695312-2.933594-10.628906 0-7.714844 7.714844-6.109375 22.363281-4.003906 31.789063-7.242188 3.132812-12.609376 9.796874-13.917969 17.8125-1.335938.949218-3.28125 2.109374-5.566407 2.808593-5.050781 1.546875-9.488281.175781-13.980468-4.316406-2.933594-2.933594-7.691406-2.933594-10.625 0-2.9375 2.9375-2.9375 7.695313 0 10.628906 6.75 6.75 14.019531 9.273438 20.796875 9.273438 4.394531 0 8.578125-1.066407 12.28125-2.726563 3.207031 5.472656 8.558593 9.539063 14.894531 11.042969 1.40625 4.691406 2.933594 13.390625-1.285156 21.828125-1.859375 3.714844-.351563 8.226562 3.359375 10.082031 1.078125.539063 2.226562.796875 3.355469.796875 2.753906 0 5.410156-1.523437 6.726562-4.15625 5.675781-11.355468 4.769531-22.582031 3-30.019531 6.8125-3.101563 11.898438-9.351563 13.378906-16.882813 4.378906-2.328124 11.117188-5.011718 15.210938-3.921874.96875.253906 2.089844.78125 3.0625 2.730468 1.316406 2.632813 3.96875 4.15625 6.726562 4.152344 1.128906 0 2.277344-.253906 3.355469-.792969 3.710937-1.855469 5.214844-6.371093 3.359375-10.082031-2.707031-5.410156-7.078125-9.054688-12.644531-10.535156zm-42.171875 22.414062c-4.664063 0-8.460938-3.769531-8.511719-8.421875.003906-.070312.003906-.136719.003906-.203125.058594-4.640625 3.839844-8.398437 8.492188-8.40625h.015625.015625c4.691406.007813 8.503906 3.824219 8.503906 8.515625 0 4.695313-3.820313 8.515625-8.519531 8.515625zm0 0"/></svg>