<svg height="512pt" viewBox="-76 0 512 512" width="512pt" xmlns="http://www.w3.org/2000/svg"><path d="m7.515625 7.515625h48.09375v128.25h-48.09375zm0 0" fill="#e0dce2"/><path d="m7.515625 103.703125h48.09375v32.0625h-48.09375zm0 0" fill="#d0cad3"/><path d="m256 23.546875h-200.390625v96.1875h48.09375l40.078125 40.078125h64.125l40.078125-40.078125h40.078125c40.078125 0 64.125 72.140625 64.125 72.140625v-72.140625c0-53.125-43.066406-96.1875-96.1875-96.1875zm0 0" fill="#c1b8c4"/><path d="m223.9375 504.484375c-41.082031 0-72.140625 0-96.1875 0 0-136.265625-24.046875-176.34375 16.03125-344.671875h64.125c-24.046875 144.28125 16.03125 96.1875 16.03125 344.671875zm0 0" fill="#e98f6d"/><path d="m174.984375 159.8125c-9.941406 0-20.570313 0-31.203125 0-40.078125 168.328125-16.03125 208.40625-16.03125 344.671875h31.203125c0-136.265625-24.046875-176.34375 16.03125-344.671875zm0 0" fill="#e37349"/><path d="m247.984375 119.734375-40.078125 40.078125h-64.125l-40.078125-40.078125v-96.1875h144.28125zm0 0" fill="#e0dce2"/><path d="m135.765625 23.546875h-32.0625v96.1875l40.078125 40.078125h32.0625l-40.078125-40.078125zm0 0" fill="#d0cad3"/><path d="m256 16.03125h-32.0625c-4.152344 0-7.515625 3.363281-7.515625 7.515625 0 4.148437 3.363281 7.515625 7.515625 7.515625h16.53125v85.558594l-35.675781 35.675781h-57.898438l-35.675781-35.675781v-85.558594h77.648438c4.152343 0 7.515624-3.367188 7.515624-7.515625 0-4.152344-3.363281-7.515625-7.515624-7.515625h-125.742188v-8.515625c0-4.152344-3.367188-7.515625-7.515625-7.515625h-48.09375c-4.152344 0-7.515625 3.363281-7.515625 7.515625v128.25c0 4.152344 3.363281 7.515625 7.515625 7.515625h48.09375c4.148437 0 7.515625-3.363281 7.515625-7.515625v-8.515625h37.464844l34.914062 34.914062c-27.457031 116.9375-23.839844 172.027344-19.269531 241.546876 1.875 28.503906 4 60.8125 4 100.773437 0 4.152344 3.363281 7.515625 7.515625 7.515625s7.515625-3.363281 7.515625-7.515625c0-40.453125-2.144531-73.023437-4.035156-101.761719-4.464844-67.921875-8.007813-121.8125 18.5-235.398437h49.34375c-10.722657 68.21875-6.273438 91.691406.910156 129.59375 6.9375 36.609375 16.4375 86.746093 16.4375 207.566406 0 4.152344 3.363281 7.515625 7.515625 7.515625s7.515625-3.363281 7.515625-7.515625c0-122.234375-9.652344-173.171875-16.703125-210.363281-7.089844-37.417969-11.398438-60.179688.175781-130.703125l36.171875-36.167969h36.964844c28.371094 0 50.761719 48.367188 56.996094 67 1.167968 3.507812 4.835937 5.675781 8.472656 5.015625 3.527344-.640625 6.171875-3.800781 6.171875-7.390625v-72.140625c0-57.183594-46.519531-103.703125-103.703125-103.703125zm-207.90625 112.21875h-33.0625v-113.21875h33.0625zm15.03125-97.1875h33.0625v81.15625h-33.0625zm281.546875 126.128906c-12-21.195312-31.136719-44.972656-56.609375-44.972656h-32.5625v-81.15625h.5c48.894531 0 88.671875 39.777344 88.671875 88.671875zm0 0"/></svg>