<svg height="512pt" viewBox="0 -88 512 512" width="512pt" xmlns="http://www.w3.org/2000/svg"><path d="m432.34375 328.140625h-72.140625v-72.140625h144.28125zm0 0" fill="#ffd982"/><path d="m360.203125 328.140625h72.140625l24.046875-24.046875h-96.1875zm0 0" fill="#ffc02e"/><path d="m504.484375 7.515625v248.484375l-72.140625 72.140625v-320.625zm0 0" fill="#ffe6ab"/><path d="m432.34375 7.515625h72.140625v32.0625h-72.140625zm0 0" fill="#d0cad3"/><path d="m360.203125 328.140625h-288.5625c-35.414063 0-64.125-28.710937-64.125-64.125v-192.375c0-35.414063 28.710937-64.125 64.125-64.125h224.4375c35.414063 0 64.125 28.710937 64.125 64.125zm0 0" fill="#e8e570"/><path d="m111.71875 304.09375c-35.414062 0-64.125-28.710938-64.125-64.125v-192.375c0-14.757812 4.996094-28.34375 13.375-39.179688-30.332031 5.085938-53.453125 31.449219-53.453125 63.226563v192.375c0 35.414063 28.710937 64.125 64.125 64.125h288.5625v-24.046875zm0 0" fill="#d9d411"/><path d="m312.109375 167.828125c0 70.832031-57.417969 128.25-128.25 128.25s-128.25-57.417969-128.25-128.25 57.417969-128.25 128.25-128.25 128.25 57.417969 128.25 128.25zm0 0" fill="#827189"/><path d="m215.921875 280.046875c-70.832031 0-128.25-57.421875-128.25-128.25 0-43.816406 21.976563-82.492187 55.503906-105.628906-50.886719 17.011719-87.566406 65.050781-87.566406 121.660156 0 70.828125 57.417969 128.25 128.25 128.25 27.015625 0 52.074219-8.359375 72.746094-22.621094-12.785157 4.269531-26.464844 6.589844-40.683594 6.589844zm0 0" fill="#634e6c"/><path d="m236.125 112.464844c-4.71875-1.746094-10.027344-.367188-13.300781 3.453125l-38.964844 45.457031-38.964844-45.457031c-3.273437-3.820313-8.582031-5.195313-13.300781-3.453125-4.71875 1.746094-7.851562 6.246094-7.851562 11.277344v96.1875c0 6.640624 5.386718 12.023437 12.023437 12.023437 6.640625 0 12.023437-5.382813 12.023437-12.023437v-63.683594l26.941407 31.429687c4.726562 5.515625 13.535156 5.515625 18.257812 0l26.941407-31.429687v63.683594c0 6.640624 5.386718 12.023437 12.023437 12.023437 6.640625 0 12.027344-5.382813 12.027344-12.023437v-96.1875c-.003907-5.03125-3.136719-9.53125-7.855469-11.277344zm0 0" fill="#efedf0"/><path d="m504.484375 0h-72.140625c-4.148438 0-7.515625 3.363281-7.515625 7.515625v240.96875h-57.109375v-176.84375c0-39.503906-32.136719-71.640625-71.640625-71.640625h-224.4375c-39.503906 0-71.640625 32.136719-71.640625 71.640625v192.375c0 39.503906 32.136719 71.640625 71.640625 71.640625h212.914063c4.152343 0 7.515624-3.363281 7.515624-7.515625s-3.363281-7.515625-7.515624-7.515625h-212.914063c-31.214844 0-56.609375-25.394531-56.609375-56.609375v-192.375c0-31.214844 25.394531-56.609375 56.609375-56.609375h224.4375c31.214844 0 56.609375 25.394531 56.609375 56.609375v248.984375h-31.558594c-4.152344 0-7.515625 3.363281-7.515625 7.515625s3.363281 7.515625 7.515625 7.515625h111.214844c1.984375 0 3.90625-.8125 5.3125-2.199219l72.140625-72.144531c1.410156-1.40625 2.203125-3.320312 2.203125-5.3125v-248.484375c0-4.152344-3.363281-7.515625-7.515625-7.515625zm-64.625 15.03125h57.109375v17.03125h-57.109375zm-72.140625 248.484375h57.109375v57.109375h-17.03125v-8.515625c0-4.152344-3.363281-7.515625-7.515625-7.515625-4.148438 0-7.515625 3.363281-7.515625 7.515625v8.515625h-25.046875zm72.140625 46.484375v-22.4375h8.515625c4.152344 0 7.515625-3.363281 7.515625-7.515625s-3.363281-7.515625-7.515625-7.515625h-8.515625v-33.0625h8.515625c4.152344 0 7.515625-3.363281 7.515625-7.515625s-3.363281-7.515625-7.515625-7.515625h-8.515625v-33.0625h8.515625c4.152344 0 7.515625-3.363281 7.515625-7.515625s-3.363281-7.515625-7.515625-7.515625h-8.515625v-33.0625h8.515625c4.152344 0 7.515625-3.363281 7.515625-7.515625s-3.363281-7.515625-7.515625-7.515625h-8.515625v-33.0625h8.515625c4.152344 0 7.515625-3.363281 7.515625-7.515625s-3.363281-7.515625-7.515625-7.515625h-8.515625v-33.0625h57.109375v205.792969zm0 0"/><path d="m183.859375 32.0625c-74.863281 0-135.765625 60.902344-135.765625 135.765625 0 74.859375 60.902344 135.765625 135.765625 135.765625 74.859375 0 135.765625-60.90625 135.765625-135.765625 0-74.863281-60.90625-135.765625-135.765625-135.765625zm0 256.5c-66.574219 0-120.734375-54.160156-120.734375-120.734375s54.160156-120.734375 120.734375-120.734375 120.734375 54.160156 120.734375 120.734375-54.160156 120.734375-120.734375 120.734375zm0 0"/><path d="m238.730469 105.417969c-7.632813-2.820313-16.316407-.566407-21.613281 5.609375l-33.257813 38.800781-33.257813-38.800781c-5.292968-6.175782-13.976562-8.433594-21.613281-5.609375-7.632812 2.824219-12.761719 10.1875-12.761719 18.324219v96.1875c0 10.773437 8.765626 19.539062 19.539063 19.539062s19.539063-8.765625 19.539063-19.539062v-43.371094l13.71875 16.007812c7.628906 8.902344 22.042968 8.902344 29.667968 0l13.722656-16.007812v43.371094c0 10.773437 8.765626 19.539062 19.539063 19.539062s19.539063-8.765625 19.539063-19.539062v-96.1875c0-8.136719-5.128907-15.5-12.761719-18.324219zm-2.269531 114.511719c0 2.488281-2.023438 4.507812-4.507813 4.507812s-4.507813-2.019531-4.507813-4.507812v-63.683594c0-6.808594-8.769531-10.085938-13.222656-4.890625l-26.941406 31.429687c-1.71875 2.007813-5.125 2.003906-6.847656 0l-26.941406-31.429687c-4.445313-5.1875-13.21875-1.925781-13.21875 4.890625v63.683594c0 2.488281-2.023438 4.507812-4.507813 4.507812s-4.507813-2.019531-4.507813-4.507812v-96.1875c0-4.085938 5.265626-6.042969 7.929688-2.933594l38.964844 45.457031c2.957031 3.445313 8.460937 3.445313 11.414062 0l38.964844-45.457031c2.664062-3.109375 7.929688-1.152344 7.929688 2.933594zm0 0"/></svg>