<svg height="512pt" viewBox="-80 0 512 512" width="512pt" xmlns="http://www.w3.org/2000/svg"><path d="m304.09375 191.875c0 13.28125-10.765625 24.046875-24.046875 24.046875s-24.046875-10.765625-24.046875-24.046875 10.765625-24.046875 24.046875-24.046875 24.046875 10.765625 24.046875 24.046875zm0 0" fill="#eab4a7"/><path d="m95.6875 191.875c0 13.28125-10.765625 24.046875-24.046875 24.046875s-24.046875-10.765625-24.046875-24.046875 10.765625-24.046875 24.046875-24.046875 24.046875 10.765625 24.046875 24.046875zm0 0" fill="#f7c9ba"/><path d="m79.65625 103.703125v88.171875c0 53.125 43.0625 96.1875 96.1875 96.1875 53.121094 0 96.1875-43.0625 96.1875-96.1875v-88.171875zm0 0" fill="#f7c9ba"/><path d="m119.734375 183.859375v-80.15625h-40.078125v88.171875c0 53.125 43.0625 96.1875 96.1875 96.1875 13.703125 0 26.730469-2.871094 38.527344-8.035156-52.40625-.828125-94.636719-43.5625-94.636719-96.167969zm0 0" fill="#eab4a7"/><path d="m199.890625 223.9375h-48.09375c0 13.28125 10.765625 24.046875 24.046875 24.046875s24.046875-10.765625 24.046875-24.046875zm0 0" fill="#fff"/><path d="m175.84375 15.53125c-61.976562 0-112.21875 50.242188-112.21875 112.21875h224.4375c0-61.976562-50.242188-112.21875-112.21875-112.21875zm0 0" fill="#ffd982"/><path d="m195.882812 17.316406c-6.503906-1.171875-13.199218-1.785156-20.039062-1.785156-61.976562 0-112.21875 50.242188-112.21875 112.21875h40.078125c0-55.136719 39.765625-100.984375 92.179687-110.433594zm0 0" fill="#ffc02e"/><path d="m151.796875 7.515625h48.09375v120.234375h-48.09375zm0 0" fill="#ffe6ab"/><path d="m151.796875 7.515625h24.046875v120.234375h-24.046875zm0 0" fill="#ffcc58"/><path d="m288.0625 127.75h-224.4375c0 30.988281 50.242188 40.078125 112.21875 40.078125s112.21875-9.089844 112.21875-40.078125zm0 0" fill="#ffd982"/><path d="m55.609375 304.09375h240.46875v200.390625h-240.46875zm0 0" fill="#efedf0"/><path d="m264.015625 304.09375-32.0625 128.25h-112.21875l-32.0625-128.25h-32.0625v200.390625h240.46875v-200.390625zm0 0" fill="#eeab92"/><path d="m175.84375 352.1875 40.078125-48.09375h-80.15625zm0 0" fill="#f7c9ba"/><path d="m215.921875 304.09375h16.03125l8.015625 32.0625-64.125 16.03125zm0 0" fill="#d0cad3"/><path d="m135.765625 304.09375h-16.03125l-8.015625 32.0625 64.125 16.03125zm0 0" fill="#d0cad3"/><path d="m344.171875 504.484375h-48.09375v-200.390625h16.03125c17.707031 0 32.0625 14.355469 32.0625 32.0625zm0 0" fill="#efedf0"/><path d="m7.515625 504.484375h48.09375v-200.390625h-16.03125c-17.707031 0-32.0625 14.355469-32.0625 32.0625zm0 0" fill="#efedf0"/><path d="m55.609375 308.394531v-4.300781h-16.03125c-17.707031 0-32.0625 14.355469-32.0625 32.0625v168.328125h32.0625v-168.328125c0-11.863281 6.449219-22.21875 16.03125-27.761719zm0 0" fill="#d0cad3"/><path d="m71.640625 223.4375c1.777344 0 3.539063-.152344 5.273437-.441406 13.246094 42.023437 52.585938 72.582031 98.929688 72.582031 46.347656 0 85.691406-30.566406 98.933594-72.597656 1.738281.292969 3.5.457031 5.269531.457031 17.402344 0 31.5625-14.160156 31.5625-31.5625s-14.160156-31.5625-31.5625-31.5625c-.167969 0-.332031.011719-.5.011719v-3.867188c10.648437-7.398437 16.03125-17 16.03125-28.707031 0-54.070312-36.1875-101.339844-88.171875-115.503906v-4.730469c0-4.152344-3.367188-7.515625-7.515625-7.515625h-48.09375c-4.152344 0-7.515625 3.363281-7.515625 7.515625v4.734375c-52.019531 14.164062-88.171875 61.332031-88.171875 115.5 0 11.707031 5.382813 21.304688 16.03125 28.703125v3.871094c-.167969 0-.332031-.011719-.5-.011719-17.402344 0-31.5625 14.160156-31.5625 31.5625s14.160156 31.5625 31.5625 31.5625zm208.40625-48.09375c9.117187 0 16.53125 7.414062 16.53125 16.53125s-7.414063 16.53125-16.53125 16.53125c-.605469 0-1.207031-.039062-1.804687-.105469.855468-5.351562 1.304687-10.835937 1.304687-16.425781v-16.507812c.167969-.003907.332031-.023438.5-.023438zm-207.21875-40.078125h206.03125c-7.867187 16.425781-43.078125 25.046875-103.015625 25.046875-59.933594 0-95.148438-8.621094-103.015625-25.046875zm207.453125-15.03125h-72.875v-92.335937c40.945312 12.898437 69.824219 49.597656 72.875 92.335937zm-120.96875-105.203125h33.0625v105.203125h-33.0625zm-15.03125 12.871094v92.332031h-72.875c3.042969-42.804687 31.902344-79.4375 72.875-92.332031zm-49.964844 138.699218c19.433594 5.882813 46.101563 8.742188 81.527344 8.742188s62.09375-2.859375 81.527344-8.742188c2.507812-.757812 4.886718-1.570312 7.144531-2.433593v27.707031c0 48.894531-39.777344 88.671875-88.671875 88.671875s-88.671875-39.777344-88.671875-88.671875v-27.707031c2.261719.863281 4.636719 1.675781 7.144531 2.433593zm-22.675781 8.742188c.167969 0 .332031.019531.5.023438v16.507812c0 5.585938.449219 11.074219 1.304687 16.421875-.597656.066406-1.195312.109375-1.804687.109375-9.117187 0-16.53125-7.414062-16.53125-16.53125s7.414063-16.53125 16.53125-16.53125zm0 0"/><path d="m142.777344 183.859375c0 4.148437-3.363282 7.515625-7.511719 7.515625-4.152344 0-7.515625-3.367188-7.515625-7.515625 0-4.152344 3.363281-7.515625 7.515625-7.515625 4.148437 0 7.511719 3.363281 7.511719 7.515625zm0 0"/><path d="m223.9375 183.859375c0 4.148437-3.363281 7.515625-7.515625 7.515625-4.148437 0-7.515625-3.367188-7.515625-7.515625 0-4.152344 3.367188-7.515625 7.515625-7.515625 4.152344 0 7.515625 3.363281 7.515625 7.515625zm0 0"/><path d="m175.84375 255.5c17.402344 0 31.5625-14.160156 31.5625-31.5625 0-4.152344-3.367188-7.515625-7.515625-7.515625h-48.09375c-4.152344 0-7.515625 3.363281-7.515625 7.515625 0 17.402344 14.160156 31.5625 31.5625 31.5625zm14.722656-24.046875c-2.738281 5.347656-8.308594 9.015625-14.722656 9.015625s-11.984375-3.667969-14.722656-9.015625zm0 0"/><path d="m312.109375 296.578125h-272.53125c-21.824219 0-39.578125 17.753906-39.578125 39.578125v168.328125c0 4.152344 3.363281 7.515625 7.515625 7.515625 4.148437 0 7.515625-3.363281 7.515625-7.515625v-168.328125c0-13.535156 11.011719-24.546875 24.546875-24.546875h8.515625v192.875c0 4.152344 3.363281 7.515625 7.515625 7.515625 4.148437 0 7.515625-3.363281 7.515625-7.515625v-192.875h18.679688l30.640624 122.558594c.832032 3.34375 3.839844 5.691406 7.289063 5.691406h112.21875c3.449219 0 6.453125-2.347656 7.289063-5.691406l30.640624-122.558594h18.679688v192.875c0 4.152344 3.367188 7.515625 7.515625 7.515625s7.515625-3.363281 7.515625-7.515625v-192.875h8.515625c13.535156 0 24.546875 11.011719 24.546875 24.546875v16.03125c0 4.152344 3.367188 7.515625 7.515625 7.515625 4.152344 0 7.515625-3.363281 7.515625-7.515625v-16.03125c0-21.824219-17.753906-39.578125-39.578125-39.578125zm-81.253906 34.109375-34.5 8.625 23.085937-27.703125h6.644532zm-55.011719 9.761719-24.035156-28.839844h48.070312zm-43.597656-28.839844 23.085937 27.703125-34.5-8.625 4.769531-19.078125zm93.839844 113.21875h-100.484376l-28.304687-113.21875h12.8125l-5.679687 22.726563c-1.007813 4.023437 1.441406 8.105468 5.46875 9.113281l64.074218 16.015625c.980469.375 2.761719.375 3.746094 0l64.074219-16.015625c4.023437-1.007813 6.472656-5.089844 5.464843-9.113281l-5.679687-22.726563h12.8125zm0 0"/><path d="m344.171875 381.078125c-4.148437 0-7.515625 3.363281-7.515625 7.515625v115.890625c0 4.152344 3.367188 7.515625 7.515625 7.515625 4.152344 0 7.515625-3.363281 7.515625-7.515625v-115.890625c0-4.152344-3.363281-7.515625-7.515625-7.515625zm0 0"/><path d="m183.359375 376.234375c0 4.152344-3.367187 7.515625-7.515625 7.515625-4.152344 0-7.515625-3.363281-7.515625-7.515625 0-4.148437 3.363281-7.515625 7.515625-7.515625 4.148438 0 7.515625 3.367188 7.515625 7.515625zm0 0"/><path d="m183.359375 407.796875c0 4.148437-3.367187 7.515625-7.515625 7.515625-4.152344 0-7.515625-3.367188-7.515625-7.515625 0-4.152344 3.363281-7.515625 7.515625-7.515625 4.148438 0 7.515625 3.363281 7.515625 7.515625zm0 0"/></svg>