<svg height="512pt" viewBox="0 -1 512.00026 512" width="512pt" xmlns="http://www.w3.org/2000/svg"><path d="m328.140625 55.605469c0-17.707031 32.0625-48.09375 32.0625-48.09375s32.0625 30.386719 32.0625 48.09375c0 17.710937-14.355469 32.0625-32.0625 32.0625s-32.0625-14.351563-32.0625-32.0625zm0 0" fill="#ffd982"/><path d="m272.03125 118.710938h176.34375v384.75h-176.34375zm0 0" fill="#b1a7dc"/><path d="m272.03125 118.710938h48.09375v384.75h-48.09375zm0 0" fill="#9689d0"/><path d="m111.71875 190.851562c0-17.707031 32.0625-48.09375 32.0625-48.09375s32.0625 30.386719 32.0625 48.09375c0 17.707032-14.355469 32.0625-32.0625 32.0625s-32.0625-14.355468-32.0625-32.0625zm0 0" fill="#ffd982"/><path d="m63.625 246.960938h160.3125v256.5h-160.3125zm0 0" fill="#d1a1d9"/><path d="m63.625 246.960938h48.09375v256.5h-48.09375zm0 0" fill="#c281cc"/><path d="m290.066406 222.914062c0-17.707031 32.0625-48.09375 32.0625-48.09375s32.0625 30.386719 32.0625 48.09375c0 17.707032-14.355468 32.0625-32.0625 32.0625-17.707031 0-32.0625-14.355468-32.0625-32.0625zm0 0" fill="#ffd982"/><path d="m432.34375 391.242188c0 61.976562-50.242188 112.21875-112.21875 112.21875s-112.21875-50.242188-112.21875-112.21875c0-61.976563 50.242188-112.21875 112.21875-112.21875s112.21875 50.242187 112.21875 112.21875zm0 0" fill="#ee93bd"/><path d="m352.1875 487.429688c-61.976562 0-112.21875-50.242188-112.21875-112.21875 0-37.527344 18.421875-70.746094 46.714844-91.117188-45.644532 14.230469-78.777344 56.820312-78.777344 107.148438 0 61.976562 50.242188 112.21875 112.21875 112.21875 24.449219 0 47.070312-7.824219 65.503906-21.101563-10.5625 3.292969-21.792968 5.070313-33.441406 5.070313zm0 0" fill="#e96fa7"/><path d="m97.679688 435.082031c-21.085938-12.175781-44.460938-11.164062-52.207032 2.253907-7.746094 13.417968 3.066406 34.164062 24.152344 46.335937 21.085938 12.175781 44.457031 11.167969 52.207031-2.25 7.746094-13.417969-3.066406-34.167969-24.152343-46.339844zm0 0" fill="#e0dce2"/><path d="m90.285156 472.390625c-20.773437-11.992187-31.5625-32.300781-24.472656-45.734375-9.097656.570312-16.5625 4.152344-20.328125 10.675781-7.746094 13.417969 3.066406 34.164063 24.152344 46.339844 21.085937 12.171875 44.460937 11.164063 52.207031-2.253906.113281-.199219.210938-.40625.316406-.609375-9.609375.601562-21.042968-2.164063-31.875-8.417969zm0 0" fill="#d0cad3"/><path d="m226.539062 425.191406c-7.011718-13.816406-27.09375-17.710937-44.859374-8.695312-17.761719 9.011718-26.480469 27.519531-19.46875 41.335937 7.011718 13.816407 27.097656 17.710938 44.859374 8.695313 17.765626-9.015625 26.480469-27.523438 19.46875-41.335938zm0 0" fill="#b1a6b5"/><path d="m186.28125 453.472656c-7.011719-13.816406 1.707031-32.328125 19.472656-41.34375.113282-.054687.230469-.109375.347656-.164062-7.632812-1.003906-16.257812.410156-24.394531 4.539062-17.765625 9.015625-26.484375 27.527344-19.472656 41.34375 6.96875 13.726563 26.835937 17.652344 44.515625 8.859375-9.027344-1.183593-16.667969-5.746093-20.46875-13.234375zm0 0" fill="#928398"/><path d="m441.734375 421.207031c-17.808594-7.691406-38.609375.800781-46.460937 18.972657-7.847657 18.171874.222656 39.140624 18.03125 46.835937 17.808593 7.691406 38.609374-.800781 46.460937-18.972656 7.847656-18.171875-.222656-39.140625-18.03125-46.835938zm0 0" fill="#e0dce2"/><path d="m430.976562 460.546875c-14.765624-6.378906-22.828124-21.886719-20.679687-37.355469-6.445313 3.75-11.820313 9.558594-15.027344 16.984375-7.851562 18.171875.21875 39.140625 18.027344 46.832031 17.808594 7.691407 38.609375-.800781 46.460937-18.972656 1.339844-3.105468 2.203126-6.289062 2.648438-9.476562-9.328125 5.421875-20.902344 6.535156-31.429688 1.988281zm0 0" fill="#d0cad3"/><path d="m299.097656 410.777344c-17.808594-7.695313-38.609375.800781-46.457031 18.972656-7.851563 18.171875.21875 39.140625 18.027344 46.832031 17.808593 7.695313 38.609375-.800781 46.460937-18.972656 7.851563-18.171875-.222656-39.136719-18.03125-46.832031zm0 0" fill="#d0cad3"/><path d="m293.0625 468.5625c-17.804688-7.695312-25.878906-28.660156-18.027344-46.832031 2.40625-5.574219 6.035156-10.230469 10.417969-13.792969-13.742187-.015625-26.925781 8.171875-32.820313 21.808594-7.847656 18.171875.222657 39.136718 18.03125 46.832031 12.347657 5.332031 26.128907 2.878906 36.039063-5.179687-4.566406-.007813-9.195313-.917969-13.640625-2.835938zm0 0" fill="#b1a6b5"/><path d="m146.832031 429.949219c-10.921875-4.714844-23.613281.34375-28.347656 11.304687-4.734375 10.957032.28125 23.667969 11.199219 28.382813 10.921875 4.71875 23.613281-.339844 28.347656-11.300781 4.734375-10.957032-.28125-23.667969-11.199219-28.386719zm0 0" fill="#928398"/><path d="m363.953125 439.867188c-10.921875-4.71875-23.613281.34375-28.347656 11.300781-4.734375 10.960937.28125 23.667969 11.199219 28.386719 10.921874 4.71875 23.613281-.339844 28.347656-11.300782 4.734375-10.960937-.28125-23.667968-11.199219-28.386718zm0 0" fill="#928398"/><path d="m422.6875 503.460938h-341.890625c-21.261719 0-41.648437-8.445313-56.679687-23.476563l-16.601563-16.601563h496.96875l-35.207031 25.148438c-13.59375 9.710938-29.882813 14.929688-46.589844 14.929688zm0 0" fill="#827189"/><path d="m79.65625 463.382812h-72.140625l16.601563 16.601563c15.03125 15.03125 35.417968 23.476563 56.679687 23.476563h72.140625c-21.261719 0-41.648438-8.445313-56.679688-23.476563zm0 0" fill="#634e6c"/><path d="m511.640625 461.089844c-.996094-3.109375-3.886719-5.222656-7.15625-5.222656h-34.273437c.707031-13.292969-4.691407-25.9375-14.320313-34.453126v-227.054687c0-4.152344-3.363281-7.515625-7.515625-7.515625s-7.515625 3.363281-7.515625 7.515625v218.507813c-.933594-.300782-1.875-.5625-2.820313-.792969 1.203126-6.851563 1.820313-13.835938 1.820313-20.832031 0-64.3125-50.96875-116.933594-114.632813-119.617188.464844-.953125.945313-1.917969 1.441407-2.902344 1.117187-2.210937 2.296875-4.539062 3.355469-7.023437 18.054687-3.671875 31.683593-19.664063 31.683593-38.785157 0-19.929687-28.664062-48.101562-34.410156-53.546874-2.898437-2.75-7.441406-2.75-10.339844 0-5.742187 5.445312-34.40625 33.617187-34.40625 53.546874 0 18.847657 13.246094 34.648438 30.914063 38.609376-.070313.140624-.136719.277343-.210938.417968-1.613281 3.191406-3.261718 6.5-4.515625 10.109375-10.148437.964844-19.933593 3.195313-29.191406 6.542969v-152.367188h72.890625.023438.015624 88.382813v33.5625c0 4.152344 3.363281 7.515626 7.515625 7.515626s7.515625-3.363282 7.515625-7.515626v-41.078124c0-4.152344-3.363281-7.515626-7.515625-7.515626h-87.859375c.859375-3.101562 2.429687-6.222656 4.226563-9.78125 1.117187-2.207031 2.296874-4.539062 3.355468-7.023437 18.054688-3.667969 31.683594-19.664063 31.683594-38.78125 0-19.933594-28.664062-48.105469-34.410156-53.546875-2.898438-2.75-7.4375-2.75-10.335938 0-5.746094 5.441406-34.410156 33.613281-34.410156 53.546875 0 18.84375 13.246094 34.648437 30.914062 38.609375-.070312.140625-.136718.273438-.207031.417969-2.484375 4.90625-5.191406 10.285156-6.160156 16.558593h-73.140625c-4.152344 0-7.515625 3.363282-7.515625 7.515626v166.519531c-12.476563 6.574219-23.664063 15.277343-33.0625 25.636719v-63.90625c0-4.152344-3.363281-7.515626-7.515625-7.515626h-77.007812c.449218-.914062.914062-1.84375 1.390624-2.785156 1.117188-2.210937 2.296876-4.539062 3.355469-7.023437 18.054688-3.671875 31.683594-19.664063 31.683594-38.785157 0-19.929687-28.664063-48.101562-34.410156-53.546874-2.898438-2.75-7.441407-2.75-10.335938 0-5.746093 5.445312-34.410156 33.617187-34.410156 53.546874 0 18.847657 13.246094 34.648438 30.914063 38.609376-.070313.140624-.136719.277343-.207032.417968-1.535156 3.03125-3.089844 6.171875-4.316406 9.566406h-66.96875c-4.152344 0-7.515625 3.363282-7.515625 7.515626v173.753906c-7.417969 2.191406-13.460937 6.5-17.132813 12.859375-3.734374 6.46875-4.484374 14.207031-2.28125 22.292969h-29.179687c-3.039063 0-5.78125 1.832031-6.941406 4.640624-1.164063 2.808594-.5234378 6.039063 1.625 8.1875l16.601562 16.601563c16.558594 16.558594 38.574219 25.679687 61.992188 25.679687h341.894531c18.378906 0 36-5.648437 50.957031-16.332031l35.207031-25.148437c2.660157-1.898438 3.785157-5.296875 2.789063-8.40625zm-175.984375-405.480469c0-8.628906 13.042969-25.523437 24.550781-37.496094 11.507813 11.964844 24.542969 28.847657 24.542969 37.496094 0 9.414063-5.328125 17.601563-13.125 21.71875-.191406-5.082031-1.53125-10.722656-4.699219-17.066406-1.855469-3.710938-6.367187-5.214844-10.085937-3.359375-3.710938 1.855468-5.214844 6.367187-3.359375 10.082031 2.519531 5.035156 3.332031 9.132813 3.082031 12.898437-11.8125-1.761718-20.90625-11.976562-20.90625-24.273437zm-216.421875 135.242187c0-8.628906 13.039063-25.519531 24.546875-37.492187 11.507812 11.976563 24.546875 28.863281 24.546875 37.492187 0 9.414063-5.328125 17.601563-13.125 21.71875-.1875-5.082031-1.53125-10.722656-4.699219-17.066406-1.859375-3.710937-6.367187-5.214844-10.085937-3.359375-3.710938 1.855469-5.214844 6.371094-3.359375 10.082031 2.519531 5.035157 3.332031 9.132813 3.082031 12.902344-11.816406-1.765625-20.90625-11.976562-20.90625-24.277344zm335.917969 265.015626h-55.328125c-.191407-4.324219.597656-8.671876 2.34375-12.710938 6.195312-14.339844 22.605469-21.089844 36.578125-15.054688 10.859375 4.691407 17.367187 15.886719 16.40625 27.765626zm-157.570313-232.953126c0-8.628906 13.039063-25.519531 24.546875-37.492187 11.507813 11.976563 24.546875 28.863281 24.546875 37.492187 0 9.414063-5.328125 17.601563-13.125 21.71875-.191406-5.082031-1.53125-10.722656-4.699219-17.0625-1.855468-3.714843-6.371093-5.21875-10.082031-3.359374-3.714843 1.855468-5.21875 6.367187-3.363281 10.078124 2.519531 5.035157 3.332031 9.136719 3.082031 12.902344-11.816406-1.765625-20.90625-11.976562-20.90625-24.277344zm22.542969 63.625c57.734375 0 104.703125 46.96875 104.703125 104.703126 0 6.710937-.636719 13.410156-1.898437 19.949218-14.707032 1.808594-28.195313 11.269532-34.558594 26.003906-2.558594 5.925782-3.757813 12.304688-3.574219 18.671876h-.621094c-1.324219-10.054688-7.816406-18.824219-17.25-22.902344-14.707031-6.355469-31.855469.472656-38.222656 15.21875-1.074219 2.480468-1.777344 5.050781-2.132813 7.683594h-.832031c6.296875-20.757813-3.613281-43.328126-23.664062-51.992188-10.480469-4.527344-22.125-4.625-32.785157-.273438-10.605468 4.332032-18.972656 12.558594-23.554687 23.164063-4.046875 9.375-4.699219 19.589844-2.027344 29.101563h-13.589843c7.007812-10.882813 8.460937-23.601563 3.152343-34.066407-3.492187-6.878906-9.429687-11.878906-16.648437-14.757812-.785156-5.195313-1.199219-10.5-1.199219-15.800781 0-57.734376 46.96875-104.703126 104.703125-104.703126zm48.761719 169.328126h-26.992188c.167969-.582032.359375-1.160157.601563-1.722657 3.085937-7.140625 11.367187-10.449219 18.46875-7.382812 3.925781 1.695312 6.796875 5.085937 7.921875 9.105469zm-109.222657 0c-3.308593-7.292969-3.382812-15.617188-.132812-23.140626 3.015625-6.972656 8.496094-12.375 15.441406-15.210937 6.886719-2.816406 14.394532-2.757813 21.140625.152344 13.976563 6.039062 20.304688 22.617187 14.113281 36.953125-.183593.421875-.375.835937-.574218 1.246094zm-131.652343 0c-1.066407-2.246094-2.335938-4.449219-3.777344-6.597657.039063-1.667969.414063-3.34375 1.148437-5.042969 3.082032-7.136718 11.363282-10.449218 18.464844-7.382812 7.035156 3.039062 10.308594 11.222656 7.363282 18.316406-.023438.03125-.046876.0625-.070313.097656-.125.160157-.277344.367188-.453125.609376zm41.765625 0c-.304688-.460938-.59375-.933594-.839844-1.421876-5.039062-9.925781 2.367188-24.234374 16.171875-31.238281 13.800781-7.003906 29.71875-4.535156 34.757813 5.394531 4.054687 7.992188.238281 19-9.285157 26.773438-.191406.15625-.375.320312-.546875.492188zm46.644531-201.390626v73.640626c0 .902343.167969 1.757812.457031 2.558593-10.472656 17.78125-16.488281 38.480469-16.488281 60.566407 0 4.324218.253906 8.65625.714844 12.945312-7.453125.011719-15.324219 1.824219-22.800781 5.617188-8.894532 4.511718-15.847657 11.128906-20.3125 18.574218-2.347657-2.171875-5.085938-3.996094-8.183594-5.332031-14.046875-6.070313-30.3125-.105469-37.292969 13.289063-3.355469-2.839844-7.0625-5.453126-11.066406-7.765626-10.152344-5.863281-20.695313-8.984374-30.308594-9.480468v-164.613282zm-164.429687 186.613282c5.472656-9.476563 25.070312-9.246094 41.941406.496094 6.320312 3.648437 11.765625 8.28125 15.785156 13.300781.0625.328125.132812.65625.210938.980469h-57.304688c-1.570312-3.476563-3.554688-9.722657-.632812-14.777344zm412.917968 41.324218c-12.394531 8.851563-26.992187 13.53125-42.222656 13.53125h-341.890625c-19.40625 0-37.644531-7.554687-51.367187-21.277343l-3.773438-3.769531h455.378906zm0 0"/></svg>