<svg height="511pt" viewBox="-64 1 511 511.9985" width="511pt" xmlns="http://www.w3.org/2000/svg"><path d="m8.015625 87.671875h368.71875v416.8125h-368.71875zm0 0" fill="#eeab92"/><path d="m40.078125 472.421875v-352.6875l-32.0625-32.0625v416.8125h368.71875l-32.0625-32.0625zm0 0" fill="#e98f6d"/><path d="m344.671875 119.734375v352.6875h-304.59375v-352.6875zm0 0" fill="#827189"/><path d="m320.625 143.78125v304.59375h-256.5v-304.59375zm0 0" fill="#efedf0"/><path d="m96.1875 424.328125v-280.546875h-32.0625v304.59375h256.5v-24.046875zm0 0" fill="#d0cad3"/><path d="m128.25 223.9375h32.0625v40.078125h-32.0625zm0 0" fill="#ffd982"/><path d="m264.515625 384.25h-144.28125v-112.21875l72.140625-48.09375 72.140625 48.09375zm0 0" fill="#d2df7c"/><path d="m212.414062 237.296875-20.039062-13.359375-72.140625 48.09375v112.21875h40.078125v-112.21875zm0 0" fill="#b3c924"/><path d="m168.328125 320.125h48.09375v64.125h-48.09375zm0 0" fill="#827189"/><path d="m168.328125 272.03125h48.09375v24.046875h-48.09375zm0 0" fill="#e0dce2"/><path d="m320.625 136.265625h-256.5c-4.152344 0-7.515625 3.363281-7.515625 7.515625v304.59375c0 4.152344 3.363281 7.515625 7.515625 7.515625h256.5c4.152344 0 7.515625-3.363281 7.515625-7.515625v-304.59375c0-4.152344-3.363281-7.515625-7.515625-7.515625zm-7.515625 304.59375h-241.472656v-289.5625h241.472656zm0 0"/><path d="m382.761719 508.960938c.957031-1.285157 1.488281-2.875 1.488281-4.480469v-308.265625c0-4.148438-3.363281-7.515625-7.515625-7.515625s-7.515625 3.367187-7.515625 7.515625v290.128906l-17.03125-17.035156v-346.460938l17.03125-17.035156v54.332031c0 4.152344 3.363281 7.515625 7.515625 7.515625s7.515625-3.363281 7.515625-7.515625v-72.46875c.003906-4.09375-3.429688-7.519531-7.515625-7.519531h-85.453125l-94.097656-78.414062c-2.785156-2.324219-6.832032-2.320313-9.621094 0l-94.097656 78.414062h-85.449219c-4.089844 0-7.515625 3.421875-7.515625 7.515625v416.808594c0 4.09375 3.417969 7.519531 7.515625 7.519531h368.71875c2.355469 0 4.625-1.148438 6.027344-3.039062zm-24.171875-413.777344-17.03125 17.035156h-298.367188l-17.035156-17.035156zm-311 369.722656v-337.660156h289.566406v337.660156zm-15.027344-342.058594v346.460938l-17.035156 17.035156v-380.53125zm10.628906 357.089844h298.367188l17.03125 17.03125h-332.433594zm149.183594-462.640625 75.429688 62.859375h-150.863282zm0 0"/><path d="m120.234375 391.765625h144.28125c4.148437 0 7.515625-3.363281 7.515625-7.515625v-112.21875c0-2.511719-1.257812-4.859375-3.347656-6.253906l-72.140625-48.09375c-2.527344-1.683594-5.8125-1.683594-8.335938 0l-20.382812 13.585937v-7.332031c0-4.152344-3.363281-7.515625-7.511719-7.515625h-32.0625c-4.152344 0-7.515625 3.363281-7.515625 7.515625v38.726562l-4.667969 3.113282c-2.089844 1.394531-3.347656 3.742187-3.347656 6.253906v112.21875c0 4.152344 3.363281 7.515625 7.515625 7.515625zm55.605469-15.03125v-49.09375h33.066406v49.09375zm16.535156-143.765625 64.625 43.082031v100.683594h-33.0625v-56.609375c0-4.152344-3.367188-7.515625-7.515625-7.515625h-48.09375c-4.152344 0-7.515625 3.363281-7.515625 7.515625v56.609375h-33.066406v-100.683594zm-56.613281-1.515625h17.035156v9.835937l-17.035156 11.355469zm0 0"/><path d="m168.328125 303.59375h48.09375c4.148437 0 7.515625-3.363281 7.515625-7.515625v-24.046875c0-4.152344-3.367188-7.515625-7.515625-7.515625h-48.09375c-4.152344 0-7.515625 3.363281-7.515625 7.515625v24.046875c0 4.152344 3.363281 7.515625 7.515625 7.515625zm7.511719-24.046875h33.066406v9.015625h-33.066406zm0 0"/></svg>