<svg height="512pt" viewBox="-32 0 512 512" width="512pt" xmlns="http://www.w3.org/2000/svg"><path d="m95.6875 7.515625h256.5v440.859375h-256.5zm0 0" fill="#e8e570"/><path d="m352.1875 448.375h-256.5v-440.859375zm0 0" fill="#d9d411"/><path d="m328.140625 31.5625v392.765625h-208.40625v-392.765625zm0 0" fill="#93d5df"/><path d="m151.796875 400.28125v-368.71875h-32.0625v392.765625h208.40625v-24.046875zm0 0" fill="#4bbac9"/><path d="m296.078125 472.421875h32.0625v32.0625h-32.0625zm0 0" fill="#827189"/><path d="m119.734375 472.421875h32.0625v32.0625h-32.0625zm0 0" fill="#827189"/><path d="m119.734375 431.84375h208.40625c4.152344 0 7.515625-3.363281 7.515625-7.515625v-100.527344c0-4.152343-3.363281-7.515625-7.515625-7.515625s-7.515625 3.363282-7.515625 7.515625v93.011719h-193.375v-377.734375h193.375v249.316406c0 4.152344 3.363281 7.515625 7.515625 7.515625s7.515625-3.363281 7.515625-7.515625v-256.832031c0-4.152344-3.363281-7.515625-7.515625-7.515625h-208.40625c-4.152344 0-7.515625 3.363281-7.515625 7.515625v392.765625c0 4.152344 3.363281 7.515625 7.515625 7.515625zm0 0"/><path d="m424.328125 232.453125c-10.425781 0-19.285156 6.816406-22.375 16.226563-.535156-.125-1.09375-.195313-1.671875-.195313h-40.578125v-240.96875c0-4.152344-3.363281-7.515625-7.515625-7.515625h-256.5c-4.152344 0-7.515625 3.363281-7.515625 7.515625v240.96875h-40.578125c-.574219 0-1.136719.070313-1.671875.195313-3.089844-9.410157-11.949219-16.226563-22.375-16.226563-12.984375 0-23.546875 10.5625-23.546875 23.546875s10.5625 23.546875 23.546875 23.546875c10.425781 0 19.285156-6.816406 22.375-16.226563.535156.125 1.097656.195313 1.671875.195313h8.515625v184.859375c0 21.824219 17.753906 39.578125 39.578125 39.578125h16.53125v16.53125c0 4.152344 3.363281 7.515625 7.515625 7.515625h32.0625c4.152344 0 7.515625-3.363281 7.515625-7.515625v-16.53125h129.25v16.53125c0 4.152344 3.363281 7.515625 7.515625 7.515625h32.0625c4.152344 0 7.515625-3.363281 7.515625-7.515625v-16.53125h16.53125c21.824219 0 39.578125-17.753906 39.578125-39.578125v-184.859375h8.515625c.574219 0 1.136719-.070313 1.671875-.195313 3.089844 9.410157 11.949219 16.226563 22.375 16.226563 12.984375 0 23.546875-10.5625 23.546875-23.546875s-10.5625-23.546875-23.546875-23.546875zm-400.78125 32.0625c-4.695313 0-8.515625-3.820313-8.515625-8.515625s3.820312-8.515625 8.515625-8.515625 8.515625 3.820313 8.515625 8.515625-3.820312 8.515625-8.515625 8.515625zm79.65625-249.484375h241.46875v425.828125h-241.46875zm41.078125 481.9375h-17.03125v-17.03125h17.03125zm176.34375 0h-17.03125v-17.03125h17.03125zm56.109375-48.59375c0 13.539062-11.011719 24.546875-24.546875 24.546875h-16.53125v-.5c0-4.148437-3.363281-7.515625-7.515625-7.515625h-32.0625c-4.152344 0-7.515625 3.367188-7.515625 7.515625v.5h-129.25v-.5c0-4.148437-3.363281-7.515625-7.515625-7.515625h-32.0625c-4.152344 0-7.515625 3.367188-7.515625 7.515625v.5h-16.53125c-13.535156 0-24.546875-11.007813-24.546875-24.546875v-184.859375h17.03125v184.859375c0 4.152344 3.363281 7.515625 7.515625 7.515625h256.5c4.152344 0 7.515625-3.363281 7.515625-7.515625v-184.859375h17.03125zm47.59375-183.859375c-4.695313 0-8.515625-3.820313-8.515625-8.515625s3.820312-8.515625 8.515625-8.515625 8.515625 3.820313 8.515625 8.515625-3.820312 8.515625-8.515625 8.515625zm0 0"/></svg>