<svg height="512pt" viewBox="0 -51 512.00022 512" width="512pt" xmlns="http://www.w3.org/2000/svg"><path d="m93.832031 7.519531 410.644531 71.441407-56.332031 323.777343-410.644531-71.441406zm0 0" fill="#d0cad3"/><path d="m38.84375 76.519531 411.351562-67.148437 52.945313 324.335937-411.355469 67.148438zm0 0" fill="#e0dce2"/><path d="m7.515625 39.578125h464.90625v328.644531h-464.90625zm0 0" fill="#efedf0"/><path d="m7.515625 39.578125h64.125v328.644531h-64.125zm0 0" fill="#d0cad3"/><path d="m448.375 63.625v280.546875h-416.8125v-280.546875zm0 0" fill="#d2df7c"/><path d="m31.5625 63.625h40.078125v280.550781h-40.078125zm0 0" fill="#b3c924"/><path d="m368.21875 312.113281 24.046875-56.113281 24.046875 56.113281-24.046875-8.015625zm0 0" fill="#ffc02e"/><path d="m505.773438 71.535156-25.835938-4.492187v-27.464844c0-4.148437-3.367188-7.511719-7.515625-7.511719h-10.890625l-3.902344-23.90625c-.65625-4.039062-4.585937-6.867187-8.625-6.207031l-178.046875 29.0625c-.636719-.316406-175.832031-30.902344-175.832031-30.902344-4.09375-.71875-7.980469 2.027344-8.691406 6.117188l-4.496094 25.835937h-74.421875c-4.152344 0-7.515625 3.363282-7.515625 7.515625v328.640625c0 4.148438 3.363281 7.515625 7.515625 7.515625h72.5625l4.296875 26.339844c.660156 4.039063 4.585938 6.863281 8.628906 6.207031l177.902344-29.039062c.261719-.042969.515625-.101563.765625-.167969.808594.507813 175.210937 31.046875 175.210937 31.046875.4375.074219.867188.113281 1.296876.113281 3.585937 0 6.757812-2.578125 7.394531-6.230469l4.917969-28.269531h11.929687c4.148437 0 7.515625-3.367187 7.515625-7.515625v-23.101562l24.433594-3.988282c4.035156-.65625 6.867187-4.585937 6.207031-8.625l-20.609375-126.25 21.917969-126.027343c.710937-4.09375-2.027344-7.984375-6.113281-8.695313zm-59.46875-39.46875h-88.484376l86.1875-14.070312zm-346.351563-15.859375 91.171875 15.859375h-93.929688zm-4.648437 359.527344h103.804687l-101.109375 16.507813zm346.75 18.292969-105.179688-18.292969h108.363281zm22.851562-33.320313h-449.875v-313.613281h449.875zm15.03125-30.8125v-78.75c.707031-.5 1.328125-1.121093 1.828125-1.839843l12.769531 78.207031zm0-153.671875v-93.925781l15.855469 2.757813zm0 0"/><path d="m31.5625 351.6875h416.8125c4.148438 0 7.515625-3.363281 7.515625-7.511719v-280.550781c0-4.148438-3.367187-7.511719-7.515625-7.511719h-63.125c-4.148438 0-7.511719 3.363281-7.511719 7.511719 0 4.152344 3.363281 7.515625 7.511719 7.515625h55.609375v265.519531h-401.78125v-265.519531h309.601563c4.152343 0 7.515624-3.363281 7.515624-7.515625 0-4.148438-3.363281-7.511719-7.515624-7.511719h-317.117188c-4.152344 0-7.515625 3.363281-7.515625 7.511719v280.550781c0 4.148438 3.363281 7.511719 7.515625 7.511719zm0 0"/><path d="m71.640625 88.175781c-4.152344 0-7.515625 3.363281-7.515625 7.511719v216.425781c0 4.148438 3.363281 7.511719 7.515625 7.511719h248.484375c4.148438 0 7.515625-3.363281 7.515625-7.511719v-216.425781c0-4.148438-3.367187-7.511719-7.515625-7.511719zm120.734375 56.832031c-18.238281 3.523438-32.0625 19.601563-32.0625 38.851563 0 4.152344 3.363281 7.515625 7.515625 7.515625h24.546875v25.050781h-113.21875v-25.050781h56.609375c4.148437 0 7.515625-3.363281 7.515625-7.515625v-80.65625h49.09375zm-113.21875 6.265626c.164062.007812.328125.023437.5.023437h48.59375v25.046875h-49.09375zm49.09375-48.070313v33.066406h-48.59375c-.171875 0-.335938.011719-.5.023438v-33.089844zm135.265625 201.394531v-15.859375c7.5 2.417969 13.425781 8.359375 15.84375 15.859375zm49.09375 0h-17.757813c-3.519531-18.242187-19.597656-32.0625-38.851562-32.0625-4.152344 0-7.515625 3.363282-7.515625 7.515625v24.546875h-169.328125v-73.144531h113.21875v24.546875c0 4.152344 3.363281 7.515625 7.515625 7.515625 4.148437 0 7.515625-3.363281 7.515625-7.515625v-72.140625c0-4.148437-3.367188-7.511719-7.515625-7.511719h-23.371094c3.179688-9.875 12.457031-17.035156 23.371094-17.035156 4.148437 0 7.515625-3.363281 7.515625-7.515625v-48.59375h105.203125zm0 0"/><path d="m264.015625 144.285156c-17.402344 0-31.5625 14.15625-31.5625 31.558594 0 17.40625 14.160156 31.5625 31.5625 31.5625s31.5625-14.15625 31.5625-31.5625c0-17.402344-14.160156-31.558594-31.5625-31.558594zm0 48.09375c-9.117187 0-16.53125-7.417968-16.53125-16.535156 0-9.113281 7.414063-16.53125 16.53125-16.53125s16.53125 7.417969 16.53125 16.53125c0 9.117188-7.414063 16.535156-16.53125 16.535156zm0 0"/><path d="m280.046875 216.425781h-32.0625c-4.152344 0-7.515625 3.363281-7.515625 7.511719 0 4.152344 3.363281 7.515625 7.515625 7.515625h32.0625c4.148437 0 7.515625-3.363281 7.515625-7.515625 0-4.148438-3.367188-7.511719-7.515625-7.511719zm0 0"/><path d="m247.984375 135.265625h32.0625c4.148437 0 7.515625-3.363281 7.515625-7.515625 0-4.148438-3.367188-7.511719-7.515625-7.511719h-32.0625c-4.152344 0-7.515625 3.363281-7.515625 7.511719 0 4.152344 3.363281 7.515625 7.515625 7.515625zm0 0"/><path d="m95.6875 127.25h16.03125c4.148438 0 7.515625-3.363281 7.515625-7.515625 0-4.148437-3.367187-7.511719-7.515625-7.511719h-16.03125c-4.152344 0-7.515625 3.363282-7.515625 7.511719 0 4.152344 3.363281 7.515625 7.515625 7.515625zm0 0"/><path d="m392.265625 248.488281c-3.007813 0-5.722656 1.789063-6.90625 4.554688l-24.046875 56.109375c-2.507812 5.84375 3.261719 12.085937 9.28125 10.089844l21.671875-7.226563 21.667969 7.226563c6.027344 2.003906 11.785156-4.253907 9.285156-10.089844l-24.046875-56.109375c-1.183594-2.765625-3.902344-4.554688-6.90625-4.554688zm2.375 48.480469c-1.53125-.515625-3.21875-.515625-4.75 0l-8.171875 2.722656 10.546875-24.613281 10.546875 24.613281zm0 0"/><path d="m368.21875 239.46875c4.148438 0 7.515625-3.363281 7.515625-7.515625v-27.335937l26.789063 32.148437c2.171874 2.605469 5.921874 3.429687 8.988281 1.980469 2.601562-1.230469 4.300781-3.914063 4.300781-6.792969v-48.09375c0-4.148437-3.367188-7.511719-7.515625-7.511719s-7.515625 3.363282-7.515625 7.511719v27.339844l-26.789062-32.148438c-4.40625-5.289062-13.289063-2.054687-13.289063 4.808594v48.09375c0 4.152344 3.367187 7.515625 7.515625 7.515625zm0 0"/></svg>