<svg height="512pt" viewBox="0 0 512 512" width="512pt" xmlns="http://www.w3.org/2000/svg"><path d="m304.09375 304.09375h-144.28125l-64.125 56.109375v-56.109375h-56.109375c-17.707031 0-32.0625-14.355469-32.0625-32.0625v-232.453125c0-17.707031 14.355469-32.0625 32.0625-32.0625h264.515625c17.707031 0 32.0625 14.355469 32.0625 32.0625v232.453125c0 17.707031-14.355469 32.0625-32.0625 32.0625zm0 0" fill="#efedf0"/><path d="m71.640625 280.046875c-17.707031 0-32.0625-14.355469-32.0625-32.0625v-232.453125c0-2.769531.351563-5.453125 1.007813-8.015625h-1.007813c-17.707031 0-32.0625 14.355469-32.0625 32.0625v232.453125c0 17.707031 14.355469 32.0625 32.0625 32.0625h56.109375v56.109375l64.125-56.109375h144.28125c14.941406 0 27.492188-10.21875 31.054688-24.046875zm0 0" fill="#d0cad3"/><path d="m504.484375 352.1875c0-75.257812-64.597656-136.265625-144.28125-136.265625s-144.28125 61.007813-144.28125 136.265625 64.597656 136.265625 144.28125 136.265625c18.082031 0 35.382813-3.148437 51.332031-8.886719l44.855469 24.917969-14.890625-39.710937c38.023438-24.539063 62.984375-65.808594 62.984375-112.585938zm0 0" fill="#928398"/><path d="m449.808594 458.96875-6.210938-3.449219c-15.949218 5.738281-33.25 8.886719-51.332031 8.886719-79.683594 0-144.28125-61.007812-144.28125-136.265625 0-36.273437 15.011719-69.234375 39.480469-93.652344-42.792969 23.640625-71.542969 67.496094-71.542969 117.699219 0 75.257812 64.597656 136.265625 144.28125 136.265625 18.082031 0 35.382813-3.148437 51.332031-8.886719l44.855469 24.917969-14.890625-39.710937c2.847656-1.839844 5.613281-3.78125 8.308594-5.804688zm0 0" fill="#73607b"/><path d="m364.210938 336.15625h-8.015626c-8.839843 0-16.03125-7.191406-16.03125-16.03125s7.191407-16.03125 16.03125-16.03125h12.023438c6.628906 0 12.023438 5.394531 12.023438 12.023438 0 6.640624 5.382812 12.023437 12.023437 12.023437s12.023437-5.382813 12.023437-12.023437c0-18.535157-14.054687-33.839844-32.0625-35.839844v-12.253906c0-6.640626-5.382812-12.023438-12.023437-12.023438s-12.023437 5.382812-12.023437 12.023438v12.832031c-18.269532 3.722656-32.0625 19.914062-32.0625 39.269531 0 22.097656 17.980468 40.078125 40.078124 40.078125h8.015626c8.839843 0 16.03125 7.191406 16.03125 16.03125s-7.191407 16.03125-16.03125 16.03125h-12.023438c-6.628906 0-12.023438-5.394531-12.023438-12.023437 0-6.640626-5.382812-12.023438-12.023437-12.023438s-12.023437 5.382812-12.023437 12.023438c0 18.535156 14.054687 33.839843 32.0625 35.84375v12.25c0 6.640624 5.382812 12.023437 12.023437 12.023437s12.023437-5.382813 12.023437-12.023437v-12.828126c18.273438-3.722656 32.0625-19.917968 32.0625-39.273437 0-22.097656-17.980468-40.078125-40.078124-40.078125zm0 0" fill="#ffd982"/><path d="m239.96875 159.3125c17.402344 0 31.5625-14.160156 31.5625-31.5625s-14.160156-31.5625-31.5625-31.5625-31.5625 14.160156-31.5625 31.5625 14.160156 31.5625 31.5625 31.5625zm0-48.09375c9.117188 0 16.53125 7.414062 16.53125 16.53125s-7.414062 16.53125-16.53125 16.53125-16.53125-7.414062-16.53125-16.53125 7.414062-16.53125 16.53125-16.53125zm0 0"/><path d="m263.515625 175.84375c0-4.152344-3.367187-7.515625-7.515625-7.515625h-32.0625c-4.148438 0-7.515625 3.363281-7.515625 7.515625s3.367187 7.515625 7.515625 7.515625h32.0625c4.148438 0 7.515625-3.363281 7.515625-7.515625zm0 0"/><path d="m223.9375 87.171875h32.0625c4.148438 0 7.515625-3.363281 7.515625-7.515625s-3.367187-7.515625-7.515625-7.515625h-32.0625c-4.148438 0-7.515625 3.363281-7.515625 7.515625s3.367187 7.515625 7.515625 7.515625zm0 0"/><path d="m71.640625 79.15625h16.03125c4.148437 0 7.515625-3.363281 7.515625-7.515625s-3.367188-7.515625-7.515625-7.515625h-16.03125c-4.152344 0-7.515625 3.363281-7.515625 7.515625s3.363281 7.515625 7.515625 7.515625zm0 0"/><path d="m512 352.1875c0-79.28125-68.09375-143.78125-151.796875-143.78125-5.585937 0-11.101563.296875-16.53125.855469v-169.683594c0-21.824219-17.753906-39.578125-39.578125-39.578125h-264.515625c-21.824219 0-39.578125 17.753906-39.578125 39.578125v24.382813c0 4.148437 3.363281 7.511718 7.515625 7.511718 4.148437 0 7.515625-3.363281 7.515625-7.511718v-24.382813c0-13.539063 11.011719-24.546875 24.546875-24.546875h264.515625c13.535156 0 24.546875 11.007812 24.546875 24.546875v171.964844c-8.640625 1.738281-17.011719 4.171875-25.046875 7.242187v-171.191406c0-4.152344-3.367188-7.515625-7.515625-7.515625h-248.484375c-4.152344 0-7.515625 3.363281-7.515625 7.515625v216.421875c0 4.152344 3.363281 7.515625 7.515625 7.515625h187.011719c-5.625 7.832031-10.457031 16.214844-14.382813 25.046875h-60.410156c-1.820312 0-3.578125.660156-4.949219 1.859375l-51.660156 45.207031v-39.550781c0-4.152344-3.367187-7.515625-7.515625-7.515625h-56.109375c-13.535156 0-24.546875-11.011719-24.546875-24.546875v-172.671875c0-4.152344-3.367188-7.515625-7.515625-7.515625-4.152344 0-7.515625 3.363281-7.515625 7.515625v172.671875c0 21.824219 17.753906 39.578125 39.578125 39.578125h48.59375v48.59375c0 6.3125 7.695313 9.828125 12.464844 5.65625l62-54.25h51.9375c-4.007813 12.875-6.167969 26.492187-6.167969 40.578125 0 79.28125 68.097656 143.78125 151.796875 143.78125 17.375 0 34.386719-2.757812 50.625-8.203125l41.914063 23.289063c5.992187 3.328124 13.078124-2.824219 10.683593-9.207032l-12.808593-34.160156c38.546874-27.101562 61.382812-69.847656 61.382812-115.5zm-343.671875-255.273438c-18.238281 3.519532-32.0625 19.597657-32.0625 38.851563 0 4.152344 3.363281 7.515625 7.515625 7.515625h24.546875v25.046875h-113.21875v-25.046875h56.609375c4.148438 0 7.515625-3.363281 7.515625-7.515625v-80.65625h49.09375zm-113.21875 6.261719c.164063.011719.328125.027344.5.027344h48.59375v25.046875h-49.09375zm49.09375-48.066406v33.0625h-48.59375c-.171875 0-.335937.015625-.5.023437v-33.085937zm103.703125 201.390625h-152.796875v-73.140625h113.21875v24.546875c0 4.152344 3.363281 7.515625 7.515625 7.515625 4.148438 0 7.515625-3.363281 7.515625-7.515625v-72.140625c0-4.152344-3.367187-7.515625-7.515625-7.515625h-23.371094c3.179688-9.871094 12.457032-17.03125 23.371094-17.03125 4.148438 0 7.515625-3.363281 7.515625-7.515625v-48.59375h105.203125v170.347656c-8.683594 4.425781-16.863281 9.621094-24.4375 15.5-7.375-10.304687-19.273438-16.519531-32.171875-16.519531-4.148437 0-7.515625 3.367188-7.515625 7.515625v24.550781h-16.53125zm31.5625 0v-15.859375c5.394531 1.726563 10.0625 5.304687 13.175781 10.1875-1.933593 1.84375-3.808593 3.734375-5.636719 5.671875zm197.957031 201.957031c-2.972656 1.917969-4.203125 5.644531-2.964843 8.953125l7.71875 20.585938-26.992188-15c-1.128906-.625-2.386719-.945313-3.652344-.945313-.855468 0-1.714844.148438-2.542968.445313-15.578126 5.601562-31.992188 8.445312-48.789063 8.445312-75.414063 0-136.769531-57.757812-136.769531-128.753906 0-70.992188 61.355468-128.75 136.769531-128.75s136.765625 57.757812 136.765625 128.75c0 42.480469-22.257812 82.207031-59.542969 106.269531zm0 0"/><path d="m411.804688 316.117188c0-19.933594-13.382813-36.957032-32.0625-42.039063v-6.054687c0-10.773438-8.765626-19.539063-19.539063-19.539063s-19.539063 8.765625-19.539063 19.539063v7.113281c-18.898437 6.539062-32.0625 24.566406-32.0625 44.988281 0 17.402344 9.390626 32.65625 23.375 40.957031-1.242187-.246093-2.523437-.378906-3.835937-.378906-10.773437 0-19.539063 8.765625-19.539063 19.539063 0 19.933593 13.382813 36.957031 32.0625 42.039062v6.054688c0 10.773437 8.765626 19.539062 19.539063 19.539062s19.539063-8.765625 19.539063-19.539062v-7.109376c18.898437-6.542968 32.0625-24.570312 32.0625-44.992187 0-17.402344-9.390626-32.65625-23.371094-40.957031 1.238281.246094 2.519531.378906 3.832031.378906 10.773437 0 19.539063-8.765625 19.539063-19.539062zm-24.046876 0c0-10.773438-8.765624-19.539063-19.539062-19.539063h-12.023438c-12.984374 0-23.546874 10.5625-23.546874 23.546875s10.5625 23.546875 23.546874 23.546875h8.015626c17.957031 0 32.5625 14.605469 32.5625 32.5625 0 15.414063-10.953126 28.832031-26.046876 31.910156-3.5.714844-6.015624 3.792969-6.015624 7.363281v12.828126c0 2.488281-2.023438 4.511718-4.507813 4.511718s-4.507813-2.023437-4.507813-4.511718v-12.25c0-3.828126-2.878906-7.046876-6.6875-7.46875-14.464843-1.609376-25.375-13.804688-25.375-28.375 0-2.484376 2.023438-4.507813 4.507813-4.507813s4.507813 2.023437 4.507813 4.507813c0 10.773437 8.765624 19.539062 19.539062 19.539062h12.023438c12.984374 0 23.546874-10.5625 23.546874-23.546875s-10.5625-23.546875-23.546874-23.546875h-8.015626c-17.953124 0-32.5625-14.605469-32.5625-32.5625 0-15.414062 10.953126-28.832031 26.046876-31.910156 3.5-.710938 6.015624-3.789063 6.015624-7.363282v-12.828124c0-2.488282 2.023438-4.507813 4.507813-4.507813s4.507813 2.019531 4.507813 4.507813v12.25c0 3.828124 2.882812 7.046874 6.6875 7.46875 14.464843 1.609374 25.375 13.808593 25.375 28.375 0 2.484374-2.019532 4.507812-4.507813 4.507812-2.484375 0-4.507813-2.019531-4.507813-4.507812zm-7.714843 15.230468c-4.957031-1.75-10.285157-2.703125-15.832031-2.703125h-8.015626c-4.695312 0-8.515624-3.820312-8.515624-8.519531 0-4.695312 3.820312-8.515625 8.515624-8.515625h12.023438c2.484375 0 4.507812 2.023437 4.507812 4.507813 0 6.152343 2.859376 11.648437 7.316407 15.230468zm-39.675781 33.664063c4.953124 1.753906 10.28125 2.707031 15.828124 2.707031h8.015626c4.695312 0 8.515624 3.820312 8.515624 8.515625s-3.820312 8.515625-8.515624 8.515625h-12.023438c-2.484375 0-4.507812-2.019531-4.507812-4.507812 0-6.148438-2.855469-11.644532-7.3125-15.230469zm0 0"/></svg>