<svg height="512pt" viewBox="-52 0 512 512" width="512pt" xmlns="http://www.w3.org/2000/svg"><path d="m119.734375 247.984375h-112.21875v-184.359375c0-13.28125 10.765625-24.046875 24.046875-24.046875h64.125c13.28125 0 24.046875 10.765625 24.046875 24.046875zm0 0" fill="#efedf0"/><path d="m63.625 39.578125h-32.0625c-13.28125 0-24.046875 10.765625-24.046875 24.046875v184.359375h32.0625v-184.359375c0-13.28125 10.765625-24.046875 24.046875-24.046875zm0 0" fill="#d0cad3"/><path d="m7.515625 247.984375h376.734375s8.015625 128.25-160.3125 128.25c-14.027344 0-104.203125 0-104.203125 0v128.25h-112.21875zm0 0" fill="#efedf0"/><path d="m7.515625 247.984375h32v256.5h-32zm0 0" fill="#d0cad3"/><path d="m380.402344 247.984375c-9.703125 37.988281-43.070313 96.1875-156.464844 96.1875-14.027344 0-104.203125 0-104.203125 0v32.0625h104.203125c168.328125 0 160.3125-128.25 160.3125-128.25zm0 0" fill="#d0cad3"/><path d="m39.578125 111.71875h48.09375l-8.015625 24.046875h-32.0625zm0 0" fill="#ffcc58"/><path d="m95.6875 39.578125h-64.125c-13.28125 0-24.046875 10.765625-24.046875 24.046875v16.03125h112.21875v-16.03125c0-13.28125-10.765625-24.046875-24.046875-24.046875zm0 0" fill="#93d5df"/><path d="m63.625 39.578125h-32.0625c-13.28125 0-24.046875 10.765625-24.046875 24.046875v16.03125h32.0625v-16.03125c0-13.28125 10.765625-24.046875 24.046875-24.046875zm0 0" fill="#4bbac9"/><path d="m384.25 247.984375h-264.515625v-32.0625h240.46875c13.28125 0 24.046875 10.765625 24.046875 24.046875zm0 0" fill="#93d5df"/><path d="m119.734375 231.953125v16.03125h264.515625v-8.015625c0-2.8125-.488281-5.507812-1.375-8.015625zm0 0" fill="#4bbac9"/><path d="m280.046875 63.625h96.1875v88.171875h-96.1875zm0 0" fill="#d0cad3"/><path d="m272.03125 7.515625c-26.5625 0-48.09375 21.53125-48.09375 48.09375s21.53125 48.09375 48.09375 48.09375h56.109375v-96.1875zm0 0" fill="#e0dce2"/><path d="m376.234375 55.609375c0 26.5625-21.53125 48.09375-48.09375 48.09375s-48.09375-21.53125-48.09375-48.09375 21.53125-48.09375 48.09375-48.09375 48.09375 21.53125 48.09375 48.09375zm0 0" fill="#efedf0"/><path d="m344.171875 55.609375c0 8.851563-7.175781 16.03125-16.03125 16.03125s-16.03125-7.179687-16.03125-16.03125c0-8.855469 7.175781-16.03125 16.03125-16.03125s16.03125 7.175781 16.03125 16.03125zm0 0" fill="#a195a7"/><path d="m87.671875 104.203125h-48.09375c-5.039063 0-8.726563 5.101563-7.128906 9.890625l8.015625 24.046875c1.023437 3.070313 3.894531 5.140625 7.128906 5.140625h32.0625c3.234375 0 6.105469-2.070312 7.128906-5.140625l8.015625-24.046875c1.59375-4.789062-2.089843-9.890625-7.128906-9.890625zm-13.433594 24.046875h-21.230469l-3.003906-9.015625h27.242188zm0 0"/><path d="m391.765625 239.96875c0-17.402344-14.160156-31.5625-31.5625-31.5625h-39.074219c-4.152344 0-7.515625 3.367188-7.515625 7.515625s3.363281 7.515625 7.515625 7.515625h39.074219c9.117187 0 16.53125 7.414062 16.53125 16.53125v.5h-249.484375v-17.03125h156.804688c4.148437 0 7.515624-3.367188 7.515624-7.515625s-3.367187-7.515625-7.515624-7.515625h-156.804688v-144.78125c0-17.402344-14.160156-31.5625-31.5625-31.5625h-64.125c-17.402344 0-31.5625 14.160156-31.5625 31.5625v440.859375c0 4.152344 3.363281 7.515625 7.515625 7.515625h112.21875c4.148437 0 7.515625-3.363281 7.515625-7.515625v-120.734375h96.6875c59.714844 0 104.765625-15.722656 133.898438-46.734375 35.65625-37.953125 34.152343-84.898437 33.929687-89.234375zm-376.734375.5v-153.296875h97.1875v153.296875zm0-176.84375c0-9.117188 7.414062-16.53125 16.53125-16.53125h64.125c9.113281 0 16.53125 7.414062 16.53125 16.53125v8.515625h-97.1875zm331.851562 263.101562c-26.179687 27.863282-67.542968 41.992188-122.945312 41.992188h-104.203125c-4.152344 0-7.515625 3.367188-7.515625 7.515625v120.734375h-97.1875v-241.46875h361.625c-.753906 13.765625-5.289062 45.164062-29.773438 71.226562zm0 0"/><path d="m400.28125 0c-4.148438 0-7.515625 3.363281-7.515625 7.515625v40.578125h-9.539063c-3.679687-27.121094-26.972656-48.09375-55.085937-48.09375h-56.109375c-28.113281 0-51.40625 20.972656-55.085938 48.09375h-9.539062v-40.578125c0-4.152344-3.367188-7.515625-7.515625-7.515625s-7.515625 3.363281-7.515625 7.515625v48.09375c0 4.148437 3.367188 7.515625 7.515625 7.515625h17.054687c3.679688 27.117188 26.972657 48.09375 55.085938 48.09375h.5v40.578125c0 4.148437 3.367188 7.515625 7.515625 7.515625h96.1875c4.152344 0 7.515625-3.367188 7.515625-7.515625v-88.171875c0-.171875-.015625-.335938-.027344-.5h16.558594c4.152344 0 7.515625-3.367188 7.515625-7.515625v-48.09375c0-4.152344-3.363281-7.515625-7.515625-7.515625zm-32.269531 48.09375h-17.5625c-3.144531-9.308594-11.953125-16.03125-22.308594-16.03125-12.984375 0-23.546875 10.5625-23.546875 23.546875s10.5625 23.546875 23.546875 23.546875c10.355469 0 19.164063-6.726562 22.308594-16.03125h17.5625c-3.535157 18.792969-20.0625 33.0625-39.871094 33.0625-22.375 0-40.578125-18.203125-40.578125-40.578125s18.203125-40.578125 40.578125-40.578125c19.808594 0 36.335937 14.265625 39.871094 33.0625zm-31.355469 7.515625c0 4.695313-3.820312 8.515625-8.515625 8.515625s-8.515625-3.820312-8.515625-8.515625 3.820312-8.515625 8.515625-8.515625 8.515625 3.820312 8.515625 8.515625zm-105.203125 0c0-22.375 18.203125-40.578125 40.578125-40.578125h18.144531c-10.847656 10.152344-17.644531 24.582031-17.644531 40.578125s6.796875 30.425781 17.644531 40.578125h-18.144531c-22.375 0-40.578125-18.203125-40.578125-40.578125zm56.109375 88.671875v-33.0625h40.578125c15.996094 0 30.425781-6.796875 40.578125-17.644531v50.707031zm0 0"/></svg>