<svg height="512pt" viewBox="0 -52 512 512" width="512pt" xmlns="http://www.w3.org/2000/svg"><path d="m183.859375 183.859375h320.625v216.421875h-320.625zm0 0" fill="#f9dbe9"/><path d="m183.859375 183.859375h32.0625v216.421875h-32.0625zm0 0" fill="#f4b7d3"/><path d="m183.859375 183.859375h320.625v48.09375h-320.625zm0 0" fill="#ee93bd"/><path d="m183.859375 183.859375h32.0625v48.09375h-32.0625zm0 0" fill="#e96fa7"/><path d="m247.984375 304.09375h192.375v64.125h-192.375zm0 0" fill="#b7e3ea"/><path d="m272.03125 352.1875v-48.09375h-24.046875v64.125h192.375v-16.03125zm0 0" fill="#4bbac9"/><path d="m7.515625 7.515625h176.34375v392.765625h-176.34375zm0 0" fill="#93d5df"/><path d="m7.515625 7.515625h32.0625v392.765625h-32.0625zm0 0" fill="#4bbac9"/><path d="m247.984375 167.328125h48.09375c4.152344 0 7.515625-3.367187 7.515625-7.515625v-8.015625c0-4.152344-3.363281-7.515625-7.515625-7.515625s-7.515625 3.363281-7.515625 7.515625v.5h-9.015625v-.5c0-4.152344-3.363281-7.515625-7.515625-7.515625s-7.515625 3.363281-7.515625 7.515625v.5h-9.015625v-.5c0-4.152344-3.363281-7.515625-7.515625-7.515625s-7.515625 3.363281-7.515625 7.515625v8.015625c0 4.148438 3.363281 7.515625 7.515625 7.515625zm0 0"/><path d="m392.265625 167.328125h48.09375c4.152344 0 7.515625-3.367187 7.515625-7.515625v-8.015625c0-4.152344-3.363281-7.515625-7.515625-7.515625s-7.515625 3.363281-7.515625 7.515625v.5h-9.015625v-.5c0-4.152344-3.363281-7.515625-7.515625-7.515625s-7.515625 3.363281-7.515625 7.515625v.5h-9.015625v-.5c0-4.152344-3.363281-7.515625-7.515625-7.515625s-7.515625 3.363281-7.515625 7.515625v8.015625c0 4.148438 3.363281 7.515625 7.515625 7.515625zm0 0"/><path d="m504.484375 176.34375h-313.109375v-168.828125c0-4.152344-3.363281-7.515625-7.515625-7.515625h-176.34375c-4.152344 0-7.515625 3.363281-7.515625 7.515625v392.765625c0 4.152344 3.363281 7.515625 7.515625 7.515625h496.96875c4.152344 0 7.515625-3.363281 7.515625-7.515625v-216.421875c0-4.148437-3.363281-7.515625-7.515625-7.515625zm-328.140625-161.3125v97.1875h-161.3125v-97.1875zm-161.3125 112.21875h161.3125v265.515625h-161.3125zm176.34375 265.515625v-153.296875h174.339844c4.152344 0 7.515625-3.367188 7.515625-7.515625s-3.363281-7.515625-7.515625-7.515625h-174.339844v-33.0625h305.59375v33.0625h-96.183594c-4.152344 0-7.515625 3.367188-7.515625 7.515625s3.363281 7.515625 7.515625 7.515625h96.183594v153.296875zm0 0"/><path d="m440.359375 296.578125h-192.375c-4.152344 0-7.515625 3.367187-7.515625 7.515625v64.125c0 4.152344 3.363281 7.515625 7.515625 7.515625h192.375c4.152344 0 7.515625-3.363281 7.515625-7.515625v-64.125c0-4.148438-3.363281-7.515625-7.515625-7.515625zm-7.515625 64.125h-177.34375v-49.09375h177.34375zm0 0"/><path d="m440.359375 248.484375c-4.152344 0-7.515625 3.367187-7.515625 7.515625v8.515625h-177.34375v-8.515625c0-4.148438-3.363281-7.515625-7.515625-7.515625s-7.515625 3.367187-7.515625 7.515625v16.03125c0 4.148438 3.363281 7.515625 7.515625 7.515625h192.375c4.152344 0 7.515625-3.367187 7.515625-7.515625v-16.03125c0-4.148438-3.363281-7.515625-7.515625-7.515625zm0 0"/><path d="m280.546875 207.90625c0 4.148438-3.363281 7.515625-7.511719 7.515625-4.152344 0-7.515625-3.367187-7.515625-7.515625 0-4.152344 3.363281-7.515625 7.515625-7.515625 4.148438 0 7.511719 3.363281 7.511719 7.515625zm0 0"/><path d="m424.328125 207.40625c0 4.148438-3.363281 7.511719-7.515625 7.511719-4.148438 0-7.511719-3.363281-7.511719-7.511719 0-4.152344 3.363281-7.515625 7.511719-7.515625 4.152344 0 7.515625 3.363281 7.515625 7.515625zm0 0"/><path d="m375.734375 207.90625c0-4.148438-3.363281-7.515625-7.515625-7.515625h-48.09375c-4.152344 0-7.515625 3.367187-7.515625 7.515625s3.363281 7.515625 7.515625 7.515625h48.09375c4.152344 0 7.515625-3.367187 7.515625-7.515625zm0 0"/><path d="m31.5625 95.1875c4.148438 0 7.515625-3.367188 7.515625-7.515625v-48.09375c0-4.152344-3.367187-7.515625-7.515625-7.515625-4.152344 0-7.515625 3.363281-7.515625 7.515625v48.09375c0 4.148437 3.363281 7.515625 7.515625 7.515625zm0 0"/><path d="m31.5625 144.28125c-4.152344 0-7.515625 3.363281-7.515625 7.515625v96.1875c0 4.148437 3.363281 7.515625 7.515625 7.515625 4.148438 0 7.515625-3.367188 7.515625-7.515625v-96.1875c0-4.152344-3.367187-7.515625-7.515625-7.515625zm0 0"/></svg>