<svg height="512pt" viewBox="-56 0 512 512" width="512pt" xmlns="http://www.w3.org/2000/svg"><path d="m251.3125 336.15625c-20.378906-33.347656-22.042969-88.171875-22.042969-88.171875h-58.78125s-1.664062 54.824219-22.042969 88.171875c-29.390624 48.09375-36.738281 64.125-36.738281 96.1875 0 40.078125 29.390625 72.140625 88.171875 72.140625s88.171875-32.0625 88.171875-72.140625c0-32.0625-7.347656-48.09375-36.738281-96.1875zm0 0" fill="#ffd982"/><path d="m239.957031 488.453125c-58.78125 0-88.171875-32.0625-88.171875-72.140625 0-32.0625 7.347656-48.09375 36.738282-96.1875 13.449218-22.003906 18.746093-53.355469 20.796874-72.140625h-38.832031s-1.664062 54.824219-22.042969 88.171875c-29.390624 48.09375-36.738281 64.125-36.738281 96.1875 0 40.078125 29.390625 72.140625 88.171875 72.140625 26.777344 0 47.433594-6.667969 62.015625-17.699219-6.796875 1.082032-14.097656 1.667969-21.9375 1.667969zm0 0" fill="#ffc02e"/><path d="m392.257812 280.046875h-384.753906l96.1875-272.53125h192.375zm0 0" fill="#e5e2f3"/><path d="m103.691406 7.515625-96.1875 272.53125h104.203125l64.125-272.53125zm0 0" fill="#cbc4e8"/><path d="m296.066406 7.515625h-40.078125l56.109375 272.53125h80.160156zm0 0" fill="#b1a7dc"/><path d="m103.691406 7.515625-96.1875 272.53125h80.15625l56.109375-272.53125zm0 0" fill="#b1a7dc"/><path d="m103.691406 7.515625-96.1875 272.53125h80.15625l56.109375-272.53125zm0 0" fill="#7c6cc4"/><path d="m175.832031 7.515625-16.03125 272.53125h80.15625l-20.039062-272.53125zm0 0" fill="#b1a7dc"/><path d="m399.355469 277.585938-68.132813-196.386719c-1.363281-3.921875-5.644531-6-9.5625-4.632813-3.921875 1.359375-5.996094 5.640625-4.636718 9.5625l64.671874 186.402344h-63.472656l-53.015625-257.5h25.671875l15.199219 40.078125c1.46875 3.878906 5.808594 5.835937 9.6875 4.363281 3.882813-1.472656 5.835937-5.8125 4.363281-9.691406l-17.035156-44.929688c-1.105469-2.921874-3.902344-4.851562-7.027344-4.851562h-192.375c-3.183594 0-6.023437 2.007812-7.085937 5.015625l-96.1875 272.53125c-1.699219 4.8125 1.992187 10.015625 7.085937 10.015625h150.476563c-3.757813 18.316406-9.234375 33.691406-15.945313 44.675781-30.234375 49.472657-37.84375 66.417969-37.84375 100.105469 0 48.390625 37.5625 79.65625 95.6875 79.65625 58.128906 0 95.6875-31.265625 95.6875-79.65625 0-33.6875-7.605468-50.632812-37.839844-100.105469-6.710937-10.980469-12.1875-26.359375-15.949218-44.675781h86.855468v74.378906c-9.308593 3.144532-16.03125 11.953125-16.03125 22.308594 0 12.984375 10.5625 23.546875 23.542969 23.546875 12.984375 0 23.546875-10.5625 23.546875-23.546875 0-10.355469-6.722656-19.164062-16.03125-22.308594v-74.378906h48.597656c5.074219 0 8.765626-5.171875 7.097657-9.976562zm-63.210938 115.179687c-4.695312 0-8.515625-3.820313-8.515625-8.515625s3.820313-8.515625 8.515625-8.515625c4.699219 0 8.519531 3.820313 8.519531 8.515625s-3.820312 8.515625-8.519531 8.515625zm-33.265625-120.234375h-55.9375l-18.933594-257.5h21.855469zm-89.941406-257.5 18.933594 257.5h-63.980469l18.933594-257.5zm-116.058594 257.5 53.015625-257.5h21.859375l-18.933594 257.5zm12.128906-257.5h25.542969l-53.015625 257.5h-63.410156zm171.53125 417.3125c0 39.863281-30.90625 64.625-80.660156 64.625-49.75 0-80.65625-24.761719-80.65625-64.625 0-30.617188 7.214844-45.757812 35.636719-92.269531 8.097656-13.253907 14.296875-30.917969 18.445313-52.511719h53.152343c4.148438 21.59375 10.347657 39.261719 18.445313 52.511719 28.421875 46.511719 35.636718 61.652343 35.636718 92.269531zm0 0"/></svg>