<svg height="512pt" viewBox="-16 0 512 512.00063" width="512pt" xmlns="http://www.w3.org/2000/svg"><path d="m239.992188 504.535156 24.050781-32.066406-24.050781-24.050781-24.050782 24.050781zm0 0" fill="#ffd982"/><path d="m304.125 424.371094c0 8.851562-7.179688 16.03125-16.035156 16.03125-8.855469 0-16.03125-7.179688-16.03125-16.03125 0-8.855469 7.175781-16.035156 16.03125-16.035156 8.855468 0 16.035156 7.179687 16.035156 16.035156zm0 0" fill="#ee93bd"/><path d="m207.925781 424.371094c0 8.851562-7.175781 16.03125-16.03125 16.03125s-16.035156-7.179688-16.035156-16.03125c0-8.855469 7.179687-16.035156 16.035156-16.035156s16.03125 7.179687 16.03125 16.035156zm0 0" fill="#ee93bd"/><path d="m456.433594 223.957031s16.035156-16.03125 16.035156-40.082031c0-24.046875-24.050781-56.113281-24.050781-56.113281s-24.046875 32.066406-24.046875 56.113281c0 24.050781 16.03125 40.082031 16.03125 40.082031zm0 0" fill="#ffd982"/><path d="m456.433594 139.847656c-4.414063-7.273437-8.015625-12.085937-8.015625-12.085937s-24.046875 32.066406-24.046875 56.113281c0 24.050781 16.03125 40.082031 16.03125 40.082031h16.03125s-16.03125-16.03125-16.03125-40.082031c0-14.742188 9.039062-32.492188 16.03125-44.027344zm0 0" fill="#ffc02e"/><path d="m376.269531 175.859375s16.035157-16.03125 16.035157-40.082031c0-24.046875-24.050782-56.113282-24.050782-56.113282s-24.046875 32.066407-24.046875 56.113282c0 24.050781 16.03125 40.082031 16.03125 40.082031zm0 0" fill="#ee93bd"/><path d="m376.269531 91.75c-4.414062-7.277344-8.015625-12.085938-8.015625-12.085938s-24.046875 32.066407-24.046875 56.113282c0 24.050781 16.03125 40.082031 16.03125 40.082031h16.03125s-16.03125-16.03125-16.03125-40.082031c0-14.746094 9.039063-32.492188 16.03125-44.027344zm0 0" fill="#e96fa7"/><path d="m23.546875 223.957031s-16.03125-16.03125-16.03125-40.082031c0-24.046875 24.050781-56.113281 24.050781-56.113281s24.046875 32.066406 24.046875 56.113281c0 24.050781-16.03125 40.082031-16.03125 40.082031zm0 0" fill="#ffd982"/><path d="m39.582031 139.847656c-4.414062-7.273437-8.015625-12.085937-8.015625-12.085937s-24.050781 32.066406-24.050781 56.113281c0 24.050781 16.03125 40.082031 16.03125 40.082031h16.035156s-16.035156-16.03125-16.035156-40.082031c0-14.742188 9.039063-32.492188 16.035156-44.027344zm0 0" fill="#ffc02e"/><path d="m103.710938 175.859375s-16.03125-16.03125-16.03125-40.082031c0-24.046875 24.050781-56.113282 24.050781-56.113282s24.046875 32.066407 24.046875 56.113282c0 24.050781-16.03125 40.082031-16.03125 40.082031zm0 0" fill="#ee93bd"/><path d="m119.746094 91.75c-4.414063-7.277344-8.015625-12.085938-8.015625-12.085938s-24.050781 32.066407-24.050781 56.113282c0 24.050781 16.03125 40.082031 16.03125 40.082031h16.035156s-16.035156-16.03125-16.035156-40.082031c0-14.746094 9.039062-32.492188 16.035156-44.027344zm0 0" fill="#e96fa7"/><path d="m280.074219 39.582031h-80.164063l-16.03125-32.066406h112.226563zm0 0" fill="#a195a7"/><path d="m407.550781 297.023438c-17.566406 15.242187-40.058593 23.632812-63.34375 23.632812-53.320312 0-96.699219-43.378906-96.699219-96.699219v-4.265625c13.117188 16.90625 33.609376 27.816406 56.617188 27.816406 36.964844 0 67.480469-28.144531 71.25-64.132812h16.929688c4.152343 0 7.515624-3.363281 7.515624-7.515625 0-4.148437-3.363281-7.515625-7.515624-7.515625h-1.367188c4.480469-7.902344 8.882812-19.09375 8.882812-32.566406 0-26.25-24.511718-59.234375-25.554687-60.625-2.953125-3.941406-9.066406-3.941406-12.023437 0-1.042969 1.390625-25.550782 34.375-25.550782 60.625 0 13.472656 4.402344 24.664062 8.882813 32.566406h-1.367188c-4.152343 0-7.515625 3.367188-7.515625 7.515625 0 4.152344 3.363282 7.515625 7.515625 7.515625h16.019531c-3.691406 27.675781-27.433593 49.101562-56.101562 49.101562-31.21875 0-56.617188-25.398437-56.617188-56.617187v-128.261719c0-.167968-.015624-.335937-.027343-.5h32.59375c2.847656 0 5.449219-1.609375 6.722656-4.15625l16.03125-32.066406c2.457031-4.910156-1.242187-10.875-6.722656-10.875h-112.226563c-5.484375 0-9.179687 5.964844-6.722656 10.875l16.03125 32.066406c1.273438 2.546875 3.875 4.15625 6.722656 4.15625h32.589844c-.007812.164063-.023438.332032-.023438.5v128.261719c0 31.21875-25.398437 56.617187-56.617187 56.617187-28.667969 0-52.410156-21.425781-56.101563-49.101562h16.019532c4.152344 0 7.515625-3.363281 7.515625-7.515625 0-4.148437-3.363281-7.515625-7.515625-7.515625h-1.367188c4.480469-7.902344 8.882813-19.09375 8.882813-32.566406 0-26.25-24.507813-59.234375-25.550781-60.625-2.957032-3.941406-9.066407-3.941406-12.023438 0-1.046875 1.390625-25.554688 34.375-25.554688 60.625 0 13.472656 4.402344 24.664062 8.882813 32.566406h-1.367187c-4.148438 0-7.515626 3.367188-7.515626 7.515625 0 4.152344 3.367188 7.515625 7.515626 7.515625h16.929687c3.769531 35.988281 34.28125 64.132812 71.25 64.132812 23.007813 0 43.5-10.910156 56.617187-27.816406v4.265625c0 53.320313-43.378906 96.699219-96.699218 96.699219-50.789063 0-92.558594-39.359375-96.40625-89.183594h16.242187c4.152344 0 7.515625-3.363281 7.515625-7.515625 0-4.148437-3.363281-7.511719-7.515625-7.511719h-1.367187c4.480468-7.90625 8.882812-19.097656 8.882812-32.570312 0-26.25-24.507812-59.230469-25.550781-60.621094-2.957031-3.945312-9.070313-3.945312-12.027344 0-1.042969 1.390625-25.550781 34.371094-25.550781 60.621094 0 13.472656 4.402344 24.664062 8.882812 32.570312h-1.367187c-4.152344 0-7.515625 3.363282-7.515625 7.511719 0 4.152344 3.363281 7.515625 7.515625 7.515625h16.792969c3.878906 58.117188 52.386718 104.214844 111.46875 104.214844 41.25 0 77.34375-22.46875 96.699218-55.808594v73.367188c-25.03125 3.398437-44.816406 23.5-47.71875 48.683594-9.507812 3.027343-16.414062 11.941406-16.414062 22.441406 0 12.984375 10.566406 23.546875 23.550781 23.546875s23.546875-10.5625 23.546875-23.546875c0-10.1875-6.5-18.878906-15.570312-22.15625 2.585937-17.019532 15.78125-30.585938 32.605468-33.75v76.839844l-21.847656 21.847656c-2.644531 2.644531-2.941406 6.832031-.699218 9.824218l24.050781 32.066407c2.957031 3.941406 9.066406 3.945312 12.023437 0l24.050782-32.066407c2.242187-2.992187 1.945312-7.179687-.699219-9.824218l-21.847657-21.847656v-76.84375c16.824219 3.164062 30.019532 16.734374 32.605469 33.753906-9.070312 3.273437-15.570312 11.96875-15.570312 22.152344 0 12.984374 10.5625 23.550781 23.546875 23.550781s23.550781-10.566407 23.550781-23.550781c0-10.496094-6.90625-19.410157-16.414063-22.4375-2.90625-25.183594-22.6875-45.285157-47.71875-48.6875v-73.363282c19.355469 33.339844 55.449219 55.808594 96.699219 55.808594 26.902344 0 52.898438-9.699219 73.191407-27.3125 3.136718-2.71875 3.472656-7.464844.753906-10.601562-2.722656-3.136719-7.46875-3.46875-10.601563-.75zm-55.828125-161.246094c0-13.308594 9.285156-31.179688 16.53125-42.734375 7.246094 11.558593 16.535156 29.425781 16.535156 42.734375 0 15.773437-8.140624 27.808594-11.941406 32.566406h-9.183594c-3.800781-4.757812-11.941406-16.792969-11.941406-32.566406zm-155.6875-120.746094h87.910156l-8.515624 17.035156h-70.875zm-100.839844 120.746094c0-13.308594 9.289063-31.179688 16.535157-42.734375 7.246093 11.558593 16.53125 29.425781 16.53125 42.734375 0 15.78125-8.148438 27.824218-11.9375 32.566406h-9.1875c-3.800781-4.757812-11.941407-16.792969-11.941407-32.566406zm-80.164062 48.097656c0-13.308594 9.289062-31.175781 16.535156-42.734375 7.246094 11.558594 16.53125 29.425781 16.53125 42.734375 0 15.78125-8.152344 27.824219-11.9375 32.570312h-9.1875c-3.800781-4.761718-11.941406-16.796874-11.941406-32.570312zm176.863281 249.011719c-4.699219 0-8.519531-3.820313-8.519531-8.515625 0-4.699219 3.820312-8.519532 8.519531-8.519532 4.695313 0 8.515625 3.820313 8.515625 8.519532 0 4.695312-3.820312 8.515625-8.515625 8.515625zm96.195313 0c-4.695313 0-8.515625-3.820313-8.515625-8.515625 0-4.699219 3.820312-8.519532 8.515625-8.519532 4.699218 0 8.519531 3.820313 8.519531 8.519532 0 4.695312-3.824219 8.515625-8.519531 8.515625zm-48.097656 59.121093-14.125-18.835937 14.125-14.125 14.125 14.125zm0 0"/><path d="m472.46875 216.445312h-1.367188c4.480469-7.90625 8.882813-19.097656 8.882813-32.570312 0-26.25-24.511719-59.230469-25.554687-60.621094-2.953126-3.945312-9.066407-3.945312-12.023438 0-1.042969 1.390625-25.550781 34.371094-25.550781 60.621094 0 13.472656 4.402343 24.664062 8.882812 32.570312h-1.367187c-4.152344 0-7.515625 3.363282-7.515625 7.511719 0 4.152344 3.363281 7.515625 7.515625 7.515625h16.226562c-1.042968 13.417969-4.867187 26.539063-11.230468 38.332032-1.96875 3.652343-.605469 8.210937 3.046874 10.183593 1.132813.613281 2.355469.902344 3.5625.902344 2.671876 0 5.261719-1.429687 6.621094-3.949219 7.539063-13.976562 12-29.558594 13.074219-45.464844h16.796875c4.152344 0 7.515625-3.367187 7.515625-7.515624 0-4.152344-3.367187-7.515626-7.515625-7.515626zm-40.582031-32.570312c0-13.308594 9.285156-31.175781 16.53125-42.734375 7.246093 11.558594 16.535156 29.425781 16.535156 42.734375 0 15.773438-8.140625 27.808594-11.941406 32.570312h-9.183594c-3.800781-4.761718-11.941406-16.796874-11.941406-32.570312zm0 0"/></svg>