<svg height="512pt" viewBox="-120 0 512 512" width="512pt" xmlns="http://www.w3.org/2000/svg"><path d="m135.765625 7.515625c-57.550781 0-104.203125 46.652344-104.203125 104.203125v392.765625h208.40625v-392.765625c0-57.550781-46.652344-104.203125-104.203125-104.203125zm0 0" fill="#e98f6d"/><path d="m151.796875 8.742188c-5.226563-.808594-10.578125-1.226563-16.03125-1.226563-57.550781 0-104.203125 46.652344-104.203125 104.203125v392.765625h32.0625v-392.765625c0-52.097656 38.234375-95.265625 88.171875-102.976562zm0 0" fill="#e37349"/><path d="m7.515625 480.4375h256.5v24.046875h-256.5zm0 0" fill="#827189"/><path d="m7.515625 480.4375h40.078125v24.046875h-40.078125zm0 0" fill="#634e6c"/><path d="m207.90625 111.71875c0 39.839844-32.296875 72.140625-72.140625 72.140625s-72.140625-32.300781-72.140625-72.140625c0-39.84375 32.296875-72.140625 72.140625-72.140625s72.140625 32.296875 72.140625 72.140625zm0 0" fill="#efedf0"/><path d="m159.8125 167.828125c-39.84375 0-72.140625-32.300781-72.140625-72.140625 0-19.816406 7.992187-37.761719 20.929687-50.800781-26.375 10.730469-44.976562 36.601562-44.976562 66.832031 0 39.839844 32.296875 72.140625 72.140625 72.140625 20.023437 0 38.140625-8.164063 51.210937-21.339844-8.386718 3.414063-17.550781 5.308594-27.164062 5.308594zm0 0" fill="#d0cad3"/><path d="m79.65625 223.9375h112.21875v208.40625h-112.21875zm0 0" fill="#827189"/><path d="m79.65625 223.9375h32.0625v208.40625h-32.0625zm0 0" fill="#634e6c"/><path d="m116.882812 334.585938c-8.730468-1.492188-17.011718 4.375-18.503906 13.101562-1.488281 8.730469 4.378906 17.011719 13.105469 18.5 8.726563 1.492188 17.011719-4.375 18.5-13.101562 1.492187-8.726563-4.375-17.011719-13.101563-18.5zm0 0" fill="#ffd982"/><path d="m264.015625 472.921875h-16.53125v-180.351563c0-4.148437-3.363281-7.511718-7.515625-7.511718s-7.515625 3.363281-7.515625 7.511718v180.351563h-193.375v-361.203125c0-53.316406 43.371094-96.6875 96.6875-96.6875 53.3125 0 96.6875 43.371094 96.6875 96.6875v146.285156c0 4.148438 3.363281 7.515625 7.515625 7.515625s7.515625-3.367187 7.515625-7.515625v-146.285156c0-61.601562-50.117187-111.71875-111.71875-111.71875s-111.71875 50.117188-111.71875 111.71875v361.203125h-16.53125c-4.152344 0-7.515625 3.367187-7.515625 7.515625v24.046875c0 4.152344 3.363281 7.515625 7.515625 7.515625h256.5c4.152344 0 7.515625-3.363281 7.515625-7.515625v-24.046875c0-4.148438-3.363281-7.515625-7.515625-7.515625zm-7.515625 24.046875h-241.46875v-9.015625h241.46875zm0 0"/><path d="m135.765625 32.0625c-43.921875 0-79.65625 35.734375-79.65625 79.65625s35.734375 79.65625 79.65625 79.65625 79.65625-35.734375 79.65625-79.65625-35.734375-79.65625-79.65625-79.65625zm7.515625 143.832031v-16.082031c0-4.152344-3.363281-7.515625-7.515625-7.515625s-7.515625 3.363281-7.515625 7.515625v16.082031c-29.636719-3.449219-53.210938-27.023437-56.660156-56.660156h16.082031c4.152344 0 7.515625-3.367187 7.515625-7.515625 0-4.152344-3.363281-7.515625-7.515625-7.515625h-16.082031c3.449218-29.636719 27.023437-53.210937 56.660156-56.660156v16.082031c0 4.148438 3.363281 7.515625 7.515625 7.515625s7.515625-3.367187 7.515625-7.515625v-16.082031c29.636719 3.449219 53.210938 27.023437 56.660156 56.660156h-16.082031c-4.152344 0-7.515625 3.363281-7.515625 7.515625 0 4.148438 3.363281 7.515625 7.515625 7.515625h16.082031c-3.449218 29.636719-27.023437 53.210937-56.660156 56.660156zm0 0"/><path d="m164.320312 73.644531c-3.320312-2.492187-8.03125-1.816406-10.519531 1.503907l-20.796875 27.726562-18.910156-6.300781c-3.941406-1.3125-8.191406.8125-9.503906 4.75s.8125 8.195312 4.75 9.507812l24.046875 8.015625c3.039062 1.011719 6.46875-.0625 8.390625-2.621094l24.046875-32.0625c2.488281-3.320312 1.816406-8.03125-1.503907-10.519531zm0 0"/><path d="m79.65625 216.421875c-4.152344 0-7.515625 3.367187-7.515625 7.515625v208.40625c0 4.152344 3.363281 7.515625 7.515625 7.515625h112.21875c4.152344 0 7.515625-3.363281 7.515625-7.515625v-208.40625c0-4.148438-3.363281-7.515625-7.515625-7.515625zm104.703125 208.40625h-97.1875v-193.375h39.6875l-16.324219 95.640625c-3.546875.550781-6.945312 1.917969-9.957031 4.050781-5.132813 3.636719-8.542969 9.054688-9.601563 15.253907-1.058593 6.199218.359376 12.441406 3.996094 17.574218 3.636719 5.128906 9.050782 8.539063 15.253906 9.597656 1.339844.230469 2.679688.34375 4.011719.34375 4.832031 0 9.539063-1.488281 13.558594-4.339843 5.132813-3.636719 8.542969-9.054688 9.597656-15.253907 1.0625-6.199218-.359375-12.4375-3.992187-17.570312-2.136719-3.015625-4.894532-5.410156-8.054688-7.109375l16.757813-98.1875h42.253906zm-70.191406-82.988281c.480469 0 .96875.042968 1.453125.125 2.238281.382812 4.199218 1.617187 5.515625 3.472656 1.3125 1.855469 1.828125 4.113281 1.445312 6.355469-.382812 2.242187-1.617187 4.203125-3.472656 5.515625-1.855469 1.316406-4.113281 1.828125-6.355469 1.445312-2.242187-.382812-4.203125-1.613281-5.515625-3.46875-1.316406-1.855468-1.832031-4.113281-1.449219-6.355468h.003907c.382812-2.242188 1.613281-4.203126 3.46875-5.519532 1.457031-1.03125 3.160156-1.570312 4.90625-1.570312zm0 0"/></svg>