<svg height="512pt" viewBox="0 -24 512 512" width="512pt" xmlns="http://www.w3.org/2000/svg"><path d="m424.328125 55.609375c11.519531-11.519531 17.664063-22.726563 18.402344-32.0625h-373.460938c.738281 9.335937 6.882813 20.542969 18.402344 32.0625 32.0625 32.0625-80.15625 65.125-80.15625 184.359375 0 111.21875 87.167969 216.421875 224.4375 216.421875h24.046875 24.046875c137.269531 0 224.4375-105.203125 224.4375-216.421875 0-119.234375-112.21875-152.296875-80.15625-184.359375zm0 0" fill="#e0dce2"/><path d="m344.171875 440.359375c-16.03125 0-24.046875 0-24.046875 0s-8.015625 0-24.046875 0c-137.269531 0-224.4375-105.203125-224.4375-216.421875 0-119.234375 112.21875-152.296875 80.15625-184.359375-5.472656-5.472656-9.714844-10.867187-12.757813-16.03125h-69.769531c.738281 9.335937 6.882813 20.542969 18.402344 32.0625 32.0625 32.0625-80.15625 65.125-80.15625 184.359375 0 111.21875 87.167969 216.421875 224.4375 216.421875h24.046875 24.046875c33.582031 0 64.160156-6.308594 91.203125-17.453125-8.792969.929688-17.816406 1.421875-27.078125 1.421875zm0 0" fill="#c1b8c4"/><path d="m448.375 39.578125h-384.75c-8.855469 0-16.03125-7.179687-16.03125-16.03125 0-8.855469 7.175781-16.03125 16.03125-16.03125h384.75c8.855469 0 16.03125 7.175781 16.03125 16.03125 0 8.851563-7.175781 16.03125-16.03125 16.03125zm0 0" fill="#efedf0"/><path d="m384.253906 127.75c-32.0625 0-32.0625-32.0625-64.125-32.0625-32.058594 0-32.058594 32.0625-64.121094 32.0625s-32.0625-32.0625-64.125-32.0625-32.0625 32.0625-64.125 32.0625c-27.476562 0-31.425781-23.527344-52.164062-30.265625-25.167969 27.96875-68.078125 68.746094-68.078125 142.484375 0 111.21875 87.167969 216.421875 224.4375 216.421875h24.046875 24.046875c137.269531 0 224.4375-105.203125 224.4375-216.421875 0-73.734375-42.910156-114.511719-68.078125-142.480469-20.730469 6.738281-24.679688 30.261719-52.152344 30.261719zm0 0" fill="#93d5df"/><path d="m320.125 440.359375s-8.015625 0-24.046875 0c-137.269531 0-224.4375-105.203125-224.4375-216.421875 0-45.148438 16.089844-77.933594 34.34375-102.996094-10.457031-7.492187-16.84375-19.054687-30.390625-23.457031-25.167969 27.96875-68.078125 68.746094-68.078125 142.484375 0 111.21875 87.167969 216.421875 224.4375 216.421875h24.046875 24.046875c33.582031 0 64.160156-6.308594 91.203125-17.453125-8.792969.925781-17.816406 1.421875-27.078125 1.421875-16.03125 0-24.046875 0-24.046875 0zm0 0" fill="#4bbac9"/><path d="m296.078125 264.015625s-8.015625-24.046875 32.0625-24.046875c0 0-8.015625 8.015625-8.015625 16.03125v16.03125zm0 0" fill="#e37349"/><path d="m296.734375 360.203125s-8.015625 24.046875 32.0625 24.046875c0 0-8.015625-8.015625-8.015625-16.03125s0-16.03125 0-16.03125zm0 0" fill="#e37349"/><path d="m239.96875 312.109375c0-16.03125 32.0625-48.09375 64.125-48.09375s56.109375 48.09375 56.109375 48.09375 16.03125-24.046875 24.046875-24.046875 16.03125 0 32.0625 8.015625c0 0-16.03125 12.710937-16.03125 24.046875 0 8.015625 8.015625 8.015625 24.046875 16.03125 0 0-24.046875 16.03125-40.078125 16.03125-11.335938 0-16.03125-16.03125-24.046875-24.046875-8.015625 8.015625-24.046875 32.0625-56.109375 32.0625s-64.125-24.046875-64.125-48.09375zm0 0" fill="#eeab92"/><path d="m401.304688 324.164062c-5.796876 2.28125-11.847657 3.976563-17.054688 3.976563-9.804688 0-14.644531-11.992187-20.957031-20.417969-1.894531 2.59375-3.089844 4.386719-3.089844 4.386719s-.96875-1.9375-2.773437-5.03125c-8.753907 9.78125-24.609376 29.078125-53.335938 29.078125-25.980469 0-51.957031-15.789062-60.878906-34.574219-2.089844 3.867188-3.246094 7.488281-3.246094 10.527344 0 24.046875 32.0625 48.09375 64.125 48.09375s48.09375-24.046875 56.109375-32.0625c8.015625 8.015625 12.710937 24.046875 24.046875 24.046875 16.03125 0 40.078125-16.03125 40.078125-16.03125-12.753906-6.375-20.414063-7.691406-23.023437-11.992188zm0 0" fill="#e98f6d"/><path d="m447.953125 99.007812c-21.542969-23.515624-25.945313-30.449218-18.308594-38.085937 4.363281-4.363281 8.113281-8.800781 11.148438-13.191406.144531-.207031.277343-.421875.398437-.640625h7.183594c12.984375 0 23.546875-10.5625 23.546875-23.542969 0-12.984375-10.5625-23.546875-23.546875-23.546875h-384.75c-12.984375 0-23.546875 10.5625-23.546875 23.546875s10.5625 23.546875 23.546875 23.546875h7.640625c.238281.8125.609375 1.597656 1.140625 2.320312 2.800781 3.832032 6.148438 7.707032 9.953125 11.507813 7.632813 7.636719 3.230469 14.570313-18.3125 38.085937-25.503906 27.835938-64.046875 69.902344-64.046875 140.960938 0 28.683594 5.488281 56.796875 16.3125 83.554688 10.855469 26.828124 26.515625 50.914062 46.546875 71.59375 20.804687 21.46875 45.425781 38.296874 73.191406 50.019531 29.496094 12.453125 61.761719 18.769531 95.902344 18.769531h48.09375c34.140625 0 66.40625-6.316406 95.902344-18.769531 27.765625-11.722657 52.386719-28.550781 73.191406-50.019531 20.03125-20.679688 35.691406-44.765626 46.546875-71.59375 10.824219-26.757813 16.3125-54.871094 16.3125-83.554688 0-71.058594-38.542969-113.125-64.046875-140.960938zm-98.769531-66.945312h-285.558594c-4.695312 0-8.515625-3.820312-8.515625-8.515625s3.820313-8.515625 8.515625-8.515625h384.75c4.695312 0 8.515625 3.820312 8.515625 8.515625s-3.820313 8.515625-8.515625 8.515625h-62.121094c-4.152344 0-7.515625 3.363281-7.515625 7.515625 0 4.148437 3.363281 7.515625 7.515625 7.515625h35.820313c-.976563 1.066406-1.992188 2.132812-3.058594 3.203125-8.714844 8.714844-10.292969 18.882813-4.683594 30.226563 2.296875 4.648437 5.757813 9.425781 9.957031 14.480468-5.265624 3.390625-9.457031 7.574219-13.289062 11.402344-7.722656 7.726562-13.828125 13.828125-26.746094 13.828125-12.917968 0-19.019531-6.101563-26.746094-13.828125-8.546874-8.546875-18.234374-18.234375-37.378906-18.234375-19.140625 0-28.828125 9.6875-37.375 18.234375-7.726562 7.726562-13.828125 13.828125-26.746094 13.828125-12.917968 0-19.019531-6.101563-26.746093-13.828125-8.546875-8.546875-18.234375-18.234375-37.375-18.234375-19.144531 0-28.832031 9.6875-37.378907 18.234375-7.726562 7.726562-13.832031 13.828125-26.75 13.828125-12.921874 0-19.023437-6.101563-26.75-13.832031-3.824218-3.824219-8.023437-8.011719-13.292968-11.402344 4.195312-5.050781 7.65625-9.828125 9.953125-14.476562 5.609375-11.34375 4.03125-21.511719-4.683594-30.226563-1.066406-1.066406-2.070313-2.136719-3.042969-3.203125h259.242188c4.148437 0 7.511718-3.367188 7.511718-7.515625 0-4.152344-3.363281-7.515625-7.511718-7.515625zm-69.136719 416.8125h-48.09375c-135.785156 0-216.921875-106.214844-216.921875-208.90625 0-65.214844 34.734375-103.125 60.09375-130.808594.835938-.910156 1.652344-1.804687 2.464844-2.691406 4.78125 2.570312 8.691406 6.464844 12.789062 10.5625 8.546875 8.546875 18.234375 18.234375 37.378906 18.234375 19.144532 0 28.828126-9.6875 37.375-18.234375 7.730469-7.726562 13.832032-13.828125 26.753907-13.828125 12.917969 0 19.019531 6.101563 26.746093 13.828125 8.542969 8.546875 18.230469 18.234375 37.375 18.234375 19.144532 0 28.828126-9.6875 37.375-18.234375 7.726563-7.726562 13.832032-13.828125 26.746094-13.828125 12.917969 0 19.023438 6.101563 26.75 13.828125 8.542969 8.546875 18.230469 18.234375 37.375 18.234375 19.144532 0 28.828125-9.6875 37.375-18.234375 4.09375-4.09375 8.007813-7.980469 12.789063-10.554688.808593.886719 1.625 1.777344 2.457031 2.683594 25.359375 27.683594 60.09375 65.59375 60.09375 130.808594 0 102.691406-81.136719 208.90625-216.921875 208.90625zm0 0"/><path d="m427.6875 329.433594c-4.933594-2.464844-9.132812-4.207032-12.507812-5.601563-2.851563-1.183593-6.359376-2.636719-7.378907-3.5-.003906-.054687-.003906-.125-.003906-.207031 0-5.210938 7.871094-13.921875 13.183594-18.160156 4.234375-3.355469 3.523437-10.195313-1.308594-12.609375-17.617187-8.808594-27.074219-8.808594-35.421875-8.808594-5.898438 0-12.3125 4.542969-20.800781 14.730469-.875 1.042968-1.714844 2.085937-2.511719 3.101562-6.578125-10.359375-18.230469-25.929687-33.296875-34.878906v-7.5c0-3.636719 3.929687-8.804688 5.816406-10.71875 4.632813-4.636719 1.234375-12.828125-5.316406-12.828125-16.292969 0-27.890625 3.792969-34.464844 11.265625-3.679687 4.183594-5.664062 9.429688-5.761719 15.0625-11.21875 3.042969-22.585937 9.054688-32.71875 17.496094-10.992187 9.164062-22.742187 23.386718-22.742187 35.832031 0 13.847656 8.398437 28.09375 23.046875 39.078125 9.746094 7.308594 21.289062 12.441406 33.089844 14.894531.257812 5.691407 2.453125 10.96875 6.324218 15.058594 6.667969 7.050781 18.066407 10.625 33.882813 10.625 6.527344 0 9.910156-8.160156 5.332031-12.808594-1.902344-1.933593-5.835937-7.101562-5.835937-10.738281v-5.007812c14.726562-5.792969 24.773437-15.996094 31.445312-23.394532.472657.71875.949219 1.457032 1.433594 2.203125 5.09375 7.878907 11.429687 17.683594 23.078125 17.683594 17.792969 0 41.59375-15.523437 44.246094-17.292969 4.714844-3.140625 4.261718-10.441406-.808594-12.976562zm-122.730469-75.785156c1.78125-2.027344 4.796875-3.589844 8.835938-4.632813-.722657 2.207031-1.183594 4.5625-1.183594 6.984375v1.433594c-2.765625-.59375-5.605469-.933594-8.515625-.933594-.25 0-.5.019531-.75.023438.304688-.976563.808594-1.960938 1.613281-2.875zm9.492188 121.550781c-3.878907-1-6.8125-2.480469-8.617188-4.386719-.855469-.90625-1.460937-1.941406-1.828125-3.097656.03125 0 .058594.003906.089844.003906 3.199219 0 6.25-.222656 9.171875-.613281v1.113281c0 2.421875.457031 4.773438 1.183594 6.980469zm69.800781-30.527344c-3.464844 0-7.019531-5.496094-10.457031-10.8125-2.480469-3.832031-5.039063-7.796875-8.277344-11.03125-1.410156-1.410156-3.320313-2.203125-5.3125-2.203125-1.996094 0-3.902344.792969-5.316406 2.203125-1.300781 1.300781-2.667969 2.839844-4.25 4.621094-8.390625 9.4375-22.433594 25.238281-46.542969 25.238281-27.511719 0-56.609375-20.855469-56.609375-40.578125 0-11.050781 27.527344-40.578125 56.609375-40.578125 22.414062 0 43.253906 31.722656 49.386719 43.9375 1.199219 2.398438 3.582031 3.972656 6.253906 4.140625 2.683594.167969 5.234375-1.101563 6.71875-3.328125 6.4375-9.644531 15-19.332031 18.261719-20.703125 5.441406 0 10.445312.078125 18.253906 2.871094-5.015625 5.660156-10.203125 13.492187-10.203125 21.675781 0 10.007812 7.09375 13.582031 15.03125 16.910156-7.671875 3.902344-16.867187 7.636719-23.546875 7.636719zm0 0"/><path d="m279.546875 312.109375c0 4.152344-3.367187 7.515625-7.515625 7.515625s-7.515625-3.363281-7.515625-7.515625c0-4.148437 3.367187-7.515625 7.515625-7.515625s7.515625 3.367188 7.515625 7.515625zm0 0"/><path d="m280.046875 207.40625c12.984375 0 23.546875-10.5625 23.546875-23.546875s-10.5625-23.546875-23.546875-23.546875-23.546875 10.5625-23.546875 23.546875 10.5625 23.546875 23.546875 23.546875zm0-32.0625c4.695313 0 8.515625 3.820312 8.515625 8.515625s-3.820312 8.515625-8.515625 8.515625-8.515625-3.820312-8.515625-8.515625 3.820312-8.515625 8.515625-8.515625zm0 0"/><path d="m191.875 344.671875c-12.984375 0-23.546875 10.5625-23.546875 23.546875s10.5625 23.546875 23.546875 23.546875 23.546875-10.5625 23.546875-23.546875-10.5625-23.546875-23.546875-23.546875zm0 32.0625c-4.695312 0-8.515625-3.820313-8.515625-8.515625s3.820313-8.515625 8.515625-8.515625 8.515625 3.820313 8.515625 8.515625-3.820313 8.515625-8.515625 8.515625zm0 0"/><path d="m127.75 208.40625c-12.984375 0-23.546875 10.5625-23.546875 23.546875s10.5625 23.546875 23.546875 23.546875 23.546875-10.5625 23.546875-23.546875-10.5625-23.546875-23.546875-23.546875zm0 32.0625c-4.695312 0-8.515625-3.820312-8.515625-8.515625s3.820313-8.515625 8.515625-8.515625 8.515625 3.820312 8.515625 8.515625-3.820313 8.515625-8.515625 8.515625zm0 0"/></svg>