<svg height="512pt" viewBox="0 0 512 512" width="512pt" xmlns="http://www.w3.org/2000/svg"><path d="m424.328125 87.671875c-17.707031 0-32.0625 14.355469-32.0625 32.0625v56.109375h64.125v-56.109375c0-17.707031-14.355469-32.0625-32.0625-32.0625zm0 0" fill="#efedf0"/><path d="m436.351562 90.011719c-3.714843-1.503907-7.769531-2.339844-12.023437-2.339844-17.707031 0-32.0625 14.355469-32.0625 32.0625v56.109375h24.046875v-56.109375c0-13.453125 8.292969-24.964844 20.039062-29.722656zm0 0" fill="#d0cad3"/><path d="m312.109375 87.671875c-17.707031 0-32.0625 14.355469-32.0625 32.0625v56.109375h64.125v-56.109375c0-17.707031-14.355469-32.0625-32.0625-32.0625zm0 0" fill="#efedf0"/><path d="m324.132812 90.011719c-3.714843-1.503907-7.769531-2.339844-12.023437-2.339844-17.707031 0-32.0625 14.355469-32.0625 32.0625v56.109375h24.046875v-56.109375c0-13.453125 8.292969-24.964844 20.039062-29.722656zm0 0" fill="#d0cad3"/><path d="m87.671875 87.671875c17.707031 0 32.0625 14.355469 32.0625 32.0625v56.109375h-64.125v-56.109375c0-17.707031 14.355469-32.0625 32.0625-32.0625zm0 0" fill="#efedf0"/><path d="m99.695312 90.011719c-3.714843-1.503907-7.769531-2.339844-12.023437-2.339844-17.707031 0-32.0625 14.355469-32.0625 32.0625v56.109375h24.046875v-56.109375c0-13.453125 8.289062-24.964844 20.039062-29.722656zm0 0" fill="#d0cad3"/><path d="m199.890625 87.671875c17.707031 0 32.0625 14.355469 32.0625 32.0625v56.109375h-64.125v-56.109375c0-17.707031 14.355469-32.0625 32.0625-32.0625zm0 0" fill="#efedf0"/><path d="m211.914062 90.011719c-3.714843-1.503907-7.769531-2.339844-12.023437-2.339844-17.707031 0-32.0625 14.355469-32.0625 32.0625v56.109375h24.046875v-56.109375c0-13.453125 8.289062-24.964844 20.039062-29.722656zm0 0" fill="#d0cad3"/><path d="m7.515625 31.5625h496.96875v32.0625h-496.96875zm0 0" fill="#e98f6d"/><path d="m7.515625 472.421875h496.96875v32.0625h-496.96875zm0 0" fill="#e98f6d"/><path d="m352.1875 223.9375h32.0625v40.078125h-32.0625zm0 0" fill="#ffd982"/><path d="m384.25 312.109375v-64.125h-32.0625v64.125l-17.003906 17.003906c-4.507813 4.511719-7.042969 10.625-7.042969 17.003907v126.304687h80.15625v-126.304687c0-6.378907-2.535156-12.496094-7.042969-17.003907zm0 0" fill="#d2df7c"/><path d="m359.230469 329.113281 17.003906-17.003906v-64.125h-24.046875v64.125l-17.003906 17.003906c-4.507813 4.507813-7.042969 10.625-7.042969 17.003907v126.304687h24.046875v-126.304687c0-6.378907 2.535156-12.496094 7.042969-17.003907zm0 0" fill="#b3c924"/><path d="m328.140625 360.203125h80.15625v80.15625h-80.15625zm0 0" fill="#e0dce2"/><path d="m328.140625 360.203125h24.046875v80.15625h-24.046875zm0 0" fill="#c1b8c4"/><path d="m127.75 223.9375h32.0625v40.078125h-32.0625zm0 0" fill="#ffd982"/><path d="m159.8125 312.109375v-64.125h-32.0625v64.125l-17.003906 17.003906c-4.511719 4.511719-7.042969 10.625-7.042969 17.003907v126.304687h80.15625v-126.304687c0-6.378907-2.535156-12.496094-7.042969-17.003907zm0 0" fill="#9689d0"/><path d="m134.792969 329.113281 17.003906-17.003906v-64.125h-24.046875v64.125l-17.003906 17.003906c-4.511719 4.507813-7.042969 10.625-7.042969 17.003907v126.304687h24.046875v-126.304687c0-6.378907 2.535156-12.496094 7.042969-17.003907zm0 0" fill="#7c6cc4"/><path d="m103.703125 360.203125h80.15625v80.15625h-80.15625zm0 0" fill="#e0dce2"/><path d="m103.703125 360.203125h24.046875v80.15625h-24.046875zm0 0" fill="#c1b8c4"/><path d="m239.96875 223.9375h32.0625v40.078125h-32.0625zm0 0" fill="#ffd982"/><path d="m272.03125 312.109375v-64.125h-32.0625v64.125l-17.003906 17.003906c-4.511719 4.511719-7.042969 10.625-7.042969 17.003907v126.304687h80.15625v-126.304687c0-6.378907-2.535156-12.496094-7.042969-17.003907zm0 0" fill="#f4b7d3"/><path d="m247.011719 329.113281 17.003906-17.003906v-64.125h-24.046875v64.125l-17.003906 17.003906c-4.511719 4.507813-7.042969 10.625-7.042969 17.003907v126.304687h24.046875v-126.304687c0-6.378907 2.535156-12.496094 7.042969-17.003907zm0 0" fill="#ee93bd"/><path d="m215.921875 360.203125h80.15625v80.15625h-80.15625zm0 0" fill="#ffd982"/><path d="m215.921875 360.203125h24.046875v80.15625h-24.046875zm0 0" fill="#ffc02e"/><path d="m504.484375 24.046875h-72.640625v-9.015625h16.53125c4.152344 0 7.515625-3.367188 7.515625-7.515625 0-4.152344-3.363281-7.515625-7.515625-7.515625h-48.09375c-4.148438 0-7.515625 3.363281-7.515625 7.515625 0 4.148437 3.367187 7.515625 7.515625 7.515625h16.53125v9.015625h-97.1875v-9.015625h16.53125c4.152344 0 7.515625-3.367188 7.515625-7.515625 0-4.152344-3.363281-7.515625-7.515625-7.515625h-48.09375c-4.148438 0-7.515625 3.363281-7.515625 7.515625 0 4.148437 3.367187 7.515625 7.515625 7.515625h16.53125v9.015625h-97.1875v-9.015625h16.53125c4.148438 0 7.515625-3.367188 7.515625-7.515625 0-4.152344-3.367187-7.515625-7.515625-7.515625h-48.09375c-4.152344 0-7.515625 3.363281-7.515625 7.515625 0 4.148437 3.363281 7.515625 7.515625 7.515625h16.53125v9.015625h-97.1875v-9.015625h16.53125c4.148438 0 7.515625-3.367188 7.515625-7.515625 0-4.152344-3.367187-7.515625-7.515625-7.515625h-48.09375c-4.152344 0-7.515625 3.363281-7.515625 7.515625 0 4.148437 3.363281 7.515625 7.515625 7.515625h16.53125v9.015625h-72.640625c-4.152344 0-7.515625 3.363281-7.515625 7.515625v32.0625c0 4.148438 3.363281 7.515625 7.515625 7.515625h72.640625v9.742187c-18.242188 3.519532-32.0625 19.597657-32.0625 38.851563v56.109375c0 4.148438 3.363281 7.515625 7.515625 7.515625h64.125c4.148437 0 7.515625-3.367187 7.515625-7.515625v-56.109375c0-19.253906-13.824219-35.332031-32.0625-38.851563v-9.742187h97.1875v9.742187c-18.238281 3.519532-32.0625 19.597657-32.0625 38.851563v56.109375c0 4.148438 3.363281 7.515625 7.515625 7.515625h64.125c4.148437 0 7.515625-3.367187 7.515625-7.515625v-56.109375c0-19.253906-13.824219-35.332031-32.0625-38.851563v-9.742187h97.1875v9.742187c-18.238281 3.519532-32.0625 19.597657-32.0625 38.851563v56.109375c0 4.148438 3.367188 7.515625 7.515625 7.515625h64.125c4.152344 0 7.515625-3.367187 7.515625-7.515625v-56.109375c0-19.253906-13.824219-35.332031-32.0625-38.851563v-9.742187h97.1875v9.742187c-18.238281 3.519532-32.0625 19.597657-32.0625 38.851563v56.109375c0 4.148438 3.367188 7.515625 7.515625 7.515625h64.125c4.152344 0 7.515625-3.367187 7.515625-7.515625v-56.109375c0-19.253906-13.820312-35.332031-32.0625-38.851563v-9.742187h72.640625c4.152344 0 7.515625-3.367187 7.515625-7.515625v-32.0625c0-4.152344-3.363281-7.515625-7.515625-7.515625zm-392.265625 95.6875v48.59375h-49.09375v-48.59375c0-13.535156 11.011719-24.546875 24.546875-24.546875s24.546875 11.011719 24.546875 24.546875zm112.21875 0v48.59375h-49.09375v-48.59375c0-13.535156 11.011719-24.546875 24.546875-24.546875s24.546875 11.011719 24.546875 24.546875zm112.21875 0v48.59375h-49.09375v-48.59375c0-13.535156 11.011719-24.546875 24.546875-24.546875s24.546875 11.011719 24.546875 24.546875zm112.21875 0v48.59375h-49.09375v-48.59375c0-13.535156 11.011719-24.546875 24.546875-24.546875s24.546875 11.011719 24.546875 24.546875zm48.09375-63.625h-481.9375v-17.03125h481.9375zm0 0"/><path d="m504.484375 464.90625h-88.671875v-118.789062c0-8.429688-3.28125-16.355469-9.246094-22.316407l-14.800781-14.804687v-53.496094h.5c4.152344 0 7.515625-3.367188 7.515625-7.515625s-3.363281-7.515625-7.515625-7.515625h-.5v-16.53125c0-4.148438-3.363281-7.515625-7.515625-7.515625h-32.0625c-4.148438 0-7.515625 3.367187-7.515625 7.515625v16.53125h-.5c-4.148437 0-7.515625 3.367188-7.515625 7.515625s3.367188 7.515625 7.515625 7.515625h.5v53.496094l-14.800781 14.804687c-5.960938 5.960938-9.246094 13.886719-9.246094 22.316407v118.789062h-17.03125v-118.789062c0-8.429688-3.285156-16.355469-9.246094-22.316407l-14.800781-14.804687v-53.496094h.5c4.148437 0 7.515625-3.367188 7.515625-7.515625s-3.367188-7.515625-7.515625-7.515625h-.5v-16.53125c0-4.148438-3.367187-7.515625-7.515625-7.515625h-32.0625c-4.148438 0-7.515625 3.367187-7.515625 7.515625v16.53125h-.5c-4.148437 0-7.515625 3.367188-7.515625 7.515625s3.367188 7.515625 7.515625 7.515625h.5v53.496094l-14.800781 14.804687c-5.960938 5.960938-9.246094 13.886719-9.246094 22.316407v118.789062h-17.03125v-118.789062c0-8.429688-3.285156-16.355469-9.246094-22.316407l-14.800781-14.804687v-53.496094h.5c4.148437 0 7.515625-3.367188 7.515625-7.515625s-3.367188-7.515625-7.515625-7.515625h-.5v-16.53125c0-4.148438-3.367187-7.515625-7.515625-7.515625h-32.0625c-4.152344 0-7.515625 3.367187-7.515625 7.515625v16.53125h-.5c-4.152344 0-7.515625 3.367188-7.515625 7.515625s3.363281 7.515625 7.515625 7.515625h.5v53.496094l-14.800781 14.804687c-5.964844 5.960938-9.246094 13.886719-9.246094 22.316407v118.789062h-88.671875c-4.152344 0-7.515625 3.367188-7.515625 7.515625v32.0625c0 4.152344 3.363281 7.515625 7.515625 7.515625h422.324219c4.148437 0 7.515625-3.363281 7.515625-7.515625 0-4.148437-3.367188-7.515625-7.515625-7.515625h-414.808594v-17.03125h481.9375v17.03125h-32.0625c-4.148438 0-7.511719 3.367188-7.511719 7.515625 0 4.152344 3.363281 7.515625 7.511719 7.515625h39.578125c4.152344 0 7.515625-3.363281 7.515625-7.515625v-32.0625c0-4.148437-3.363281-7.515625-7.515625-7.515625zm-168.828125-97.1875h65.125v65.125h-65.125zm24.046875-136.265625h17.03125v9.015625h-17.03125zm-19.207031 102.972656 17.007812-17.003906c1.40625-1.40625 2.199219-3.320313 2.199219-5.3125v-56.609375h17.035156v56.609375c0 1.992187.789063 3.90625 2.199219 5.3125l17.003906 17.003906c3.121094 3.125 4.84375 7.277344 4.84375 11.691407v6.570312h-65.128906v-6.570312c0-4.414063 1.71875-8.566407 4.839844-11.691407zm-117.058594 33.292969h65.125v65.125h-65.125zm24.046875-136.265625h17.03125v9.015625h-17.03125zm-19.207031 102.972656 17.003906-17.003906c1.410156-1.40625 2.203125-3.320313 2.203125-5.3125v-56.609375h17.035156v56.609375c0 1.992187.789063 3.90625 2.199219 5.3125l17.003906 17.003906c3.121094 3.125 4.84375 7.277344 4.84375 11.691407v6.570312h-65.128906v-6.570312c0-4.414063 1.71875-8.566407 4.839844-11.691407zm-117.058594 33.292969h65.125v65.125h-65.125zm24.046875-136.265625h17.03125v9.015625h-17.03125zm-19.207031 102.972656 17.003906-17.003906c1.410156-1.40625 2.203125-3.320313 2.203125-5.3125v-56.609375h17.03125v56.609375c0 1.992187.792969 3.90625 2.203125 5.3125l17.003906 17.003906c3.121094 3.125 4.84375 7.277344 4.84375 11.691407v6.570312h-65.128906v-6.570312c0-4.414063 1.71875-8.566407 4.839844-11.691407zm-4.839844 130.480469v-17.03125h65.125v17.03125zm112.21875 0v-17.03125h65.125v17.03125zm112.21875 0v-17.03125h65.125v17.03125zm0 0"/></svg>