<svg height="512pt" viewBox="0 0 512 512" width="512pt" xmlns="http://www.w3.org/2000/svg"><path d="m424.328125 7.515625c44.269531 0 80.15625 35.886719 80.15625 80.15625v416.8125h-160.3125v-416.8125c0-44.269531 35.886719-80.15625 80.15625-80.15625zm0 0" fill="#efedf0"/><path d="m472.421875 472.421875h-96.1875v-80.15625h96.1875zm0 0" fill="#f4b7d3"/><path d="m472.421875 360.203125h-96.1875v-80.15625h96.1875zm0 0" fill="#ee93bd"/><path d="m472.421875 247.984375h-96.1875v-80.15625h96.1875zm0 0" fill="#e96fa7"/><path d="m344.171875 315.195312 153.839844-153.839843c2.28125-2.28125 4.433593-4.652344 6.472656-7.097657v-66.585937c0-44.269531-35.886719-80.15625-80.15625-80.15625s-80.15625 35.886719-80.15625 80.15625zm0 0" fill="#d0cad3"/><path d="m472.421875 167.828125h-96.1875v80.15625h35.148437l61.039063-61.042969zm0 0" fill="#e34b91"/><path d="m481.007812 30.992188c31.304688 31.300781 31.304688 82.054687 0 113.359374l-294.730468 294.730469-113.359375-113.359375 294.730469-294.730468c31.304687-31.304688 82.058593-31.304688 113.359374 0zm0 0" fill="#efedf0"/><path d="m186.273438 393.742188-68.011719-68.015626 56.679687-56.675781 68.011719 68.011719zm0 0" fill="#e1c0e5"/><path d="m265.628906 314.390625-68.015625-68.015625 56.679688-56.675781 68.011719 68.011719zm0 0" fill="#d1a1d9"/><path d="m344.980469 235.039062-68.015625-68.011718 56.679687-56.679688 68.011719 68.015625zm0 0" fill="#c281cc"/><path d="m424.328125 191.875c3.238281 0 6.4375-.15625 9.601563-.445312l47.078124-47.078126c31.304688-31.304687 31.304688-82.058593 0-113.359374-31.300781-31.304688-82.054687-31.304688-113.359374 0l-160.882813 160.882812zm0 0" fill="#d0cad3"/><path d="m401.65625 178.359375-68.015625-68.015625-56.675781 56.679688 24.851562 24.851562h86.324219zm0 0" fill="#b362bf"/><path d="m504.484375 87.671875c0 44.269531-35.886719 80.15625-80.15625 80.15625h-416.8125v-160.3125h416.8125c44.269531 0 80.15625 35.886719 80.15625 80.15625zm0 0" fill="#efedf0"/><path d="m39.578125 135.765625v-96.1875h80.15625v96.1875zm0 0" fill="#cbc4e8"/><path d="m151.796875 135.765625v-96.1875h80.15625v96.1875zm0 0" fill="#b1a7dc"/><path d="m264.015625 135.765625v-96.1875h80.15625v96.1875zm0 0" fill="#9689d0"/><path d="m456.390625 87.671875c0 17.707031-14.355469 32.0625-32.0625 32.0625s-32.0625-14.355469-32.0625-32.0625 14.355469-32.0625 32.0625-32.0625 32.0625 14.355469 32.0625 32.0625zm0 0" fill="#827189"/><path d="m472.421875 384.75h-96.1875c-4.148437 0-7.515625 3.367188-7.515625 7.515625v80.15625c0 4.152344 3.367188 7.515625 7.515625 7.515625h96.1875c4.152344 0 7.515625-3.363281 7.515625-7.515625v-80.15625c0-4.148437-3.363281-7.515625-7.515625-7.515625zm-7.515625 80.15625h-81.15625v-65.125h81.15625zm0 0"/><path d="m472.421875 272.53125h-96.1875c-4.148437 0-7.515625 3.367188-7.515625 7.515625v80.15625c0 4.152344 3.367188 7.515625 7.515625 7.515625h96.1875c4.152344 0 7.515625-3.363281 7.515625-7.515625v-80.15625c0-4.148437-3.363281-7.515625-7.515625-7.515625zm-7.515625 80.15625h-81.15625v-65.125h81.15625zm0 0"/><path d="m180.253906 263.730469c-2.933594-2.933594-7.691406-2.933594-10.625 0l-56.679687 56.679687c-2.894531 2.890625-2.894531 7.734375 0 10.625l68.011719 68.015625c2.894531 2.894531 7.734374 2.894531 10.628906 0l56.679687-56.679687c2.933594-2.933594 2.933594-7.691406 0-10.625zm6.023438 119.382812-57.390625-57.390625 46.054687-46.050781 57.386719 57.386719zm0 0"/><path d="m259.605469 184.378906c-2.933594-2.933594-7.695313-2.933594-10.628907 0l-56.679687 56.679688c-2.933594 2.9375-2.933594 7.695312 0 10.628906l68.015625 68.015625c2.894531 2.894531 7.734375 2.894531 10.628906 0l56.679688-56.679687c2.933594-2.9375 2.933594-7.695313 0-10.628907zm6.019531 119.382813-57.386719-57.386719 46.050781-46.054688 57.390626 57.390626zm0 0"/><path d="m424.328125 0h-416.8125c-4.152344 0-7.515625 3.363281-7.515625 7.515625v160.3125c0 4.148437 3.363281 7.515625 7.515625 7.515625h56.109375c4.148438 0 7.515625-3.367188 7.515625-7.515625 0-4.152344-3.367187-7.515625-7.515625-7.515625h-48.59375v-145.28125h409.296875c40.054687 0 72.640625 32.585938 72.640625 72.640625s-32.585938 72.640625-72.640625 72.640625h-325.132813c-4.152343 0-7.515624 3.363281-7.515624 7.515625 0 4.148437 3.363281 7.515625 7.515624 7.515625h113.476563l-145.066406 145.066406c-2.894531 2.894532-2.894531 7.734375 0 10.628906l113.355469 113.355469c2.894531 2.894531 7.734374 2.894531 10.628906 0l145.066406-145.066406v205.15625c0 4.152344 3.367188 7.515625 7.515625 7.515625h160.3125c4.152344 0 7.515625-3.363281 7.515625-7.515625v-416.8125c0-48.34375-39.328125-87.671875-87.671875-87.671875zm36.191406 175.464844c.039063-.039063.074219-.082032.113281-.121094h4.273438v65.125h-69.390625zm-70.878906 1.503906 1.390625 1.390625-46.054688 46.050781-49.066406-49.066406h92.503906c.328126.578125.730469 1.128906 1.226563 1.625zm-203.363281 251.488281-102.734375-102.734375 150.382812-150.378906h41.15625c.335938.605469 64.582031 65.007812 64.582031 65.007812 2.894532 2.894532 7.734376 2.894532 10.628907 0l56.679687-56.679687c2.25-2.253906 2.769532-5.578125 1.5625-8.328125h15.792969c5.695313 0 11.257813-.554688 16.652344-1.59375zm310.691406 68.511719h-145.28125v-211.910156c0-.246094-.015625-.484375-.035156-.722656l28.933594-28.933594c.378906.054687.765624.097656 1.160156.097656h90.675781c4.152344 0 7.515625-3.367188 7.515625-7.515625v-80.15625c0-3.859375-2.910156-7.03125-6.652344-7.460937 9.324219-6.300782 17.378906-14.34375 23.683594-23.660157zm0 0"/><path d="m127.25 135.765625v-96.1875c0-4.152344-3.367188-7.515625-7.515625-7.515625h-80.15625c-4.152344 0-7.515625 3.363281-7.515625 7.515625v96.1875c0 4.148437 3.363281 7.515625 7.515625 7.515625h80.15625c4.148437 0 7.515625-3.367188 7.515625-7.515625zm-15.03125-7.515625h-65.125v-81.15625h65.125zm0 0"/><path d="m231.953125 143.28125c4.148437 0 7.515625-3.367188 7.515625-7.515625v-96.1875c0-4.152344-3.367188-7.515625-7.515625-7.515625h-80.15625c-4.152344 0-7.515625 3.363281-7.515625 7.515625v96.1875c0 4.148437 3.363281 7.515625 7.515625 7.515625zm-72.640625-96.1875h65.125v81.15625h-65.125zm0 0"/><path d="m344.171875 143.28125c4.152344 0 7.515625-3.367188 7.515625-7.515625v-96.1875c0-4.152344-3.363281-7.515625-7.515625-7.515625h-80.15625c-4.148437 0-7.515625 3.363281-7.515625 7.515625v96.1875c0 4.148437 3.367188 7.515625 7.515625 7.515625zm-72.640625-96.1875h65.125v81.15625h-65.125zm0 0"/><path d="m463.90625 87.671875c0-21.824219-17.753906-39.578125-39.578125-39.578125-21.820313 0-39.578125 17.753906-39.578125 39.578125 0 21.820313 17.757812 39.578125 39.578125 39.578125 21.824219 0 39.578125-17.757812 39.578125-39.578125zm-64.125 0c0-13.535156 11.011719-24.546875 24.546875-24.546875s24.546875 11.011719 24.546875 24.546875-11.011719 24.546875-24.546875 24.546875-24.546875-11.011719-24.546875-24.546875zm0 0"/></svg>