<svg height="512pt" viewBox="0 0 512 512.00047" width="512pt" xmlns="http://www.w3.org/2000/svg"><path d="m55.609375 215.921875h192.375v192.375h-192.375zm0 0" fill="#93d5df"/><path d="m87.671875 384.25v-168.328125h-32.0625v192.375h192.375v-24.046875zm0 0" fill="#4bbac9"/><path d="m247.984375 215.921875 104.203125-88.171875v192.375l-104.203125 88.171875zm0 0" fill="#b7e3ea"/><path d="m55.609375 215.921875h192.375l104.203125-88.171875h-192.375zm0 0" fill="#dbf1f4"/><path d="m432.34375 312.613281h-72.640625v-101.199219c0-4.148437-3.363281-7.515624-7.515625-7.515624s-7.515625 3.367187-7.515625 7.515624v105.226563l-89.171875 75.453125v-172.683594l89.171875-75.457031v32.894531c0 4.148438 3.363281 7.511719 7.515625 7.511719s7.515625-3.363281 7.515625-7.511719v-49.097656c0-4.074219-3.445313-7.515625-7.515625-7.515625h-184.859375v-80.65625c0-4.148437-3.367187-7.515625-7.515625-7.515625-4.152344 0-7.515625 3.367188-7.515625 7.515625v84.6875l-101.542969 85.921875c-1.664062 1.410156-2.660156 3.550781-2.660156 5.734375v189.265625l-45.890625 45.890625c-2.9375 2.933594-2.9375 7.695313 0 10.628906 1.464844 1.464844 3.390625 2.199219 5.3125 2.199219s3.84375-.734375 5.3125-2.199219l45.890625-45.894531h189.265625c1.757813 0 3.507813-.648438 4.855469-1.777344l102.101562-86.394531h77.402344c4.152344 0 7.515625-3.363281 7.515625-7.515625 0-4.148438-3.363281-7.511719-7.515625-7.511719zm-191.875 88.171875h-177.34375v-177.347656h177.34375zm-77.90625-265.519531h169.109375l-86.441406 73.140625h-169.105469zm0 0"/><path d="m185.363281 34.285156v21.324219c0 4.152344 3.363281 7.515625 7.511719 7.515625 4.152344 0 7.515625-3.363281 7.515625-7.515625v-21.027344l20.957031-21.867187c2.871094-2.996094 2.769532-7.75-.226562-10.625-2.996094-2.871094-7.753906-2.769532-10.625.226562l-17.230469 17.980469-14.65625-17.59375c-2.65625-3.1875-7.394531-3.617187-10.582031-.960937s-3.621094 7.394531-.960938 10.585937zm0 0"/><path d="m79.65625 448.878906h-32.0625c-4.152344 0-7.515625 3.363282-7.515625 7.511719 0 4.152344 3.363281 7.515625 7.515625 7.515625h17.777344l-24.972656 36.320312c-3.363282 4.898438.265624 11.773438 6.191406 11.773438h30.058594c4.152343 0 7.515624-3.363281 7.515624-7.515625 0-4.148437-3.363281-7.511719-7.515624-7.511719h-15.773438l24.972656-36.324218c3.367188-4.894532-.261718-11.769532-6.191406-11.769532zm0 0"/><path d="m494.226562 320.125 16.03125-19.234375c2.65625-3.1875 2.226563-7.925781-.960937-10.585937-3.1875-2.65625-7.925781-2.226563-10.585937.964843l-14.265626 17.117188-14.265624-17.117188c-2.65625-3.191406-7.394532-3.621093-10.582032-.964843-3.191406 2.660156-3.621094 7.398437-.964844 10.585937l16.03125 19.234375-16.03125 19.238281c-2.410156 2.894531-2.269531 7.273438.335938 9.996094 3.058594 3.199219 8.378906 3.023437 11.210938-.375l14.265624-17.121094 14.265626 17.121094c2.832031 3.402344 8.152343 3.574219 11.210937.375 2.605469-2.722656 2.746094-7.101563.335937-9.996094zm0 0"/></svg>