<svg height="512pt" viewBox="-56 0 512 512" width="512pt" xmlns="http://www.w3.org/2000/svg"><path d="m7.515625 7.515625h48.09375v208.40625h-48.09375zm0 0" fill="#eeab92"/><path d="m23.546875 199.890625v-192.375h-16.03125v208.40625h48.09375v-16.03125zm0 0" fill="#e37349"/><path d="m247.984375 7.515625h48.09375v152.296875h-48.09375zm0 0" fill="#eeab92"/><path d="m264.015625 143.78125v-136.265625h-16.03125v152.296875h48.09375v-16.03125zm0 0" fill="#e37349"/><path d="m296.078125 199.890625h48.09375v232.453125h-48.09375zm0 0" fill="#eeab92"/><path d="m312.109375 416.3125v-216.421875h-16.03125v232.453125h48.09375v-16.03125zm0 0" fill="#e37349"/><path d="m199.890625 7.515625h48.09375v256.5h-48.09375zm0 0" fill="#ffd982"/><path d="m215.921875 247.984375v-240.46875h-16.03125v256.5h48.09375v-16.03125zm0 0" fill="#ffc02e"/><path d="m296.078125 7.515625h48.09375v192.375h-48.09375zm0 0" fill="#ffd982"/><path d="m312.109375 183.859375v-176.34375h-16.03125v192.375h48.09375v-16.03125zm0 0" fill="#ffc02e"/><path d="m103.703125 7.515625h48.09375v296.578125h-48.09375zm0 0" fill="#eeab92"/><path d="m119.734375 288.0625v-280.546875h-16.03125v296.578125h48.09375v-16.03125zm0 0" fill="#e37349"/><path d="m55.609375 159.8125h48.09375v208.40625h-48.09375zm0 0" fill="#a195a7"/><path d="m71.640625 352.1875v-192.375h-16.03125v208.40625h48.09375v-16.03125zm0 0" fill="#827189"/><path d="m392.265625 272.03125h-48.09375v-264.515625h48.09375" fill="#a195a7"/><path d="m360.203125 256v-248.484375h-16.03125v264.515625h48.09375v-16.03125zm0 0" fill="#827189"/><path d="m151.796875 7.515625h48.09375v208.40625h-48.09375zm0 0" fill="#a195a7"/><path d="m167.828125 199.890625v-192.375h-16.03125v208.40625h48.09375v-16.03125zm0 0" fill="#827189"/><path d="m247.984375 159.8125h48.09375v208.40625h-48.09375zm0 0" fill="#a195a7"/><path d="m264.015625 352.1875v-192.375h-16.03125v208.40625h48.09375v-16.03125zm0 0" fill="#827189"/><path d="m55.609375 7.515625h48.09375v152.296875h-48.09375zm0 0" fill="#ffd982"/><path d="m71.640625 143.78125v-136.265625h-16.03125v152.296875h48.09375v-16.03125zm0 0" fill="#ffc02e"/><path d="m103.703125 304.09375h48.09375v152.296875h-48.09375zm0 0" fill="#ffd982"/><path d="m119.734375 440.359375v-136.265625h-16.03125v152.296875h48.09375v-16.03125zm0 0" fill="#ffc02e"/><path d="m7.515625 215.921875h48.09375v288.5625h-48.09375zm0 0" fill="#ffd982"/><path d="m23.546875 488.453125v-272.53125h-16.03125v288.5625h48.09375v-16.03125zm0 0" fill="#ffc02e"/><path d="m392.265625 183.359375c4.152344 0 7.515625-3.367187 7.515625-7.515625v-168.328125c0-4.152344-3.363281-7.515625-7.515625-7.515625h-384.75c-4.152344 0-7.515625 3.363281-7.515625 7.515625v496.96875c0 4.152344 3.363281 7.515625 7.515625 7.515625h48.09375c4.148437 0 7.515625-3.363281 7.515625-7.515625v-128.75h33.0625v80.65625c0 4.152344 3.363281 7.515625 7.515625 7.515625h48.09375c4.152344 0 7.515625-3.363281 7.515625-7.515625v-232.953125h33.0625v40.578125c0 4.148437 3.363281 7.515625 7.515625 7.515625h40.578125v96.6875c0 4.152344 3.363281 7.515625 7.515625 7.515625h40.578125v56.609375c0 4.152344 3.363281 7.515625 7.515625 7.515625h48.09375c4.152344 0 7.515625-3.363281 7.515625-7.515625v-152.796875h40.578125c4.152344 0 7.515625-3.367187 7.515625-7.515625v-64.125c0-4.148438-3.363281-7.515625-7.515625-7.515625s-7.515625 3.367187-7.515625 7.515625v56.609375h-33.0625v-249.484375h33.0625v160.8125c0 4.148438 3.363281 7.515625 7.515625 7.515625zm-55.609375 9.015625h-33.0625v-177.34375h33.0625zm-48.09375-40.078125h-33.0625v-137.265625h33.0625zm-144.28125 63.625v80.65625h-33.0625v-281.546875h33.0625zm-48.09375-63.625h-33.0625v-137.265625h33.0625zm-81.15625-137.265625h33.0625v193.375h-33.0625zm33.0625 481.9375h-33.0625v-273.53125h33.0625zm15.03125-136.265625v-193.375h33.0625v193.375zm81.15625 88.171875h-33.0625v-137.265625h33.0625zm15.03125-240.46875v-193.375h33.0625v193.375zm48.09375 48.09375v-241.46875h33.0625v241.46875zm48.09375 104.203125v-193.375h33.0625v193.375zm81.15625 64.125h-33.0625v-217.421875h33.0625zm0 0"/></svg>