<svg height="512pt" viewBox="-6 0 512 512.00301" width="512pt" xmlns="http://www.w3.org/2000/svg"><path d="m202.390625 376.234375c0-66.402344 48.09375-240.46875 48.09375-240.46875s48.09375 174.066406 48.09375 240.46875-96.1875 66.402344-96.1875 0zm0 0" fill="#d2df7c"/><path d="m386.75 384.25s16.03125-56.109375 48.09375-64.125 40.078125 22.949219 56.109375 72.140625c0 0 13.933594-109.261719-24.046875-128.25-16.03125-8.015625-40.078125-8.015625-64.125 8.015625s-48.09375 56.109375-64.125 112.21875zm0 0" fill="#e8e570"/><path d="m434.84375 293.328125c-32.0625 8.015625-48.09375 64.125-48.09375 64.125h-39.398438c-3.097656 8.460937-6.011718 17.398437-8.695312 26.796875h48.09375s16.03125-56.109375 48.09375-64.125 40.078125 22.949219 56.109375 72.140625c0 0 4.542969-35.660156 1.359375-69.777344-16.335938-22.273437-36.902344-34.300781-57.46875-29.160156zm0 0" fill="#d9d411"/><path d="m330.640625 432.34375s16.03125-96.1875 48.09375-104.203125 40.078125 22.949219 56.109375 72.140625c0 0 13.933594-109.261719-24.046875-128.25-16.03125-8.015625-40.078125-8.015625-64.125 8.015625s-48.09375 96.1875-64.125 152.296875zm0 0" fill="#d2df7c"/><path d="m378.734375 301.34375c-32.0625 8.015625-72.140625 98.9375-72.140625 98.9375l-15.707031 3.4375c-2.964844 9.921875-5.757813 19.585938-8.339844 28.625h48.09375s16.03125-96.1875 48.09375-104.203125 40.078125 22.949219 56.109375 72.140625c0 0 3.988281-31.316406 1.875-63.332031-16.417969-25.089844-37.199219-40.800781-57.984375-35.605469zm0 0" fill="#b3c924"/><path d="m314.609375 376.925781s17.621094-87.128906 34.558594-116.699219c29.566406-51.628906 85.675781-75.675781 117.738281-19.566406 0 0-21.550781-55.679687-64.125-64.125-19.378906-3.84375-56.109375 8.015625-85.675781 43.613282-21.308594 25.648437-50.589844 75.933593-66.621094 156.777343zm0 0" fill="#e8e570"/><path d="m419.453125 182.59375c-41.476563 7.335938-79.566406 43.261719-96.828125 73.40625-16.9375 29.574219-32.0625 104.894531-32.0625 104.894531h-36.632812c-1.203126 5.207031-2.355469 10.542969-3.445313 16.03125h64.125s17.621094-87.128906 34.558594-116.699219c29.566406-51.628906 85.675781-75.675781 117.738281-19.566406 0 0-15.929688-41.15625-47.453125-58.066406zm0 0" fill="#d9d411"/><path d="m186.359375 376.925781s-17.621094-87.128906-34.558594-116.699219c-29.566406-51.628906-85.675781-75.675781-117.738281-19.566406 0 0 21.550781-55.679687 64.125-64.125 19.378906-3.84375 56.109375 8.015625 85.675781 43.613282 21.304688 25.648437 50.589844 75.933593 66.621094 156.777343zm0 0" fill="#e8e570"/><path d="m114.21875 384.25s-16.03125-56.109375-48.09375-64.125-40.078125 22.949219-56.109375 72.140625c0 0-13.933594-109.261719 24.046875-128.25 16.03125-8.015625 40.078125-8.015625 64.125 8.015625s48.09375 56.109375 64.125 112.21875zm0 0" fill="#e8e570"/><path d="m170.328125 432.34375s-16.03125-96.1875-48.09375-104.203125-40.078125 22.949219-56.109375 72.140625c0 0-13.933594-109.261719 24.046875-128.25 16.03125-8.015625 40.078125-8.015625 64.125 8.015625s48.09375 96.1875 64.125 152.296875zm0 0" fill="#d2df7c"/><path d="m66.125 293.328125c32.0625 8.015625 48.09375 64.125 48.09375 64.125h39.394531c3.097657 8.460937 6.011719 17.398437 8.699219 26.796875h-48.09375s-16.03125-56.109375-48.09375-64.125-40.078125 22.949219-56.109375 72.140625c0 0-4.542969-35.660156-1.359375-69.777344 16.332031-22.273437 36.902344-34.300781 57.46875-29.160156zm0 0" fill="#d9d411"/><path d="m122.234375 301.34375c32.0625 8.015625 72.140625 98.9375 72.140625 98.9375l15.707031 3.4375c2.964844 9.921875 5.757813 19.585938 8.339844 28.625h-48.09375s-16.03125-96.1875-48.09375-104.203125-40.078125 22.949219-56.109375 72.140625c0 0-3.992188-31.316406-1.875-63.332031 16.417969-25.089844 37.199219-40.800781 57.984375-35.605469zm0 0" fill="#b3c924"/><path d="m81.515625 182.59375c41.472656 7.335938 79.566406 43.261719 96.828125 73.40625 16.933594 29.574219 32.0625 104.894531 32.0625 104.894531h36.632812c1.203126 5.207031 2.355469 10.542969 3.445313 16.03125h-64.125s-17.621094-87.128906-34.558594-116.699219c-29.566406-51.628906-85.675781-75.675781-117.738281-19.566406 0 0 15.929688-41.15625 47.453125-58.066406zm0 0" fill="#d9d411"/><path d="m250.484375 504.484375c88.539063 0 160.3125-71.773437 160.3125-160.3125h-320.625c0 88.539063 71.773437 160.3125 160.3125 160.3125zm0 0" fill="#eeab92"/><path d="m290.5625 488.453125c-83.128906 0-151.472656-63.269531-159.519531-144.28125h-40.871094c0 88.539063 71.773437 160.3125 160.3125 160.3125 28.734375 0 55.695313-7.566406 79.015625-20.800781-12.464844 3.109375-25.507812 4.769531-38.9375 4.769531zm0 0" fill="#e98f6d"/><path d="m500.679688 334.941406c-1.800782-42.332031-12.035157-68.457031-30.414063-77.648437-18.886719-9.441407-43.140625-7.757813-65.066406 4.464843-15.863281-4.804687-33.972657-2.855468-51.269531 5.496094.59375-1.179687 1.179687-2.285156 1.757812-3.292968 16.703125-29.167969 41.824219-48.007813 64.003906-48.007813h.019532c15.980468.003906 30.042968 9.839844 40.671874 28.433594 1.949219 3.414062 6.199219 4.75 9.753907 3.058593 3.550781-1.691406 5.199219-5.832031 3.777343-9.496093-.941406-2.433594-23.574218-59.640625-69.671874-68.785157-23.265626-4.617187-62.667969 9.761719-92.917969 46.179688-6.304688 7.59375-15.054688 19.457031-24.46875 36.167969-12.550781-56.878907-27.117188-110.40625-28.9375-117.050781.046875-.339844.082031-.683594.082031-1.035157v-93.847656c0-13.535156 11.011719-24.546875 24.546875-24.546875s24.546875 11.011719 24.546875 24.546875v24.046875c0 4.148438 3.363281 7.515625 7.515625 7.515625s7.515625-3.367187 7.515625-7.515625v-24.046875c0-21.824219-17.753906-39.578125-39.578125-39.578125s-39.578125 17.753906-39.578125 39.578125v93.847656c0 .355469.035156.699219.078125 1.035157-1.820313 6.652343-16.382813 60.171874-28.9375 117.050781-9.410156-16.710938-18.160156-28.574219-24.464844-36.164063-30.25-36.421875-69.640625-50.800781-92.921875-46.183594-46.097656 9.144532-68.730468 66.355469-69.671875 68.785157-1.417969 3.667969.230469 7.808593 3.78125 9.496093 3.550781 1.691407 7.800781.359376 9.753907-3.054687 10.625-18.597656 24.6875-28.429687 40.671874-28.4375h.019532c22.175781 0 47.296875 18.84375 64.003906 48.007813.574219 1.007812 1.160156 2.113281 1.753906 3.292968-17.300781-8.351562-35.410156-10.300781-51.28125-5.488281-.097656-.0625-.191406-.128906-.292968-.183594-21.800782-12.058593-46.011719-13.660156-64.761719-4.285156-18.375 9.1875-28.609375 35.3125-30.410157 77.648437-1.277343 29.980469 2.125 57.132813 2.269532 58.273438.589844 4.601562 5.375 7.644531 9.792968 6.191406 2.070313-.679687 3.777344-2.257812 4.609376-4.273437 1.121093-2.71875 1.859374-5.652344 2.761718-8.449219 13.335938-41.210938 20.441406-60.738281 37.902344-60.265625-.566406 5.207031-.980469 10.714844-1.226562 16.539063-1.277344 29.980468 2.125 57.132812 2.269531 58.273437.433593 3.398437 3.207031 6.125 6.609375 6.515625 3.5.402344 6.898437-1.785156 7.992187-5.136719.875-2.691406 1.730469-5.328125 2.5625-7.910156 3.191407-9.855469 6.019531-18.335937 8.679688-25.589844 3.457031 23.113281 11.648437 44.695313 23.546875 63.734375h-17.886719c-4.152344 0-7.515625 3.367188-7.515625 7.515625 0 4.148438 3.363281 7.515625 7.515625 7.515625h28.445313c30.757812 39.023438 78.433593 64.125 131.867187 64.125 53.429687 0 101.105469-25.101562 131.863281-64.125h28.449219c4.152344 0 7.515625-3.367187 7.515625-7.515625 0-4.148437-3.363281-7.515625-7.515625-7.515625h-17.886719c11.898438-19.039062 20.089844-40.621094 23.546875-63.734375 2.660157 7.253907 5.488281 15.734375 8.679688 25.589844.902343 2.796875 1.640625 5.734375 2.761719 8.449219.832031 2.015625 2.539062 3.597656 4.609374 4.273437 4.417969 1.445313 9.203126-1.578125 9.789063-6.191406.148437-1.140625 3.550781-28.292969 2.273437-58.273437-.246093-5.824219-.660156-11.328126-1.226562-16.53125 16.621094-.527344 23.804688 16.6875 37.902344 60.257812.902344 2.796875 1.644531 5.730469 2.761718 8.449219.832032 2.015625 2.539063 3.597656 4.613282 4.273437 4.417968 1.441406 9.199218-1.578125 9.789062-6.191406.144532-1.144531 3.546875-28.296875 2.269532-58.277344zm-250.195313-169.957031c6.734375 25.894531 16.96875 66.789063 25.4375 107.117187.027344.144532.070313.28125.109375.421876-8.269531 17.523437-16.523438 38.773437-23.65625 64.136718h-3.78125c-7.128906-25.347656-15.378906-46.589844-23.640625-64.105468 8.484375-40.46875 18.769531-81.574219 25.53125-107.570313zm-169.207031 35.9375c-.007813 0-.019532 0-.027344 0-4.195312.003906-8.882812.484375-13.835938 1.816406 8.683594-8.828125 19.460938-16.296875 32.234376-18.832031 14.714843-2.917969 49.03125 5.640625 78.433593 41.042969 13.03125 15.6875 37.136719 50.746093 54.886719 111.707031h-48.035156c-9.640625-39.1875-18.589844-66.160156-26.609375-80.164062-19.632813-34.28125-49.152344-55.570313-77.046875-55.570313zm-55.175782 129.175781c-4.097656 6.417969-7.597656 14.261719-11.03125 23.449219-.082031-5.734375-.03125-11.804687.230469-17.964844 1.511719-35.441406 9.367188-58.46875 22.121094-64.84375 11.882813-5.941406 26.972656-5.90625 41.746094-.207031-9.160157 8.152344-15.621094 21.851562-19.332031 40.964844-13.984376-1.097656-25.054688 5-33.734376 18.601562zm45.078126 31.472656c-.082032-5.738281-.027344-11.8125.234374-17.972656 1.507813-35.441406 9.363282-58.46875 22.117188-64.84375 12.507812-6.253906 33.945312-7.554687 56.597656 7.546875 1.484375.992188 3.078125 2.414063 4.734375 4.226563.578125.632812 1.238281 1.136718 1.949219 1.523437 4.019531 12.140625 8.265625 27.113281 12.636719 44.605469h-24.566407c-.097656-.148438-.191406-.296875-.300781-.441406-6.296875-8.367188-13.203125-13.535156-20.527343-15.363282-17.3125-4.332031-30.648438.78125-40.765626 15.625-4.558593 6.691407-8.378906 15.109376-12.109374 25.09375zm52.289062-24.914062h-19.414062c4.539062-2.574219 9.765624-2.871094 16.355468-1.226562 1.007813.253906 2.027344.667968 3.058594 1.226562zm127.015625 160.3125c-44.261719 0-84.179687-18.921875-112.109375-49.09375h224.21875c-27.929688 30.171875-67.847656 49.09375-112.109375 49.09375zm124.367187-64.125h-248.734374c-16.523438-23.109375-26.78125-51-28.25-81.15625h173.65625c4.152343 0 7.515624-3.363281 7.515624-7.515625 0-4.148437-3.363281-7.515625-7.515624-7.515625h-3.523438c17.75-60.960938 41.855469-96.019531 54.886719-111.707031 29.402343-35.402344 63.714843-43.960938 78.433593-41.042969 12.730469 2.527344 23.484376 9.988281 32.171876 18.816406-4.929688-1.320312-9.597657-1.796875-13.773438-1.800781-.011719 0-.019531 0-.027344 0-27.894531 0-57.414062 21.292969-77.046875 55.570313-8.019531 14-16.96875 40.972656-26.609375 80.164062h-8.441406c-4.148438 0-7.511719 3.367188-7.511719 7.515625 0 4.152344 3.363281 7.515625 7.511719 7.515625h95.507812c-1.46875 30.15625-11.722656 58.046875-28.25 81.15625zm2.648438-96.1875c1.03125-.558594 2.050781-.972656 3.058594-1.226562 6.589844-1.644532 11.816406-1.347657 16.355468 1.226562zm52.285156 24.910156c-3.730468-9.984375-7.546875-18.398437-12.105468-25.089844-10.117188-14.84375-23.449219-19.957031-40.769532-15.625-7.320312 1.828126-14.226562 6.996094-20.523437 15.363282-.109375.144531-.203125.292968-.300781.441406h-24.566407c4.46875-17.878906 8.804688-33.128906 12.902344-45.414062.964844-.371094 1.871094-.945313 2.648437-1.734376 1.308594-1.332031 2.574219-2.410156 3.769532-3.207031 22.652344-15.101562 44.089844-13.800781 56.597656-7.546875 12.730469 6.363282 20.582031 29.328125 22.109375 64.664063.269531 6.21875.324219 12.351562.238281 18.148437zm56.109375-8.019531c-3.527343-9.441406-7.128906-17.46875-11.371093-23.980469-8.613282-13.222656-19.578126-19.15625-33.394532-18.074218-3.710937-19.121094-10.175781-32.820313-19.34375-40.976563 14.785156-5.710937 29.839844-5.742187 41.761719.21875 12.730469 6.367187 20.582031 29.332031 22.109375 64.664063.269531 6.222656.324219 12.351562.238281 18.148437zm0 0"/></svg>