<svg height="512pt" viewBox="0 -48 512 512" width="512pt" xmlns="http://www.w3.org/2000/svg"><path d="m504.484375 408.296875h-384.75v-80.15625h120.234375v-72.140625h128.25v-72.140625h136.265625zm0 0" fill="#efedf0"/><path d="m151.796875 384.25v-56.109375h-32.0625v80.15625h384.75v-24.046875zm0 0" fill="#d0cad3"/><g fill="#ffe6ab"><path d="m95.6875 191.875h24.046875v216.421875h-24.046875zm0 0"/><path d="m215.921875 111.71875h24.046875v216.421875h-24.046875zm0 0"/><path d="m344.171875 39.578125h24.046875v216.421875h-24.046875zm0 0"/></g><path d="m360.203125 7.515625-272.53125 184.359375h-80.15625v32.0625h88.171875l272.53125-184.359375h136.265625v-32.0625zm0 0" fill="#ffc02e"/><path d="m504.484375 47.09375c4.152344 0 7.515625-3.367188 7.515625-7.515625v-32.0625c0-4.152344-3.363281-7.515625-7.515625-7.515625h-144.28125c-1.5 0-2.96875.449219-4.210937 1.289062l-270.625 183.070313h-77.851563c-4.152344 0-7.515625 3.367187-7.515625 7.515625v32.0625c0 4.148438 3.363281 7.515625 7.515625 7.515625h80.65625v176.84375c0 4.152344 3.363281 7.515625 7.515625 7.515625h302.257812c4.148438 0 7.511719-3.363281 7.511719-7.515625 0-4.148437-3.363281-7.515625-7.511719-7.515625h-270.695312v-65.125h112.71875c4.152344 0 7.515625-3.367188 7.515625-7.515625v-64.625h120.734375c4.152344 0 7.515625-3.367187 7.515625-7.515625v-64.625h121.234375v209.40625h-63.621094c-4.152344 0-7.515625 3.367188-7.515625 7.515625 0 4.152344 3.363281 7.515625 7.515625 7.515625h71.136719c4.152344 0 7.515625-3.363281 7.515625-7.515625v-224.4375c0-4.148437-3.363281-7.515625-7.515625-7.515625h-128.75v-129.25zm-489.453125 152.296875h72.640625c1.5 0 2.96875-.449219 4.210937-1.292969l270.625-183.066406h134.460938v17.03125h-128.75c-.34375 0-.675781.03125-1.007812.074219-.074219.011719-.148438.023437-.222657.035156-.675781.113281-1.320312.3125-1.921875.589844-.058594.027343-.117187.054687-.171875.085937-.308593.152344-.609375.316406-.890625.507813l-270.621094 183.066406h-78.351562zm88.171875 28.535156 9.015625-6.097656v178.953125h-9.015625zm24.046875-16.265625 81.15625-54.902344v163.867188h-81.15625zm105.203125 108.964844h-9.015625v-174.035156l9.015625-6.097656zm15.03125-190.300781 89.171875-60.324219v178.484375h-89.171875zm113.21875 118.160156h-9.015625v-188.652344l9.015625-6.097656zm0 0"/></svg>