<svg height="512pt" viewBox="-32 0 512 512" width="512pt" xmlns="http://www.w3.org/2000/svg"><path d="m416.3125 480.4375h24.046875v24.046875h-24.046875zm0 0" fill="#827189"/><path d="m7.515625 480.4375h24.046875v24.046875h-24.046875zm0 0" fill="#827189"/><path d="m7.515625 7.515625h432.84375v472.921875h-432.84375zm0 0" fill="#d0cad3"/><path d="m223.9375 31.5625h192.375v424.828125h-192.375zm0 0" fill="#827189"/><path d="m223.9375 376.234375h192.375v80.15625h-192.375zm0 0" fill="#9689d0"/><path d="m247.984375 440.359375v-64.125h-24.046875v80.15625h192.375v-16.03125zm0 0" fill="#7c6cc4"/><path d="m223.9375 296.078125h192.375v80.15625h-192.375zm0 0" fill="#9689d0"/><path d="m247.984375 360.203125v-64.125h-24.046875v80.15625h192.375v-16.03125zm0 0" fill="#7c6cc4"/><path d="m336.15625 71.640625c0 13.28125-10.765625 24.046875-24.046875 24.046875s-24.046875-10.765625-24.046875-24.046875h-40.078125v168.328125h128.25v-168.328125zm0 0" fill="#efedf0"/><path d="m376.234375 71.640625 40.078125 64.125-40.078125 16.03125zm0 0" fill="#efedf0"/><path d="m247.984375 71.640625-40.078125 64.125 40.078125 16.03125zm0 0" fill="#e96fa7"/><path d="m288.0625 71.640625c0 13.28125-10.765625 24.046875-24.046875 24.046875s-24.046875-10.765625-24.046875-24.046875h-40.078125v168.328125h128.25v-168.328125zm0 0" fill="#f4b7d3"/><path d="m328.140625 71.640625 40.078125 64.125-40.078125 16.03125zm0 0" fill="#e96fa7"/><path d="m199.890625 71.640625-40.078125 64.125 40.078125 16.03125zm0 0" fill="#e96fa7"/><path d="m239.96875 71.640625h-40.078125v168.328125h48.09375v-150.410156c-4.917969-4.402344-8.015625-10.796875-8.015625-17.917969zm0 0" fill="#ee93bd"/><path d="m7.515625 7.515625h216.421875v472.921875h-216.421875zm0 0" fill="#e0dce2"/><path d="m31.5625 31.5625h144.28125v424.828125h-144.28125zm0 0" fill="#93d5df"/><path d="m63.625 432.34375v-400.78125h-32.0625v424.828125h144.28125v-24.046875zm0 0" fill="#4bbac9"/><path d="m440.359375 0h-432.84375c-4.152344 0-7.515625 3.363281-7.515625 7.515625v496.96875c0 4.152344 3.363281 7.515625 7.515625 7.515625h24.046875c4.148438 0 7.515625-3.363281 7.515625-7.515625v-16.53125h369.71875v16.53125c0 4.152344 3.367187 7.515625 7.515625 7.515625h24.046875c4.152344 0 7.515625-3.363281 7.515625-7.515625v-496.96875c0-4.152344-3.363281-7.515625-7.515625-7.515625zm-7.515625 472.921875h-201.390625v-9.015625h184.859375c4.152344 0 7.515625-3.363281 7.515625-7.515625v-196.382813c0-4.152343-3.363281-7.515624-7.515625-7.515624-4.148438 0-7.515625 3.363281-7.515625 7.515624v28.554688h-177.34375v-41.078125h144.78125c4.152344 0 7.515625-3.363281 7.515625-7.515625v-83.085938l25.046875-10.019531v77.074219c0 4.152344 3.367187 7.515625 7.515625 7.515625 4.152344 0 7.515625-3.363281 7.515625-7.515625v-192.375c0-4.152344-3.363281-7.515625-7.515625-7.515625h-184.859375v-9.015625h201.390625zm-128.25-433.84375v25.046875h-33.0625v-25.046875zm104.203125 0v70.484375l-26.191406-41.90625c-1.355469-2.167969-3.8125-3.53125-6.371094-3.53125h-56.609375v-25.046875zm-25.046875 58.765625 21.425781 34.28125-21.425781 8.570312zm-152.296875 134.609375v-153.296875h1.90625c3.378906 13.785156 15.839844 24.046875 30.65625 24.046875s27.277344-10.261719 30.65625-24.046875h25.953125v153.296875zm0 151.296875h177.34375v65.125h-177.34375zm177.34375-15.03125h-177.34375v-65.125h177.34375zm-144.78125-289.5625h14.707031c-2.742187 5.34375-8.296875 9.015625-14.707031 9.015625s-11.964844-3.671875-14.707031-9.015625zm104.703125 43.234375-27.019531-43.234375h27.019531zm-33.0625-24.546875 21.425781 34.28125-21.425781 8.570312zm0 59.039062 33.0625-13.222656v88.792969h-33.0625zm-79.15625-92.757812h-25.046875v-25.046875h25.046875zm-232.453125 432.84375h-9.015625v-9.015625h9.015625zm-9.015625-24.046875v-457.890625h201.390625v457.890625zm417.8125 24.046875h-9.015625v-9.015625h9.015625zm0 0"/><path d="m336.15625 408.796875h-32.0625c-4.148438 0-7.515625 3.363281-7.515625 7.515625s3.367187 7.515625 7.515625 7.515625h32.0625c4.152344 0 7.515625-3.363281 7.515625-7.515625s-3.363281-7.515625-7.515625-7.515625zm0 0"/><path d="m304.09375 335.65625h32.0625c4.152344 0 7.515625-3.363281 7.515625-7.515625s-3.363281-7.515625-7.515625-7.515625h-32.0625c-4.148438 0-7.515625 3.363281-7.515625 7.515625s3.367187 7.515625 7.515625 7.515625zm0 0"/><path d="m175.84375 24.046875h-144.28125c-4.152344 0-7.515625 3.363281-7.515625 7.515625v424.828125c0 4.152344 3.363281 7.515625 7.515625 7.515625h144.28125c4.148438 0 7.515625-3.363281 7.515625-7.515625v-424.828125c0-4.152344-3.367187-7.515625-7.515625-7.515625zm-7.515625 424.828125h-129.25v-409.796875h129.25zm0 0"/><path d="m199.890625 216.421875c-4.148437 0-7.515625 3.363281-7.515625 7.515625v48.09375c0 4.152344 3.367188 7.515625 7.515625 7.515625s7.515625-3.363281 7.515625-7.515625v-48.09375c0-4.152344-3.367188-7.515625-7.515625-7.515625zm0 0"/></svg>