<svg height="512pt" viewBox="-136 0 512 512.001" width="512pt" xmlns="http://www.w3.org/2000/svg"><path d="m185.371094 270.542969c-34.433594-34.433594-69.960938-54.734375-79.351563-45.34375s10.910157 44.917969 45.34375 79.351562c34.433594 34.433594 69.957031 54.734375 79.347657 45.34375 9.390624-9.390625-10.90625-44.917969-45.339844-79.351562zm0 0" fill="#827189"/><path d="m185.371094 270.542969c-34.433594-34.433594-69.960938-54.734375-79.351563-45.34375s10.910157 44.917969 45.34375 79.351562c34.433594 34.433594 69.957031 54.734375 79.347657 45.34375 9.390624-9.390625-10.90625-44.917969-45.339844-79.351562zm0 0" fill="#c2d450"/><path d="m167.398438 296.535156c-28.628907-28.625-47.46875-57.996094-47.617188-72.488281-6.285156-1.78125-11.085938-1.519531-13.757812 1.152344-9.390626 9.390625 10.910156 44.917969 45.34375 79.351562 34.433593 34.433594 69.957031 54.734375 79.347656 45.34375 1.585937-1.585937 2.304687-3.925781 2.273437-6.863281-15.78125-4.476562-40.964843-21.867188-65.589843-46.496094zm0 0" fill="#b3c924"/><path d="m208.046875 247.871094c5.667969-17.003906-22.671875-34.007813-45.34375-11.335938-11.335937 11.335938-15.585937 15.585938-17.003906 17.003906 3.324219 8.074219 9.949219 21.289063 22.667969 34.007813 6.175781 6.175781 17.375 15.824219 34.007812 22.671875 3.859375-1.925781 9.21875-9.214844 17.003906-17.003906 22.675782-22.671875 5.667969-51.011719-11.332031-45.34375zm0 0" fill="#827189"/><path d="m208.046875 247.871094c5.667969-17.003906-22.671875-34.007813-45.34375-11.335938-11.335937 11.335938-15.585937 15.585938-17.003906 17.003906 3.324219 8.074219 9.949219 21.289063 22.667969 34.007813 6.175781 6.175781 17.375 15.824219 34.007812 22.671875 3.859375-1.925781 9.21875-9.214844 17.003906-17.003906 22.675782-22.671875 5.667969-51.011719-11.332031-45.34375zm0 0" fill="#e1eaa8"/><path d="m208.046875 247.871094c3.679687-11.039063-6.980469-22.074219-21.113281-22.253906.707031 2.589843.6875 5.351562-.234375 8.113281 17.003906-5.667969 34.007812 22.671875 11.335937 45.34375-7.789062 7.789062-13.144531 15.078125-17.003906 17.003906-2.375-.976563-4.625-2.015625-6.777344-3.089844 6.519532 5.585938 15.835938 12.171875 28.121094 17.234375 3.859375-1.929687 9.21875-9.21875 17.003906-17.007812 22.675782-22.671875 5.667969-51.011719-11.332031-45.34375zm0 0" fill="#d2df7c"/><path d="m134.527344 97.980469c-9.390625-9.390625-44.917969 10.910156-79.351563 45.34375-34.433593 34.433593-54.734375 69.957031-45.34375 79.351562 9.390625 9.390625 44.917969-10.910156 79.351563-45.34375 34.433594-34.433593 54.734375-69.960937 45.34375-79.351562zm0 0" fill="#e96fa7"/><path d="m134.527344 97.980469c-9.390625-9.390625-44.917969 10.910156-79.351563 45.34375-34.433593 34.433593-54.734375 69.957031-45.34375 79.351562 9.390625 9.390625 44.917969-10.910156 79.351563-45.34375 34.433594-34.433593 54.734375-69.960937 45.34375-79.351562zm0 0" fill="#c281cc"/><path d="m134.527344 97.980469c-2.523438-2.527344-6.960938-2.886719-12.742188-1.414063-.785156 14.742188-19.472656 43.59375-47.601562 71.71875-25.164063 25.167969-50.902344 42.765625-66.605469 46.761719-.175781 3.304687.535156 5.90625 2.257813 7.628906 9.390624 9.390625 44.917968-10.910156 79.351562-45.34375 34.429688-34.433593 54.734375-69.960937 45.339844-79.351562zm0 0" fill="#b362bf"/><path d="m21.171875 109.316406c-15.652344 15.652344-15.652344 41.027344 0 56.679688l17.003906 17.003906c8.074219-3.324219 21.289063-9.953125 34.007813-22.671875 6.171875-6.171875 15.820312-17.375 22.667968-34.007813-5.667968-5.667968-11.335937-11.335937-17.003906-17.003906-15.648437-15.652344-41.027344-15.652344-56.675781 0zm0 0" fill="#e1c0e5"/><path d="m57.351562 167.828125-17.003906-17.003906c-13.78125-13.78125-15.417968-35.101563-4.929687-50.6875-5.195313 1.949219-10.070313 5-14.25 9.179687-15.648438 15.652344-15.648438 41.027344 0 56.679688l17.003906 17.003906c8.074219-3.324219 21.289063-9.953125 34.007813-22.671875.042968-.039063.085937-.085937.125-.125-5.777344 3.554687-10.984376 5.992187-14.953126 7.625zm0 0" fill="#d1a1d9"/><path d="m221.769531 301.550781c.945313-.996093 1.910157-2.007812 2.925781-3.023437 15.832032-15.832032 15.589844-34.78125 8.324219-46.535156-4.136719-6.695313-10.363281-10.9375-17.039062-12.058594-1.117188-6.671875-5.359375-12.898438-12.058594-17.035156-11.753906-7.265626-30.699219-7.507813-46.535156 8.324218l-2.964844 2.964844c-8.292969-5.910156-17.46875-11.589844-26.117187-15.132812v-22.820313l52.324218-29.898437c2.339844-1.335938 3.785156-3.828126 3.785156-6.523438v-24.046875c0-4.152344-3.363281-7.515625-7.515624-7.515625-4.148438 0-7.511719 3.363281-7.511719 7.515625v19.683594l-41.082031 23.476562v-36.148437c0-.121094-.011719-.238282-.019532-.359375 2.410156-3.566407 4.605469-7.054688 6.53125-10.425781 10.699219-18.726563 12.390625-31.957032 5.027344-39.324219-3.078125-3.078125-7.039062-4.417969-11.539062-4.488281v-20.195313l52.324218-29.898437c2.339844-1.335938 3.785156-3.828126 3.785156-6.523438v-24.046875c0-4.152344-3.363281-7.515625-7.515624-7.515625-4.148438 0-7.511719 3.363281-7.511719 7.515625v19.683594l-48.597657 27.769531-48.59375-27.769531v-19.683594c0-4.152344-3.363281-7.515625-7.515624-7.515625-4.148438 0-7.515626 3.363281-7.515626 7.515625v24.046875c0 2.695312 1.445313 5.1875 3.789063 6.523438l52.320313 29.898437v23.453125c-8.984376 3.519531-18.578126 9.429688-27.144532 15.53125l-2.964844-2.964844c-8.992187-8.992187-20.941406-13.941406-33.652343-13.941406-12.714844 0-24.667969 4.953125-33.65625 13.941406-18.554688 18.554688-18.554688 48.75 0 67.304688l2.964843 2.964844c-13.550781 19.007812-25.691406 42.324218-14.300781 53.714843 3 3 6.96875 4.496094 11.886719 4.496094 7.164062 0 16.335938-3.175781 27.441406-9.523437 14.996094-8.566407 32.257813-22.195313 48.816406-38.503907l20.613282 11.777344v19.160156c-4.929688-.125-9.257813 1.179688-12.570313 4.492188-7.367187 7.367187-5.675781 20.597656 5.027344 39.328125 2.226563 3.890625 4.789063 7.933594 7.652344 12.078125-.066407.40625-.109375.816406-.109375 1.238281v34.644531l-41.082032-23.476562v-19.683594c0-4.152344-3.363281-7.515625-7.511718-7.515625-4.152344 0-7.515625 3.363281-7.515625 7.515625v24.046875c0 2.695312 1.445312 5.1875 3.785156 6.523438l52.324219 29.902343v53.074219c-3.410156.660156-7.609375 1.839844-11.878906 3.976562-9.207032 4.601563-20.183594 14.375-20.183594 34.773438 0 3.238281.050781 6.667969.101562 10.296875.320313 22.265625.761719 52.757813-11.191406 64.882813-3.632812 3.6875-8.363281 5.476562-14.460938 5.476562-4.148437 0-7.515624 3.367188-7.515624 7.515625 0 4.152344 3.367187 7.515625 7.515624 7.515625 10.1875 0 18.652344-3.347656 25.164063-9.957031 16.367187-16.605469 15.894531-49.34375 15.515625-75.652344-.050781-3.570313-.101562-6.949219-.101562-10.078125 0-15.695312 9.757812-21.355469 17.035156-23.398438v111.570313c0 4.152344 3.363281 7.515625 7.515625 7.515625 4.148437 0 7.515625-3.363281 7.515625-7.515625v-111.566406c7.277344 2.039062 17.03125 7.699219 17.03125 23.394531 0 3.132812-.050782 6.507812-.101563 10.082031-.378906 26.304688-.851562 59.042969 15.519531 75.652344 6.511719 6.605469 14.976563 9.953125 25.160157 9.953125 4.152343 0 7.515625-3.363281 7.515625-7.515625 0-4.148437-3.363282-7.511719-7.515625-7.511719-6.09375 0-10.824219-1.792968-14.457031-5.476562-11.957032-12.128906-11.515626-42.621094-11.195313-64.886719.054687-3.628906.105469-7.058594.105469-10.296875 0-20.398438-10.980469-30.171875-20.1875-34.773438-4.269532-2.136718-8.46875-3.316406-11.875-3.972656v-53.078125l20.617187-11.785156c2.796875 2.730469 5.625 5.398437 8.449219 7.964844 3.03125 2.753906 7.863281 2.523437 10.617188-.507813 2.789062-3.070312 2.5625-7.824218-.507813-10.617187-3.621094-3.289063-7.253906-6.753907-10.804687-10.304688-15.285157-15.289062-28.292969-31.378906-36.625-45.308593-8.765626-14.664063-9.246094-21.742188-8.679688-23.382813 2.582031-.976563 13.550781 1.507813 32.257812 14.433594l-3.246093 3.246093c-2.144531 2.148438-2.789063 5.371094-1.636719 8.175782 5.644531 13.710937 13.824219 25.976562 24.308594 36.460937s22.75 18.664063 36.460937 24.308594c1.988281.816406 4.289063.734375 6.21875-.226563 1.882813-.941406 3.660157-2.351562 5.550781-4.164062 13.898438 20.191406 14.742188 29.808594 14.082032 31.765625-1.878906.617187-11.460938-.113281-31.90625-14.179687-3.417969-2.351563-8.097656-1.488282-10.449219 1.933593-2.351563 3.417969-1.488281 8.097657 1.929687 10.449219 12.316407 8.476562 27.527344 16.917969 39.246094 16.917969 4.621094 0 8.699219-1.316407 11.839844-4.457031 11.425781-11.429688-.949219-34.953126-14.261719-53.660157zm-195.285156-186.921875c6.148437-6.148437 14.328125-9.539062 23.027344-9.539062 8.695312 0 16.875 3.390625 23.023437 9.539062l13.367188 13.367188c-4.746094 10.046875-11.132813 19.117187-19.035156 27.019531-7.902344 7.898437-16.972657 14.285156-27.019532 19.03125l-13.363281-13.367187c-12.695313-12.695313-12.695313-33.355469 0-46.050782zm12.078125 94.011719c-14.664062 8.769531-21.742188 9.242187-23.382812 8.683594-.980469-2.597657 1.511718-13.566407 14.433593-32.261719 1.042969 1.042969 2.078125 2.097656 3.128907 3.132812 2.191406 2.15625 5.394531 2.945313 8.292968 1.75 13.710938-5.644531 25.976563-13.820312 36.460938-24.304687s18.660156-22.75 24.304687-36.460937c1.15625-2.804688.511719-6.027344-1.632812-8.171876l-3.253907-3.253906c20.546876-14.242187 30.296876-15.085937 32.265626-14.425781.5625 1.648437.078124 8.730469-8.683594 23.378906-8.328125 13.929688-21.335938 30.019531-36.625 45.308594-15.289063 15.289063-31.378906 28.296875-45.308594 36.625zm64.902344-35.320313c3.433594-3.710937 6.707031-7.429687 9.8125-11.132812v16.738281zm24.839844 117.316407c3.09375 3.648437 6.363281 7.308593 9.765624 10.957031l-9.765624 5.582031zm72.984374 10.90625c-10.28125-4.773438-19.550781-11.253907-27.605468-19.308594-7.902344-7.902344-14.289063-16.972656-19.035156-27.019531l13.367187-13.363282c10.710937-10.710937 21.78125-10.019531 28.007813-6.167968 3.273437 2.023437 6.277343 5.660156 4.890624 9.8125-.898437 2.699218-.195312 5.675781 1.816407 7.691406 2.011719 2.011719 4.992187 2.714844 7.691406 1.816406 4.152344-1.386718 7.789063 1.617188 9.8125 4.890625 3.847656 6.226563 4.542969 17.300781-6.167969 28.007813-3.015625 3.019531-5.644531 5.917968-7.960937 8.476562-1.566407 1.726563-3.363281 3.710938-4.816407 5.164063zm0 0"/></svg>