<svg height="512pt" viewBox="-18 0 512 512" width="512pt" xmlns="http://www.w3.org/2000/svg"><path d="m151.796875 504.484375h-96.1875c-26.5625 0-48.09375-21.53125-48.09375-48.09375v-400.78125c0-26.5625 21.53125-48.09375 48.09375-48.09375h96.1875c26.558594 0 48.09375 21.53125 48.09375 48.09375v400.78125c0 26.5625-21.535156 48.09375-48.09375 48.09375zm0 0" fill="#b1a7dc"/><path d="m183.859375 480.4375h-96.1875c-26.5625 0-48.09375-21.53125-48.09375-48.09375v-400.78125c0-8.3125 2.105469-16.128906 5.816406-22.949219-21.652343 4.683594-37.878906 23.9375-37.878906 46.996094v400.78125c0 26.5625 21.53125 48.09375 48.09375 48.09375h96.1875c18.25 0 34.125-10.164063 42.273437-25.144531-3.292968.714844-6.707031 1.097656-10.210937 1.097656zm0 0" fill="#9689d0"/><path d="m119.734375 55.609375c0 8.851563-7.179687 16.03125-16.03125 16.03125-8.855469 0-16.03125-7.179687-16.03125-16.03125 0-8.855469 7.175781-16.03125 16.03125-16.03125 8.851563 0 16.03125 7.175781 16.03125 16.03125zm0 0" fill="#e0dce2"/><path d="m119.734375 456.390625c0 8.855469-7.179687 16.03125-16.03125 16.03125-8.855469 0-16.03125-7.175781-16.03125-16.03125 0-8.851563 7.175781-16.03125 16.03125-16.03125 8.851563 0 16.03125 7.179687 16.03125 16.03125zm0 0" fill="#e0dce2"/><path d="m135.765625 320.125c0-17.707031-14.355469-32.0625-32.0625-32.0625-17.710937 0-32.0625 14.355469-32.0625 32.0625 0 11.867188 6.449219 22.21875 16.03125 27.761719v52.394531h32.0625v-52.394531c9.578125-5.542969 16.03125-15.894531 16.03125-27.761719zm0 0" fill="#827189"/><path d="m103.703125 400.28125v-60.410156c-9.582031-5.542969-16.03125-15.894532-16.03125-27.761719 0-9.296875 3.960937-17.667969 10.28125-23.523437-14.960937 2.710937-26.3125 15.792968-26.3125 31.539062 0 11.867188 6.449219 22.21875 16.03125 27.761719v52.394531zm0 0" fill="#634e6c"/><path d="m467.207031 185.027344c-3.78125-10.402344-15.277343-15.769532-25.679687-11.984375-47.523438 17.277343-75.003906-.222657-109.796875-22.378907-21.125-13.453124-42.96875-27.363281-70.871094-34.339843-44.46875-11.117188-88.417969-5.203125-127.09375 17.113281-.867187.5-1.726563 1.007812-2.570313 1.511719-8.125-4.578125-17.5-7.199219-27.492187-7.199219-30.988281 0-56.109375 25.121094-56.109375 56.109375s25.121094 56.109375 56.109375 56.109375 56.109375-25.121094 56.109375-56.109375c0-6.117187-.992188-11.996094-2.800781-17.507813 22.421875-12.078124 54.320312-21.097656 94.128906-11.148437 21.585937 5.398437 39.789063 16.988281 59.058594 29.261719 26.726562 17.019531 56.019531 35.675781 95.128906 35.675781 15.042969 0 31.539063-2.761719 49.894531-9.433594 10.402344-3.78125 15.765625-15.28125 11.984375-25.679687zm0 0" fill="#ffd982"/><path d="m467.207031 185.027344c-1.070312-2.941406-2.769531-5.464844-4.875-7.507813-2.203125 4.480469-6.058593 8.15625-11.121093 10-18.359376 6.675781-34.851563 9.433594-49.894532 9.433594-39.109375.003906-68.40625-18.65625-95.128906-35.671875-19.269531-12.273438-37.472656-23.867188-59.0625-29.261719-39.804688-9.953125-71.703125-.933593-94.128906 11.144531 1.808594 5.511719 2.800781 11.390626 2.800781 17.507813 0 30.988281-25.121094 56.109375-56.109375 56.109375-23.566406 0-43.730469-14.539062-52.039062-35.132812-.027344.734374-.054688 1.472656-.054688 2.210937 0 30.992187 25.121094 56.109375 56.109375 56.109375s56.109375-25.117188 56.109375-56.109375c0-6.113281-.992188-11.992187-2.800781-17.503906 22.421875-12.082031 54.320312-21.097657 94.125-11.148438 21.589843 5.398438 39.792969 16.988281 59.0625 29.261719 26.722656 17.019531 56.019531 35.675781 95.128906 35.675781 15.042969 0 31.539063-2.761719 49.894531-9.4375 10.402344-3.78125 15.765625-15.28125 11.984375-25.679687zm0 0" fill="#ffc02e"/><path d="m127.75 183.859375c0 13.28125-10.769531 24.046875-24.046875 24.046875-13.28125 0-24.046875-10.765625-24.046875-24.046875s10.765625-24.046875 24.046875-24.046875c13.277344 0 24.046875 10.765625 24.046875 24.046875zm0 0" fill="#ffe6ab"/><path d="m127.246094 55.609375c0-12.984375-10.5625-23.546875-23.542969-23.546875-12.984375 0-23.546875 10.5625-23.546875 23.546875s10.5625 23.546875 23.546875 23.546875c12.980469 0 23.542969-10.5625 23.542969-23.546875zm-32.0625 0c0-4.695313 3.820312-8.515625 8.519531-8.515625 4.695313 0 8.515625 3.820312 8.515625 8.515625s-3.820312 8.515625-8.515625 8.515625c-4.699219 0-8.519531-3.820312-8.519531-8.515625zm0 0"/><path d="m103.703125 432.84375c-12.984375 0-23.546875 10.5625-23.546875 23.546875s10.5625 23.546875 23.546875 23.546875c12.980469 0 23.542969-10.5625 23.542969-23.546875s-10.5625-23.546875-23.542969-23.546875zm0 32.0625c-4.699219 0-8.519531-3.820312-8.519531-8.515625s3.820312-8.515625 8.519531-8.515625c4.695313 0 8.515625 3.820312 8.515625 8.515625s-3.820312 8.515625-8.515625 8.515625zm0 0"/><path d="m127.246094 351.925781c9.988281-7.414062 16.03125-19.230469 16.03125-31.800781 0-21.824219-17.753906-39.578125-39.574219-39.578125-21.824219 0-39.578125 17.753906-39.578125 39.578125 0 12.570312 6.046875 24.386719 16.03125 31.800781v48.355469c0 4.152344 3.363281 7.515625 7.515625 7.515625h32.0625c4.148437 0 7.511719-3.363281 7.511719-7.515625zm-11.277344-10.542969c-2.320312 1.34375-3.75 3.824219-3.75 6.503907v44.878906h-17.035156v-44.878906c0-2.679688-1.429688-5.160157-3.75-6.503907-7.574219-4.382812-12.28125-12.527343-12.28125-21.257812 0-13.535156 11.015625-24.546875 24.550781-24.546875s24.546875 11.011719 24.546875 24.546875c0 8.730469-4.707031 16.875-12.28125 21.257812zm0 0"/><path d="m474.269531 182.460938c-3.867187-10.472657-13.828125-17.792969-25.035156-18.140626-3.492187-.109374-6.992187.464844-10.273437 1.660157-44.039063 16.011719-68.851563.214843-103.195313-21.65625-21.628906-13.773438-43.996094-28.019531-73.082031-35.289063-18.617188-4.65625-37.148438-6.441406-55.277344-5.414062v-48.011719c0-30.664063-24.945312-55.609375-55.609375-55.609375h-96.1875c-30.664063 0-55.609375 24.945312-55.609375 55.609375v202.0625c0 4.148437 3.363281 7.511719 7.515625 7.511719 4.148437 0 7.515625-3.363282 7.515625-7.511719v-202.0625c0-22.375 18.203125-40.578125 40.578125-40.578125h96.1875c22.375 0 40.578125 18.203125 40.578125 40.578125v49.535156c-21.351562 3.101563-42.003906 10.195313-61.402344 21.230469-8.492187-4.027344-17.832031-6.140625-27.269531-6.140625-35.082031 0-63.625 28.542969-63.625 63.625s28.542969 63.621094 63.625 63.621094 63.625-28.539063 63.625-63.621094c0-4.582031-.492187-9.128906-1.46875-13.585937 8.625-4.148438 17.46875-7.199219 26.515625-9.171876v295.289063c0 22.375-18.203125 40.578125-40.578125 40.578125h-96.1875c-22.375 0-40.578125-18.203125-40.578125-40.578125v-163.988281c0-4.148438-3.367188-7.511719-7.515625-7.511719-4.152344 0-7.515625 3.363281-7.515625 7.511719v163.988281c0 30.664063 24.945312 55.609375 55.609375 55.609375h96.1875c30.664063 0 55.609375-24.945312 55.609375-55.609375v-297.542969c13.59375-1.140625 27.589844.070313 41.910156 3.648438 20.40625 5.101562 38.105469 16.375 56.855469 28.3125 27.121094 17.273437 57.863281 36.847656 99.160156 36.847656 16.765625 0 34.417969-3.324219 52.460938-9.886719 14.277343-5.191406 21.667969-21.03125 16.476562-35.308593zm-21.613281 21.183593c-16.625 6.046875-32.101562 8.984375-47.324219 8.984375-36.917969 0-64.457031-17.535156-91.09375-34.5-19.800781-12.609375-38.5-24.519531-61.273437-30.214844-34.664063-8.664062-69.074219-4.574218-99.515625 11.824219-3.203125 1.726563-4.710938 5.5-3.578125 8.957031 1.609375 4.90625 2.425781 10.003907 2.425781 15.164063 0 26.796875-21.800781 48.59375-48.59375 48.59375-26.796875 0-48.59375-21.796875-48.59375-48.59375s21.796875-48.59375 48.59375-48.59375c8.332031 0 16.5625 2.152344 23.804687 6.234375 1.535157.863281 3.355469 1.164062 5.085938.835938 1.824219-.34375 3.351562-1.476563 4.929688-2.386719 36.953124-21.320313 78.972656-26.964844 121.511718-16.332031 26.722656 6.679687 48.039063 20.253906 68.660156 33.386718 25.21875 16.058594 47.960938 30.542969 77.691407 30.539063 11.640625 0 24.359375-2.222657 38.707031-7.4375 6.425781-2.335938 13.71875 1.078125 16.050781 7.488281 2.359375 6.492188-1 13.691406-7.488281 16.050781zm0 0"/><path d="m103.703125 152.296875c-17.40625 0-31.5625 14.160156-31.5625 31.5625s14.15625 31.5625 31.5625 31.5625c17.402344 0 31.558594-14.160156 31.558594-31.5625s-14.15625-31.5625-31.558594-31.5625zm0 48.09375c-9.117187 0-16.535156-7.414063-16.535156-16.53125s7.417969-16.53125 16.535156-16.53125c9.113281 0 16.53125 7.414063 16.53125 16.53125s-7.417969 16.53125-16.53125 16.53125zm0 0"/></svg>