<svg height="512pt" viewBox="0 -96 512 512" width="512pt" xmlns="http://www.w3.org/2000/svg"><path d="m297.484375 183.859375h72.140625v56.109375h-72.140625zm0 0" fill="#a195a7"/><path d="m119.734375 63.625h48.09375v32.0625h-48.09375zm0 0" fill="#ffd982"/><path d="m432.328125 312.109375h-53.964844c-14.589843 0-27.339843-9.851563-31.023437-23.96875l-41.839844-160.390625h120.234375l37.617187 144.203125c5.300782 20.316406-10.03125 40.15625-31.023437 40.15625zm0 0" fill="#93d5df"/><path d="m456.375 296.078125h-53.964844c-14.589844 0-27.339844-9.851563-31.023437-23.96875l-37.660157-144.359375h-28.226562l41.839844 160.390625c3.683594 14.117187 16.433594 23.96875 31.023437 23.96875h53.964844c12.179687 0 22.441406-6.683594 27.886719-16.257813-1.257813.148438-2.539063.226563-3.839844.226563zm0 0" fill="#4bbac9"/><path d="m456.390625 151.796875h-232.453125c-39.84375 0-72.140625-32.296875-72.140625-72.140625s32.296875-72.140625 72.140625-72.140625h232.453125c26.5625 0 48.09375 21.53125 48.09375 48.09375v48.09375c0 26.5625-21.53125 48.09375-48.09375 48.09375zm0 0" fill="#93d5df"/><path d="m472.421875 119.734375h-232.453125c-39.84375 0-72.140625-32.296875-72.140625-72.140625 0-5.207031.5625-10.28125 1.613281-15.179688-10.984375 12.660157-17.644531 29.167969-17.644531 47.242188 0 39.84375 32.296875 72.140625 72.140625 72.140625h232.453125c25.238281 0 45.921875-19.445313 47.921875-44.167969-8.488281 7.527344-19.652344 12.105469-31.890625 12.105469zm0 0" fill="#4bbac9"/><path d="m256 7.515625h176.34375v144.28125h-176.34375zm0 0" fill="#ffd982"/><path d="m256 119.734375h176.34375v32.0625h-176.34375zm0 0" fill="#ffc02e"/><path d="m223.9375 7.515625h32.0625v144.28125h-32.0625zm0 0" fill="#a195a7"/><path d="m223.9375 119.734375h32.0625v32.0625h-32.0625zm0 0" fill="#827189"/><path d="m456.390625 0h-72.140625c-4.152344 0-7.515625 3.363281-7.515625 7.515625 0 4.148437 3.363281 7.515625 7.515625 7.515625h40.578125v129.25h-161.3125v-129.25h84.664063c4.152343 0 7.515624-3.367188 7.515624-7.515625 0-4.152344-3.363281-7.515625-7.515624-7.515625h-124.242188c-35.730469 0-66.035156 23.644531-76.101562 56.109375h-28.101563c-4.152344 0-7.515625 3.363281-7.515625 7.515625v8.515625h-10.914062l1.671874-6.695313c1.007813-4.023437-1.441406-8.105468-5.46875-9.113281-4.023437-1-8.105468 1.441407-9.113281 5.46875l-2.582031 10.339844h-8.554688l1.671876-6.695313c1.007812-4.023437-1.441407-8.105468-5.46875-9.113281-4.023438-1-8.105469 1.441407-9.113282 5.46875l-2.582031 10.339844h-8.554687l1.671874-6.695313c1.007813-4.023437-1.441406-8.105468-5.46875-9.113281-4.027343-1-8.105468 1.441407-9.113281 5.46875l-2.582031 10.339844h-8.554688l1.671876-6.695313c1.007812-4.023437-1.441407-8.105468-5.46875-9.113281-4.027344-1-8.105469 1.441407-9.113282 5.46875l-2.582031 10.339844h-6.15625c-4.152344 0-7.515625 3.363281-7.515625 7.515625s3.363281 7.515625 7.515625 7.515625h2.398437l-1.675781 6.691406c-.964843 3.863281 1.363281 7.929688 5.191407 9.039063 4.039062 1.175781 8.371093-1.3125 9.390624-5.390625l2.585938-10.339844h8.554688l-1.675782 6.691406c-.964844 3.863281 1.363282 7.929688 5.191406 9.039063 4.039063 1.175781 8.371094-1.3125 9.390626-5.390625l2.585937-10.339844h8.554687l-1.671874 6.691406c-1.167969 4.671875 2.472656 9.339844 7.292968 9.339844 3.367188 0 6.433594-2.277344 7.285156-5.695313l2.585938-10.335937h8.554688l-1.671876 6.691406c-.964843 3.863281 1.359376 7.929688 5.1875 9.039063 4.039063 1.175781 8.371094-1.3125 9.390626-5.390625l2.585937-10.339844h14.671875v8.515625c0 4.152344 3.363281 7.515625 7.515625 7.515625h28.101563c10.066406 32.460937 40.371093 56.109375 76.101562 56.109375h82.027344l4.445312 17.03125h-12.925781c-4.152344 0-7.515625 3.363281-7.515625 7.515625v56.109375c0 4.152344 3.363281 7.515625 7.515625 7.515625h31.484375l11.101562 42.554687c4.542969 17.417969 20.289063 29.585938 38.292969 29.585938h53.964844c12.351563 0 23.765625-5.605469 31.320313-15.382812 7.550781-9.773438 10.09375-22.234376 6.976562-34.1875l-28.890625-110.742188h14.65625c30.664063 0 55.609375-24.945312 55.609375-55.609375v-48.09375c0-30.664063-24.945312-55.609375-55.609375-55.609375zm-329.140625 88.171875v-17.03125h17.492188c-.296876 2.796875-.460938 5.636719-.460938 8.515625 0 2.875.164062 5.714844.460938 8.515625zm32.0625-8.515625c0-33.09375 25.003906-60.4375 57.109375-64.175781v128.351562c-32.105469-3.738281-57.109375-31.085937-57.109375-64.175781zm72.140625-64.625h17.03125v129.25h-17.03125zm73.542969 217.421875v-41.078125h9.332031l10.71875 41.078125zm146.757812 62.601563c-4.683594 6.0625-11.765625 9.539062-19.425781 9.539062h-53.964844c-11.167969 0-20.933593-7.546875-23.753906-18.351562l-33.113281-126.929688h104.703125l29.882812 114.539062c1.933594 7.414063.355469 15.140626-4.328125 21.203126zm45.214844-191.351563c0 22.375-18.203125 40.578125-40.578125 40.578125h-16.53125v-129.25h16.53125c22.375 0 40.578125 18.203125 40.578125 40.578125zm0 0"/><path d="m384.25 32.0625h-80.15625c-4.152344 0-7.515625 3.363281-7.515625 7.515625 0 4.148437 3.363281 7.515625 7.515625 7.515625h80.15625c4.152344 0 7.515625-3.367188 7.515625-7.515625 0-4.152344-3.363281-7.515625-7.515625-7.515625zm0 0"/><path d="m384.25 72.140625h-80.15625c-4.152344 0-7.515625 3.363281-7.515625 7.515625s3.363281 7.515625 7.515625 7.515625h80.15625c4.152344 0 7.515625-3.363281 7.515625-7.515625s-3.363281-7.515625-7.515625-7.515625zm0 0"/><path d="m384.25 112.21875h-80.15625c-4.152344 0-7.515625 3.363281-7.515625 7.515625s3.363281 7.515625 7.515625 7.515625h80.15625c4.152344 0 7.515625-3.363281 7.515625-7.515625s-3.363281-7.515625-7.515625-7.515625zm0 0"/></svg>