<svg height="512pt" viewBox="-23 0 512 512.00119" width="512pt" xmlns="http://www.w3.org/2000/svg"><path d="m305.261719 190.644531c0 13.332031-10.804688 24.140625-24.136719 24.140625s-24.140625-10.808594-24.140625-24.140625 10.808594-24.140625 24.140625-24.140625 24.136719 10.808594 24.136719 24.140625zm0 0" fill="#eab4a7"/><path d="m96.054688 190.644531c0 13.332031-10.808594 24.140625-24.140626 24.140625-13.328124 0-24.136718-10.808594-24.136718-24.140625s10.808594-24.140625 24.136718-24.140625c13.332032 0 24.140626 10.808594 24.140626 24.140625zm0 0" fill="#f7c9ba"/><path d="m79.960938 102.132812v88.511719c0 53.328125 43.230468 96.558594 96.558593 96.558594s96.558594-43.230469 96.558594-96.558594v-88.511719zm0 0" fill="#f7c9ba"/><path d="m216.753906 271.109375c-53.328125 0-96.558594-43.230469-96.558594-96.558594v-72.417969h-40.234374v88.511719c0 53.328125 43.230468 96.558594 96.558593 96.558594 20.460938 0 39.429688-6.371094 55.042969-17.226563-4.828125.746094-9.773438 1.132813-14.808594 1.132813zm0 0" fill="#eab4a7"/><path d="m200.660156 222.832031h-48.28125c0 13.332031 10.808594 24.136719 24.140625 24.136719s24.140625-10.804688 24.140625-24.136719zm0 0" fill="#fff"/><path d="m200.660156 118.226562s-31.800781 18.335938-72.417968 24.140626c-56.328126 8.042968-8.046876 80.464843-8.046876 80.464843s-72.417968-16.09375-72.417968-112.652343c0-96.558594 88.511718-128.742188 152.882812-80.464844 0 0 19.039063-31.203125 64.371094-16.09375 48.277344 16.09375 48.277344 88.511718 40.230469 120.699218-13.660157 54.640626-56.324219 72.417969-56.324219 72.417969s0-96.558593-48.277344-88.511719zm0 0" fill="#827189"/><path d="m84.019531 110.179688c0-58.09375 32.042969-92.875 71.589844-100.859376-54.152344-10.484374-107.832031 25.664063-107.832031 100.859376 0 96.558593 72.417968 112.652343 72.417968 112.652343s-14.019531-21.039062-18.132812-41.695312c-10.359375-16.601563-18.042969-39.507813-18.042969-70.957031zm0 0" fill="#634e6c"/><path d="m55.824219 303.292969h241.394531v201.164062h-241.394531zm0 0" fill="#d2df7c"/><path d="m176.519531 351.574219 40.234375-48.28125h-80.464844zm0 0" fill="#f7c9ba"/><path d="m345.496094 504.457031h-48.277344v-201.164062h16.089844c17.777344 0 32.1875 14.410156 32.1875 32.1875zm0 0" fill="#fff2d5"/><path d="m7.542969 504.457031h48.28125v-201.164062h-16.09375c-17.777344 0-32.1875 14.410156-32.1875 32.1875zm0 0" fill="#f7c9ba"/><path d="m55.824219 307.613281v-4.320312h-16.09375c-17.777344 0-32.1875 14.410156-32.1875 32.1875v168.976562h32.1875v-168.976562c0-11.910157 6.476562-22.300781 16.09375-27.867188zm0 0" fill="#eab4a7"/><path d="m337.449219 279.15625c-24.046875 0-46.453125 6.566406-65.269531 17.878906l-23.242188-9.832031-2.824219 30.960937c-18.292969 19.746094-29.359375 45.488282-29.359375 73.640626 0 62.214843 54.035156 112.652343 120.695313 112.652343 66.660156 0 120.699219-50.4375 120.699219-112.652343 0-62.214844-54.039063-112.648438-120.699219-112.648438zm0 0" fill="#efedf0"/><path d="m361.589844 480.316406c-66.660156 0-120.699219-50.433594-120.699219-112.648437 0-27.410157 10.492187-52.527344 27.921875-72.054688l-19.875-8.410156-2.824219 30.960937c-18.292969 19.746094-29.359375 45.488282-29.359375 73.640626 0 62.214843 54.035156 112.652343 120.695313 112.652343 41.210937 0 77.589843-19.28125 99.367187-48.699219-20.632812 15.367188-46.777344 24.558594-75.226562 24.558594zm0 0" fill="#d0cad3"/><path d="m385.726562 367.667969c0-26.664063-21.613281-48.28125-48.277343-48.28125-26.664063 0-48.277344 21.617187-48.277344 48.28125 0 17.867187 9.710937 33.453125 24.136719 41.804687v30.613282h48.28125v-30.613282c14.425781-8.351562 24.136718-23.9375 24.136718-41.804687zm0 0" fill="#ffd982"/><path d="m337.449219 440.085938v-38.664063c-14.425781-8.347656-24.140625-23.9375-24.140625-41.804687 0-16.742188 8.53125-31.496094 21.480468-40.152344-25.425781 1.382812-45.617187 22.429687-45.617187 48.199218 0 17.867188 9.710937 33.457032 24.136719 41.804688v30.617188zm0 0" fill="#ffc02e"/><path d="m337.449219 464.222656c-17.773438 0-32.1875-14.410156-32.1875-32.183594v-8.046874h64.375v8.046874c0 17.777344-14.410157 32.183594-32.1875 32.183594zm0 0" fill="#827189"/><path d="m329.402344 432.039062v-8.046874h-24.140625v8.046874c0 17.773438 14.414062 32.183594 32.1875 32.183594 4.269531 0 8.339843-.835937 12.070312-2.347656-11.792969-4.773438-20.117187-16.328125-20.117187-29.835938zm0 0" fill="#634e6c"/><path d="m40.234375 190.644531c0 17.46875 14.210937 31.683594 31.679687 31.683594 1.773438 0 3.53125-.152344 5.261719-.441406 13.339844 42.640625 53.117188 72.859375 99.34375 72.859375 46.527344 0 86.019531-30.683594 99.316407-72.878906 1.742187.292968 3.511718.460937 5.289062.460937 17.46875 0 31.683594-14.214844 31.683594-31.683594 0-9.644531-4.410156-18.65625-11.765625-24.617187 4.648437-8.554688 8.683593-18.457032 11.539062-29.878906 3.925781-15.707032 6.5625-43.398438 1.074219-69.75-6.523438-31.300782-22.511719-52.023438-46.238281-59.933594-26.050781-8.683594-44.445313-3.175782-55.292969 2.972656-5.71875 3.246094-9.96875 6.960938-12.890625 10.039062-32.964844-21.890624-72.4375-25.667968-104.570313-9.605468-34.589843 17.296875-54.429687 53.859375-54.429687 100.308594 0 23.273437 4.113281 42.070312 10.230469 57.167968-6.472656 5.953125-10.230469 14.359375-10.230469 23.296875zm136.285156 89.015625c-39.253906 0-73.058593-25.488281-84.695312-61.546875 14.289062 9.222657 26.101562 11.941407 26.734375 12.082031 6.492187 1.4375 11.597656-6.007812 7.914062-11.546874-6.980468-10.5-23.5-41.316407-16.207031-57.59375 2.738281-6.113282 8.964844-9.785157 19.042969-11.222657 37.429687-5.347656 67.25-20.753906 73.816406-24.34375 6.332031-.773437 11.710938.792969 16.414062 4.773438 17.890626 15.140625 21.84375 60.339843 21.855469 76.472656 0 5.289063 5.558594 9 10.445313 6.964844.59375-.246094 5.425781-2.320313 12.210937-6.851563-7.640625 41.375-43.980469 72.8125-87.53125 72.8125zm121.199219-89.015625c0 9.152344-7.445312 16.59375-16.59375 16.59375-.609375 0-1.214844-.039062-1.8125-.105469.71875-4.515624 1.15625-9.128906 1.273438-13.816406 4.109374-4.066406 8.300781-8.828125 12.308593-14.359375 3.042969 3.070313 4.824219 7.253907 4.824219 11.6875zm-196.304688-167.277343c11.101563-5.554688 23.289063-8.277344 35.757813-8.277344 20.03125 0 40.792969 7.03125 58.960937 20.660156 3.511719 2.632812 8.683594 1.636719 10.964844-2.105469.160156-.261719 16.367188-25.929687 55.546875-12.867187 23.179688 7.726562 32.5 30.746094 36.238281 48.695312 4.972657 23.859375 2.601563 48.859375-.9375 63.015625-8.671874 34.6875-29.503906 53.292969-41.996093 61.667969-1.445313-20.058594-6.800781-58.585938-26.652344-75.398438-8.476563-7.183593-18.527344-9.859374-29.878906-7.972656-.890625.148438-1.746094.453125-2.527344.90625-.308594.175782-30.988281 17.671875-69.71875 23.203125-15.410156 2.203125-25.734375 8.933594-30.6875 20.011719-7.15625 16.011719-.585937 37.0625 6.496094 52.359375-4.566407-2.695313-9.566407-6.195313-14.539063-10.6875-21.976562-19.863281-33.121094-48.933594-33.121094-86.398437 0-40.523438 16.800782-72.167969 46.09375-86.8125zm-28.304687 179.328124c.171875 1.492188.378906 2.96875.613281 4.4375-.597656.0625-1.199218.109376-1.808594.109376-9.148437 0-16.59375-7.445313-16.59375-16.597657 0-3.050781.835938-5.980469 2.355469-8.519531 4.804688 8.285156 10.148438 15.066406 15.433594 20.570312zm0 0"/><path d="m143.328125 182.597656c0 4.167969-3.378906 7.542969-7.542969 7.542969-4.167968 0-7.542968-3.375-7.542968-7.542969 0-4.167968 3.375-7.542968 7.542968-7.542968 4.164063 0 7.542969 3.375 7.542969 7.542968zm0 0"/><path d="m224.800781 182.597656c0 4.167969-3.378906 7.542969-7.546875 7.542969-4.164062 0-7.542968-3.375-7.542968-7.542969 0-4.167968 3.378906-7.542968 7.542968-7.542968 4.167969 0 7.546875 3.375 7.546875 7.542968zm0 0"/><path d="m200.660156 215.285156h-48.28125c-4.164062 0-7.542968 3.378906-7.542968 7.546875 0 17.46875 14.214843 31.679688 31.683593 31.679688s31.683594-14.210938 31.683594-31.679688c0-4.167969-3.378906-7.546875-7.542969-7.546875zm-24.140625 24.140625c-6.4375 0-12.027343-3.683593-14.78125-9.050781h29.5625c-2.753906 5.367188-8.34375 9.050781-14.78125 9.050781zm0 0"/><path d="m55.824219 471.097656c-4.167969 0-7.542969 3.375-7.542969 7.542969v25.816406c0 4.167969 3.375 7.542969 7.542969 7.542969 4.164062 0 7.542969-3.375 7.542969-7.542969v-25.816406c0-4.167969-3.378907-7.542969-7.542969-7.542969zm0 0"/><path d="m337.449219 271.613281c-23.289063 0-45.953125 5.867188-65.800781 17.003907l-19.769532-8.363282c-4.632812-1.957031-9.996094 1.261719-10.453125 6.261719l-.84375 9.238281h-200.851562c-21.90625 0-39.730469 17.820313-39.730469 39.726563v168.976562c0 4.167969 3.378906 7.542969 7.542969 7.542969 4.167969 0 7.542969-3.375 7.542969-7.542969v-168.976562c0-13.585938 11.054687-24.640625 24.644531-24.640625h8.550781v133.269531c0 4.167969 3.375 7.542969 7.542969 7.542969 4.164062 0 7.542969-3.375 7.542969-7.542969v-133.269531h69.386718l37.96875 45.566406c2.972656 3.5625 8.621094 3.5625 11.59375 0l37.96875-45.566406h18.921875l-.378906 4.125c-19.121094 21.542968-29.621094 48.730468-29.621094 76.84375 0 66.273437 57.527344 120.191406 128.242188 120.191406 70.710937 0 128.238281-53.917969 128.238281-120.191406 0-66.277344-57.527344-120.195313-128.238281-120.195313zm-160.929688 68.175781-24.125-28.949218h48.253907zm160.929688 157.125c-62.390625 0-113.152344-47.152343-113.152344-105.109374 0-25.144532 9.714844-49.476563 27.351563-68.515626 1.132812-1.222656 1.824218-2.785156 1.976562-4.441406l1.886719-20.671875 13.726562 5.804688c2.21875.941406 4.757813.761719 6.828125-.480469 18.28125-10.992188 39.507813-16.800781 61.382813-16.800781 62.390625 0 113.152343 47.152343 113.152343 105.105469 0 57.957031-50.757812 105.109374-113.152343 105.109374zm0 0"/><path d="m393.273438 367.667969c0-30.78125-25.042969-55.824219-55.824219-55.824219s-55.820313 25.042969-55.820313 55.824219c0 18.359375 9.144532 35.582031 24.136719 45.945312v2.835938h-.503906c-4.164063 0-7.542969 3.375-7.542969 7.542969v8.046874c0 21.90625 17.824219 39.730469 39.730469 39.730469s39.730469-17.824219 39.730469-39.730469v-8.046874c0-4.167969-3.378907-7.542969-7.542969-7.542969h-.503907v-2.835938c14.992188-10.363281 24.140626-27.585937 24.140626-45.945312zm-31.179688 64.371093c0 13.585938-11.054688 24.640626-24.644531 24.640626-13.589844 0-24.640625-11.054688-24.640625-24.640626v-.503906h49.285156zm-17.101562-15.589843v-33.191407h8.550781c4.167969 0 7.542969-3.378906 7.542969-7.542968 0-4.167969-3.375-7.546875-7.542969-7.546875h-32.1875c-4.164063 0-7.542969 3.378906-7.542969 7.546875 0 4.164062 3.378906 7.542968 7.542969 7.542968h8.550781v33.191407h-9.050781v-6.980469c0-2.691406-1.4375-5.179688-3.765625-6.527344-12.570313-7.273437-20.375-20.789062-20.375-35.273437 0-22.464844 18.273437-40.738281 40.734375-40.738281 22.460937 0 40.734375 18.273437 40.734375 40.738281 0 14.484375-7.804688 28-20.375 35.273437-2.328125 1.347656-3.761719 3.835938-3.761719 6.527344v6.980469zm0 0"/></svg>