<svg height="512pt" viewBox="0 -1 512 512" width="512pt" xmlns="http://www.w3.org/2000/svg"><path d="m504.484375 206.304688c0-39.84375-111.25-72.140626-248.484375-72.140626s-248.484375 32.296876-248.484375 72.140626c0 39.839843 111.25 72.140624 248.484375 72.140624s248.484375-32.300781 248.484375-72.140624zm0 0" fill="#93d5df"/><path d="m280.046875 262.414062c-137.234375 0-248.484375-32.300781-248.484375-72.140624 0-7.140626 3.589844-14.039063 10.25-20.554688-21.785156 10.726562-34.296875 23.230469-34.296875 36.585938 0 39.839843 111.25 72.140624 248.484375 72.140624 112.636719 0 207.75-21.761718 238.234375-51.589843-43.210937 21.277343-122.949219 35.558593-214.1875 35.558593zm0 0" fill="#4bbac9"/><path d="m256 21.945312-17.132812-14.429687c-8.96875 10.417969-14.929688 27.070313-14.929688 38.476563 0 17.707031 14.355469 32.0625 32.0625 32.0625s32.0625-14.355469 32.0625-32.0625c0-10.777344-5.324219-26.242188-13.476562-36.703126zm0 0" fill="#ee93bd"/><path d="m247.984375 36.371094c0-5.304688 1.300781-11.742188 3.582031-18.160156l-12.699218-10.695313c-8.96875 10.417969-14.929688 27.070313-14.929688 38.476563 0 17.707031 14.355469 32.0625 32.0625 32.0625 8.980469 0 17.09375-3.699219 22.914062-9.648438-17.179687-.597656-30.929687-14.707031-30.929687-32.035156zm0 0" fill="#e96fa7"/><path d="m280.046875 142.179688c-8.015625-16.03125 8.015625-40.078126 8.015625-40.078126h-64.125s16.03125 24.046876 8.015625 40.078126-16.03125 40.078124-16.03125 56.109374c0 40.078126 24.046875 40.078126 24.046875 40.078126h32.0625s24.046875 0 24.046875-40.078126c0-24.046874-8.015625-40.078124-16.03125-56.109374zm0 0" fill="#efedf0"/><path d="m239.96875 198.289062c0-16.03125 8.015625-40.078124 16.03125-56.109374s-8.015625-40.078126-8.015625-40.078126h-24.046875s16.03125 24.046876 8.015625 40.078126-16.03125 40.078124-16.03125 56.109374c0 40.078126 24.046875 40.078126 24.046875 40.078126h24.046875s-24.046875 0-24.046875-40.078126zm0 0" fill="#d0cad3"/><path d="m441.773438 150.496094c-41.027344-13.035156-96.246094-21.285156-156.003907-23.339844 1.460938-8.453125 6.203125-17.351562 8.546875-20.886719 3.269532-4.910156-.375-11.683593-6.253906-11.683593h-24.546875v-9.742188c18.238281-3.523438 32.0625-19.601562 32.0625-38.851562 0-12.953126-6.195313-29.945313-15.066406-41.324219-2.4375-3.125-6.878907-3.820313-10.15625-1.589844l-13.875 9.445313-12.773438-10.757813c-3.152343-2.652344-7.847656-2.273437-10.535156.847656-9.707031 11.269531-16.75 29.515625-16.75 43.378907 0 19.25 13.824219 35.328124 32.0625 38.851562v9.742188h-24.546875c-5.871094 0-9.507812 6.765624-6.257812 11.671874 2.34375 3.542969 7.089843 12.441407 8.550781 20.898438-59.757813 2.054688-114.976563 10.304688-156.003907 23.339844-45.941406 14.601562-70.226562 33.898437-70.226562 55.808594 0 17.449218 14.980469 32.980468 44.527344 46.160156.992187.445312 2.03125.652344 3.054687.652344 2.875 0 5.621094-1.65625 6.867188-4.453126 1.691406-3.789062-.011719-8.234374-3.800781-9.925781-22.96875-10.246093-35.617188-21.765625-35.617188-32.433593 0-14.085938 22.332031-29.59375 59.746094-41.484376 39.035156-12.402343 91.59375-20.335937 148.777344-22.523437-7.585938 16.210937-15.148438 39.46875-15.148438 55.992187 0 18.957032 4.957031 32.695313 14.730469 40.839844 7.871093 6.5625 15.9375 6.75 16.832031 6.75h32.0625c.894531 0 8.960938-.1875 16.832031-6.75 9.773438-8.144531 14.730469-21.882812 14.730469-40.839844 0-24.015624-7.398438-40.492187-15.089844-55.988281 57.160156 2.1875 109.699219 10.121094 148.71875 22.519531 37.414063 11.890626 59.746094 27.398438 59.746094 41.484376 0 15.175781-25.179688 31.546874-67.359375 43.792968-46.269531 13.433594-107.925781 20.832032-173.609375 20.832032-66.019531 0-127.894531-7.460938-174.234375-21.015626-3.984375-1.164062-8.15625 1.121094-9.324219 5.105469-1.164062 3.984375 1.121094 8.15625 5.105469 9.320313 32.820313 9.597656 73.082031 16.226562 116.976563 19.425781 2.949218 3.726563 20.0625 26.050781 25.675781 48.386719-2.394531.765625-4.679688 1.613281-6.835938 2.539062-13.535156 5.800782-20.988281 14.289063-20.988281 23.910156 0 6.496094 3.414062 12.472657 9.789062 17.460938-33.226562 27.066406-34.65625 33.496094-49.6875 101.144531-2.445312 11-8.722656 17.027344-16.777343 16.152344-4.660157-.511719-8.453125-3.429687-8.453125-6.507813 0-4.152343-3.363282-7.515624-7.511719-7.515624-4.152344 0-7.515625 3.363281-7.515625 7.515624 0 10.859376 9.390625 20.082032 21.839844 21.449219.988281.105469 2 .164063 3.027344.164063 11.613281 0 25.433593-7.175782 30.058593-28 7.855469-35.347656 11.800781-53.089844 18.320313-65.195313 5.835937-10.84375 14.058594-17.863281 31.066406-31.5 9.132812 3.414063 20.175781 5.546875 31.953125 6.183594v112.929687c0 4.152344 3.363281 7.515626 7.515625 7.515626 4.148438 0 7.515625-3.363282 7.515625-7.515626v-112.929687c11.773437-.640625 22.816406-2.769531 31.953125-6.183594 17.003906 13.636719 25.226562 20.65625 31.066406 31.5 6.519532 12.105469 10.460938 29.847657 18.316406 65.195313 4.628907 20.828125 18.449219 28 30.058594 28 1.027344 0 2.042969-.058594 3.027344-.164063 12.453125-1.367187 21.84375-10.589843 21.84375-21.449219 0-4.152343-3.363281-7.515624-7.515625-7.515624-4.148437 0-7.515625 3.363281-7.515625 7.515624 0 3.078126-3.789062 5.996094-8.449219 6.507813-8.058593.871094-14.332031-5.15625-16.777343-16.152344-15.03125-67.648437-16.464844-74.078125-49.6875-101.144531 6.375-4.988281 9.789062-10.964844 9.789062-17.460938 0-9.621093-7.457031-18.109374-20.992188-23.910156-2.15625-.925781-4.4375-1.773437-6.832031-2.539062 5.609375-22.328125 22.714844-44.648438 25.675781-48.386719 43.597657-3.179687 83.628907-9.742187 116.324219-19.234375 51.160157-14.851562 78.199219-34.988281 78.199219-58.226562 0-21.910157-24.285156-41.207032-70.226562-55.808594zm-210.320313-104.503906c0-7.28125 3.195313-18.476563 8.742187-27.535157l10.964844 9.234375c2.578125 2.171875 6.28125 2.359375 9.070313.464844l12.324219-8.394531c4.746093 8.273437 7.992187 18.582031 7.992187 26.230469 0 13.535156-11.011719 24.546874-24.546875 24.546874s-24.546875-11.011718-24.546875-24.546874zm40.464844 184.859374h-31.835938c-1.125-.066406-16.644531-1.582031-16.644531-32.5625 0-14.625 7.664062-37.605468 15.238281-52.75 5.953125-11.914062 2.09375-26.101562-2.203125-35.925781h39.054688c-4.296875 9.824219-8.15625 24.015625-2.203125 35.925781 7.839843 15.671876 15.238281 30.476563 15.238281 52.75 0 30.980469-15.519531 32.496094-16.644531 32.5625zm-57.953125 54.089844c11.339844.554688 22.875.882813 34.546875.984375-.011719.175781-.027344.351563-.027344.535157v40.789062c-4.710937.253906-9.304687.75-13.707031 1.46875-4.273438-17.097656-13.808594-33.402344-20.8125-43.777344zm7.949218 62.5c-.03125.65625-.066406 1.316406-.132812 1.964844-.695312 6.65625-3.203125 12.148438-7.617188 16.691406-4.453124-2.679687-6.757812-5.441406-6.757812-7.496094 0-3.027343 4.992188-7.589843 14.507812-11.160156zm6.9375 24.503906c4.402344-6.03125 7.054688-13.054687 7.878907-21.007812.253906-2.4375.320312-4.90625.234375-7.386719 3.539062-.585937 7.382812-1.015625 11.519531-1.257812v32.617187c-7.535156-.441406-14.101563-1.519531-19.632813-2.964844zm34.664063-29.652343c4.136719.242187 7.980469.671875 11.519531 1.257812-.085937 2.480469-.019531 4.949219.234375 7.386719.824219 7.953125 3.472657 14.976562 7.878907 21.007812-5.53125 1.445313-12.097657 2.527344-19.632813 2.964844zm41.078125 16.308593c0 2.050782-2.304688 4.816407-6.757812 7.496094-4.414063-4.542968-6.917969-10.035156-7.617188-16.695312-.066406-.644532-.101562-1.304688-.132812-1.960938 9.515624 3.570313 14.507812 8.132813 14.507812 11.160156zm-27.371094-29.882812c-4.402344-.71875-8.996094-1.214844-13.707031-1.46875v-40.789062c0-.183594-.015625-.359376-.027344-.535157 11.667969-.101562 23.203125-.429687 34.546875-.984375-7.003906 10.375-16.539062 26.679688-20.8125 43.777344zm0 0"/></svg>