<svg height="512pt" viewBox="0 -12 512 511" width="512pt" xmlns="http://www.w3.org/2000/svg"><path d="m7.515625 144.28125h496.96875v272.53125h-496.96875zm0 0" fill="#b1a6b5"/><path d="m7.515625 40.078125v312.609375l56.109375 64.125h440.859375v-376.734375zm56.109375 72.140625c-13.28125 0-24.046875-10.765625-24.046875-24.046875s10.765625-24.046875 24.046875-24.046875 24.046875 10.765625 24.046875 24.046875-10.765625 24.046875-24.046875 24.046875zm96.1875 0c-13.28125 0-24.046875-10.765625-24.046875-24.046875s10.765625-24.046875 24.046875-24.046875 24.046875 10.765625 24.046875 24.046875-10.765625 24.046875-24.046875 24.046875zm96.1875 0c-13.28125 0-24.046875-10.765625-24.046875-24.046875s10.765625-24.046875 24.046875-24.046875 24.046875 10.765625 24.046875 24.046875-10.765625 24.046875-24.046875 24.046875zm96.1875 0c-13.28125 0-24.046875-10.765625-24.046875-24.046875s10.765625-24.046875 24.046875-24.046875 24.046875 10.765625 24.046875 24.046875-10.765625 24.046875-24.046875 24.046875zm96.1875 0c-13.28125 0-24.046875-10.765625-24.046875-24.046875s10.765625-24.046875 24.046875-24.046875 24.046875 10.765625 24.046875 24.046875-10.765625 24.046875-24.046875 24.046875zm0 0" fill="#efedf0"/><path d="m55.609375 352.6875v-241.84375c-9.339844-3.300781-16.03125-12.203125-16.03125-22.671875s6.691406-19.371094 16.03125-22.675781v-25.417969h-48.09375v312.609375" fill="#d0cad3"/><path d="m400.28125 368.71875 24.046875-56.109375 24.046875 56.109375-24.046875-8.015625zm0 0" fill="#e98f6d"/><path d="m7.515625 352.6875h56.109375v64.125zm0 0" fill="#d0cad3"/><path d="m87.671875 448.875h336.65625v32.0625h-336.65625zm0 0" fill="#ffd982"/><path d="m87.671875 464.90625h336.65625v16.03125h-336.65625zm0 0" fill="#ffc02e"/><path d="m87.671875 448.875-56.109375 16.03125 56.109375 16.03125zm0 0" fill="#efedf0"/><path d="m440.359375 480.9375h-16.03125v-32.0625h16.03125c8.855469 0 16.03125 7.179688 16.03125 16.03125 0 8.855469-7.175781 16.03125-16.03125 16.03125zm0 0" fill="#efedf0"/><path d="m504.484375 169.328125c4.152344 0 7.515625-3.363281 7.515625-7.511719v-121.738281c0-4.152344-3.363281-7.515625-7.515625-7.515625h-33.71875c-3.03125-19.867188-11.464844-32.0625-22.390625-32.0625-12.515625 0-19.753906 14.765625-22.390625 32.0625h-51.40625c-3.042969-19.847656-11.503906-32.0625-22.390625-32.0625-12.515625 0-19.753906 14.765625-22.390625 32.0625h-51.402344c-3.035156-19.867188-11.46875-32.0625-22.394531-32.0625-12.515625 0-19.753906 14.765625-22.390625 32.0625h-51.40625c-3.039063-19.859375-11.480469-32.0625-22.390625-32.0625-12.515625 0-19.753906 14.765625-22.390625 32.0625h-51.40625c-3.035156-19.871094-11.464844-32.0625-22.390625-32.0625-12.515625 0-19.753906 14.765625-22.390625 32.0625h-33.71875c-4.152344 0-7.515625 3.363281-7.515625 7.515625v376.734375c0 4.152344 3.363281 7.515625 7.515625 7.515625h496.96875c4.152344 0 7.515625-3.363281 7.515625-7.515625v-220.429688c0-4.152343-3.363281-7.515624-7.515625-7.515624-4.148437 0-7.515625 3.363281-7.515625 7.515624v212.914063h-425.828125v-56.609375c0-4.152344-3.367187-7.515625-7.515625-7.515625h-48.59375v-297.578125h25.050781c0 .164062-.003906.332031-.003906.5 0 5.878906.488281 11.875 1.484375 17.539062-5.855469 5.730469-9.5 13.714844-9.5 22.539063 0 17.402344 14.160156 31.5625 31.5625 31.5625s31.5625-14.160156 31.5625-31.5625-14.160156-31.5625-31.5625-31.5625c-2.773438 0-5.460938.363281-8.027344 1.039063-.304687-2.921876-.488281-6.09375-.488281-9.554688 0-.171875.007813-.332031.007813-.5h81.152343c0 .164062-.003906.332031-.003906.5 0 5.878906.488281 11.875 1.484375 17.539062-5.855469 5.730469-9.5 13.714844-9.5 22.539063 0 17.402344 14.160156 31.5625 31.5625 31.5625s31.5625-14.160156 31.5625-31.5625-14.160156-31.5625-31.5625-31.5625c-2.773438 0-5.460938.363281-8.027344 1.039063-.304687-2.921876-.488281-6.09375-.488281-9.554688 0-.171875.007813-.332031.007813-.5h81.15625c-.003907.164062-.007813.332031-.007813.5 0 5.878906.488281 11.875 1.484375 17.539062-5.855469 5.730469-9.5 13.714844-9.5 22.539063 0 17.402344 14.160156 31.5625 31.5625 31.5625s31.5625-14.160156 31.5625-31.5625-14.160156-31.5625-31.5625-31.5625c-2.773438 0-5.460938.363281-8.027344 1.039063-.304687-2.921876-.488281-6.09375-.488281-9.554688 0-.171875.007813-.332031.007813-.5h81.15625c-.003907.164062-.007813.332031-.007813.5 0 5.878906.488281 11.875 1.484375 17.539062-5.855469 5.730469-9.5 13.714844-9.5 22.539063 0 17.402344 14.160156 31.5625 31.5625 31.5625s31.5625-14.160156 31.5625-31.5625-14.160156-31.5625-31.5625-31.5625c-2.773438 0-5.460938.363281-8.023438 1.039063-.308593-2.921876-.492187-6.09375-.492187-9.554688 0-.171875.007813-.332031.007813-.5h81.15625c-.003907.164062-.007813.332031-.007813.5 0 5.878906.492187 11.875 1.484375 17.539062-5.855469 5.730469-9.5 13.714844-9.5 22.539063 0 17.402344 14.160156 31.5625 31.5625 31.5625s31.5625-14.160156 31.5625-31.5625c0-10.484375-5.144531-19.789063-13.039062-25.53125-.253907-.207031-.523438-.402344-.808594-.578125-5.054688-3.4375-11.152344-5.453125-17.714844-5.453125-2.773438 0-5.460938.363281-8.023438 1.039063-.308593-2.921876-.492187-6.09375-.492187-9.554688 0-.171875.007813-.332031.007813-.5h57.101562v114.222656c0 4.148438 3.367188 7.511719 7.515625 7.511719zm-489.453125 203.359375 32.03125 36.609375h-32.03125zm41.078125 24.125-32.035156-36.609375h32.035156zm7.515625-292.109375c-9.117188 0-16.53125-7.414063-16.53125-16.53125 0-1.371094.183594-2.695313.5-3.96875 3.808594 6.960937 9.109375 11.484375 16.03125 11.484375 6.324219 0 11.871094-4.109375 16.003906-11.589844.332032 1.304688.527344 2.664063.527344 4.074219 0 9.117187-7.417969 16.53125-16.53125 16.53125zm0-33.0625c1.683594 0 3.3125.253906 4.84375.726563-1.960938 5.449218-4.03125 7.65625-4.859375 8.199218-1.222656-.707031-3.132813-3.476562-4.839844-8.199218 1.539063-.472657 3.167969-.726563 4.855469-.726563zm-.007812-56.027344c1.496093.933594 5.136718 6.089844 7.160156 16.949219h-14.320313c1.890625-10.171875 5.316407-15.890625 7.160157-16.949219zm96.195312 89.089844c-9.117188 0-16.53125-7.414063-16.53125-16.53125 0-1.371094.183594-2.695313.5-3.96875 3.808594 6.960937 9.113281 11.484375 16.03125 11.484375 6.328125 0 11.871094-4.105469 16.003906-11.589844.332032 1.308594.527344 2.664063.527344 4.074219 0 9.117187-7.414062 16.53125-16.53125 16.53125zm0-33.0625c1.6875 0 3.3125.253906 4.84375.726563-1.957031 5.453124-4.027344 7.65625-4.859375 8.203124-1.222656-.710937-3.132813-3.476562-4.839844-8.199218 1.539063-.476563 3.167969-.730469 4.855469-.730469zm-.007812-56.027344c1.488281.933594 5.132812 6.085938 7.15625 16.949219h-14.316407c1.890625-10.167969 5.316407-15.886719 7.160157-16.949219zm96.195312 89.089844c-9.117188 0-16.53125-7.414063-16.53125-16.53125 0-1.371094.183594-2.695313.5-3.96875 3.808594 6.960937 9.113281 11.484375 16.03125 11.484375 6.332031 0 11.875-4.105469 16.003906-11.585938.332032 1.304688.527344 2.664063.527344 4.070313 0 9.117187-7.414062 16.53125-16.53125 16.53125zm0-33.0625c1.6875 0 3.3125.253906 4.84375.726563-1.957031 5.449218-4.023438 7.65625-4.859375 8.203124-1.222656-.710937-3.132813-3.476562-4.835937-8.199218 1.535156-.476563 3.164062-.730469 4.851562-.730469zm-.007812-56.027344c1.496093.933594 5.136718 6.089844 7.160156 16.949219h-14.320313c1.894531-10.171875 5.316407-15.890625 7.160157-16.949219zm96.195312 89.089844c-9.117188 0-16.53125-7.414063-16.53125-16.53125 0-1.371094.183594-2.695313.5-3.96875 3.808594 6.960937 9.113281 11.484375 16.03125 11.484375 6.332031 0 11.875-4.105469 16.003906-11.589844.332032 1.308594.527344 2.664063.527344 4.074219 0 9.117187-7.414062 16.53125-16.53125 16.53125zm0-33.0625c1.6875 0 3.3125.253906 4.847656.726563-1.957031 5.445312-4.027344 7.65625-4.859375 8.203124-1.222656-.710937-3.136719-3.476562-4.839843-8.199218 1.535156-.476563 3.164062-.730469 4.851562-.730469zm-.003906-56.027344c1.519531.925781 5.125 5.957031 7.15625 16.949219h-14.320313c1.894531-10.171875 5.320313-15.890625 7.164063-16.949219zm96.191406 89.089844c-9.113281 0-16.53125-7.414063-16.53125-16.53125 0-1.371094.183594-2.695313.5-3.96875 3.808594 6.960937 9.113281 11.484375 16.03125 11.484375 6.363281 0 11.882812-4.113281 16.003906-11.59375.332032 1.308594.527344 2.667969.527344 4.078125 0 9.117187-7.414062 16.53125-16.53125 16.53125zm0-33.0625c1.683594 0 3.304688.253906 4.835938.722656-1.820313 5.03125-3.828126 7.578125-4.84375 8.207031-1.222657-.699218-3.136719-3.46875-4.84375-8.203124 1.535156-.472657 3.164062-.726563 4.851562-.726563zm-.007812-56.027344c1.496093.933594 5.136718 6.089844 7.160156 16.949219h-14.320313c1.894531-10.171875 5.316407-15.890625 7.160157-16.949219zm0 0"/><path d="m103.703125 144.78125c-4.152344 0-7.515625 3.363281-7.515625 7.515625v216.421875c0 4.152344 3.363281 7.515625 7.515625 7.515625h248.484375c4.152344 0 7.515625-3.363281 7.515625-7.515625v-216.421875c0-4.152344-3.363281-7.515625-7.515625-7.515625zm120.734375 56.835938c-18.238281 3.519531-32.0625 19.597656-32.0625 38.851562 0 4.152344 3.367188 7.515625 7.515625 7.515625h24.546875v25.046875h-113.21875v-25.046875h56.609375c4.148437 0 7.515625-3.363281 7.515625-7.515625v-80.65625h49.09375zm-113.21875 6.261718c.164062.011719.332031.027344.5.027344h48.59375v25.046875h-49.09375zm49.09375-48.066406v33.0625h-48.59375c-.167969 0-.335938.015625-.5.027344v-33.089844zm135.265625 201.390625v-15.855469c7.5 2.417969 13.425781 8.355469 15.84375 15.855469zm49.09375 0h-17.757813c-3.519531-18.238281-19.597656-32.0625-38.851562-32.0625-4.148438 0-7.515625 3.363281-7.515625 7.515625v24.546875h-169.328125v-73.140625h113.21875v24.546875c0 4.152344 3.367188 7.515625 7.515625 7.515625s7.515625-3.363281 7.515625-7.515625v-72.140625c0-4.152344-3.367188-7.515625-7.515625-7.515625h-23.371094c3.179688-9.871094 12.457031-17.03125 23.371094-17.03125 4.148437 0 7.515625-3.363281 7.515625-7.515625v-48.59375h105.203125zm0 0"/><path d="m296.078125 200.890625c-17.402344 0-31.5625 14.160156-31.5625 31.5625s14.160156 31.5625 31.5625 31.5625 31.5625-14.160156 31.5625-31.5625-14.160156-31.5625-31.5625-31.5625zm0 48.09375c-9.117187 0-16.53125-7.414063-16.53125-16.53125s7.414063-16.53125 16.53125-16.53125 16.53125 7.414063 16.53125 16.53125-7.414063 16.53125-16.53125 16.53125zm0 0"/><path d="m312.109375 273.03125h-32.0625c-4.148437 0-7.515625 3.363281-7.515625 7.515625s3.367188 7.515625 7.515625 7.515625h32.0625c4.148437 0 7.515625-3.363281 7.515625-7.515625s-3.367188-7.515625-7.515625-7.515625zm0 0"/><path d="m280.046875 191.875h32.0625c4.148437 0 7.515625-3.363281 7.515625-7.515625s-3.367188-7.515625-7.515625-7.515625h-32.0625c-4.148437 0-7.515625 3.363281-7.515625 7.515625s3.367188 7.515625 7.515625 7.515625zm0 0"/><path d="m127.75 183.859375h16.03125c4.148438 0 7.515625-3.363281 7.515625-7.515625s-3.367187-7.515625-7.515625-7.515625h-16.03125c-4.152344 0-7.515625 3.363281-7.515625 7.515625s3.363281 7.515625 7.515625 7.515625zm0 0"/><path d="m402.660156 375.847656 21.667969-7.222656 21.671875 7.222656c6.027344 2.007813 11.785156-4.25 9.28125-10.089844l-24.046875-56.109374c-2.546875-5.945313-11.265625-5.945313-13.8125 0l-24.046875 56.109374c-2.503906 5.84375 3.261719 12.089844 9.285156 10.089844zm21.667969-44.160156 10.546875 24.609375-8.171875-2.722656c-.769531-.257813-1.574219-.386719-2.375-.386719-.804687 0-1.605469.128906-2.378906.386719l-8.171875 2.722656zm0 0"/><path d="m400.28125 296.078125c4.152344 0 7.515625-3.363281 7.515625-7.515625v-27.335938l26.789063 32.148438c1.992187 2.386719 5.402343 3.296875 8.324218 2.253906 2.929688-1.050781 4.964844-3.953125 4.964844-7.066406v-48.09375c0-4.148438-3.363281-7.515625-7.515625-7.515625-4.148437 0-7.515625 3.367187-7.515625 7.515625v27.339844l-26.789062-32.148438c-4.40625-5.289062-13.289063-2.058594-13.289063 4.808594v48.09375c0 4.152344 3.367187 7.515625 7.515625 7.515625zm0 0"/><path d="m440.359375 441.359375h-352.6875c-.742187 0-1.53125.109375-2.238281.339844l-55.9375 15.984375c-3.1875.910156-5.449219 3.90625-5.449219 7.222656s2.261719 6.316406 5.449219 7.226562l55.9375 15.980469c.707031.230469 1.496094.339844 2.238281.339844h352.6875c12.984375 0 23.546875-10.5625 23.546875-23.546875s-10.5625-23.546875-23.546875-23.546875zm-360.203125 17.480469v12.136718l-21.242188-6.070312zm15.03125-2.449219h321.625v17.03125h-321.625zm345.171875 17.03125h-8.515625v-17.03125h8.515625c4.695313 0 8.515625 3.820313 8.515625 8.515625s-3.820312 8.515625-8.515625 8.515625zm0 0"/></svg>