<svg height="512pt" viewBox="-72 0 512 512" width="512pt" xmlns="http://www.w3.org/2000/svg"><path d="m352.1875 296.078125c0-115.101563-75.363281-208.40625-168.328125-208.40625s-168.328125 93.304687-168.328125 208.40625 75.363281 208.40625 168.328125 208.40625 168.328125-93.304687 168.328125-208.40625zm0 0" fill="#ffd982"/><path d="m215.921875 488.453125c-92.964844 0-168.328125-93.304687-168.328125-208.40625 0-79.914063 36.332031-149.308594 89.660156-184.277344-70.296875 25.027344-121.722656 105.230469-121.722656 200.308594 0 115.101563 75.363281 208.40625 168.328125 208.40625 28.421875 0 55.191406-8.730469 78.667969-24.128906-14.800782 5.269531-30.433594 8.097656-46.605469 8.097656zm0 0" fill="#ffc02e"/><path d="m183.859375 472.421875c-34.585937 0-67.683594-17.105469-93.199219-48.167969-27.773437-33.808594-43.066406-79.332031-43.066406-128.175781s15.292969-94.363281 43.066406-128.175781c25.515625-31.0625 58.613282-48.167969 93.199219-48.167969s67.683594 17.105469 93.199219 48.167969c27.773437 33.8125 43.066406 79.332031 43.066406 128.175781s-15.292969 94.367187-43.066406 128.175781c-25.515625 31.0625-58.613282 48.167969-93.199219 48.167969zm0 0" fill="#93d5df"/><path d="m215.921875 448.375c-34.585937 0-67.683594-17.105469-93.199219-48.167969-27.773437-33.808593-43.066406-79.332031-43.066406-128.175781s15.292969-94.367188 43.066406-128.175781c3.21875-3.917969 6.5625-7.613281 10.007813-11.082031-15.355469 8.144531-29.617188 19.96875-42.070313 35.128906-27.773437 33.8125-43.066406 79.332031-43.066406 128.175781s15.292969 94.367187 43.066406 128.175781c25.515625 31.0625 58.613282 48.167969 93.199219 48.167969 30.21875 0 59.304687-13.0625 83.1875-37.085937-16.105469 8.546874-33.417969 13.039062-51.125 13.039062zm0 0" fill="#4bbac9"/><path d="m146.152344 130.199219c-9.726563-14.796875-6.324219-53.398438-6.324219-53.398438s36.785156 12.183594 46.511719 26.980469c9.726562 14.796875 8.617187 32.703125-2.480469 40-11.097656 7.292969-27.980469 1.214844-37.707031-13.582031zm0 0" fill="#e37349"/><path d="m221.566406 130.199219c9.726563-14.796875 6.324219-53.398438 6.324219-53.398438s-36.785156 12.183594-46.511719 26.980469c-9.730468 14.796875-8.617187 32.703125 2.480469 40 11.097656 7.292969 27.980469 1.214844 37.707031-13.582031zm0 0" fill="#e37349"/><path d="m159.8125 119.734375c0-17.707031 24.046875-48.09375 24.046875-48.09375s24.046875 30.386719 24.046875 48.09375-10.765625 32.0625-24.046875 32.0625-24.046875-14.355469-24.046875-32.0625zm0 0" fill="#eeab92"/><path d="m175.84375 119.734375c0-10.859375 9.035156-26.472656 16.03125-36.9375-4.414062-6.601563-8.015625-11.15625-8.015625-11.15625s-24.046875 30.386719-24.046875 48.09375 10.765625 32.0625 24.046875 32.0625c2.8125 0 5.507813-.648437 8.015625-1.832031-9.339844-4.402344-16.03125-16.273438-16.03125-30.230469zm0 0" fill="#e98f6d"/><path d="m301.117188 135.183594c7.734374 6.488281 18.367187 10.058594 28.746093 10.058594 5.347657 0 10.625-.945313 15.402344-2.921876 8.386719-3.476562 22.453125-13.109374 22.453125-38.617187 0-4.152344-3.363281-7.515625-7.515625-7.515625s-7.515625 3.363281-7.515625 7.515625c0 12.609375-4.554688 21.160156-13.171875 24.730469-9.398437 3.894531-22.90625 1.207031-30.105469-5.996094-2.234375-2.234375-5.632812-9.535156-8.917968-16.59375-10.703126-22.996094-26.875-57.75-60.523438-57.75-13.722656 0-24.027344 4.894531-31.507812 11.480469 6.105468-18.148438 6.960937-24.660157 6.960937-28.011719 0-17.402344-14.160156-31.5625-31.5625-31.5625s-31.5625 14.160156-31.5625 31.5625c0 3.355469.855469 9.871094 6.960937 28.011719-7.480468-6.585938-17.789062-11.480469-31.507812-11.480469-33.648438 0-49.820312 34.753906-60.523438 57.75-3.285156 7.058594-6.679687 14.355469-8.914062 16.59375-7.203125 7.199219-20.707031 9.890625-30.109375 5.996094-8.617187-3.570313-13.171875-12.121094-13.171875-24.730469 0-4.152344-3.367188-7.515625-7.515625-7.515625-4.152344 0-7.515625 3.363281-7.515625 7.515625 0 25.507813 14.066406 35.140625 22.453125 38.617187 4.773437 1.976563 10.050781 2.921876 15.402344 2.921876 10.367187 0 20.992187-3.566407 28.722656-10.042969-8.207031 9.003906-15.746094 18.949219-22.464844 29.730469-23.613281 37.90625-36.097656 83.257812-36.097656 131.148437 0 57.378906 18.101563 111.394531 50.96875 152.089844 33.25 41.160156 77.597656 63.832031 124.875 63.832031s91.625-22.671875 124.871094-63.832031c32.871093-40.695313 50.972656-94.710938 50.972656-152.089844 0-47.582031-12.339844-92.703125-35.683594-130.476563-6.824219-11.042968-14.515625-21.222656-22.902343-30.417968zm-61.148438-72.058594c24.066406 0 37.261719 28.355469 46.898438 49.058594 3.449218 7.421875 6.328124 13.597656 9.421874 17.890625-17.734374-18.082031-38.285156-31.902344-60.285156-40.277344-.082031-6.964844-.5-12.226563-.628906-13.65625-.417969-4.75-5.3125-7.976563-9.847656-6.472656-.308594.101562-4.140625 1.378906-9.59375 3.5625 6.105468-6.707031 14.167968-10.105469 24.035156-10.105469zm-93.179688 24.300781c4.007813 1.621094 8.886719 3.746094 13.757813 6.226563-4.578125 8.738281-8.25 18.199218-8.25 26.082031 0 2.332031.171875 4.613281.480469 6.839844-.113282-.167969-.234375-.332031-.34375-.503907-4.769532-7.253906-5.960938-24.757812-5.644532-38.644531zm20.539063 32.308594c0-8.691406 8.632813-23.988281 16.535156-35.425781 7.898438 11.425781 16.527344 26.714844 16.527344 35.425781 0 13.304687-7.570313 24.546875-16.53125 24.546875s-16.53125-11.242188-16.53125-24.546875zm39.84375-26.078125c4.867187-2.480469 9.75-4.605469 13.761719-6.230469.320312 13.882813-.867188 31.375-5.648438 38.644531-.113281.171876-.230468.335938-.347656.507813.3125-2.226563.484375-4.511719.484375-6.84375 0-7.882813-3.671875-17.339844-8.25-26.078125zm-23.3125-78.625c9.117187 0 16.53125 7.414062 16.53125 16.53125 0 1.609375-.796875 8.785156-10.511719 35.578125-.042968-.054687-.09375-.121094-.128906-.164063-1.421875-1.800781-3.59375-2.851562-5.890625-2.851562s-4.46875 1.050781-5.894531 2.851562c-.03125.042969-.085938.109376-.125.164063-9.710938-26.78125-10.511719-33.964844-10.511719-35.578125 0-9.117188 7.414063-16.53125 16.53125-16.53125zm-103.007813 97.152344c9.636719-20.703125 22.832032-49.058594 46.898438-49.058594 11.414062 0 19.027344 4.6875 24.019531 10.101562-5.4375-2.179687-9.253906-3.453124-9.578125-3.558593-4.535156-1.503907-9.429687 1.722656-9.847656 6.472656-.128906 1.429687-.550781 6.695313-.628906 13.664063-21.992188 8.378906-42.53125 22.164062-60.257813 40.230468 3.082031-4.292968 5.953125-10.453125 9.394531-17.851562zm103.007813 384.785156c-88.671875 0-160.8125-90.117188-160.8125-200.890625 0-86.246094 44.449219-162.878906 109.191406-190.292969.488281 5.921875 1.367188 11.980469 2.878907 17.40625-18.707032 8.683594-35.601563 22.089844-50.261719 39.941406-28.875 35.152344-44.777344 82.367188-44.777344 132.945313s15.902344 97.796875 44.777344 132.945313c26.96875 32.832031 62.128906 50.914062 99.003906 50.914062s72.035156-18.082031 99.003906-50.914062c28.875-35.148438 44.777344-82.367188 44.777344-132.945313 0-34.261719-7.402344-67.574219-21.410156-96.34375-1.816407-3.730469-6.3125-5.28125-10.046875-3.464844-3.730469 1.816407-5.28125 6.3125-3.464844 10.042969 13.011719 26.730469 19.890625 57.769531 19.890625 89.765625 0 47.109375-14.6875 90.9375-41.359375 123.40625-24.058594 29.292969-55.097656 45.421875-87.390625 45.421875s-63.332031-16.128906-87.390625-45.421875c-26.671875-32.46875-41.359375-76.296875-41.359375-123.40625s14.6875-90.9375 41.355469-123.40625c13.253906-16.132813 28.417968-28.191406 45.121094-35.914063 6.867187 9.195313 16.519531 15.5 26.40625 17.167969 4.667968 3.417969 10.085937 5.386719 15.867187 5.386719 6.15625 0 11.902344-2.234375 16.765625-6.070312.324219.042968.648438.078124.980469.078124.703125 0 1.421875-.101562 2.128906-.308593 8.476563-2.503907 16.496094-8.363281 22.394531-16.257813 16.707032 7.726563 31.871094 19.789063 45.121094 35.917969 2.410156 2.9375 4.765625 6.019531 6.992188 9.15625 1.464843 2.0625 3.78125 3.164063 6.132812 3.164063 1.503906 0 3.023438-.449219 4.34375-1.386719 3.382812-2.402344 4.179688-7.09375 1.777344-10.476563-2.429688-3.421875-4.996094-6.785156-7.632813-9.996094-14.664062-17.847656-31.554687-31.261718-50.265625-39.941406 1.511719-5.425781 2.390625-11.480468 2.882813-17.402344 64.683593 27.421876 109.191406 104.253907 109.191406 190.289063 0 110.773437-72.140625 200.890625-160.8125 200.890625zm0 0"/></svg>