<svg height="512pt" viewBox="0 -48 512 512" width="512pt" xmlns="http://www.w3.org/2000/svg"><path d="m7.515625 7.515625h176.34375v80.15625h128.25v80.15625h128.25v160.3125h64.125v80.15625h-496.96875zm0 0" fill="#d0cad3"/><path d="m7.515625 328.140625h176.34375v80.15625h-176.34375zm0 0" fill="#e98f6d"/><path d="m31.5625 384.25v-56.109375h-24.046875v80.15625h176.34375v-24.046875zm0 0" fill="#e37349"/><path d="m264.015625 328.140625h176.34375v80.15625h-176.34375zm0 0" fill="#e98f6d"/><path d="m296.078125 384.25v-56.109375h-32.0625v80.15625h176.34375v-24.046875zm0 0" fill="#e37349"/><path d="m7.515625 167.828125h176.34375v80.15625h-176.34375zm0 0" fill="#e98f6d"/><path d="m31.5625 223.9375v-56.109375h-24.046875v80.15625h176.34375v-24.046875zm0 0" fill="#e37349"/><path d="m264.015625 167.828125h176.34375v80.15625h-176.34375zm0 0" fill="#e98f6d"/><path d="m296.078125 223.9375v-56.109375h-32.0625v80.15625h176.34375v-24.046875zm0 0" fill="#e37349"/><path d="m135.765625 247.984375h176.34375v80.15625h-176.34375zm0 0" fill="#e98f6d"/><path d="m167.828125 304.09375v-56.109375h-32.0625v80.15625h176.34375v-24.046875zm0 0" fill="#e37349"/><path d="m392.265625 247.984375h112.21875v80.15625h-112.21875zm0 0" fill="#e98f6d"/><path d="m424.328125 304.09375v-56.109375h-32.0625v80.15625h112.21875v-24.046875zm0 0" fill="#e37349"/><path d="m7.515625 247.984375h48.09375v80.15625h-48.09375zm0 0" fill="#e98f6d"/><path d="m7.515625 304.09375h48.09375v24.046875h-48.09375zm0 0" fill="#e37349"/><path d="m7.515625 87.671875h56.109375v80.15625h-56.109375zm0 0" fill="#e98f6d"/><path d="m7.515625 143.78125h56.109375v24.046875h-56.109375zm0 0" fill="#e37349"/><path d="m135.765625 87.671875h176.34375v80.15625h-176.34375zm0 0" fill="#e98f6d"/><path d="m167.828125 143.78125v-56.109375h-32.0625v80.15625h176.34375v-24.046875zm0 0" fill="#e37349"/><path d="m7.515625 7.515625h176.34375v80.15625h-176.34375zm0 0" fill="#e98f6d"/><path d="m31.5625 63.625v-56.109375h-24.046875v80.15625h176.34375v-24.046875zm0 0" fill="#e37349"/><path d="m504.484375 335.65625c4.152344 0 7.515625-3.363281 7.515625-7.515625s-3.363281-7.515625-7.515625-7.515625h-104.703125v-65.125h104.703125c4.152344 0 7.515625-3.363281 7.515625-7.515625s-3.363281-7.515625-7.515625-7.515625h-56.609375v-72.640625c0-4.152344-3.363281-7.515625-7.515625-7.515625h-120.734375v-72.640625c0-4.152344-3.363281-7.515625-7.515625-7.515625h-120.734375v-72.640625c0-4.152344-3.367188-7.515625-7.515625-7.515625h-176.34375c-4.152344 0-7.515625 3.363281-7.515625 7.515625 0 4.148437 3.363281 7.515625 7.515625 7.515625h168.828125v65.125h-168.828125c-4.152344 0-7.515625 3.363281-7.515625 7.515625s3.363281 7.515625 7.515625 7.515625h48.59375v65.125h-48.59375c-4.152344 0-7.515625 3.363281-7.515625 7.515625s3.363281 7.515625 7.515625 7.515625h168.828125v65.125h-168.828125c-4.152344 0-7.515625 3.363281-7.515625 7.515625s3.363281 7.515625 7.515625 7.515625h40.578125v65.125h-40.578125c-4.152344 0-7.515625 3.363281-7.515625 7.515625s3.363281 7.515625 7.515625 7.515625h168.828125v65.125h-168.828125c-4.152344 0-7.515625 3.363281-7.515625 7.515625s3.363281 7.515625 7.515625 7.515625h340.664063c4.152343 0 7.515624-3.363281 7.515624-7.515625s-3.363281-7.515625-7.515624-7.515625h-76.648438v-65.125h161.3125v65.125h-48.59375c-4.152344 0-7.515625 3.363281-7.515625 7.515625s3.363281 7.515625 7.515625 7.515625h120.234375c4.152344 0 7.515625-3.363281 7.515625-7.515625s-3.363281-7.515625-7.515625-7.515625h-56.609375v-65.125zm-119.734375-15.03125h-65.125v-65.125h65.125zm-113.21875-80.15625v-65.125h161.3125v65.125zm-200.390625-145.28125h57.109375v65.125h-57.109375zm72.140625 65.125v-65.125h161.3125v65.125zm48.09375 15.03125h65.125v65.125h-65.125zm-128.25 80.15625h65.125v65.125h-65.125zm193.375 145.28125h-65.125v-65.125h65.125zm-113.21875-80.15625v-65.125h161.3125v65.125zm0 0"/></svg>