<svg height="512pt" viewBox="-88 0 512 512" width="512pt" xmlns="http://www.w3.org/2000/svg"><path d="m327.941406 159.8125c-4.175781-84.8125-74.261718-152.296875-160.113281-152.296875s-155.9375 67.484375-160.113281 152.296875h-.199219v344.671875h320.625v-344.671875zm0 0" fill="#b1a7dc"/><path d="m39.578125 480.4375v-344.671875h.199219c2.070312-42.058594 20.355468-79.851563 48.726562-107.269531-46.191406 26.355468-78.015625 75.011718-80.789062 131.316406h-.199219v344.671875h320.625v-24.046875zm0 0" fill="#9689d0"/><path d="m43.632812 135.765625c14.273438-55.253906 64.542969-96.1875 124.195313-96.1875 59.648437 0 109.921875 40.933594 124.191406 96.1875zm0 0" fill="#b7e3ea"/><path d="m185.839844 40.84375c-5.886719-.828125-11.898438-1.265625-18.011719-1.265625-59.652344 0-109.921875 40.933594-124.195313 96.1875h36.023438c12.808594-49.59375 54.621094-87.640625 106.183594-94.921875zm0 0" fill="#6fc7d4"/><path d="m39.578125 167.828125h112.21875v136.265625h-112.21875zm0 0" fill="#b7e3ea"/><path d="m71.640625 280.046875v-112.21875h-32.0625v136.265625h112.21875v-24.046875zm0 0" fill="#6fc7d4"/><path d="m183.859375 167.828125h112.21875v136.265625h-112.21875zm0 0" fill="#b7e3ea"/><path d="m215.921875 280.046875v-112.21875h-32.0625v136.265625h112.21875v-24.046875zm0 0" fill="#6fc7d4"/><path d="m39.578125 336.15625h112.21875v136.265625h-112.21875zm0 0" fill="#b7e3ea"/><path d="m71.640625 448.375v-112.21875h-32.0625v136.265625h112.21875v-24.046875zm0 0" fill="#6fc7d4"/><path d="m183.859375 336.15625h112.21875v136.265625h-112.21875zm0 0" fill="#b7e3ea"/><path d="m215.921875 448.375v-112.21875h-32.0625v136.265625h112.21875v-24.046875zm0 0" fill="#6fc7d4"/><path d="m328.140625 272.53125c4.152344 0 7.515625-3.363281 7.515625-7.511719v-105.207031c0-.738281-.105469-1.449219-.304688-2.125-5.269531-88.570312-78.519531-157.6875-167.523437-157.6875s-162.253906 69.117188-167.523437 157.6875c-.199219.675781-.304688 1.386719-.304688 2.125v344.671875c0 4.152344 3.363281 7.515625 7.515625 7.515625h320.625c4.152344 0 7.515625-3.363281 7.515625-7.515625v-203.898437c0-4.152344-3.363281-7.515626-7.515625-7.515626s-7.515625 3.363282-7.515625 7.515626v196.382812h-305.59375v-335.429688c.101562-.4375.164062-.890624.1875-1.355468 4.011719-81.394532 71.042969-145.152344 152.609375-145.152344s148.597656 63.757812 152.609375 145.152344c.019531.464844.085938.917968.1875 1.355468v103.480469c0 4.148438 3.363281 7.511719 7.515625 7.511719zm0 0"/><path d="m297.964844 140.367188c1.421875-1.835938 1.914062-4.230469 1.332031-6.480469-15.484375-59.953125-69.546875-101.824219-131.46875-101.824219s-115.984375 41.871094-131.46875 101.824219c-1.210937 4.683593 2.445313 9.394531 7.273437 9.394531h248.386719c2.328125 0 4.519531-1.078125 5.945313-2.914062zm-244.21875-12.117188c16.714844-48.246094 62.308594-81.15625 114.082031-81.15625s97.367187 32.910156 114.082031 81.15625zm0 0"/><path d="m159.3125 167.828125c0-4.152344-3.363281-7.515625-7.515625-7.515625h-112.21875c-4.152344 0-7.515625 3.363281-7.515625 7.515625v136.265625c0 4.152344 3.363281 7.515625 7.515625 7.515625h112.21875c4.152344 0 7.515625-3.363281 7.515625-7.515625zm-15.03125 128.75h-97.1875v-121.234375h97.1875zm0 0"/><path d="m303.59375 167.828125c0-4.152344-3.363281-7.515625-7.515625-7.515625h-112.21875c-4.152344 0-7.515625 3.363281-7.515625 7.515625v136.265625c0 4.152344 3.363281 7.515625 7.515625 7.515625h112.21875c4.152344 0 7.515625-3.363281 7.515625-7.515625zm-15.03125 128.75h-97.1875v-121.234375h97.1875zm0 0"/><path d="m151.796875 328.640625h-112.21875c-4.152344 0-7.515625 3.363281-7.515625 7.515625v136.265625c0 4.152344 3.363281 7.515625 7.515625 7.515625h112.21875c4.152344 0 7.515625-3.363281 7.515625-7.515625v-136.265625c0-4.152344-3.363281-7.515625-7.515625-7.515625zm-7.515625 136.265625h-97.1875v-121.234375h97.1875zm0 0"/><path d="m183.859375 479.9375h112.21875c4.152344 0 7.515625-3.363281 7.515625-7.515625v-136.265625c0-4.152344-3.363281-7.515625-7.515625-7.515625h-112.21875c-4.152344 0-7.515625 3.363281-7.515625 7.515625v136.265625c0 4.152344 3.363281 7.515625 7.515625 7.515625zm7.515625-136.265625h97.1875v121.234375h-97.1875zm0 0"/></svg>