<svg height="512pt" viewBox="-12 0 511 512" width="512pt" xmlns="http://www.w3.org/2000/svg"><path d="m432.84375 167.828125h-144.28125c-8.855469 0-16.03125-7.175781-16.03125-16.03125v-128.25c0-8.855469 7.175781-16.03125 16.03125-16.03125h144.28125c8.855469 0 16.03125 7.175781 16.03125 16.03125v128.25c0 8.855469-7.175781 16.03125-16.03125 16.03125zm0 0" fill="#e0dce2"/><path d="m320.625 143.78125c-8.851562 0-16.03125-7.179688-16.03125-16.03125v-120.234375h-16.03125c-8.851562 0-16.03125 7.175781-16.03125 16.03125v128.25c0 8.851563 7.179688 16.03125 16.03125 16.03125h144.28125c8.855469 0 16.03125-7.179687 16.03125-16.03125v-8.015625zm0 0" fill="#c1b8c4"/><g fill="#827189"><path d="m336.65625 55.609375c0 8.851563-7.175781 16.03125-16.03125 16.03125s-16.03125-7.179687-16.03125-16.03125c0-8.855469 7.175781-16.03125 16.03125-16.03125s16.03125 7.175781 16.03125 16.03125zm0 0"/><path d="m416.8125 55.609375c0 8.851563-7.175781 16.03125-16.03125 16.03125-8.851562 0-16.03125-7.179687-16.03125-16.03125 0-8.855469 7.179688-16.03125 16.03125-16.03125 8.855469 0 16.03125 7.175781 16.03125 16.03125zm0 0"/><path d="m348.679688 95.6875h24.046874v40.078125h-24.046874zm0 0"/></g><path d="m112.21875 416.3125h-32.0625l-16.03125-80.15625h64.125zm0 0" fill="#d0cad3"/><path d="m64.125 336.15625 16.03125 80.15625h24.046875l-16.03125-80.15625zm0 0" fill="#a195a7"/><path d="m136.265625 336.15625h-80.15625c-26.5625 0-48.09375-21.53125-48.09375-48.09375v-96.1875h176.34375v96.1875c0 26.5625-21.53125 48.09375-48.09375 48.09375zm0 0" fill="#e98f6d"/><path d="m168.328125 320.125h-80.15625c-26.5625 0-48.09375-21.53125-48.09375-48.09375v-80.15625h-32.0625v96.1875c0 26.5625 21.53125 48.09375 48.09375 48.09375h80.15625c14.324219 0 27.175781-6.269531 35.988281-16.203125-1.296875.105469-2.605468.171875-3.925781.171875zm0 0" fill="#e37349"/><path d="m152.296875 191.875h-24.046875v-76.148438c0-6.640624 5.382812-12.023437 12.023438-12.023437 6.640624 0 12.023437 5.382813 12.023437 12.023437zm0 0" fill="#a195a7"/><path d="m64.125 191.875h-24.046875v-76.148438c0-6.640624 5.382813-12.023437 12.023437-12.023437 6.640626 0 12.023438 5.382813 12.023438 12.023437zm0 0" fill="#a195a7"/><path d="m104.203125 215.921875-48.09375 48.09375h24.046875l-8.015625 40.078125 48.09375-48.09375h-24.046875zm0 0" fill="#ffe6ab"/><path d="m288.5625 175.34375h144.28125c12.984375 0 23.546875-10.5625 23.546875-23.546875v-128.25c0-12.984375-10.5625-23.546875-23.546875-23.546875h-144.28125c-12.984375 0-23.546875 10.5625-23.546875 23.546875v128.25c0 12.984375 10.5625 23.546875 23.546875 23.546875zm-8.515625-151.796875c0-4.695313 3.820313-8.515625 8.515625-8.515625h144.28125c4.695312 0 8.515625 3.820312 8.515625 8.515625v128.25c0 4.695313-3.820313 8.515625-8.515625 8.515625h-144.28125c-4.695312 0-8.515625-3.820312-8.515625-8.515625zm0 0"/><path d="m320.625 79.15625c12.984375 0 23.546875-10.5625 23.546875-23.546875s-10.5625-23.546875-23.546875-23.546875-23.546875 10.5625-23.546875 23.546875 10.5625 23.546875 23.546875 23.546875zm0-32.0625c4.695312 0 8.515625 3.820312 8.515625 8.515625s-3.820313 8.515625-8.515625 8.515625-8.515625-3.820312-8.515625-8.515625 3.820313-8.515625 8.515625-8.515625zm0 0"/><path d="m400.78125 79.15625c12.984375 0 23.546875-10.5625 23.546875-23.546875s-10.5625-23.546875-23.546875-23.546875-23.546875 10.5625-23.546875 23.546875 10.5625 23.546875 23.546875 23.546875zm0-32.0625c4.695312 0 8.515625 3.820312 8.515625 8.515625s-3.820313 8.515625-8.515625 8.515625-8.515625-3.820312-8.515625-8.515625 3.820313-8.515625 8.515625-8.515625zm0 0"/><path d="m341.164062 95.6875v40.078125c0 4.152344 3.363282 7.515625 7.515626 7.515625h24.046874c4.152344 0 7.515626-3.363281 7.515626-7.515625v-40.078125c0-4.152344-3.363282-7.515625-7.515626-7.515625h-24.046874c-4.152344 0-7.515626 3.363281-7.515626 7.515625zm15.03125 7.515625h9.015626v25.046875h-9.015626zm0 0"/><path d="m480.9375 496.96875h-80.15625c-22.375 0-40.578125-18.203125-40.578125-40.578125v-48.09375c0-30.664063-24.945313-55.609375-55.609375-55.609375h-32.0625c-30.664062 0-55.609375 24.945312-55.609375 55.609375v48.09375c0 22.375-18.203125 40.578125-40.578125 40.578125h-32.0625c-22.375 0-40.578125-18.203125-40.578125-40.578125v-32.5625h8.515625c3.582031 0 6.664062-2.527344 7.367188-6.042969l3.601562-18.003906h5.0625c4.152344 0 7.515625-3.363281 7.515625-7.515625s-3.363281-7.515625-7.515625-7.515625h-2.054688l1.800782-9.015625h8.269531c4.152344 0 7.515625-3.363281 7.515625-7.515625s-3.363281-7.515625-7.515625-7.515625h-5.261719l3.40625-17.03125h1.855469c30.664063 0 55.609375-24.945313 55.609375-55.609375v-36.074219c0-4.148437-3.363281-7.511719-7.515625-7.511719s-7.515625 3.363282-7.515625 7.511719v36.074219c0 22.375-18.203125 40.578125-40.578125 40.578125h-80.15625c-22.375 0-40.578125-18.203125-40.578125-40.578125v-88.671875h161.3125v16.53125c0 4.152344 3.363281 7.515625 7.515625 7.515625s7.515625-3.363281 7.515625-7.515625v-24.046875c0-4.152344-3.363281-7.515625-7.515625-7.515625h-24.546875v-68.632813c0-10.773437-8.765625-19.539062-19.539062-19.539062-10.773438 0-19.539063 8.765625-19.539063 19.539062v68.632813h-17.03125v-32.5625c0-4.152344-3.363281-7.515625-7.515625-7.515625s-7.515625 3.363281-7.515625 7.515625v32.5625h-17.03125v-68.632813c0-10.773437-8.765625-19.539062-19.539063-19.539062-10.773437 0-19.539062 8.765625-19.539062 19.539062v68.632813h-24.546875c-4.152344 0-7.515625 3.363281-7.515625 7.515625v96.1875c0 30.664062 24.945312 55.609375 55.609375 55.609375h1.855469l3.40625 17.03125h-5.261719c-4.152344 0-7.515625 3.363281-7.515625 7.515625s3.363281 7.515625 7.515625 7.515625h8.265625l1.804688 9.015625h-2.054688c-4.152344 0-7.515625 3.363281-7.515625 7.515625s3.363281 7.515625 7.515625 7.515625h5.058594l3.601562 18.003906c.703125 3.515625 3.789063 6.042969 7.371094 6.042969h8.515625v32.5625c0 30.664063 24.945313 55.609375 55.609375 55.609375h32.0625c30.664062 0 55.609375-24.945312 55.609375-55.609375v-48.09375c0-22.375 18.203125-40.578125 40.578125-40.578125h32.0625c22.375 0 40.578125 18.203125 40.578125 40.578125v48.09375c0 30.664063 24.945313 55.609375 55.609375 55.609375h80.15625c4.152344 0 7.515625-3.363281 7.515625-7.515625 0-4.148437-3.363281-7.515625-7.515625-7.515625zm-345.171875-381.242188c0-2.488281 2.023437-4.507812 4.507813-4.507812 2.484374 0 4.507812 2.019531 4.507812 4.507812v68.632813h-9.015625zm-88.171875 0c0-2.488281 2.019531-4.507812 4.507812-4.507812 2.484376 0 4.507813 2.019531 4.507813 4.507812v68.632813h-9.015625zm25.695312 227.945313h45.792969l-3.40625 17.03125h-38.980469zm6.414063 32.0625h32.96875l-1.804687 9.015625h-29.359376zm4.808594 24.046875h23.347656l-1.800781 9.015625h-19.742188zm0 0"/><path d="m68.59375 310.71875c2.886719 1.546875 6.542969 1.003906 8.859375-1.3125l48.09375-48.09375c4.636719-4.636719 1.238281-12.828125-5.3125-12.828125h-14.882813l6.21875-31.089844c.648438-3.246093-.902343-6.535156-3.820312-8.097656-2.921875-1.566406-6.519531-1.03125-8.863281 1.3125l-48.09375 48.09375c-4.632813 4.636719-1.234375 12.828125 5.316406 12.828125h14.878906l-6.214843 31.089844c-.652344 3.246094.902343 6.535156 3.820312 8.097656zm23.371094-71.933594-3.148438 15.742188c-.914062 4.578125 2.703125 8.988281 7.371094 8.988281h5.90625l-17.71875 17.714844 3.148438-15.742188c.917968-4.578125-2.699219-8.988281-7.367188-8.988281h-5.90625zm0 0"/></svg>